<?xml version="1.0" encoding="UTF-8" standalone="no"?>
<!-- Created with Inkscape (http://www.inkscape.org/) -->

<svg
   xmlns:dc="http://purl.org/dc/elements/1.1/"
   xmlns:cc="http://creativecommons.org/ns#"
   xmlns:rdf="http://www.w3.org/1999/02/22-rdf-syntax-ns#"
   xmlns:svg="http://www.w3.org/2000/svg"
   xmlns="http://www.w3.org/2000/svg"
   xmlns:xlink="http://www.w3.org/1999/xlink"
   xmlns:sodipodi="http://sodipodi.sourceforge.net/DTD/sodipodi-0.dtd"
   xmlns:inkscape="http://www.inkscape.org/namespaces/inkscape"
   width="48"
   height="48"
   id="svg3070"
   version="1.1"
   inkscape:version="0.91 r13725"
   sodipodi:docname="accessories-dictionary.svg">
  <defs
     id="defs3072">
    <linearGradient
       id="linearGradient4422">
      <stop
         id="stop4424"
         offset="0"
         style="stop-color:#fa345d;stop-opacity:1" />
      <stop
         id="stop4426"
         offset="1"
         style="stop-color:#f76a8d;stop-opacity:1" />
    </linearGradient>
    <linearGradient
       inkscape:collect="always"
       xlink:href="#linearGradient4422"
       id="linearGradient4155"
       x1="154.787"
       y1="860.27148"
       x2="152.60472"
       y2="287.48511"
       gradientUnits="userSpaceOnUse"
       gradientTransform="translate(0,4)" />
  </defs>
  <sodipodi:namedview
     id="base"
     pagecolor="#5a5a5a"
     bordercolor="#666666"
     borderopacity="1.0"
     inkscape:pageopacity="0"
     inkscape:pageshadow="2"
     inkscape:zoom="6.9419819"
     inkscape:cx="-7.1405743"
     inkscape:cy="27.387858"
     inkscape:document-units="px"
     inkscape:current-layer="g4305"
     showgrid="false"
     inkscape:window-width="1362"
     inkscape:window-height="642"
     inkscape:window-x="0"
     inkscape:window-y="33"
     inkscape:window-maximized="0"
     inkscape:snap-bbox="true"
     inkscape:bbox-nodes="true"
     inkscape:object-nodes="true"
     showguides="true"
     inkscape:guide-bbox="true"
     showborder="false">
    <inkscape:grid
       type="xygrid"
       id="grid3078"
       empspacing="5"
       visible="true"
       enabled="true"
       snapvisiblegridlinesonly="true" />
    <sodipodi:guide
       position="52.00244,-8.2109116"
       orientation="0,1"
       id="guide4303" />
  </sodipodi:namedview>
  <metadata
     id="metadata3075">
    <rdf:RDF>
      <cc:Work
         rdf:about="">
        <dc:format>image/svg+xml</dc:format>
        <dc:type
           rdf:resource="http://purl.org/dc/dcmitype/StillImage" />
        <dc:title></dc:title>
      </cc:Work>
    </rdf:RDF>
  </metadata>
  <g
     inkscape:label="Layer 1"
     inkscape:groupmode="layer"
     id="layer1"
     transform="translate(0,-1004.3622)">
    <g
       id="g4834"
       transform="matrix(0.92825149,-0.00399164,0.00399164,0.92825149,-1.6884203,74.696618)">
      <g
         id="g4300"
         transform="matrix(0.9493552,-0.31420489,0.31420489,0.9493552,-322.17252,59.718675)">
        <g
           id="g4366"
           transform="translate(61.478649,17.667143)">
          <g
             id="g4375"
             transform="matrix(0.23687962,-0.0242292,0.0242292,0.23687962,-39.613973,771.51877)">
            <g
               id="g4384"
               transform="matrix(0.99977561,-0.02118335,0.02118335,0.99977561,-21.155468,-1.6912184)">
              <g
                 id="g4305"
                 transform="matrix(0.9990508,0.04356037,-0.04356037,0.9990508,41.345981,3.1860924)">
                <g
                   id="g4209"
                   transform="matrix(0.32199667,0.10726655,-0.10726655,0.32199667,-74.354945,790.41579)">
                  <path
                     style="opacity:1;fill:#ae0024;fill-opacity:1;fill-rule:evenodd;stroke:none;stroke-width:1px;stroke-linecap:butt;stroke-linejoin:miter;stroke-opacity:1"
                     d="m -75.00144,343.87513 -0.299995,521.74943 c -2.401587,22.20635 27.414543,23.44206 27.414543,23.44206 l 370.730412,0 c 0,0 54.50154,-2.90347 54.63954,-67.62618 l -0.49448,-450.56251 c 0,0 0.48289,-52.50323 -54.14506,-52.15532 l -370.730412,2.39257 c 0,0 -27.201013,0.33711 -27.114548,22.75995 z"
                     id="path4147-3"
                     inkscape:connector-curvature="0"
                     sodipodi:nodetypes="ccccccccc" />
                  <path
                     style="opacity:1;fill:url(#linearGradient4155);fill-opacity:1;fill-rule:evenodd;stroke:none;stroke-width:1px;stroke-linecap:butt;stroke-linejoin:miter;stroke-opacity:1"
                     d="m -76.127,328.3557 0,521.74944 c -2.39365,22.20635 23.252144,22.9182 23.252144,22.9182 L 320.404,873.5472 c 0,0 56.02146,-2.90347 56.159,-67.62618 l 0,-450.56252 c 0,0 -1.71142,-52.50323 -56.159,-52.15532 l -378.884261,3.01095 c 0,0 -17.732919,-0.28127 -17.646739,22.14157 z"
                     id="path4147"
                     inkscape:connector-curvature="0"
                     sodipodi:nodetypes="ccccccccc" />
                  <path
                     style="fill:none;fill-rule:evenodd;stroke:#ae0024;stroke-width:5.33210897;stroke-linecap:butt;stroke-linejoin:miter;stroke-miterlimit:4;stroke-dasharray:none;stroke-opacity:1"
                     d="m -51.758035,306.51987 0,567.99148"
                     id="path4181"
                     inkscape:connector-curvature="0"
                     sodipodi:nodetypes="cc" />
                </g>
                <path
                   style="opacity:1;fill:#ae0024;fill-opacity:1;fill-rule:evenodd;stroke:none;stroke-width:3.17414498px;stroke-linecap:butt;stroke-linejoin:miter;stroke-opacity:1"
                   d="m -123.90019,883.56226 -18.83109,53.81565 19.52566,-6.87512 13.05428,17.12058 17.5389,-53.94521 z"
                   id="path4199"
                   inkscape:connector-curvature="0"
                   sodipodi:nodetypes="cccccc" />
                <g
                   transform="matrix(0.95254389,0.30440129,-0.30440129,0.95254389,0,0)"
                   style="font-style:normal;font-weight:normal;font-size:61.09959793px;line-height:125%;font-family:sans-serif;letter-spacing:0px;word-spacing:0px;fill:#ae0024;fill-opacity:1;stroke:none;stroke-width:1px;stroke-linecap:butt;stroke-linejoin:miter;stroke-opacity:1"
                   id="text4312-3">
                  <path
                     d="m 174.17564,983.25366 16.34892,0 -8.17446,-21.18199 -8.17446,21.18199 z m -12.58986,16.14008 0,-3.16238 3.90823,0 15.87157,-41.37947 5.01208,0 15.90141,41.37947 4.38556,0 0,3.16238 -16.19974,0 0,-3.16238 4.95241,0 -3.72923,-9.78549 -18.73562,0 -3.72922,9.78549 4.89274,0 0,3.16238 -12.53019,0 z"
                     style="font-style:normal;font-variant:normal;font-weight:normal;font-stretch:normal;font-family:'DejaVu Serif';-inkscape-font-specification:'DejaVu Serif';fill:#ae0024;fill-opacity:1"
                     id="path4306" />
                  <path
                     d="m 213.13857,996.23136 0,-40.09661 -5.28058,0 0,-3.16239 10.76999,0 0,19.66047 q 1.61103,-2.98338 4.08723,-4.38557 2.50604,-1.43202 6.1756,-1.43202 5.84742,0 9.54681,4.62424 3.69939,4.62424 3.69939,12.08268 0,7.45845 -3.69939,12.11252 -3.69939,4.62422 -9.54681,4.62422 -3.66956,0 -6.1756,-1.40217 -2.4762,-1.43202 -4.08723,-4.4154 l 0,4.95241 -10.76999,0 0,-3.16238 5.28058,0 z m 5.48941,-11.12801 q 0,5.72809 2.17787,8.7413 2.2077,2.98338 6.38443,2.98338 4.20657,0 6.3546,-3.37122 2.17787,-3.37121 2.17787,-9.93465 0,-6.59326 -2.17787,-9.93465 -2.14803,-3.34138 -6.3546,-3.34138 -4.17673,0 -6.38443,3.01321 -2.17787,3.01321 -2.17787,8.71147 l 0,3.13254 z"
                     style="font-style:normal;font-variant:normal;font-weight:normal;font-stretch:normal;font-family:'DejaVu Serif';-inkscape-font-specification:'DejaVu Serif';fill:#ae0024;fill-opacity:1"
                     id="path4308" />
                  <path
                     d="m 276.6547,989.87676 q -1.16352,5.07174 -4.47507,7.72695 -3.31155,2.65519 -8.56229,2.65519 -6.92144,0 -11.12801,-4.56455 -4.20656,-4.59441 -4.20656,-12.17219 0,-7.60761 4.20656,-12.14235 4.20657,-4.56457 11.12801,-4.56457 3.01321,0 5.99659,0.71601 2.98338,0.68618 5.99659,2.1182 l 0,8.11479 -3.19222,0 q -0.62651,-4.17673 -2.7447,-6.08609 -2.08837,-1.90936 -5.9966,-1.90936 -4.44523,0 -6.7126,3.46072 -2.26737,3.43088 -2.26737,10.29265 0,6.86177 2.23754,10.32249 2.26737,3.46072 6.74243,3.46072 3.55023,0 5.66842,-1.84969 2.1182,-1.8497 2.89388,-5.57892 l 4.4154,0 z"
                     style="font-style:normal;font-variant:normal;font-weight:normal;font-stretch:normal;font-family:'DejaVu Serif';-inkscape-font-specification:'DejaVu Serif';fill:#ae0024;fill-opacity:1"
                     id="path4310" />
                </g>
              </g>
            </g>
          </g>
        </g>
      </g>
    </g>
  </g>
</svg>
