<?xml version="1.0" encoding="UTF-8" standalone="no"?>
<!-- Created with Inkscape (http://www.inkscape.org/) -->

<svg
   xmlns:dc="http://purl.org/dc/elements/1.1/"
   xmlns:cc="http://creativecommons.org/ns#"
   xmlns:rdf="http://www.w3.org/1999/02/22-rdf-syntax-ns#"
   xmlns:svg="http://www.w3.org/2000/svg"
   xmlns="http://www.w3.org/2000/svg"
   xmlns:xlink="http://www.w3.org/1999/xlink"
   xmlns:sodipodi="http://sodipodi.sourceforge.net/DTD/sodipodi-0.dtd"
   xmlns:inkscape="http://www.inkscape.org/namespaces/inkscape"
   width="48"
   height="48"
   id="svg3197"
   version="1.1"
   inkscape:version="0.91 r13725"
   sodipodi:docname="hwinfo.svg">
  <defs
     id="defs3199">
    <linearGradient
       id="linearGradient4172">
      <stop
         style="stop-color:#3dc796;stop-opacity:1"
         offset="0"
         id="stop4174" />
      <stop
         style="stop-color:#57d68d;stop-opacity:1"
         offset="1"
         id="stop4176" />
    </linearGradient>
    <linearGradient
       inkscape:collect="always"
       id="linearGradient5146">
      <stop
         style="stop-color:#d5dbff;stop-opacity:1"
         offset="0"
         id="stop5148" />
      <stop
         style="stop-color:#ebedff;stop-opacity:1"
         offset="1"
         id="stop5150" />
    </linearGradient>
    <linearGradient
       inkscape:collect="always"
       xlink:href="#linearGradient4172"
       id="linearGradient5161"
       x1="12.203294"
       y1="1029.4965"
       x2="36.07457"
       y2="1029.4965"
       gradientUnits="userSpaceOnUse" />
    <linearGradient
       inkscape:collect="always"
       xlink:href="#linearGradient5146"
       id="linearGradient5193"
       x1="201.09962"
       y1="383.53702"
       x2="199.86996"
       y2="20.010773"
       gradientUnits="userSpaceOnUse" />
    <linearGradient
       inkscape:collect="always"
       xlink:href="#linearGradient4288-0"
       id="linearGradient4318"
       gradientUnits="userSpaceOnUse"
       x1="201.09962"
       y1="383.53702"
       x2="199.86996"
       y2="20.010773" />
    <linearGradient
       inkscape:collect="always"
       xlink:href="#linearGradient4288-0"
       id="linearGradient4326"
       gradientUnits="userSpaceOnUse"
       x1="201.09962"
       y1="383.53702"
       x2="199.86996"
       y2="20.010773" />
    <linearGradient
       inkscape:collect="always"
       id="linearGradient4159-7">
      <stop
         style="stop-color:#1d1e1e;stop-opacity:1"
         offset="0"
         id="stop4161-4" />
      <stop
         style="stop-color:#44484c;stop-opacity:1"
         offset="1"
         id="stop4163-9" />
    </linearGradient>
    <linearGradient
       inkscape:collect="always"
       id="linearGradient4288-0">
      <stop
         style="stop-color:#00a199;stop-opacity:1"
         offset="0"
         id="stop4290-7" />
      <stop
         style="stop-color:#00f89a;stop-opacity:0.98823529"
         offset="1"
         id="stop4292-0" />
    </linearGradient>
    <linearGradient
       inkscape:collect="always"
       xlink:href="#linearGradient4288-0"
       id="linearGradient4868"
       x1="400.98297"
       y1="546.02856"
       x2="399.35519"
       y2="517.54968"
       gradientUnits="userSpaceOnUse" />
    <linearGradient
       inkscape:collect="always"
       xlink:href="#linearGradient4288-0"
       id="linearGradient4878"
       x1="394.89221"
       y1="544.88885"
       x2="394.8396"
       y2="517.43317"
       gradientUnits="userSpaceOnUse" />
    <linearGradient
       inkscape:collect="always"
       xlink:href="#linearGradient4159-7"
       id="linearGradient4887"
       x1="400.98297"
       y1="546.02856"
       x2="399.35519"
       y2="517.54968"
       gradientUnits="userSpaceOnUse" />
    <linearGradient
       inkscape:collect="always"
       xlink:href="#linearGradient4159-7"
       id="linearGradient4889"
       gradientUnits="userSpaceOnUse"
       x1="400.98297"
       y1="546.02856"
       x2="399.35519"
       y2="517.54968" />
    <linearGradient
       inkscape:collect="always"
       xlink:href="#linearGradient4288-0"
       id="linearGradient4891"
       gradientUnits="userSpaceOnUse"
       x1="394.89221"
       y1="544.88885"
       x2="394.8396"
       y2="517.43317" />
    <linearGradient
       inkscape:collect="always"
       xlink:href="#linearGradient4159-7"
       id="linearGradient4893"
       gradientUnits="userSpaceOnUse"
       x1="400.98297"
       y1="546.02856"
       x2="399.35519"
       y2="517.54968" />
    <linearGradient
       inkscape:collect="always"
       xlink:href="#linearGradient4288-0"
       id="linearGradient4895"
       gradientUnits="userSpaceOnUse"
       x1="394.89221"
       y1="544.88885"
       x2="394.8396"
       y2="517.43317" />
    <linearGradient
       inkscape:collect="always"
       xlink:href="#linearGradient4159-7"
       id="linearGradient4897"
       gradientUnits="userSpaceOnUse"
       x1="400.98297"
       y1="546.02856"
       x2="399.35519"
       y2="517.54968" />
    <linearGradient
       inkscape:collect="always"
       xlink:href="#linearGradient4288-0"
       id="linearGradient4899"
       gradientUnits="userSpaceOnUse"
       x1="394.89221"
       y1="544.88885"
       x2="394.8396"
       y2="517.43317" />
    <linearGradient
       inkscape:collect="always"
       xlink:href="#linearGradient4159-7"
       id="linearGradient4901"
       gradientUnits="userSpaceOnUse"
       x1="400.98297"
       y1="546.02856"
       x2="399.35519"
       y2="517.54968" />
    <linearGradient
       inkscape:collect="always"
       xlink:href="#linearGradient4288-0"
       id="linearGradient4903"
       gradientUnits="userSpaceOnUse"
       x1="394.89221"
       y1="544.88885"
       x2="394.8396"
       y2="517.43317" />
    <linearGradient
       inkscape:collect="always"
       xlink:href="#linearGradient4159-7"
       id="linearGradient4905"
       gradientUnits="userSpaceOnUse"
       x1="400.98297"
       y1="546.02856"
       x2="399.35519"
       y2="517.54968" />
  </defs>
  <sodipodi:namedview
     id="base"
     pagecolor="#5a5a5a"
     bordercolor="#666666"
     borderopacity="1.0"
     inkscape:pageopacity="0"
     inkscape:pageshadow="2"
     inkscape:zoom="7.0177677"
     inkscape:cx="28.349049"
     inkscape:cy="20.144168"
     inkscape:document-units="px"
     inkscape:current-layer="layer1"
     showgrid="false"
     inkscape:window-width="1366"
     inkscape:window-height="642"
     inkscape:window-x="0"
     inkscape:window-y="33"
     inkscape:window-maximized="1"
     inkscape:snap-bbox="true"
     inkscape:bbox-nodes="true"
     inkscape:snap-center="true"
     showguides="false"
     showborder="false">
    <inkscape:grid
       type="xygrid"
       id="grid3257"
       empspacing="5"
       visible="true"
       enabled="true"
       snapvisiblegridlinesonly="true" />
  </sodipodi:namedview>
  <metadata
     id="metadata3202">
    <rdf:RDF>
      <cc:Work
         rdf:about="">
        <dc:format>image/svg+xml</dc:format>
        <dc:type
           rdf:resource="http://purl.org/dc/dcmitype/StillImage" />
        <dc:title></dc:title>
      </cc:Work>
    </rdf:RDF>
  </metadata>
  <g
     inkscape:label="Layer 1"
     inkscape:groupmode="layer"
     id="layer1"
     transform="translate(0,-1004.3622)">
    <g
       id="g4321"
       transform="matrix(0.99784144,0,0,0.99784144,-0.07376377,2.1215675)">
      <g
         style="fill:url(#linearGradient4887);fill-opacity:1;stroke:url(#linearGradient4868);stroke-width:0.89756787;stroke-miterlimit:4;stroke-dasharray:none;stroke-opacity:1"
         inkscape:label="Capa 1"
         id="layer1-4"
         transform="matrix(1.6253807,0,0,1.6253807,-626.98113,163.99831)">
        <g
           id="layer1-39"
           inkscape:label="Capa 1"
           transform="translate(-0.11123528,0.03124873)"
           style="fill:url(#linearGradient4905);fill-opacity:1;stroke:url(#linearGradient4878);stroke-width:0.89756787;stroke-miterlimit:4;stroke-dasharray:none;stroke-opacity:1">
          <g
             style="fill:url(#linearGradient4901);fill-opacity:1;stroke:url(#linearGradient4903);stroke-width:0.89756787;stroke-miterlimit:4;stroke-dasharray:none;stroke-opacity:1"
             transform="translate(0.13524268,0.04517549)"
             inkscape:label="Capa 1"
             id="layer1-3">
            <circle
               style="opacity:1;fill:url(#linearGradient4889);fill-opacity:1;stroke:url(#linearGradient4891);stroke-width:0.89756787;stroke-miterlimit:4;stroke-dasharray:none;stroke-dashoffset:0;stroke-opacity:1"
               id="path3377"
               cx="400.57138"
               cy="531.79791"
               r="13.999958" />
            <circle
               r="13.999958"
               cy="531.79797"
               cx="400.57144"
               id="circle4174"
               style="opacity:1;fill:url(#linearGradient4893);fill-opacity:1;stroke:url(#linearGradient4895);stroke-width:0.89756787;stroke-miterlimit:4;stroke-dasharray:none;stroke-dashoffset:0;stroke-opacity:1" />
            <circle
               r="0"
               cy="531.79791"
               cx="400.57138"
               id="ellipse4233"
               style="opacity:1;fill:url(#linearGradient4897);fill-opacity:1;stroke:url(#linearGradient4899);stroke-width:0.89756787;stroke-miterlimit:4;stroke-dasharray:none;stroke-dashoffset:0;stroke-opacity:1" />
          </g>
        </g>
      </g>
      <g
         style="fill:url(#linearGradient5161);fill-opacity:1"
         transform="translate(-2.94e-4,-0.59997442)"
         id="g5140">
        <g
           id="g3"
           transform="matrix(0.05526935,0,0,0.05526935,12.403294,1017.5609)"
           style="fill:url(#linearGradient5193);fill-opacity:1">
          <path
             d="m 423.908,152.051 c 4.418,0 8,-3.582 8,-8 0,-4.418 -3.582,-8 -8,-8 l -24.006,0 0,-31.936 24.006,0 c 4.418,0 8,-3.582 8,-8 0,-4.418 -3.582,-8 -8,-8 l -24.006,0 0,-16.119 c 0,-22.056 -17.944,-40 -40,-40 l -16.109,0 0,-23.996 c 0,-4.418 -3.582,-8 -8,-8 -4.418,0 -8,3.582 -8,8 l 0,23.996 -31.937,0 0,-23.996 c 0,-4.418 -3.582,-8 -8,-8 -4.418,0 -8,3.582 -8,8 l 0,23.996 -31.936,0 0,-23.996 c 0,-4.418 -3.582,-8 -8,-8 -4.418,0 -8,3.582 -8,8 l 0,23.996 -31.935,0 0,-23.996 c 0,-4.418 -3.582,-8 -8,-8 -4.418,0 -8,3.582 -8,8 l 0,23.996 -31.936,0 0,-23.996 c 0,-4.418 -3.582,-8 -8,-8 -4.418,0 -8,3.582 -8,8 l 0,23.996 -31.936,0 0,-23.996 c 0,-4.418 -3.582,-8 -8,-8 -4.418,0 -8,3.582 -8,8 l 0,23.996 -16.128,0 c -22.056,0 -40,17.944 -40,40 l 0,16.119 -23.985,0 c -4.418,0 -8,3.582 -8,8 0,4.418 3.582,8 8,8 l 23.985,0 0,31.936 -23.985,0 c -4.418,0 -8,3.582 -8,8 0,4.418 3.582,8 8,8 l 23.985,0 0,31.936 -23.985,0 c -4.418,0 -8,3.582 -8,8 0,4.418 3.582,8 8,8 l 23.985,0 0,31.935 -23.985,0 c -4.418,0 -8,3.582 -8,8 0,4.418 3.582,8 8,8 l 23.985,0 0,31.936 -23.985,0 c -4.418,0 -8,3.582 -8,8 0,4.418 3.582,8 8,8 l 23.985,0 0,31.936 -23.985,0 c -4.418,0 -8,3.582 -8,8 0,4.418 3.582,8 8,8 l 23.985,0 0,16.119 c 0,22.056 17.944,40 40,40 l 16.128,0 0,23.995 c 0,4.418 3.582,8 8,8 4.418,0 8,-3.582 8,-8 l 0,-23.995 31.936,0 0,23.995 c 0,4.418 3.582,8 8,8 4.418,0 8,-3.582 8,-8 l 0,-23.995 31.936,0 0,23.995 c 0,4.418 3.582,8 8,8 4.418,0 8,-3.582 8,-8 l 0,-23.995 31.935,0 0,23.995 c 0,4.418 3.582,8 8,8 4.418,0 8,-3.582 8,-8 l 0,-23.995 31.936,0 0,23.995 c 0,4.418 3.582,8 8,8 4.418,0 8,-3.582 8,-8 l 0,-23.995 31.937,0 0,23.995 c 0,4.418 3.582,8 8,8 4.418,0 8,-3.582 8,-8 l 0,-23.995 16.109,0 c 22.056,0 40,-17.944 40,-40 l 0,-16.119 24.006,0 c 4.418,0 8,-3.582 8,-8 0,-4.418 -3.582,-8 -8,-8 l -24.006,0 0,-31.936 24.006,0 c 4.418,0 8,-3.582 8,-8 0,-4.418 -3.582,-8 -8,-8 l -24.006,0 0,-31.936 24.006,0 c 4.418,0 8,-3.582 8,-8 0,-4.418 -3.582,-8 -8,-8 l -24.006,0 0,-31.935 24.006,0 c 4.418,0 8,-3.582 8,-8 0,-4.418 -3.582,-8 -8,-8 l -24.006,0 0,-31.936 24.006,0 z m -40.006,207.861 c 0,13.233 -10.767,24 -24,24 l -287.917,0 c -13.233,0 -24,-10.767 -24,-24 l 0,-287.916 c 0,-13.234 10.767,-24 24,-24 l 287.917,0 c 13.233,0 24,10.766 24,24 l 0,287.916 z"
             id="path5"
             inkscape:connector-curvature="0"
             style="fill:url(#linearGradient4326);fill-opacity:1" />
          <path
             d="m 343.777,72.121 -255.667,0 c -8.822,0 -16,7.177 -16,16 l 0,255.667 c 0,8.822 7.178,16 16,16 l 255.667,0 c 8.822,0 16,-7.178 16,-16 l 0,-255.667 c 0,-8.823 -7.178,-16 -16,-16 z"
             id="path7"
             inkscape:connector-curvature="0"
             style="fill:url(#linearGradient4318);fill-opacity:1"
             sodipodi:nodetypes="sssssssss" />
        </g>
        <path
           d="m 24.349294,1025.4556 c -0.552,0 -1,0.4381 -1,1 0,0.5419 0.4478,0.9999 1,0.9999 0.552,0 1,-0.458 1,-0.9999 0,-0.542 -0.44742,-1 -1,-1 z m 0,2.998 c -0.552,0 -1,0.4581 -1,1 l 0,3 c 0,0.542 0.4478,1 1,1 0.552,0 1,-0.4581 1,-1 l 0,-3 c 0,-0.542 -0.44742,-1 -1,-1 z"
           id="path8"
           inkscape:connector-curvature="0"
           sodipodi:nodetypes="ssssssssssss"
           style="fill:#2f3234;fill-opacity:1" />
      </g>
    </g>
  </g>
</svg>
