<?xml version="1.0" encoding="UTF-8" standalone="no"?>
<!-- Created with Inkscape (http://www.inkscape.org/) -->

<svg
   xmlns:dc="http://purl.org/dc/elements/1.1/"
   xmlns:cc="http://creativecommons.org/ns#"
   xmlns:rdf="http://www.w3.org/1999/02/22-rdf-syntax-ns#"
   xmlns:svg="http://www.w3.org/2000/svg"
   xmlns="http://www.w3.org/2000/svg"
   xmlns:xlink="http://www.w3.org/1999/xlink"
   xmlns:sodipodi="http://sodipodi.sourceforge.net/DTD/sodipodi-0.dtd"
   xmlns:inkscape="http://www.inkscape.org/namespaces/inkscape"
   width="48"
   height="48"
   id="svg5453"
   version="1.1"
   inkscape:version="0.91 r13725"
   sodipodi:docname="virtualbox.svg">
  <defs
     id="defs5455">
    <linearGradient
       inkscape:collect="always"
       id="linearGradient4349">
      <stop
         style="stop-color:#01a8ec;stop-opacity:1"
         offset="0"
         id="stop4351" />
      <stop
         style="stop-color:#74d8ff;stop-opacity:1"
         offset="1"
         id="stop4353" />
    </linearGradient>
    <linearGradient
       inkscape:collect="always"
       id="linearGradient4339">
      <stop
         style="stop-color:#00b2ed;stop-opacity:1"
         offset="0"
         id="stop4341" />
      <stop
         style="stop-color:#009bdb;stop-opacity:1"
         offset="1"
         id="stop4343" />
    </linearGradient>
    <linearGradient
       inkscape:collect="always"
       id="linearGradient4331">
      <stop
         style="stop-color:#7ccbea;stop-opacity:1"
         offset="0"
         id="stop4333" />
      <stop
         style="stop-color:#00b9ff;stop-opacity:1"
         offset="1"
         id="stop4335" />
    </linearGradient>
    <linearGradient
       inkscape:collect="always"
       xlink:href="#linearGradient4331"
       id="linearGradient4337"
       x1="98.123421"
       y1="1517.4567"
       x2="510.5639"
       y2="828.57574"
       gradientUnits="userSpaceOnUse" />
    <linearGradient
       inkscape:collect="always"
       xlink:href="#linearGradient4339"
       id="linearGradient4347"
       x1="-323.8826"
       y1="1270.6443"
       x2="75.681633"
       y2="1061.4048"
       gradientUnits="userSpaceOnUse" />
    <linearGradient
       inkscape:collect="always"
       xlink:href="#linearGradient4349"
       id="linearGradient4355"
       x1="73.726746"
       y1="1076.3948"
       x2="90.761726"
       y2="571.00085"
       gradientUnits="userSpaceOnUse" />
  </defs>
  <sodipodi:namedview
     id="base"
     pagecolor="#5a5a5a"
     bordercolor="#666666"
     borderopacity="1.0"
     inkscape:pageopacity="0"
     inkscape:pageshadow="2"
     inkscape:zoom="6.6431949"
     inkscape:cx="14.193583"
     inkscape:cy="26.877754"
     inkscape:document-units="px"
     inkscape:current-layer="g4689"
     showgrid="false"
     fit-margin-top="0"
     fit-margin-left="0"
     fit-margin-right="0"
     fit-margin-bottom="0"
     inkscape:window-width="1366"
     inkscape:window-height="642"
     inkscape:window-x="0"
     inkscape:window-y="33"
     inkscape:window-maximized="1"
     inkscape:showpageshadow="false"
     borderlayer="true"
     showguides="false"
     inkscape:guide-bbox="true"
     showborder="false">
    <inkscape:grid
       type="xygrid"
       id="grid4063" />
    <sodipodi:guide
       position="1.1650391e-05,47.999996"
       orientation="4,0"
       id="guide4146" />
    <sodipodi:guide
       position="1.1650391e-05,43.999996"
       orientation="0,48"
       id="guide4148" />
    <sodipodi:guide
       position="48.000012,43.999996"
       orientation="-4,0"
       id="guide4150" />
    <sodipodi:guide
       position="48.000012,47.999996"
       orientation="0,-48"
       id="guide4152" />
    <sodipodi:guide
       position="1.1650391e-05,4.0000264"
       orientation="4,0"
       id="guide4154" />
    <sodipodi:guide
       position="1.1650391e-05,2.6367188e-05"
       orientation="0,48"
       id="guide4156" />
    <sodipodi:guide
       position="48.000012,2.6367188e-05"
       orientation="-4,0"
       id="guide4158" />
    <sodipodi:guide
       position="48.000012,4.0000264"
       orientation="0,-48"
       id="guide4160" />
    <sodipodi:guide
       position="48.000012,48.000026"
       orientation="0,-4"
       id="guide4162" />
    <sodipodi:guide
       position="44.000012,48.000026"
       orientation="48,0"
       id="guide4164" />
    <sodipodi:guide
       position="44.000012,2.6367188e-05"
       orientation="0,4"
       id="guide4166" />
    <sodipodi:guide
       position="48.000012,2.6367188e-05"
       orientation="-48,0"
       id="guide4168" />
    <sodipodi:guide
       position="4.0000422,48.000026"
       orientation="0,-4"
       id="guide4170" />
    <sodipodi:guide
       position="4.2167969e-05,48.000026"
       orientation="48,0"
       id="guide4172" />
    <sodipodi:guide
       position="4.2167969e-05,2.6367188e-05"
       orientation="0,4"
       id="guide4174" />
    <sodipodi:guide
       position="4.0000422,2.6367188e-05"
       orientation="-48,0"
       id="guide4176" />
    <sodipodi:guide
       position="676.67538,311.16197"
       orientation="0,1"
       id="guide4518" />
  </sodipodi:namedview>
  <metadata
     id="metadata5458">
    <rdf:RDF>
      <cc:Work
         rdf:about="">
        <dc:format>image/svg+xml</dc:format>
        <dc:type
           rdf:resource="http://purl.org/dc/dcmitype/StillImage" />
        <dc:title></dc:title>
      </cc:Work>
    </rdf:RDF>
  </metadata>
  <g
     inkscape:label="Capa 1"
     inkscape:groupmode="layer"
     id="layer1"
     transform="translate(-384.57143,-499.798)">
    <g
       id="g4990"
       transform="matrix(1.1474782,0,0,1.1474782,-136.4633,-79.725609)">
      <g
         transform="matrix(0.1995649,0,0,0.1995649,331.06912,483.97392)"
         id="g4677">
        <g
           id="g4689"
           transform="matrix(0.17549405,0,0,0.16855979,705.78518,31.822854)">
          <path
             sodipodi:nodetypes="ccccc"
             inkscape:connector-curvature="0"
             id="path4297-7"
             d="M 82.028076,1539.9862 507.34486,1289.7267 504.44966,818.92235 82.028076,1059.9211 Z"
             style="opacity:1;fill:url(#linearGradient4337);fill-opacity:1;fill-rule:evenodd;stroke:none;stroke-width:4.36688137px;stroke-linecap:butt;stroke-linejoin:miter;stroke-opacity:1" />
          <path
             sodipodi:nodetypes="ccccc"
             inkscape:connector-curvature="0"
             id="path4297-7-0"
             d="M 82.119773,1541.0423 -343.197,1290.7828 -340.3018,819.97854 82.119773,1060.9772 Z"
             style="opacity:1;fill:url(#linearGradient4347);fill-opacity:1;fill-rule:evenodd;stroke:none;stroke-width:4.36688137px;stroke-linecap:butt;stroke-linejoin:miter;stroke-opacity:1" />
          <path
             sodipodi:nodetypes="ccccc"
             inkscape:connector-curvature="0"
             id="path4329"
             d="M -341.53322,821.22299 84.128549,574.45926 506.02169,821.3147 81.854147,1063.2792 Z"
             style="opacity:1;fill:url(#linearGradient4355);fill-opacity:1;fill-rule:evenodd;stroke:none;stroke-width:4.36688137px;stroke-linecap:butt;stroke-linejoin:miter;stroke-opacity:1" />
          <path
             sodipodi:nodetypes="ccccc"
             inkscape:connector-curvature="0"
             id="path4297-7-6"
             d="m 80.113696,1677.9859 536.756914,-318.2623 0,-607.99244 -536.756914,313.19304 z"
             style="opacity:1;fill:#c2e5ff;fill-opacity:0.48230088;fill-rule:evenodd;stroke:none;stroke-width:4.36688137px;stroke-linecap:butt;stroke-linejoin:miter;stroke-opacity:1" />
          <path
             sodipodi:nodetypes="ccccc"
             inkscape:connector-curvature="0"
             id="path4297-7-6-6"
             d="m 81.52011,1677.9858 -533.08127,-318.2623 0,-607.99239 533.08127,313.19299 z"
             style="opacity:1;fill:#c2e5ff;fill-opacity:0.50884956;fill-rule:evenodd;stroke:none;stroke-width:4.36688137px;stroke-linecap:butt;stroke-linejoin:miter;stroke-opacity:1" />
          <g
             style="fill:#ffffff;fill-opacity:1"
             inkscape:transform-center-y="3.7849783"
             inkscape:transform-center-x="1.0844009"
             transform="matrix(2.6379921,1.6605418,-2.1459459,1.9372958,58.131036,566.16069)"
             id="g3">
            <path
               style="fill:#ffffff;fill-opacity:1"
               inkscape:connector-curvature="0"
               id="path5"
               d="m 88.947,67.734 c 0,1.544 -1.252,2.802 -2.801,2.802 l -17.157,0 c -1.401,0 -2.583,-1.028 -2.763,-2.419 L 63.193,46.348 57.07,102.361 c -0.147,1.319 -1.216,2.375 -2.561,2.474 -0.079,0.005 -0.145,0.013 -0.229,0.013 -1.251,0 -2.354,-0.822 -2.685,-2.043 l -9.126,-32.46 -8.988,17.078 c -0.539,1.028 -1.667,1.653 -2.813,1.479 -1.159,-0.139 -2.101,-0.976 -2.388,-2.101 l -4.375,-17.49 -21.102,0 C 1.262,69.312 0,68.052 0,66.51 0,64.961 1.262,63.708 2.803,63.708 l 23.285,0 c 1.284,0 2.412,0.875 2.72,2.123 l 3.124,12.487 8.843,-16.789 c 0.528,-1.023 1.631,-1.638 2.764,-1.488 1.137,0.121 2.089,0.925 2.412,2.024 l 7.117,25.319 7.018,-64.09 c 0.149,-1.401 1.321,-2.465 2.743,-2.487 1.576,0.134 2.617,1.026 2.813,2.426 l 5.79,41.699 14.719,0 c 1.544,0.001 2.796,1.26 2.796,2.802 z m 14.824,-2.801 -8.862,0 c -1.54,0 -2.802,1.26 -2.802,2.802 0,1.544 1.262,2.802 2.802,2.802 l 8.862,0 c 1.537,0 2.802,-1.258 2.802,-2.802 0,-1.543 -1.265,-2.802 -2.802,-2.802 z m 19.083,0 -9.431,0 c -1.537,0 -2.802,1.26 -2.802,2.802 0,1.544 1.265,2.802 2.802,2.802 l 9.431,0 c 1.536,0 2.802,-1.258 2.802,-2.802 0,-1.543 -1.266,-2.802 -2.802,-2.802 z" />
          </g>
          <path
             sodipodi:nodetypes="ccccc"
             inkscape:connector-curvature="0"
             id="path4329-9"
             d="M -450.34186,753.65075 83.497064,445.61436 620.53837,749.8124 80.64465,1065.4201 Z"
             style="opacity:1;fill:#c2e5ff;fill-opacity:0.46017701;fill-rule:evenodd;stroke:none;stroke-width:4.36688137px;stroke-linecap:butt;stroke-linejoin:miter;stroke-opacity:1" />
        </g>
      </g>
    </g>
    <g
       transform="translate(480.02992,-501.87561)"
       id="layer1-6"
       inkscape:label="Capa 1">
      <g
         style="fill:none;fill-opacity:1;stroke:#4f96d1;stroke-opacity:1"
         inkscape:label="Capa 1"
         id="layer1-0"
         transform="matrix(0.90537551,0,0,0.90537551,-365.91682,562.06022)" />
      <g
         inkscape:label="Capa 1"
         id="layer1-00"
         transform="translate(-401.01229,510.63371)" />
    </g>
  </g>
</svg>
