<?xml version="1.0" encoding="UTF-8" standalone="no"?>
<!-- Created with Inkscape (http://www.inkscape.org/) -->

<svg
   xmlns:dc="http://purl.org/dc/elements/1.1/"
   xmlns:cc="http://creativecommons.org/ns#"
   xmlns:rdf="http://www.w3.org/1999/02/22-rdf-syntax-ns#"
   xmlns:svg="http://www.w3.org/2000/svg"
   xmlns="http://www.w3.org/2000/svg"
   xmlns:xlink="http://www.w3.org/1999/xlink"
   xmlns:sodipodi="http://sodipodi.sourceforge.net/DTD/sodipodi-0.dtd"
   xmlns:inkscape="http://www.inkscape.org/namespaces/inkscape"
   width="48"
   height="48"
   id="svg5453"
   version="1.1"
   inkscape:version="0.91 r13725"
   sodipodi:docname="yast-hwinfo.svg">
  <defs
     id="defs5455">
    <linearGradient
       id="linearGradient4422">
      <stop
         id="stop4424"
         offset="0"
         style="stop-color:#197ff1;stop-opacity:1" />
      <stop
         id="stop4426"
         offset="1"
         style="stop-color:#21c6fb;stop-opacity:1" />
    </linearGradient>
    <linearGradient
       id="linearGradient4232">
      <stop
         style="stop-color:#3889e9;stop-opacity:1"
         offset="0"
         id="stop4234-0" />
      <stop
         style="stop-color:#5ea5fb;stop-opacity:1"
         offset="1"
         id="stop4236" />
    </linearGradient>
    <linearGradient
       gradientTransform="matrix(0.73846152,0,0,0.73846155,8.3101616,-96.35885)"
       inkscape:collect="always"
       xlink:href="#linearGradient8467-5"
       id="linearGradient5236"
       x1="-42"
       y1="-24"
       x2="-6"
       y2="-24"
       gradientUnits="userSpaceOnUse" />
    <linearGradient
       id="linearGradient8467-5">
      <stop
         id="stop8469-7"
         style="stop-color:#d3d3d3;stop-opacity:1"
         offset="0" />
      <stop
         id="stop8471-0"
         style="stop-color:#fcf9f9;stop-opacity:1"
         offset="1" />
    </linearGradient>
    <linearGradient
       gradientTransform="matrix(0.92307694,0,0,0.92307691,-263.06094,-474.09288)"
       inkscape:collect="always"
       xlink:href="#linearGradient4793"
       id="linearGradient5226"
       x1="410.57144"
       y1="547.79797"
       x2="408.57144"
       y2="499.79797"
       gradientUnits="userSpaceOnUse" />
    <linearGradient
       inkscape:collect="always"
       id="linearGradient4793">
      <stop
         style="stop-color:#4da70e;stop-opacity:1"
         offset="0"
         id="stop4795" />
      <stop
         style="stop-color:#9ded46;stop-opacity:1"
         offset="1"
         id="stop4797" />
    </linearGradient>
  </defs>
  <sodipodi:namedview
     id="base"
     pagecolor="#ffffff"
     bordercolor="#666666"
     borderopacity="1.0"
     inkscape:pageopacity="0"
     inkscape:pageshadow="2"
     inkscape:zoom="4"
     inkscape:cx="5.875"
     inkscape:cy="15.968792"
     inkscape:document-units="px"
     inkscape:current-layer="g4370"
     showgrid="true"
     fit-margin-top="0"
     fit-margin-left="0"
     fit-margin-right="0"
     fit-margin-bottom="0"
     inkscape:window-width="1366"
     inkscape:window-height="687"
     inkscape:window-x="0"
     inkscape:window-y="0"
     inkscape:window-maximized="1"
     inkscape:showpageshadow="false"
     borderlayer="true"
     showguides="false">
    <inkscape:grid
       type="xygrid"
       id="grid4063" />
    <sodipodi:guide
       position="1.1650391e-05,32.000026"
       orientation="32,0"
       id="guide4157" />
    <sodipodi:guide
       position="1.1650391e-05,2.6367188e-05"
       orientation="0,32"
       id="guide4159" />
    <sodipodi:guide
       position="32.000012,2.6367188e-05"
       orientation="-32,0"
       id="guide4161" />
    <sodipodi:guide
       position="32.000012,32.000026"
       orientation="0,-32"
       id="guide4163" />
    <sodipodi:guide
       position="2.0000117,30.000026"
       orientation="28,0"
       id="guide4167" />
    <sodipodi:guide
       position="2.0000117,2.0000264"
       orientation="0,28"
       id="guide4169" />
    <sodipodi:guide
       position="30.000012,2.0000264"
       orientation="-28,0"
       id="guide4171" />
    <sodipodi:guide
       position="30.000012,30.000026"
       orientation="0,-28"
       id="guide4173" />
    <sodipodi:guide
       position="2.0000117,30.000026"
       orientation="28,0"
       id="guide4181" />
    <sodipodi:guide
       position="2.0000117,2.0000264"
       orientation="0,14"
       id="guide4183" />
    <sodipodi:guide
       position="16.000012,2.0000264"
       orientation="-28,0"
       id="guide4185" />
    <sodipodi:guide
       position="16.000012,30.000026"
       orientation="0,-14"
       id="guide4187" />
    <sodipodi:guide
       position="9.0000117,23.000026"
       orientation="14,0"
       id="guide4193" />
    <sodipodi:guide
       position="9.0000117,9.0000264"
       orientation="0,14.000031"
       id="guide4195" />
    <sodipodi:guide
       position="23.000042,9.0000264"
       orientation="-14,0"
       id="guide4197" />
    <sodipodi:guide
       position="23.000042,23.000026"
       orientation="0,-14.000031"
       id="guide4199" />
  </sodipodi:namedview>
  <metadata
     id="metadata5458">
    <rdf:RDF>
      <cc:Work
         rdf:about="">
        <dc:format>image/svg+xml</dc:format>
        <dc:type
           rdf:resource="http://purl.org/dc/dcmitype/StillImage" />
        <dc:title></dc:title>
      </cc:Work>
    </rdf:RDF>
  </metadata>
  <g
     inkscape:label="Capa 1"
     inkscape:groupmode="layer"
     id="layer1"
     transform="translate(-384.57143,-499.798)">
    <g
       style="display:inline;enable-background:new"
       id="g4238"
       transform="translate(225.81911,462.44565)">
      <g
         style="display:inline"
         id="layer1-8"
         transform="matrix(0.22655187,0,0,0.22655187,106.94841,54.31088)">
        <g
           style="display:none"
           id="layer6" />
        <g
           id="g4027" />
        <g
           id="g4061" />
        <g
           id="g3751" />
        <g
           id="g3782" />
        <g
           id="g3725" />
        <g
           id="g4370"
           transform="matrix(4.4140002,0,0,4.4140002,59.275211,39.357303)">
          <g
             id="g4684"
             transform="translate(-51.706932,-11.28794)">
            <rect
               style="opacity:1;fill:url(#linearGradient5226);fill-opacity:1;fill-rule:evenodd;stroke:none;stroke-width:3;stroke-linecap:round;stroke-linejoin:miter;stroke-miterlimit:4;stroke-dasharray:none;stroke-dashoffset:0;stroke-opacity:1"
               id="rect5218"
               width="48"
               height="48"
               x="90.081932"
               y="-14.587061"
               ry="1.3846154" />
            <rect
               x="-22.705221"
               y="-127.37424"
               width="26.584614"
               height="26.584616"
               transform="matrix(0,-1,-1,0,0,0)"
               rx="1.3292307"
               ry="1.6615385"
               id="rect4203-4"
               style="fill:url(#linearGradient5236);fill-opacity:1" />
            <path
               d="m 122.13351,7.1799068 c -0.76501,-3.586956 -7.9807,-3.814401 -12.63141,-1.081303 l 0,0.301839 c 4.64493,-2.306451 11.23567,-2.291742 11.83582,1.012553 0.2021,1.094648 -0.43442,2.233094 -1.57573,2.8881262 l 0,0.857242 c 1.3739,-0.484918 2.77824,-2.0544292 2.37141,-3.9784052 m -8.45805,6.2805792 c -3.20957,0.285716 -6.5539,-0.164005 -7.02217,-2.58648 -0.23256,-1.1926762 0.33348,-2.4586602 1.08037,-3.2443792 l 0,-0.420547 c -1.34638,1.139997 -2.07769,2.581969 -1.65544,4.2845632 0.53852,2.18488 3.40869,3.421588 7.79053,3.00979 1.73494,-0.161124 4.00544,-0.700379 5.58104,-1.536944 l 0,-1.18854 c -1.43201,0.824957 -3.80041,1.506493 -5.77409,1.682199 z"
               id="path6"
               inkscape:connector-curvature="0"
               style="opacity:1;fill:#6bc123;fill-opacity:1" />
            <path
               d="m 119.81558,6.5930838 -0.88805,0 0,3.7327262 c 0,0.438402 0.22288,0.819684 0.88805,0.880162"
               id="path8"
               inkscape:connector-curvature="0"
               style="opacity:1;fill:#6bc123;fill-opacity:1" />
            <path
               d="m 109.236,7.9571818 -0.88815,0 0,2.4380582 c 0,0.438568 0.22288,0.819737 0.88815,0.880163"
               id="path10"
               inkscape:connector-curvature="0"
               style="opacity:1;fill:#6bc123;fill-opacity:1" />
            <rect
               height="0.79405409"
               x="108.34759"
               width="0.88815045"
               y="6.7065811"
               id="rect12"
               style="opacity:1;fill:#6bc123;fill-opacity:1" />
            <path
               d="m 114.55794,11.236345 c -0.72011,0 -1.02366,-0.471946 -1.02366,-0.937711 l 0,-3.2380272 0.87845,0 0,0.896841 0.66519,0 0,0.671499 -0.66519,0 0,1.6198122 c 0,0.1905 0.0969,0.294971 0.30672,0.294971 l 0.35849,0 0,0.692652 -0.51995,0"
               id="path14"
               inkscape:connector-curvature="0"
               style="opacity:1;fill:#6bc123;fill-opacity:1" />
            <path
               d="m 116.89312,8.5880768 c -0.30027,0 -0.53274,0.146667 -0.62966,0.344824 -0.0581,0.119433 -0.0775,0.210215 -0.0871,0.356994 l 1.35963,0 c -0.0194,-0.358513 -0.19068,-0.701818 -0.64284,-0.701818 m -0.71679,1.267439 c 0,0.4250172 0.28403,0.7379442 0.78141,0.7379442 0.39085,0 0.5846,-0.10284 0.81067,-0.312884 l 0.54259,0.491496 c -0.3488,0.323563 -0.71374,0.520227 -1.35964,0.520227 -0.84287,0 -1.65032,-0.43406 -1.65032,-1.6985142 0,-1.081314 0.70403,-1.692281 1.63092,-1.692281 0.93981,0 1.47902,0.715352 1.47902,1.654608 l 0,0.299478 -2.23465,0"
               id="path16"
               inkscape:connector-curvature="0"
               style="opacity:1;fill:#6bc123;fill-opacity:1" />
            <path
               d="m 111.62905,8.6285738 c 0.25831,0 0.36492,0.119513 0.36492,0.3146 l 0,2.2973322 0.88167,0 0,-2.3003692 c 0,-0.467353 -0.26485,-0.98311 -1.03669,-0.98311 l -1.8182,0 0,3.2834262 0.87845,0 0,-2.6119272"
               id="path18"
               inkscape:connector-curvature="0"
               style="opacity:1;fill:#6bc123;fill-opacity:1" />
            <path
               inkscape:connector-curvature="0"
               style="color:#000000;font-style:normal;font-variant:normal;font-weight:normal;font-stretch:normal;font-size:medium;line-height:normal;font-family:Sans;-inkscape-font-specification:Sans;text-indent:0;text-align:start;text-decoration:none;text-decoration-line:none;letter-spacing:normal;word-spacing:normal;text-transform:none;direction:ltr;block-progression:tb;writing-mode:lr-tb;baseline-shift:baseline;text-anchor:start;display:inline;overflow:visible;visibility:visible;opacity:1;fill:#ffffff;fill-opacity:0.77551018;stroke:none;stroke-width:1;marker:none;enable-background:accumulate"
               d="m 131.15886,29.628303 0,0.923076 -0.92308,0 0,-0.923076 0.92308,0 z m -0.92308,0.923076 0,0.923077 -0.92308,0 0,-0.923077 0.92308,0 z m -0.92308,0 -0.92307,0 0,-0.923076 0.92307,0 0,0.923076 z m -0.92307,0 0,0.923077 -0.92308,0 0,-0.923077 0.92308,0 z m -0.92308,0 -0.92308,0 0,-0.923076 0.92308,0 0,0.923076 z m -0.92308,0 0,0.923077 -0.92307,0 0,-0.923077 0.92307,0 z m -0.92307,0 -0.92308,0 0,-0.923076 0.92308,0 0,0.923076 z m -0.92308,0 0,0.923077 -0.92308,0 0,-0.923077 0.92308,0 z m -0.92308,0 -0.92308,0 0,-0.923076 0.92308,0 0,0.923076 z m -0.92308,0 0,0.923077 -0.92307,0 0,-0.923077 0.92307,0 z m -0.92307,0 -0.92308,0 0,-0.923076 0.92308,0 0,0.923076 z m -0.92308,0 0,0.923077 -0.92308,0 0,-0.923077 0.92308,0 z m -0.92308,0 -0.92307,0 0,-0.923076 0.92307,0 0,0.923076 z m -0.92307,0 0,0.923077 -0.92308,0 0,-0.923077 0.92308,0 z m -0.92308,0 -0.92308,0 0,-0.923076 0.92308,0 0,0.923076 z m -0.92308,0 0,0.923077 -0.92307,0 0,-0.923077 0.92307,0 z"
               id="path4303-6" />
            <path
               inkscape:connector-curvature="0"
               style="fill:#ffffff;fill-opacity:0.77551018;fill-rule:evenodd;stroke:none"
               d="m 134.85116,29.628303 -1.84615,1.846153 1.84615,0 0,-1.846153 z"
               id="path4317" />
            <path
               id="path4331"
               d="m 94.235779,29.628303 0,0.923076 0.923077,0 0,-0.923076 -0.923077,0 z m 0.923077,0.923076 0,0.923077 0.923077,0 0,-0.923077 -0.923077,0 z m 0.923077,0 0.923077,0 0,-0.923076 -0.923077,0 0,0.923076 z m 0.923077,0 0,0.923077 0.923077,0 0,-0.923077 -0.923077,0 z m 0.923077,0 0.923077,0 0,-0.923076 -0.923077,0 0,0.923076 z m 0.923077,0 0,0.923077 0.923077,0 0,-0.923077 -0.923077,0 z m 0.923077,0 0.923079,0 0,-0.923076 -0.923079,0 0,0.923076 z m 0.923079,0 0,0.923077 0.92307,0 0,-0.923077 -0.92307,0 z m 0.92307,0 0.92308,0 0,-0.923076 -0.92308,0 0,0.923076 z m 0.92308,0 0,0.923077 0.92308,0 0,-0.923077 -0.92308,0 z m 0.92308,0 0.92308,0 0,-0.923076 -0.92308,0 0,0.923076 z m 0.92308,0 0,0.923077 0.92307,0 0,-0.923077 -0.92307,0 z m 0.92307,0 0.92308,0 0,-0.923076 -0.92308,0 0,0.923076 z m 0.92308,0 0,0.923077 0.92308,0 0,-0.923077 -0.92308,0 z m 0.92308,0 0.92307,0 0,-0.923076 -0.92307,0 0,0.923076 z m 0.92307,0 0,0.923077 0.92308,0 0,-0.923077 -0.92308,0 z"
               style="color:#000000;font-style:normal;font-variant:normal;font-weight:normal;font-stretch:normal;font-size:medium;line-height:normal;font-family:Sans;-inkscape-font-specification:Sans;text-indent:0;text-align:start;text-decoration:none;text-decoration-line:none;letter-spacing:normal;word-spacing:normal;text-transform:none;direction:ltr;block-progression:tb;writing-mode:lr-tb;baseline-shift:baseline;text-anchor:start;display:inline;overflow:visible;visibility:visible;opacity:1;fill:#ffffff;fill-opacity:0.77551018;stroke:none;stroke-width:1;marker:none;enable-background:accumulate"
               inkscape:connector-curvature="0" />
            <path
               id="path4333"
               d="m 135.77424,9.3206108 -0.92308,0 0,-0.923076 0.92308,0 0,0.923076 z m -0.92308,-0.923076 -0.92307,0 0,-0.923077 0.92307,0 0,0.923077 z m 0,-0.923077 0,-0.923077 0.92308,0 0,0.923077 -0.92308,0 z m 0,-0.923077 -0.92307,0 0,-0.923077 0.92307,0 0,0.923077 z m 0,-0.923077 0,-0.923077 0.92308,0 0,0.923077 -0.92308,0 z m 0,-0.923077 -0.92307,0 0,-0.923077 0.92307,0 0,0.923077 z m 0,-0.923077 0,-0.923077 0.92308,0 0,0.923077 -0.92308,0 z m 0,-0.923077 -0.92307,0 0,-0.923077 0.92307,0 0,0.923077 z m 0,-0.923077 0,-0.9230774 0.92308,0 0,0.9230774 -0.92308,0 z m 0,-0.9230774 -0.92307,0 0,-0.923077 0.92307,0 0,0.923077 z m 0,-0.923077 0,-0.923077 0.92308,0 0,0.923077 -0.92308,0 z m 0,-0.923077 -0.92307,0 0,-0.923076 0.92307,0 0,0.923076 z m 0,-0.923076 0,-0.923077 0.92308,0 0,0.923077 -0.92308,0 z m 0,-0.923077 -0.92307,0 0,-0.923077 0.92307,0 0,0.923077 z m 0,-0.923077 0,-0.923077 0.92308,0 0,0.923077 -0.92308,0 z m 0,-0.923077 -0.92307,0 0,-0.923077 0.92307,0 0,0.923077 z"
               style="color:#000000;font-style:normal;font-variant:normal;font-weight:normal;font-stretch:normal;font-size:medium;line-height:normal;font-family:Sans;-inkscape-font-specification:Sans;text-indent:0;text-align:start;text-decoration:none;text-decoration-line:none;letter-spacing:normal;word-spacing:normal;text-transform:none;direction:ltr;block-progression:tb;writing-mode:lr-tb;baseline-shift:baseline;text-anchor:start;display:inline;overflow:visible;visibility:visible;opacity:1;fill:#ffffff;fill-opacity:0.77551018;stroke:none;stroke-width:1;marker:none;enable-background:accumulate"
               inkscape:connector-curvature="0" />
            <path
               style="color:#000000;font-style:normal;font-variant:normal;font-weight:normal;font-stretch:normal;font-size:medium;line-height:normal;font-family:Sans;-inkscape-font-specification:Sans;text-indent:0;text-align:start;text-decoration:none;text-decoration-line:none;letter-spacing:normal;word-spacing:normal;text-transform:none;direction:ltr;block-progression:tb;writing-mode:lr-tb;baseline-shift:baseline;text-anchor:start;display:inline;overflow:visible;visibility:visible;opacity:1;fill:#ffffff;fill-opacity:0.77551018;stroke:none;stroke-width:1;marker:none;enable-background:accumulate"
               d="m 133.92809,18.551376 0,0.923077 0.92308,0 0,-0.923077 z m 0.92308,0.923077 0,0.923077 0.92308,0 0,-0.923077 z m 0,0.923077 -0.92308,0 0,0.923076 0.92308,0 z m 0,0.923076 0,0.923077 0.92308,0 0,-0.923077 z m 0,0.923077 -0.92308,0 0,0.923077 0.92308,0 z m 0,0.923077 0,0.923077 0.92308,0 0,-0.923077 z m 0,0.923077 -0.92308,0 0,0.923076 0.92308,0 z m 0,0.923076 0,0.923077 0.92308,0 0,-0.923077 z m 0,0.923077 -0.92308,0 0,0.923077 0.92308,0 z"
               id="path4339"
               inkscape:connector-curvature="0"
               sodipodi:nodetypes="ccccccccccccccccccccccccccccccccccccccccccccc" />
            <ellipse
               id="path3023-6"
               style="color:#000000;display:inline;overflow:visible;visibility:visible;fill:#6bc123;fill-opacity:1;fill-rule:nonzero;stroke:none;stroke-width:1.39999998;stroke-linecap:butt;stroke-linejoin:miter;stroke-miterlimit:4;stroke-dasharray:none;stroke-opacity:1;marker:none;enable-background:accumulate"
               cx="121.235"
               cy="18.853006"
               rx="0.67509705"
               ry="0.67301822" />
            <ellipse
               id="path3023-9-1"
               style="color:#000000;display:inline;overflow:visible;visibility:visible;fill:#6bc123;fill-opacity:1;fill-rule:nonzero;stroke:none;stroke-width:1.39999998;marker:none;enable-background:accumulate"
               cx="122.45018"
               cy="20.872061"
               rx="0.81011683"
               ry="0.8076219" />
            <ellipse
               id="path3023-7-6"
               style="color:#000000;display:inline;overflow:visible;visibility:visible;fill:#6bc123;fill-opacity:1;fill-rule:nonzero;stroke:none;stroke-width:1.39999998;marker:none;enable-background:accumulate"
               cx="121.77506"
               cy="16.699352"
               rx="0.40506011"
               ry="0.40380958" />
            <path
               sodipodi:nodetypes="ccccccccc"
               inkscape:connector-curvature="0"
               id="path3818-1"
               d="m 124.07041,16.295544 -0.76792,0.765556 1.18142,1.177782 -1.22362,1.3881 0.81012,0.706669 1.89028,-2.153658 0,0 -1.89028,-1.884449 z"
               style="color:#000000;font-style:normal;font-variant:normal;font-weight:normal;font-stretch:normal;font-size:medium;line-height:normal;font-family:Sans;-inkscape-font-specification:Sans;text-indent:0;text-align:start;text-decoration:none;text-decoration-line:none;letter-spacing:normal;word-spacing:normal;text-transform:none;direction:ltr;block-progression:tb;writing-mode:lr-tb;baseline-shift:baseline;text-anchor:start;display:inline;overflow:visible;visibility:visible;fill:#6bc123;fill-opacity:1;stroke:none;stroke-width:8;marker:none;enable-background:accumulate" />
          </g>
        </g>
      </g>
    </g>
  </g>
</svg>
