<?xml version="1.0" encoding="UTF-8" standalone="no"?>
<!-- Created with Inkscape (http://www.inkscape.org/) -->

<svg
   xmlns:dc="http://purl.org/dc/elements/1.1/"
   xmlns:cc="http://creativecommons.org/ns#"
   xmlns:rdf="http://www.w3.org/1999/02/22-rdf-syntax-ns#"
   xmlns:svg="http://www.w3.org/2000/svg"
   xmlns="http://www.w3.org/2000/svg"
   xmlns:sodipodi="http://sodipodi.sourceforge.net/DTD/sodipodi-0.dtd"
   xmlns:inkscape="http://www.inkscape.org/namespaces/inkscape"
   width="8"
   height="8"
   id="svg2"
   version="1.1"
   inkscape:version="0.91 r13725"
   viewBox="0 0 8 8"
   sodipodi:docname="emblem-locked.svg">
  <defs
     id="defs4" />
  <sodipodi:namedview
     id="base"
     pagecolor="#ffffff"
     bordercolor="#666666"
     borderopacity="1.0"
     inkscape:pageopacity="0.0"
     inkscape:pageshadow="2"
     inkscape:zoom="92"
     inkscape:cx="1.1615613"
     inkscape:cy="2.2072201"
     inkscape:document-units="px"
     inkscape:current-layer="layer1"
     showgrid="true"
     inkscape:showpageshadow="false"
     borderlayer="true"
     units="px"
     inkscape:window-width="1366"
     inkscape:window-height="633"
     inkscape:window-x="0"
     inkscape:window-y="33"
     inkscape:window-maximized="1"
     inkscape:snap-bbox="true"
     showguides="false"
     fit-margin-top="0"
     fit-margin-left="0"
     fit-margin-right="0"
     fit-margin-bottom="0">
    <inkscape:grid
       type="xygrid"
       id="grid4062"
       originx="-7"
       originy="-7.0000174" />
  </sodipodi:namedview>
  <metadata
     id="metadata7">
    <rdf:RDF>
      <cc:Work
         rdf:about="">
        <dc:format>image/svg+xml</dc:format>
        <dc:type
           rdf:resource="http://purl.org/dc/dcmitype/StillImage" />
        <dc:title />
      </cc:Work>
    </rdf:RDF>
  </metadata>
  <g
     inkscape:label="Capa 1"
     inkscape:groupmode="layer"
     id="layer1"
     transform="translate(-7,-1037.3622)">
    <rect
       style="opacity:1;fill:#ffffff;fill-opacity:1;stroke:none"
       id="rect4153"
       width="8"
       height="8"
       x="7"
       y="1037.3622"
       ry="1.0000348" />
    <g
       transform="matrix(0.32007682,0,0,0.32007682,7.4735536,708.02975)"
       id="layer1-6"
       inkscape:label="Capa 1"
       style="fill:#4d4d4d;fill-opacity:1">
      <path
         style="fill:#4d4d4d;fill-opacity:1"
         inkscape:connector-curvature="0"
         id="path3"
         d="m 16.507441,1040.1505 0,-2.2304 c 0,-3.0269 -2.462746,-5.4903 -5.489918,-5.4903 -3.0271667,0 -5.4899168,2.4634 -5.4899168,5.4903 l 0,2.2304 c -0.4326359,0.09 -0.7586062,0.4753 -0.7586062,0.9348 l 0,8.3578 c 0,0.5263 0.4283869,0.9549 0.9549429,0.9549 l 10.5871141,0 c 0.526555,0 0.954943,-0.4286 0.954943,-0.9549 l 0,-8.3578 c 0,-0.4595 -0.32592,-0.8437 -0.758559,-0.9348 z m -4.207332,7.1247 c 0.01947,0.1048 -0.05052,0.1877 -0.155561,0.1877 l -2.2286935,0 c -0.1050401,0 -0.175041,-0.083 -0.1555596,-0.1877 l 0.3548591,-1.8806 c -0.268628,-0.2449 -0.4372225,-0.5975 -0.4372225,-0.9898 0,-0.7402 0.5997505,-1.34 1.3395915,-1.34 0.739845,0 1.339596,0.5998 1.339596,1.34 0,0.3815 -0.159764,0.7253 -0.415733,0.9694 z m 2.29745,-7.1449 -7.160067,0 0,-2.2102 c 0,-1.9741 1.6059748,-3.58 3.580031,-3.58 1.974059,0 3.580036,1.606 3.580036,3.58 z"
         sodipodi:nodetypes="cssscssssssccssccsssccccsssc" />
    </g>
  </g>
</svg>
