<?xml version="1.0" encoding="UTF-8" standalone="no"?>
<!-- Created with Inkscape (http://www.inkscape.org/) -->

<svg
   xmlns:osb="http://www.openswatchbook.org/uri/2009/osb"
   xmlns:dc="http://purl.org/dc/elements/1.1/"
   xmlns:cc="http://creativecommons.org/ns#"
   xmlns:rdf="http://www.w3.org/1999/02/22-rdf-syntax-ns#"
   xmlns:svg="http://www.w3.org/2000/svg"
   xmlns="http://www.w3.org/2000/svg"
   xmlns:sodipodi="http://sodipodi.sourceforge.net/DTD/sodipodi-0.dtd"
   xmlns:inkscape="http://www.inkscape.org/namespaces/inkscape"
   width="32"
   height="32"
   id="svg5453"
   version="1.1"
   inkscape:version="0.91 r13725"
   sodipodi:docname="help-whatsthis.svg"
   viewBox="0 0 32 32">
  <defs
     id="defs5455">
    <linearGradient
       id="linearGradient4207"
       osb:paint="gradient">
      <stop
         style="stop-color:#3498db;stop-opacity:1;"
         offset="0"
         id="stop3371" />
      <stop
         style="stop-color:#3498db;stop-opacity:0;"
         offset="1"
         id="stop3373" />
    </linearGradient>
  </defs>
  <sodipodi:namedview
     id="base"
     pagecolor="#ffffff"
     bordercolor="#666666"
     borderopacity="1.0"
     inkscape:pageopacity="0"
     inkscape:pageshadow="2"
     inkscape:zoom="11.549408"
     inkscape:cx="-5.081534"
     inkscape:cy="12.695206"
     inkscape:document-units="px"
     inkscape:current-layer="layer1"
     showgrid="true"
     fit-margin-top="0"
     fit-margin-left="0"
     fit-margin-right="0"
     fit-margin-bottom="0"
     inkscape:window-width="1366"
     inkscape:window-height="630"
     inkscape:window-x="0"
     inkscape:window-y="36"
     inkscape:window-maximized="1"
     inkscape:showpageshadow="false"
     borderlayer="true"
     showguides="true"
     inkscape:guide-bbox="true"
     inkscape:object-nodes="true"
     inkscape:snap-bbox="true"
     inkscape:snap-global="true">
    <inkscape:grid
       type="xygrid"
       id="grid4063" />
    <sodipodi:guide
       position="4,24"
       orientation="28,0"
       id="guide4280" />
    <sodipodi:guide
       position="13,4"
       orientation="0,28"
       id="guide4282" />
    <sodipodi:guide
       position="28,25"
       orientation="-28,0"
       id="guide4284" />
    <sodipodi:guide
       position="15,28"
       orientation="0,-28"
       id="guide4286" />
  </sodipodi:namedview>
  <metadata
     id="metadata5458">
    <rdf:RDF>
      <cc:Work
         rdf:about="">
        <dc:format>image/svg+xml</dc:format>
        <dc:type
           rdf:resource="http://purl.org/dc/dcmitype/StillImage" />
        <dc:title />
      </cc:Work>
    </rdf:RDF>
  </metadata>
  <g
     inkscape:label="Capa 1"
     inkscape:groupmode="layer"
     id="layer1"
     transform="translate(-384.57143,-515.798)">
    <circle
       style="opacity:1;fill:#4d4d4d;fill-opacity:1;fill-rule:evenodd;stroke:none;stroke-width:1;stroke-linecap:round;stroke-linejoin:round;stroke-miterlimit:4;stroke-dasharray:none;stroke-dashoffset:0;stroke-opacity:1"
       id="path4278"
       cx="400.57144"
       cy="531.79797"
       r="12" />
    <g
       style="font-style:normal;font-weight:normal;font-size:16.26016235px;line-height:125%;font-family:sans-serif;letter-spacing:0px;word-spacing:0px;fill:#ffffff;fill-opacity:1;stroke:none;stroke-width:1px;stroke-linecap:butt;stroke-linejoin:miter;stroke-opacity:1"
       id="text4280">
      <path
         d="m 401.32752,537.4728 q -0.30894,0.3252 -0.78048,0.3252 -0.47155,0 -0.79675,-0.3252 -0.30894,-0.32521 -0.30894,-0.78049 0,-0.45529 0.30894,-0.78049 0.3252,-0.3252 0.79675,-0.3252 0.47154,0 0.78048,0.3252 0.32521,0.3252 0.32521,0.78049 0,0.45528 -0.32521,0.78049 z m -0.0163,-3.38212 -1.52845,0 0,-0.76422 q 0,-0.73171 0.30894,-1.25204 0.30895,-0.53658 1.08943,-1.25203 0.43903,-0.4065 0.61789,-0.60163 0.19512,-0.21138 0.37398,-0.5691 0.19513,-0.37398 0.19513,-0.76423 0,-0.74797 -0.48781,-1.20325 -0.47154,-0.45529 -1.31707,-0.45529 -1.39838,0 -1.9187,1.56098 l -1.39838,-0.58537 q 0.34147,-0.92682 1.17074,-1.65853 0.84552,-0.74797 2.14634,-0.74797 1.47967,0 2.4065,0.87805 0.92683,0.86179 0.92683,2.21138 0,0.58537 -0.30894,1.18699 -0.30895,0.60163 -0.55285,0.86179 -0.22764,0.2439 -0.6504,0.63415 -0.0488,0.0488 -0.0813,0.0813 -0.99187,0.89431 -0.99187,1.78862 l 0,0.6504 z"
         style="font-style:normal;font-variant:normal;font-weight:normal;font-stretch:normal;font-family:'Product Sans';-inkscape-font-specification:'Product Sans';fill:#ffffff;fill-opacity:1"
         id="path4145" />
    </g>
  </g>
</svg>
