<?xml version="1.0" encoding="UTF-8" standalone="no"?>
<svg
   xmlns:osb="http://www.openswatchbook.org/uri/2009/osb"
   xmlns:dc="http://purl.org/dc/elements/1.1/"
   xmlns:cc="http://creativecommons.org/ns#"
   xmlns:rdf="http://www.w3.org/1999/02/22-rdf-syntax-ns#"
   xmlns:svg="http://www.w3.org/2000/svg"
   xmlns="http://www.w3.org/2000/svg"
   xmlns:xlink="http://www.w3.org/1999/xlink"
   xmlns:sodipodi="http://sodipodi.sourceforge.net/DTD/sodipodi-0.dtd"
   xmlns:inkscape="http://www.inkscape.org/namespaces/inkscape"
   viewBox="0 0 64 64"
   id="svg2"
   version="1.1"
   inkscape:version="0.91 r13725"
   sodipodi:docname="application-x-theme.svg"
   width="64"
   height="64">
  <metadata
     id="metadata84">
    <rdf:RDF>
      <cc:Work
         rdf:about="">
        <dc:format>image/svg+xml</dc:format>
        <dc:type
           rdf:resource="http://purl.org/dc/dcmitype/StillImage" />
        <dc:title />
      </cc:Work>
    </rdf:RDF>
  </metadata>
  <sodipodi:namedview
     pagecolor="#7b7b7b"
     bordercolor="#666666"
     borderopacity="1"
     objecttolerance="10"
     gridtolerance="10"
     guidetolerance="10"
     inkscape:pageopacity="0"
     inkscape:pageshadow="2"
     inkscape:window-width="1366"
     inkscape:window-height="642"
     id="namedview82"
     showgrid="false"
     inkscape:showpageshadow="false"
     inkscape:zoom="7.4642639"
     inkscape:cx="27.918426"
     inkscape:cy="61.463708"
     inkscape:window-x="0"
     inkscape:window-y="33"
     inkscape:window-maximized="1"
     inkscape:current-layer="svg2"
     showguides="true"
     inkscape:snap-bbox="true"
     inkscape:snap-bbox-edge-midpoints="false"
     inkscape:bbox-nodes="true"
     inkscape:guide-bbox="true">
    <inkscape:grid
       type="xygrid"
       id="grid3413" />
    <sodipodi:guide
       position="0,64"
       orientation="64,0"
       id="guide3482" />
    <sodipodi:guide
       position="0,0"
       orientation="0,64"
       id="guide3484" />
    <sodipodi:guide
       position="64,0"
       orientation="-64,0"
       id="guide3486" />
    <sodipodi:guide
       position="10,61"
       orientation="58,0"
       id="guide3492" />
    <sodipodi:guide
       position="10,3"
       orientation="0,44"
       id="guide3494" />
    <sodipodi:guide
       position="54,3"
       orientation="-58,0"
       id="guide3496" />
    <sodipodi:guide
       position="54,61"
       orientation="0,-44"
       id="guide3498" />
    <sodipodi:guide
       position="54,47"
       orientation="-14,0"
       id="guide4310" />
    <sodipodi:guide
       position="54,61"
       orientation="0,-14"
       id="guide4312" />
    <sodipodi:guide
       position="21,43"
       orientation="22,0"
       id="guide4250" />
    <sodipodi:guide
       position="21,21"
       orientation="0,22"
       id="guide4252" />
    <sodipodi:guide
       position="43,21"
       orientation="-22,0"
       id="guide4254" />
    <sodipodi:guide
       position="43,43"
       orientation="0,-22"
       id="guide4256" />
    <sodipodi:guide
       position="25.052705,61"
       orientation="0,1"
       id="guide6551" />
  </sodipodi:namedview>
  <defs
     id="defs4">
    <linearGradient
       inkscape:collect="always"
       xlink:href="#linearGradient4422"
       id="linearGradient4190-9"
       x1="375.57144"
       y1="543.79797"
       x2="375.57144"
       y2="517.79797"
       gradientUnits="userSpaceOnUse"
       gradientTransform="matrix(2.1937939,0,0,2.2303048,-398.02626,-639.90393)" />
    <linearGradient
       id="linearGradient4422">
      <stop
         id="stop4424"
         offset="0"
         style="stop-color:#1a85f2;stop-opacity:1" />
      <stop
         id="stop4426"
         offset="1"
         style="stop-color:#1fb0f9;stop-opacity:1" />
    </linearGradient>
    <linearGradient
       id="linearGradient4256">
      <stop
         style="stop-color:#8cbdf8;stop-opacity:1;"
         offset="0"
         id="stop4258" />
      <stop
         style="stop-color:#d5e8ff;stop-opacity:1;"
         offset="1"
         id="stop4260" />
    </linearGradient>
    <linearGradient
       id="linearGradient4207"
       osb:paint="gradient">
      <stop
         style="stop-color:#3498db;stop-opacity:1;"
         offset="0"
         id="stop3371" />
      <stop
         style="stop-color:#3498db;stop-opacity:0;"
         offset="1"
         id="stop3373" />
    </linearGradient>
    <linearGradient
       inkscape:collect="always"
       xlink:href="#linearGradient4256"
       id="linearGradient4190-9-2"
       x1="375.57144"
       y1="543.79797"
       x2="375.57144"
       y2="517.79797"
       gradientUnits="userSpaceOnUse"
       gradientTransform="matrix(1.1686708,0,0,2.2303048,-2.7680768,-639.90391)" />
  </defs>
  <g
     transform="translate(-392.98822,-511.27795)"
     id="layer1"
     inkscape:label="Capa 1"
     inkscape:transform-center-x="5.4653607"
     inkscape:transform-center-y="-9.4924686">
    <g
       transform="translate(0.41988239,0.03484499)"
       inkscape:label="Capa 1"
       id="layer1-3">
      <rect
         style="opacity:0.997;fill:url(#linearGradient4190-9);fill-opacity:1.0;stroke:none;stroke-width:0.104;stroke-linecap:round;stroke-linejoin:round;stroke-miterlimit:4;stroke-dasharray:none;stroke-opacity:1"
         id="rect4182-2"
         width="46.069672"
         height="57.987926"
         x="401.76834"
         y="514.94318"
         ry="1.7192465" />
      <rect
         style="opacity:0.997;fill:url(#linearGradient4190-9-2);fill-opacity:1;stroke:none;stroke-width:0.104;stroke-linecap:round;stroke-linejoin:round;stroke-miterlimit:4;stroke-dasharray:none;stroke-opacity:1"
         id="rect4182-2-4"
         width="24.542088"
         height="57.987926"
         x="423.29593"
         y="514.94318"
         ry="1.7192465" />
      <path
         style="opacity:0.56499999;fill:#000000;fill-opacity:1;fill-rule:evenodd;stroke:none;stroke-width:1px;stroke-linecap:butt;stroke-linejoin:miter;stroke-opacity:1"
         d="m 401.76839,563.18111 -4e-5,7.90428 c 0,0 -0.0224,1.83572 1.81022,1.83572 l 42.46177,0 c 0,0 1.93884,-0.0444 1.91466,-2.52819 l -0.0702,-7.21181 z"
         id="path4302"
         inkscape:connector-curvature="0"
         sodipodi:nodetypes="ccccccc" />
      <g
         style="font-style:normal;font-weight:normal;font-size:7.8266716px;line-height:125%;font-family:sans-serif;letter-spacing:0px;word-spacing:0px;fill:#ffffff;fill-opacity:1;stroke:none;stroke-width:1px;stroke-linecap:butt;stroke-linejoin:miter;stroke-opacity:1"
         id="text4304">
        <path
           d="m 415.82106,570.40948 q -0.60265,0 -0.92355,-0.3209 -0.31307,-0.32089 -0.31307,-0.90789 l 0,-2.01146 -0.67309,0 0,-0.65744 0.67309,0 0,-1.174 0.72006,0 0,1.174 0.9392,0 0,0.65744 -0.9392,0 0,1.95667 q 0,0.62614 0.51656,0.62614 0.19567,0 0.32872,-0.0626 l 0.25045,0.61831 q -0.2348,0.10175 -0.57917,0.10175 z"
           style="font-style:normal;font-variant:normal;font-weight:normal;font-stretch:normal;font-family:'Product Sans';-inkscape-font-specification:'Product Sans';fill:#ffffff;fill-opacity:1"
           id="path4178" />
        <path
           d="m 417.69457,564.74297 0,1.76882 -0.0313,0.53222 0.0313,0 q 0.15653,-0.27394 0.49308,-0.46178 0.33655,-0.19566 0.72005,-0.19566 0.71223,0 1.08791,0.43829 0.37568,0.43829 0.37568,1.174 l 0,2.348 -0.72005,0 0,-2.23843 q 0,-1.06442 -0.94703,-1.06442 -0.44612,0 -0.72788,0.36002 -0.28176,0.3522 -0.28176,0.8218 l 0,2.12103 -0.72006,0 0,-5.60389 0.72006,0 z"
           style="font-style:normal;font-variant:normal;font-weight:normal;font-stretch:normal;font-family:'Product Sans';-inkscape-font-specification:'Product Sans';fill:#ffffff;fill-opacity:1"
           id="path4180" />
        <path
           d="m 422.96167,570.47209 q -0.86876,0 -1.41662,-0.57917 -0.54004,-0.57918 -0.54004,-1.46359 0,-0.83746 0.52438,-1.44011 0.53222,-0.60265 1.35402,-0.60265 0.8531,0 1.36184,0.55569 0.51656,0.55569 0.51656,1.48707 l -0.008,0.13305 -3.02892,0 q 0.0313,0.57918 0.38351,0.91572 0.36002,0.33655 0.83745,0.33655 0.77484,0 1.04877,-0.65744 l 0.64179,0.26611 q -0.18784,0.44612 -0.61831,0.75136 -0.43046,0.29741 -1.0566,0.29741 z m 1.03312,-2.50454 q -0.0235,-0.32872 -0.30524,-0.62613 -0.27393,-0.29741 -0.8218,-0.29741 -0.39916,0 -0.69657,0.25045 -0.28959,0.25045 -0.39916,0.67309 l 2.22277,0 z"
           style="font-style:normal;font-variant:normal;font-weight:normal;font-stretch:normal;font-family:'Product Sans';-inkscape-font-specification:'Product Sans';fill:#ffffff;fill-opacity:1"
           id="path4182" />
        <path
           d="m 425.41264,570.34686 0,-3.83507 0.68875,0 0,0.53222 0.0313,0 q 0.16436,-0.27394 0.50091,-0.46178 0.34437,-0.19566 0.68092,-0.19566 0.89224,0 1.21313,0.7357 0.4696,-0.7357 1.33836,-0.7357 0.68092,0 1.02529,0.43829 0.34438,0.43047 0.34438,1.174 l 0,2.348 -0.72006,0 0,-2.23843 q 0,-0.57917 -0.21132,-0.8218 -0.21132,-0.24262 -0.64178,-0.24262 -0.42264,0 -0.7044,0.36002 -0.27394,0.36003 -0.27394,0.8218 l 0,2.12103 -0.72005,0 0,-2.23843 q 0,-0.57917 -0.21132,-0.8218 -0.21132,-0.24262 -0.64179,-0.24262 -0.42264,0 -0.7044,0.36002 -0.27393,0.36003 -0.27393,0.8218 l 0,2.12103 -0.72006,0 z"
           style="font-style:normal;font-variant:normal;font-weight:normal;font-stretch:normal;font-family:'Product Sans';-inkscape-font-specification:'Product Sans';fill:#ffffff;fill-opacity:1"
           id="path4184" />
        <path
           d="m 433.81507,570.47209 q -0.86876,0 -1.41663,-0.57917 -0.54004,-0.57918 -0.54004,-1.46359 0,-0.83746 0.52439,-1.44011 0.53221,-0.60265 1.35401,-0.60265 0.85311,0 1.36184,0.55569 0.51656,0.55569 0.51656,1.48707 l -0.008,0.13305 -3.02892,0 q 0.0313,0.57918 0.38351,0.91572 0.36003,0.33655 0.83745,0.33655 0.77484,0 1.04878,-0.65744 l 0.64178,0.26611 q -0.18784,0.44612 -0.6183,0.75136 -0.43047,0.29741 -1.0566,0.29741 z m 1.03312,-2.50454 q -0.0235,-0.32872 -0.30524,-0.62613 -0.27394,-0.29741 -0.8218,-0.29741 -0.39916,0 -0.69658,0.25045 -0.28958,0.25045 -0.39916,0.67309 l 2.22278,0 z"
           style="font-style:normal;font-variant:normal;font-weight:normal;font-stretch:normal;font-family:'Product Sans';-inkscape-font-specification:'Product Sans';fill:#ffffff;fill-opacity:1"
           id="path4186" />
      </g>
      <g
         transform="translate(-38.856403,13.075478)"
         id="layer1-5"
         inkscape:label="Capa 1">
        <g
           id="g4414"
           transform="matrix(1.5263052,0,0,1.5263052,376.49864,-1040.1735)">
          <g
             transform="matrix(0.42549858,0,0,0.42549858,-116.82388,804.06163)"
             id="layer1-0"
             inkscape:label="Capa 1">
            <g
               transform="matrix(1.5397865,0,0,1.5397865,-279.08818,-301.58995)"
               id="layer1-8"
               inkscape:label="Capa 1">
              <g
                 inkscape:label="Capa 1"
                 id="layer1-6"
                 transform="matrix(0.65762761,0,0,0.65762761,131.80612,186.74136)">
                <g
                   id="layer1-4"
                   inkscape:label="Capa 1"
                   transform="translate(-51.525445,5.4558218)">
                  <g
                     transform="translate(-34.965532,2.4832225)"
                     inkscape:label="Capa 1"
                     id="layer1-3-7" />
                </g>
                <g
                   id="g4403"
                   transform="translate(51.385479,-6.0099446)">
                  <g
                     id="g4247"
                     style="fill:#1facf8;fill-opacity:1"
                     transform="matrix(1.5183495,0,0,1.5183495,-114.60778,-280.18711)">
                    <circle
                       r="2.25"
                       cy="518.737"
                       cx="373.36642"
                       id="path4224"
                       style="opacity:1;fill:#1facf8;fill-opacity:1;stroke:none;stroke-width:0.2;stroke-linecap:round;stroke-linejoin:round;stroke-miterlimit:4;stroke-dasharray:none;stroke-opacity:1" />
                    <circle
                       r="2.25"
                       cy="518.78473"
                       cx="367.8389"
                       id="path4224-4"
                       style="opacity:1;fill:#1facf8;fill-opacity:1;stroke:none;stroke-width:0.2;stroke-linecap:round;stroke-linejoin:round;stroke-miterlimit:4;stroke-dasharray:none;stroke-opacity:1" />
                    <circle
                       r="2.25"
                       cy="518.83801"
                       cx="362.40543"
                       id="path4224-8"
                       style="opacity:1;fill:#1facf8;fill-opacity:1;stroke:none;stroke-width:0.2;stroke-linecap:round;stroke-linejoin:round;stroke-miterlimit:4;stroke-dasharray:none;stroke-opacity:1" />
                  </g>
                </g>
              </g>
            </g>
          </g>
        </g>
      </g>
    </g>
  </g>
</svg>
