<?xml version="1.0" encoding="UTF-8" standalone="no"?>
<svg
   xmlns:dc="http://purl.org/dc/elements/1.1/"
   xmlns:cc="http://creativecommons.org/ns#"
   xmlns:rdf="http://www.w3.org/1999/02/22-rdf-syntax-ns#"
   xmlns:svg="http://www.w3.org/2000/svg"
   xmlns="http://www.w3.org/2000/svg"
   xmlns:xlink="http://www.w3.org/1999/xlink"
   xmlns:sodipodi="http://sodipodi.sourceforge.net/DTD/sodipodi-0.dtd"
   xmlns:inkscape="http://www.inkscape.org/namespaces/inkscape"
   viewBox="0 0 64 64"
   id="svg2"
   version="1.1"
   inkscape:version="0.91 r13725"
   sodipodi:docname="application-vnd.oasis.opendocument.text-template.svg"
   width="64"
   height="64">
  <metadata
     id="metadata84">
    <rdf:RDF>
      <cc:Work
         rdf:about="">
        <dc:format>image/svg+xml</dc:format>
        <dc:type
           rdf:resource="http://purl.org/dc/dcmitype/StillImage" />
        <dc:title />
      </cc:Work>
    </rdf:RDF>
  </metadata>
  <sodipodi:namedview
     pagecolor="#8a8a8a"
     bordercolor="#666666"
     borderopacity="1"
     objecttolerance="10"
     gridtolerance="10"
     guidetolerance="10"
     inkscape:pageopacity="0"
     inkscape:pageshadow="2"
     inkscape:window-width="1366"
     inkscape:window-height="642"
     id="namedview82"
     showgrid="false"
     inkscape:showpageshadow="false"
     inkscape:zoom="4.5905223"
     inkscape:cx="-28.627057"
     inkscape:cy="29.59533"
     inkscape:window-x="0"
     inkscape:window-y="33"
     inkscape:window-maximized="1"
     inkscape:current-layer="layer1-3"
     showguides="false"
     inkscape:snap-bbox="true"
     inkscape:snap-bbox-edge-midpoints="false"
     inkscape:bbox-nodes="true">
    <inkscape:grid
       type="xygrid"
       id="grid3413" />
    <sodipodi:guide
       position="0,64"
       orientation="64,0"
       id="guide3482" />
    <sodipodi:guide
       position="0,0"
       orientation="0,64"
       id="guide3484" />
    <sodipodi:guide
       position="64,0"
       orientation="-64,0"
       id="guide3486" />
    <sodipodi:guide
       position="10,61"
       orientation="58,0"
       id="guide3492" />
    <sodipodi:guide
       position="10,3"
       orientation="0,44"
       id="guide3494" />
    <sodipodi:guide
       position="54,3"
       orientation="-58,0"
       id="guide3496" />
    <sodipodi:guide
       position="54,61"
       orientation="0,-44"
       id="guide3498" />
    <sodipodi:guide
       position="54,47"
       orientation="-14,0"
       id="guide4310" />
    <sodipodi:guide
       position="54,61"
       orientation="0,-14"
       id="guide4312" />
    <sodipodi:guide
       position="21,43"
       orientation="22,0"
       id="guide4250" />
    <sodipodi:guide
       position="21,21"
       orientation="0,22"
       id="guide4252" />
    <sodipodi:guide
       position="43,21"
       orientation="-22,0"
       id="guide4254" />
    <sodipodi:guide
       position="43,43"
       orientation="0,-22"
       id="guide4256" />
  </sodipodi:namedview>
  <defs
     id="defs4">
    <linearGradient
       inkscape:collect="always"
       xlink:href="#linearGradient4422"
       id="linearGradient4190-9"
       x1="375.57144"
       y1="543.79797"
       x2="375.57144"
       y2="517.79797"
       gradientUnits="userSpaceOnUse"
       gradientTransform="matrix(2.1937939,0,0,2.2303048,-398.02626,-639.90393)" />
    <linearGradient
       id="linearGradient4422">
      <stop
         id="stop4424"
         offset="0"
         style="stop-color:#8798a9;stop-opacity:1" />
      <stop
         id="stop4426"
         offset="1"
         style="stop-color:#aeb6be;stop-opacity:1" />
    </linearGradient>
  </defs>
  <g
     transform="translate(-392.98822,-511.27795)"
     id="layer1"
     inkscape:label="Capa 1"
     inkscape:transform-center-x="5.4653607"
     inkscape:transform-center-y="-9.4924686">
    <g
       transform="translate(0.41988239,0.03484499)"
       inkscape:label="Capa 1"
       id="layer1-3">
      <rect
         style="opacity:0.997;fill:url(#linearGradient4190-9);fill-opacity:1.0;stroke:none;stroke-width:0.104;stroke-linecap:round;stroke-linejoin:round;stroke-miterlimit:4;stroke-dasharray:none;stroke-opacity:1"
         id="rect4182-2"
         width="46.069672"
         height="57.987926"
         x="401.76834"
         y="514.94318"
         ry="1.7192465" />
      <path
         style="opacity:0.56499999;fill:#000000;fill-opacity:1;fill-rule:evenodd;stroke:none;stroke-width:1px;stroke-linecap:butt;stroke-linejoin:miter;stroke-opacity:1"
         d="m 401.76839,563.18111 -4e-5,7.90428 c 0,0 -0.0224,1.83572 1.81022,1.83572 l 42.46177,0 c 0,0 1.93884,-0.0444 1.91466,-2.52819 l -0.0702,-7.21181 z"
         id="path4302"
         inkscape:connector-curvature="0"
         sodipodi:nodetypes="ccccccc" />
      <g
         style="font-style:normal;font-weight:normal;font-size:7.8266716px;line-height:125%;font-family:sans-serif;letter-spacing:0px;word-spacing:0px;fill:#ffffff;fill-opacity:1;stroke:none;stroke-width:1px;stroke-linecap:butt;stroke-linejoin:miter;stroke-opacity:1"
         id="text4304">
        <path
           d="m 421.36594,570.37236 q -0.74353,0 -1.28357,-0.587 -0.54004,-0.587 -0.54004,-1.45576 0,-0.86876 0.54004,-1.45576 0.54004,-0.587 1.28357,-0.587 0.4383,0 0.78267,0.18784 0.3522,0.18784 0.52439,0.4696 l 0.0313,0 -0.0313,-0.53222 0,-1.76883 0.72005,0 0,5.6039 -0.68875,0 0,-0.53221 -0.0313,0 q -0.17219,0.28176 -0.52439,0.4696 -0.34437,0.18784 -0.78267,0.18784 z m 0.1174,-0.65744 q 0.50874,0 0.86094,-0.37568 0.36002,-0.37568 0.36002,-1.00964 0,-0.63396 -0.36002,-1.00964 -0.3522,-0.37568 -0.86094,-0.37568 -0.5009,0 -0.86093,0.3835 -0.36003,0.37568 -0.36003,1.00182 0,0.62613 0.36003,1.00964 0.36003,0.37568 0.86093,0.37568 z"
           style="font-style:normal;font-variant:normal;font-weight:normal;font-stretch:normal;font-family:'Product Sans';-inkscape-font-specification:'Product Sans';fill:#ffffff;fill-opacity:1"
           id="path4164" />
        <path
           d="m 424.56167,566.87384 q 0.55569,-0.587 1.41663,-0.587 0.86093,0 1.41663,0.587 0.55569,0.57917 0.55569,1.45576 0,0.87658 -0.55569,1.46358 -0.5557,0.57918 -1.41663,0.57918 -0.86094,0 -1.41663,-0.57918 -0.55569,-0.587 -0.55569,-1.46358 0,-0.87659 0.55569,-1.45576 z m 0.53221,2.4654 q 0.37568,0.37568 0.88442,0.37568 0.50873,0 0.87659,-0.37568 0.37568,-0.38351 0.37568,-1.00964 0,-0.62614 -0.37568,-1.00182 -0.36786,-0.3835 -0.87659,-0.3835 -0.50874,0 -0.88442,0.3835 -0.36785,0.37568 -0.36785,1.00182 0,0.62613 0.36785,1.00964 z"
           style="font-style:normal;font-variant:normal;font-weight:normal;font-stretch:normal;font-family:'Product Sans';-inkscape-font-specification:'Product Sans';fill:#ffffff;fill-opacity:1"
           id="path4166" />
        <path
           d="m 430.1493,570.30974 q -0.60265,0 -0.92355,-0.32089 -0.31306,-0.32089 -0.31306,-0.90789 l 0,-2.01146 -0.6731,0 0,-0.65744 0.6731,0 0,-1.174 0.72005,0 0,1.174 0.9392,0 0,0.65744 -0.9392,0 0,1.95667 q 0,0.62613 0.51656,0.62613 0.19567,0 0.32872,-0.0626 l 0.25046,0.61831 q -0.2348,0.10174 -0.57918,0.10174 z"
           style="font-style:normal;font-variant:normal;font-weight:normal;font-stretch:normal;font-family:'Product Sans';-inkscape-font-specification:'Product Sans';fill:#ffffff;fill-opacity:1"
           id="path4168" />
      </g>
      <g
         transform="translate(-39.156402,13.075478)"
         id="layer1-5"
         inkscape:label="Capa 1"
         style="fill:#353b41;fill-opacity:1">
        <g
           id="g4414"
           transform="matrix(1.5263052,0,0,1.5263052,376.49864,-1040.1735)"
           style="fill:#353b41;fill-opacity:1">
          <g
             id="g4400"
             transform="matrix(1.2057985,0,0,1.2057985,59.704784,-208.48243)"
             style="fill:#353b41;fill-opacity:1">
            <rect
               ry="0.31200001"
               rx="0"
               y="1018.6581"
               x="-8.0180883"
               height="2.2304921"
               width="11.898284"
               id="rect4315"
               style="opacity:1;fill:#353b41;fill-opacity:1;stroke:none;stroke-width:1.02600002;stroke-linecap:round;stroke-linejoin:round;stroke-miterlimit:4;stroke-dasharray:none;stroke-opacity:1" />
            <rect
               ry="0.31200001"
               rx="0"
               y="1021.9661"
               x="-8.0059242"
               height="2.2304921"
               width="11.898284"
               id="rect4315-4"
               style="opacity:1;fill:#353b41;fill-opacity:1;stroke:none;stroke-width:1.02600002;stroke-linecap:round;stroke-linejoin:round;stroke-miterlimit:4;stroke-dasharray:none;stroke-opacity:1" />
            <rect
               ry="0.31200001"
               rx="0"
               y="1025.1088"
               x="-7.9879999"
               height="2.2304921"
               width="11.898284"
               id="rect4315-4-4"
               style="opacity:1;fill:#353b41;fill-opacity:1;stroke:none;stroke-width:1.02600002;stroke-linecap:round;stroke-linejoin:round;stroke-miterlimit:4;stroke-dasharray:none;stroke-opacity:1" />
            <rect
               ry="0.31200001"
               rx="0"
               y="1028.3699"
               x="-8.0120068"
               height="2.2304921"
               width="11.898284"
               id="rect4315-4-4-1"
               style="opacity:1;fill:#353b41;fill-opacity:1;stroke:none;stroke-width:1.02600002;stroke-linecap:round;stroke-linejoin:round;stroke-miterlimit:4;stroke-dasharray:none;stroke-opacity:1" />
          </g>
        </g>
      </g>
    </g>
  </g>
</svg>
