<?xml version="1.0" encoding="UTF-8" standalone="no"?>
<svg
   xmlns:osb="http://www.openswatchbook.org/uri/2009/osb"
   xmlns:dc="http://purl.org/dc/elements/1.1/"
   xmlns:cc="http://creativecommons.org/ns#"
   xmlns:rdf="http://www.w3.org/1999/02/22-rdf-syntax-ns#"
   xmlns:svg="http://www.w3.org/2000/svg"
   xmlns="http://www.w3.org/2000/svg"
   xmlns:xlink="http://www.w3.org/1999/xlink"
   xmlns:sodipodi="http://sodipodi.sourceforge.net/DTD/sodipodi-0.dtd"
   xmlns:inkscape="http://www.inkscape.org/namespaces/inkscape"
   viewBox="0 0 64 64"
   id="svg2"
   version="1.1"
   inkscape:version="0.91 r13725"
   sodipodi:docname="application-x-python-bytecode.svg"
   width="64"
   height="64">
  <metadata
     id="metadata84">
    <rdf:RDF>
      <cc:Work
         rdf:about="">
        <dc:format>image/svg+xml</dc:format>
        <dc:type
           rdf:resource="http://purl.org/dc/dcmitype/StillImage" />
        <dc:title />
      </cc:Work>
    </rdf:RDF>
  </metadata>
  <sodipodi:namedview
     pagecolor="#828282"
     bordercolor="#666666"
     borderopacity="1"
     objecttolerance="10"
     gridtolerance="10"
     guidetolerance="10"
     inkscape:pageopacity="0"
     inkscape:pageshadow="2"
     inkscape:window-width="1366"
     inkscape:window-height="642"
     id="namedview82"
     showgrid="false"
     inkscape:showpageshadow="false"
     inkscape:zoom="7.4642639"
     inkscape:cx="15.642513"
     inkscape:cy="14.411491"
     inkscape:window-x="0"
     inkscape:window-y="33"
     inkscape:window-maximized="1"
     inkscape:current-layer="layer1-3"
     showguides="false"
     inkscape:snap-bbox="true"
     inkscape:snap-bbox-edge-midpoints="false"
     inkscape:bbox-nodes="true"
     inkscape:guide-bbox="true">
    <inkscape:grid
       type="xygrid"
       id="grid3413" />
    <sodipodi:guide
       position="0,64"
       orientation="64,0"
       id="guide3482" />
    <sodipodi:guide
       position="0,0"
       orientation="0,64"
       id="guide3484" />
    <sodipodi:guide
       position="64,0"
       orientation="-64,0"
       id="guide3486" />
    <sodipodi:guide
       position="10,61"
       orientation="58,0"
       id="guide3492" />
    <sodipodi:guide
       position="10,3"
       orientation="0,44"
       id="guide3494" />
    <sodipodi:guide
       position="54,3"
       orientation="-58,0"
       id="guide3496" />
    <sodipodi:guide
       position="54,61"
       orientation="0,-44"
       id="guide3498" />
    <sodipodi:guide
       position="54,47"
       orientation="-14,0"
       id="guide4310" />
    <sodipodi:guide
       position="54,61"
       orientation="0,-14"
       id="guide4312" />
    <sodipodi:guide
       position="21,43"
       orientation="22,0"
       id="guide4250" />
    <sodipodi:guide
       position="21,21"
       orientation="0,22"
       id="guide4252" />
    <sodipodi:guide
       position="43,43"
       orientation="0,-22"
       id="guide4256" />
    <sodipodi:guide
       position="25.052705,61"
       orientation="0,1"
       id="guide6551" />
  </sodipodi:namedview>
  <defs
     id="defs4">
    <linearGradient
       inkscape:collect="always"
       xlink:href="#linearGradient4422"
       id="linearGradient4190-9"
       x1="375.57144"
       y1="543.79797"
       x2="375.57144"
       y2="517.79797"
       gradientUnits="userSpaceOnUse"
       gradientTransform="matrix(2.1937939,0,0,2.2303048,-398.02626,-639.90393)" />
    <linearGradient
       id="linearGradient4422">
      <stop
         id="stop4424"
         offset="0"
         style="stop-color:#f4a01c;stop-opacity:1" />
      <stop
         id="stop4426"
         offset="1"
         style="stop-color:#fac632;stop-opacity:1" />
    </linearGradient>
    <linearGradient
       id="linearGradient4207"
       osb:paint="gradient">
      <stop
         style="stop-color:#3498db;stop-opacity:1;"
         offset="0"
         id="stop3371" />
      <stop
         style="stop-color:#3498db;stop-opacity:0;"
         offset="1"
         id="stop3373" />
    </linearGradient>
  </defs>
  <g
     transform="translate(-392.98822,-511.27795)"
     id="layer1"
     inkscape:label="Capa 1"
     inkscape:transform-center-x="5.4653607"
     inkscape:transform-center-y="-9.4924686">
    <g
       transform="translate(0.41988239,0.03484499)"
       inkscape:label="Capa 1"
       id="layer1-3">
      <rect
         style="opacity:0.997;fill:url(#linearGradient4190-9);fill-opacity:1.0;stroke:none;stroke-width:0.104;stroke-linecap:round;stroke-linejoin:round;stroke-miterlimit:4;stroke-dasharray:none;stroke-opacity:1"
         id="rect4182-2"
         width="46.069672"
         height="57.987926"
         x="401.76834"
         y="514.94318"
         ry="1.7192465" />
      <path
         style="opacity:0.56499999;fill:#000000;fill-opacity:1;fill-rule:evenodd;stroke:none;stroke-width:1px;stroke-linecap:butt;stroke-linejoin:miter;stroke-opacity:1"
         d="m 401.76839,563.18111 -4e-5,7.90428 c 0,0 -0.0224,1.83572 1.81022,1.83572 l 42.46177,0 c 0,0 1.93884,-0.0444 1.91466,-2.52819 l -0.0702,-7.21181 z"
         id="path4302"
         inkscape:connector-curvature="0"
         sodipodi:nodetypes="ccccccc" />
      <g
         style="font-style:normal;font-weight:normal;font-size:7.8266716px;line-height:125%;font-family:sans-serif;letter-spacing:0px;word-spacing:0px;fill:#ffffff;fill-opacity:1;stroke:none;stroke-width:1px;stroke-linecap:butt;stroke-linejoin:miter;stroke-opacity:1"
         id="text4304">
        <path
           d="m 415.65745,570.37175 q -0.43829,0 -0.79049,-0.18784 -0.34437,-0.18784 -0.51656,-0.4696 l -0.0313,0 0.0313,0.53221 0,1.69056 -0.72005,0 0,-5.52563 0.68874,0 0,0.53222 0.0313,0 q 0.17219,-0.28176 0.51656,-0.4696 0.3522,-0.18784 0.79049,-0.18784 0.74354,0 1.28358,0.587 0.54004,0.587 0.54004,1.45576 0,0.86876 -0.54004,1.45576 -0.54004,0.587 -1.28358,0.587 z m -0.1174,-0.65744 q 0.50091,0 0.86094,-0.37568 0.36002,-0.38351 0.36002,-1.00964 0,-0.62614 -0.36002,-1.00182 -0.36003,-0.3835 -0.86094,-0.3835 -0.50873,0 -0.86876,0.37568 -0.3522,0.37568 -0.3522,1.00964 0,0.63396 0.3522,1.00964 0.36003,0.37568 0.86876,0.37568 z"
           style="font-style:normal;font-variant:normal;font-weight:normal;font-stretch:normal;font-family:'Product Sans';-inkscape-font-specification:'Product Sans';fill:#ffffff;fill-opacity:1"
           id="path4162" />
        <path
           d="m 419.01302,571.93708 -0.74354,0 0.89224,-1.93319 -1.58098,-3.59244 0.78266,0 1.1427,2.75499 0.0156,0 1.11139,-2.75499 0.78266,0 -2.40278,5.52563 z"
           style="font-style:normal;font-variant:normal;font-weight:normal;font-stretch:normal;font-family:'Product Sans';-inkscape-font-specification:'Product Sans';fill:#ffffff;fill-opacity:1"
           id="path4164" />
        <path
           d="m 423.54503,570.30913 q -0.60266,0 -0.92355,-0.32089 -0.31307,-0.32089 -0.31307,-0.90789 l 0,-2.01146 -0.67309,0 0,-0.65744 0.67309,0 0,-1.174 0.72006,0 0,1.174 0.9392,0 0,0.65744 -0.9392,0 0,1.95667 q 0,0.62613 0.51656,0.62613 0.19566,0 0.32872,-0.0626 l 0.25045,0.61831 q -0.2348,0.10174 -0.57917,0.10174 z"
           style="font-style:normal;font-variant:normal;font-weight:normal;font-stretch:normal;font-family:'Product Sans';-inkscape-font-specification:'Product Sans';fill:#ffffff;fill-opacity:1"
           id="path4166" />
        <path
           d="m 425.41854,564.64262 0,1.76883 -0.0313,0.53222 0.0313,0 q 0.15653,-0.27394 0.49308,-0.46178 0.33654,-0.19566 0.72005,-0.19566 0.71223,0 1.08791,0.43829 0.37568,0.43829 0.37568,1.174 l 0,2.348 -0.72006,0 0,-2.23843 q 0,-1.06442 -0.94702,-1.06442 -0.44612,0 -0.72788,0.36002 -0.28176,0.3522 -0.28176,0.8218 l 0,2.12103 -0.72006,0 0,-5.6039 0.72006,0 z"
           style="font-style:normal;font-variant:normal;font-weight:normal;font-stretch:normal;font-family:'Product Sans';-inkscape-font-specification:'Product Sans';fill:#ffffff;fill-opacity:1"
           id="path4168" />
        <path
           d="m 429.28467,566.87323 q 0.55569,-0.587 1.41662,-0.587 0.86094,0 1.41663,0.587 0.55569,0.57917 0.55569,1.45576 0,0.87658 -0.55569,1.46358 -0.55569,0.57918 -1.41663,0.57918 -0.86093,0 -1.41662,-0.57918 -0.5557,-0.587 -0.5557,-1.46358 0,-0.87659 0.5557,-1.45576 z m 0.53221,2.4654 q 0.37568,0.37568 0.88441,0.37568 0.50874,0 0.87659,-0.37568 0.37568,-0.38351 0.37568,-1.00964 0,-0.62614 -0.37568,-1.00182 -0.36785,-0.3835 -0.87659,-0.3835 -0.50873,0 -0.88441,0.3835 -0.36785,0.37568 -0.36785,1.00182 0,0.62613 0.36785,1.00964 z"
           style="font-style:normal;font-variant:normal;font-weight:normal;font-stretch:normal;font-family:'Product Sans';-inkscape-font-specification:'Product Sans';fill:#ffffff;fill-opacity:1"
           id="path4170" />
        <path
           d="m 433.94765,566.41145 0,0.53222 0.0313,0 q 0.15653,-0.27394 0.49308,-0.46178 0.33654,-0.19566 0.72005,-0.19566 0.71223,0 1.08791,0.43829 0.37568,0.43829 0.37568,1.174 l 0,2.348 -0.72005,0 0,-2.23843 q 0,-1.06442 -0.94703,-1.06442 -0.44612,0 -0.72788,0.36002 -0.28176,0.3522 -0.28176,0.8218 l 0,2.12103 -0.72006,0 0,-3.83507 0.68875,0 z"
           style="font-style:normal;font-variant:normal;font-weight:normal;font-stretch:normal;font-family:'Product Sans';-inkscape-font-specification:'Product Sans';fill:#ffffff;fill-opacity:1"
           id="path4172" />
      </g>
      <g
         id="g138566"
         transform="translate(346.53155,511.24311)"
         style="fill:#6b470d;fill-opacity:1">
        <path
           id="rect4270"
           d="m 75.623397,16.694814 c -1.886114,0 -3.404538,1.518424 -3.404538,3.404538 l 0,2.269691 5.674229,0 0,1.134846 -5.674229,0 -2.269692,0 c -2.514818,0 -4.539383,2.024565 -4.539383,4.539384 l 0,2.269691 c 0,2.514819 2.024565,4.539384 4.539383,4.539384 l 0,-2.269692 c 0,-2.08943 1.405155,-3.822825 3.320311,-4.355415 0.166643,-0.04635 0.33748,-0.08205 0.509794,-0.113042 0.232462,-0.03642 0.466278,-0.07093 0.709279,-0.07093 l 4.539383,0 3.659434,0 c 0.541527,-0.602464 0.87995,-1.392119 0.87995,-2.269692 l 0,-5.674229 c 0,-1.886114 -1.518424,-3.404538 -3.404538,-3.404538 l -4.539383,0 z m -1.134846,2.269692 c 0.628704,0 1.134846,0.506141 1.134846,1.134846 0,0.628704 -0.506142,1.134846 -1.134846,1.134846 -0.628705,0 -1.134846,-0.506142 -1.134846,-1.134846 0,-0.628705 0.506141,-1.134846 1.134846,-1.134846 z m 11.348458,4.539383 0,2.269692 c 0,2.08943 -1.405154,3.822825 -3.32031,4.355415 -0.166643,0.04635 -0.337481,0.08205 -0.509794,0.113042 -0.232462,0.03642 -0.466278,0.07093 -0.709279,0.07093 l -4.539383,0 -3.659435,0 c -0.541527,0.602464 -0.879949,1.392119 -0.879949,2.269692 l 0,5.674229 c 0,1.886114 1.518424,3.404538 3.404538,3.404538 l 4.539383,0 c 1.886114,0 3.404538,-1.518424 3.404538,-3.404538 l 0,-2.269691 -5.67423,0 0,-1.134846 5.67423,0 2.269691,0 c 2.514819,0 4.539384,-2.024565 4.539384,-4.539384 l 0,-2.269691 c 0,-2.514819 -2.024565,-4.539384 -4.539384,-4.539384 z m -4.539383,13.61815 c 0.628705,0 1.134846,0.506142 1.134846,1.134846 0,0.628705 -0.506141,1.134846 -1.134846,1.134846 -0.628705,0 -1.134846,-0.506141 -1.134846,-1.134846 0,-0.628704 0.506141,-1.134846 1.134846,-1.134846 z"
           style="opacity:1;fill:#6b470d;fill-opacity:1;stroke:none"
           inkscape:connector-curvature="0" />
      </g>
    </g>
  </g>
</svg>
