<?xml version="1.0" encoding="UTF-8" standalone="no"?>
<svg
   xmlns:osb="http://www.openswatchbook.org/uri/2009/osb"
   xmlns:dc="http://purl.org/dc/elements/1.1/"
   xmlns:cc="http://creativecommons.org/ns#"
   xmlns:rdf="http://www.w3.org/1999/02/22-rdf-syntax-ns#"
   xmlns:svg="http://www.w3.org/2000/svg"
   xmlns="http://www.w3.org/2000/svg"
   xmlns:xlink="http://www.w3.org/1999/xlink"
   xmlns:sodipodi="http://sodipodi.sourceforge.net/DTD/sodipodi-0.dtd"
   xmlns:inkscape="http://www.inkscape.org/namespaces/inkscape"
   viewBox="0 0 64 64"
   id="svg2"
   version="1.1"
   inkscape:version="0.91 r13725"
   sodipodi:docname="application-x-font-bdf.svg"
   width="64"
   height="64">
  <metadata
     id="metadata84">
    <rdf:RDF>
      <cc:Work
         rdf:about="">
        <dc:format>image/svg+xml</dc:format>
        <dc:type
           rdf:resource="http://purl.org/dc/dcmitype/StillImage" />
        <dc:title />
      </cc:Work>
    </rdf:RDF>
  </metadata>
  <sodipodi:namedview
     pagecolor="#a3a3a3"
     bordercolor="#666666"
     borderopacity="1"
     objecttolerance="10"
     gridtolerance="10"
     guidetolerance="10"
     inkscape:pageopacity="0"
     inkscape:pageshadow="2"
     inkscape:window-width="1366"
     inkscape:window-height="642"
     id="namedview82"
     showgrid="false"
     inkscape:showpageshadow="false"
     inkscape:zoom="4.9217645"
     inkscape:cx="-13.009774"
     inkscape:cy="34.703975"
     inkscape:window-x="0"
     inkscape:window-y="33"
     inkscape:window-maximized="1"
     inkscape:current-layer="svg2"
     showguides="false"
     inkscape:snap-bbox="true"
     inkscape:snap-bbox-edge-midpoints="false"
     inkscape:bbox-nodes="true">
    <inkscape:grid
       type="xygrid"
       id="grid3413" />
    <sodipodi:guide
       position="0,64"
       orientation="64,0"
       id="guide3482" />
    <sodipodi:guide
       position="0,0"
       orientation="0,64"
       id="guide3484" />
    <sodipodi:guide
       position="64,0"
       orientation="-64,0"
       id="guide3486" />
    <sodipodi:guide
       position="10,61"
       orientation="58,0"
       id="guide3492" />
    <sodipodi:guide
       position="10,3"
       orientation="0,44"
       id="guide3494" />
    <sodipodi:guide
       position="54,3"
       orientation="-58,0"
       id="guide3496" />
    <sodipodi:guide
       position="54,61"
       orientation="0,-44"
       id="guide3498" />
    <sodipodi:guide
       position="54,47"
       orientation="-14,0"
       id="guide4310" />
    <sodipodi:guide
       position="54,61"
       orientation="0,-14"
       id="guide4312" />
    <sodipodi:guide
       position="21,43"
       orientation="22,0"
       id="guide4250" />
    <sodipodi:guide
       position="21,21"
       orientation="0,22"
       id="guide4252" />
    <sodipodi:guide
       position="43,21"
       orientation="-22,0"
       id="guide4254" />
    <sodipodi:guide
       position="43,43"
       orientation="0,-22"
       id="guide4256" />
  </sodipodi:namedview>
  <defs
     id="defs4">
    <linearGradient
       inkscape:collect="always"
       xlink:href="#linearGradient4422"
       id="linearGradient4190-9"
       x1="375.57144"
       y1="543.79797"
       x2="375.57144"
       y2="517.79797"
       gradientUnits="userSpaceOnUse"
       gradientTransform="matrix(2.1937939,0,0,2.2303048,-398.02626,-639.90393)" />
    <linearGradient
       id="linearGradient4422">
      <stop
         id="stop4424"
         offset="0"
         style="stop-color:#864ca3;stop-opacity:1" />
      <stop
         id="stop4426"
         offset="1"
         style="stop-color:#ad63cb;stop-opacity:1" />
    </linearGradient>
    <linearGradient
       id="linearGradient4207"
       osb:paint="gradient">
      <stop
         style="stop-color:#3498db;stop-opacity:1;"
         offset="0"
         id="stop3371" />
      <stop
         style="stop-color:#3498db;stop-opacity:0;"
         offset="1"
         id="stop3373" />
    </linearGradient>
  </defs>
  <g
     transform="translate(-392.98822,-511.27795)"
     id="layer1"
     inkscape:label="Capa 1"
     inkscape:transform-center-x="5.4653607"
     inkscape:transform-center-y="-9.4924686">
    <g
       transform="translate(0.41988239,0.03484499)"
       inkscape:label="Capa 1"
       id="layer1-3">
      <rect
         style="opacity:0.997;fill:url(#linearGradient4190-9);fill-opacity:1.0;stroke:none;stroke-width:0.104;stroke-linecap:round;stroke-linejoin:round;stroke-miterlimit:4;stroke-dasharray:none;stroke-opacity:1"
         id="rect4182-2"
         width="46.069672"
         height="57.987926"
         x="401.76834"
         y="514.94318"
         ry="1.7192465" />
      <path
         style="opacity:0.56499999;fill:#000000;fill-opacity:1;fill-rule:evenodd;stroke:none;stroke-width:1px;stroke-linecap:butt;stroke-linejoin:miter;stroke-opacity:1"
         d="m 401.76839,563.18111 -4e-5,7.90428 c 0,0 -0.0224,1.83572 1.81022,1.83572 l 42.46177,0 c 0,0 1.93884,-0.0444 1.91466,-2.52819 l -0.0702,-7.21181 z"
         id="path4302"
         inkscape:connector-curvature="0"
         sodipodi:nodetypes="ccccccc" />
      <g
         style="font-style:normal;font-weight:normal;font-size:7.8266716px;line-height:125%;font-family:sans-serif;letter-spacing:0px;word-spacing:0px;fill:#ffffff;fill-opacity:1;stroke:none;stroke-width:1px;stroke-linecap:butt;stroke-linejoin:miter;stroke-opacity:1"
         id="text4304">
        <path
           d="m 419.69323,565.11266 q 0.34437,0 0.57917,0.10175 l -0.25045,0.6183 q -0.12523,-0.0626 -0.32872,-0.0626 -0.28176,0 -0.46178,0.17219 -0.18001,0.16436 -0.18001,0.48525 l 0,0.48525 1.00181,0 0,0.65745 -1.00181,0 0,3.17762 -0.72005,0 0,-3.17762 -0.72006,0 0,-0.65745 0.72006,0 0,-0.50873 q 0,-0.587 0.37568,-0.9392 0.37568,-0.3522 0.98616,-0.3522 z"
           style="font-style:normal;font-variant:normal;font-weight:normal;font-stretch:normal;font-family:'Product Sans';-inkscape-font-specification:'Product Sans';fill:#ffffff;fill-opacity:1"
           id="path4170" />
        <path
           d="m 420.84289,567.37457 q 0.5557,-0.587 1.41663,-0.587 0.86093,0 1.41663,0.587 0.55569,0.57917 0.55569,1.45576 0,0.87659 -0.55569,1.46359 -0.5557,0.57917 -1.41663,0.57917 -0.86093,0 -1.41663,-0.57917 -0.55569,-0.587 -0.55569,-1.46359 0,-0.87659 0.55569,-1.45576 z m 0.53222,2.4654 q 0.37568,0.37568 0.88441,0.37568 0.50873,0 0.87659,-0.37568 0.37568,-0.38351 0.37568,-1.00964 0,-0.62613 -0.37568,-1.00181 -0.36786,-0.38351 -0.87659,-0.38351 -0.50873,0 -0.88441,0.38351 -0.36786,0.37568 -0.36786,1.00181 0,0.62613 0.36786,1.00964 z"
           style="font-style:normal;font-variant:normal;font-weight:normal;font-stretch:normal;font-family:'Product Sans';-inkscape-font-specification:'Product Sans';fill:#ffffff;fill-opacity:1"
           id="path4172" />
        <path
           d="m 425.50588,566.91279 0,0.53222 0.0313,0 q 0.15654,-0.27394 0.49308,-0.46178 0.33655,-0.19566 0.72006,-0.19566 0.71222,0 1.0879,0.43829 0.37568,0.4383 0.37568,1.174 l 0,2.348 -0.72005,0 0,-2.23842 q 0,-1.06443 -0.94703,-1.06443 -0.44612,0 -0.72788,0.36003 -0.28176,0.3522 -0.28176,0.8218 l 0,2.12102 -0.72005,0 0,-3.83507 0.68875,0 z"
           style="font-style:normal;font-variant:normal;font-weight:normal;font-stretch:normal;font-family:'Product Sans';-inkscape-font-specification:'Product Sans';fill:#ffffff;fill-opacity:1"
           id="path4174" />
        <path
           d="m 430.5273,570.81048 q -0.60266,0 -0.92355,-0.3209 -0.31307,-0.32089 -0.31307,-0.90789 l 0,-2.01145 -0.67309,0 0,-0.65745 0.67309,0 0,-1.174 0.72006,0 0,1.174 0.9392,0 0,0.65745 -0.9392,0 0,1.95666 q 0,0.62614 0.51656,0.62614 0.19566,0 0.32872,-0.0626 l 0.25045,0.61831 q -0.2348,0.10175 -0.57917,0.10175 z"
           style="font-style:normal;font-variant:normal;font-weight:normal;font-stretch:normal;font-family:'Product Sans';-inkscape-font-specification:'Product Sans';fill:#ffffff;fill-opacity:1"
           id="path4176" />
      </g>
      <g
         transform="matrix(1.8038299,0,0,1.8038299,-589.54623,-575.79303)"
         id="layer1-34"
         inkscape:label="Capa 1"
         style="fill:#104563;fill-opacity:1" />
      <g
         transform="translate(-37.930796,37.016448)"
         id="layer1-6"
         inkscape:label="Capa 1">
        <g
           transform="translate(-51.525445,5.4558218)"
           inkscape:label="Capa 1"
           id="layer1-4-4">
          <g
             id="layer1-3-0"
             inkscape:label="Capa 1"
             transform="translate(-34.965532,2.4832225)" />
        </g>
        <g
           transform="translate(51.385479,-6.0099446)"
           id="g4403" />
      </g>
      <g
         style="font-style:normal;font-weight:normal;font-size:47.91780472px;line-height:125%;font-family:sans-serif;letter-spacing:0px;word-spacing:0px;fill:#3c2249;fill-opacity:1;stroke:none;stroke-width:1px;stroke-linecap:butt;stroke-linejoin:miter;stroke-opacity:1"
         id="text12798">
        <path
           d="m 422.66629,552.97347 q -3.73759,0 -6.27723,-2.1563 -2.49173,-2.1563 -2.49173,-5.70222 0,-3.83342 2.97091,-5.98972 2.9709,-2.20422 7.33142,-2.20422 3.88134,0 6.37307,1.43753 l 0,-0.67085 q 0,-2.58756 -1.77296,-4.12093 -1.77296,-1.58129 -4.36052,-1.58129 -1.91671,0 -3.498,0.91044 -1.53337,0.91044 -2.10838,2.49173 l -4.0251,-1.72504 q 0.8146,-2.10839 3.21049,-3.88135 2.39589,-1.82087 6.32515,-1.82087 4.50428,0 7.47518,2.63548 2.9709,2.63548 2.9709,7.42726 l 0,14.18367 -4.21676,0 0,-3.25841 -0.19167,0 q -2.63548,4.02509 -7.71477,4.02509 z m 0.71877,-4.02509 q 2.73131,0 4.93553,-2.01255 2.25214,-2.06047 2.25214,-4.8397 -1.8688,-1.53337 -5.60639,-1.53337 -3.21049,0 -4.83969,1.38962 -1.62921,1.38961 -1.62921,3.25841 0,1.72504 1.48545,2.73131 1.48546,1.00628 3.40217,1.00628 z"
           style="font-style:normal;font-variant:normal;font-weight:normal;font-stretch:normal;font-family:'Product Sans';-inkscape-font-specification:'Product Sans';fill:#3c2249;fill-opacity:1"
           id="path4167" />
      </g>
    </g>
  </g>
</svg>
