<?xml version="1.0" encoding="UTF-8" standalone="no"?>
<svg
   xmlns:osb="http://www.openswatchbook.org/uri/2009/osb"
   xmlns:dc="http://purl.org/dc/elements/1.1/"
   xmlns:cc="http://creativecommons.org/ns#"
   xmlns:rdf="http://www.w3.org/1999/02/22-rdf-syntax-ns#"
   xmlns:svg="http://www.w3.org/2000/svg"
   xmlns="http://www.w3.org/2000/svg"
   xmlns:xlink="http://www.w3.org/1999/xlink"
   xmlns:sodipodi="http://sodipodi.sourceforge.net/DTD/sodipodi-0.dtd"
   xmlns:inkscape="http://www.inkscape.org/namespaces/inkscape"
   viewBox="0 0 64 64"
   id="svg2"
   version="1.1"
   inkscape:version="0.91 r13725"
   sodipodi:docname="application-x-designer.svg"
   width="64"
   height="64">
  <metadata
     id="metadata84">
    <rdf:RDF>
      <cc:Work
         rdf:about="">
        <dc:format>image/svg+xml</dc:format>
        <dc:type
           rdf:resource="http://purl.org/dc/dcmitype/StillImage" />
        <dc:title></dc:title>
      </cc:Work>
    </rdf:RDF>
  </metadata>
  <sodipodi:namedview
     pagecolor="#848484"
     bordercolor="#666666"
     borderopacity="1"
     objecttolerance="10"
     gridtolerance="10"
     guidetolerance="10"
     inkscape:pageopacity="0"
     inkscape:pageshadow="2"
     inkscape:window-width="1366"
     inkscape:window-height="642"
     id="namedview82"
     showgrid="false"
     inkscape:showpageshadow="false"
     inkscape:zoom="4.285"
     inkscape:cx="50.053676"
     inkscape:cy="34.602385"
     inkscape:window-x="0"
     inkscape:window-y="33"
     inkscape:window-maximized="0"
     inkscape:current-layer="svg2"
     showguides="false"
     inkscape:snap-bbox="true"
     inkscape:snap-bbox-edge-midpoints="false"
     inkscape:bbox-nodes="true">
    <inkscape:grid
       type="xygrid"
       id="grid3413" />
    <sodipodi:guide
       position="0,64"
       orientation="64,0"
       id="guide3482" />
    <sodipodi:guide
       position="0,0"
       orientation="0,64"
       id="guide3484" />
    <sodipodi:guide
       position="64,0"
       orientation="-64,0"
       id="guide3486" />
    <sodipodi:guide
       position="10,61"
       orientation="58,0"
       id="guide3492" />
    <sodipodi:guide
       position="10,3"
       orientation="0,44"
       id="guide3494" />
    <sodipodi:guide
       position="54,3"
       orientation="-58,0"
       id="guide3496" />
    <sodipodi:guide
       position="54,61"
       orientation="0,-44"
       id="guide3498" />
    <sodipodi:guide
       position="54,47"
       orientation="-14,0"
       id="guide4310" />
    <sodipodi:guide
       position="54,61"
       orientation="0,-14"
       id="guide4312" />
    <sodipodi:guide
       position="21,43"
       orientation="22,0"
       id="guide4250" />
    <sodipodi:guide
       position="21,21"
       orientation="0,22"
       id="guide4252" />
    <sodipodi:guide
       position="43,21"
       orientation="-22,0"
       id="guide4254" />
    <sodipodi:guide
       position="43,43"
       orientation="0,-22"
       id="guide4256" />
  </sodipodi:namedview>
  <defs
     id="defs4">
    <linearGradient
       inkscape:collect="always"
       xlink:href="#linearGradient4422"
       id="linearGradient4190-9"
       x1="375.57144"
       y1="543.79797"
       x2="375.57144"
       y2="517.79797"
       gradientUnits="userSpaceOnUse"
       gradientTransform="matrix(2.1937939,0,0,2.2303048,-398.02626,-639.90393)" />
    <linearGradient
       id="linearGradient4422">
      <stop
         id="stop4424"
         offset="0"
         style="stop-color:#259ee1;stop-opacity:1" />
      <stop
         id="stop4426"
         offset="1"
         style="stop-color:#19b4fd;stop-opacity:1" />
    </linearGradient>
    <linearGradient
       id="linearGradient4207"
       osb:paint="gradient">
      <stop
         style="stop-color:#3498db;stop-opacity:1;"
         offset="0"
         id="stop3371" />
      <stop
         style="stop-color:#3498db;stop-opacity:0;"
         offset="1"
         id="stop3373" />
    </linearGradient>
  </defs>
  <g
     transform="translate(-392.98822,-511.27795)"
     id="layer1"
     inkscape:label="Capa 1"
     inkscape:transform-center-x="5.4653607"
     inkscape:transform-center-y="-9.4924686">
    <g
       transform="translate(0.41988239,0.03484499)"
       inkscape:label="Capa 1"
       id="layer1-3">
      <rect
         style="opacity:0.997;fill:url(#linearGradient4190-9);fill-opacity:1.0;stroke:none;stroke-width:0.104;stroke-linecap:round;stroke-linejoin:round;stroke-miterlimit:4;stroke-dasharray:none;stroke-opacity:1"
         id="rect4182-2"
         width="46.069672"
         height="57.987926"
         x="401.76834"
         y="514.94318"
         ry="1.7192465" />
      <path
         style="opacity:0.56499999;fill:#000000;fill-opacity:1;fill-rule:evenodd;stroke:none;stroke-width:1px;stroke-linecap:butt;stroke-linejoin:miter;stroke-opacity:1"
         d="m 401.76839,563.18111 -4e-5,7.90428 c 0,0 -0.0224,1.83572 1.81022,1.83572 l 42.46177,0 c 0,0 1.93884,-0.0444 1.91466,-2.52819 l -0.0702,-7.21181 z"
         id="path4302"
         inkscape:connector-curvature="0"
         sodipodi:nodetypes="ccccccc" />
      <g
         style="font-style:normal;font-weight:normal;font-size:7.8266716px;line-height:125%;font-family:sans-serif;letter-spacing:0px;word-spacing:0px;fill:#ffffff;fill-opacity:1;stroke:none;stroke-width:1px;stroke-linecap:butt;stroke-linejoin:miter;stroke-opacity:1"
         id="text4304">
        <path
           d="m 416.16596,570.17253 q -0.74353,0 -1.28357,-0.587 -0.54004,-0.587 -0.54004,-1.45576 0,-0.86876 0.54004,-1.45576 0.54004,-0.587 1.28357,-0.587 0.43829,0 0.78267,0.18784 0.3522,0.18784 0.52438,0.4696 l 0.0313,0 -0.0313,-0.53222 0,-1.76882 0.72006,0 0,5.60389 -0.68875,0 0,-0.53221 -0.0313,0 q -0.17218,0.28176 -0.52438,0.4696 -0.34438,0.18784 -0.78267,0.18784 z m 0.1174,-0.65744 q 0.50873,0 0.86093,-0.37568 0.36003,-0.37568 0.36003,-1.00964 0,-0.63396 -0.36003,-1.00964 -0.3522,-0.37568 -0.86093,-0.37568 -0.50091,0 -0.86093,0.3835 -0.36003,0.37568 -0.36003,1.00182 0,0.62613 0.36003,1.00964 0.36002,0.37568 0.86093,0.37568 z"
           style="font-style:normal;font-variant:normal;font-weight:normal;font-stretch:normal;font-family:'Product Sans';-inkscape-font-specification:'Product Sans';fill:#ffffff;fill-opacity:1"
           id="path4162" />
        <path
           d="m 420.76266,570.17253 q -0.86876,0 -1.41662,-0.57917 -0.54004,-0.57918 -0.54004,-1.46359 0,-0.83746 0.52438,-1.44011 0.53222,-0.60265 1.35402,-0.60265 0.8531,0 1.36184,0.55569 0.51656,0.55569 0.51656,1.48707 l -0.008,0.13305 -3.02892,0 q 0.0313,0.57917 0.38351,0.91572 0.36002,0.33655 0.83745,0.33655 0.77484,0 1.04877,-0.65744 l 0.64179,0.2661 q -0.18784,0.44613 -0.61831,0.75137 -0.43046,0.29741 -1.0566,0.29741 z m 1.03312,-2.50454 q -0.0235,-0.32872 -0.30524,-0.62613 -0.27393,-0.29741 -0.8218,-0.29741 -0.39916,0 -0.69657,0.25045 -0.28959,0.25045 -0.39916,0.67309 l 2.22277,0 z"
           style="font-style:normal;font-variant:normal;font-weight:normal;font-stretch:normal;font-family:'Product Sans';-inkscape-font-specification:'Product Sans';fill:#ffffff;fill-opacity:1"
           id="path4164" />
        <path
           d="m 424.68395,570.17253 q -0.64179,0 -1.06443,-0.31307 -0.41481,-0.31306 -0.61048,-0.78267 l 0.64179,-0.2661 q 0.30524,0.72005 1.04094,0.72005 0.33655,0 0.54787,-0.1487 0.21915,-0.14871 0.21915,-0.39134 0,-0.37568 -0.52439,-0.50873 l -0.77484,-0.18784 q -0.36785,-0.0939 -0.69657,-0.3522 -0.32872,-0.26611 -0.32872,-0.71223 0,-0.50873 0.44612,-0.8218 0.45394,-0.32089 1.07225,-0.32089 0.50873,0 0.90789,0.2348 0.39916,0.22697 0.57135,0.65744 l -0.62613,0.25828 q -0.21132,-0.50874 -0.87659,-0.50874 -0.32089,0 -0.54004,0.13306 -0.21915,0.13305 -0.21915,0.36002 0,0.32872 0.50874,0.44612 l 0.75918,0.18002 q 0.54004,0.12522 0.79832,0.43046 0.25828,0.30524 0.25828,0.68875 0,0.51656 -0.42264,0.86094 -0.42264,0.34437 -1.0879,0.34437 z"
           style="font-style:normal;font-variant:normal;font-weight:normal;font-stretch:normal;font-family:'Product Sans';-inkscape-font-specification:'Product Sans';fill:#ffffff;fill-opacity:1"
           id="path4166" />
        <path
           d="m 427.55805,565.24955 q -0.14871,0.14871 -0.36003,0.14871 -0.21132,0 -0.36003,-0.14871 -0.1487,-0.1487 -0.1487,-0.36002 0,-0.21132 0.1487,-0.36003 0.14871,-0.14871 0.36003,-0.14871 0.21132,0 0.36003,0.14871 0.14871,0.14871 0.14871,0.36003 0,0.21132 -0.14871,0.36002 z m 0,4.79775 -0.72006,0 0,-3.83507 0.72006,0 0,3.83507 z"
           style="font-style:normal;font-variant:normal;font-weight:normal;font-stretch:normal;font-family:'Product Sans';-inkscape-font-specification:'Product Sans';fill:#ffffff;fill-opacity:1"
           id="path4168" />
        <path
           d="m 430.12397,571.86309 q -0.68092,0 -1.11138,-0.34437 -0.43047,-0.33655 -0.61831,-0.77484 l 0.65744,-0.27394 q 0.10957,0.31307 0.39916,0.52439 0.29741,0.21132 0.67309,0.21132 0.59483,0 0.93138,-0.36003 0.34437,-0.3522 0.34437,-0.96268 l 0,-0.36785 -0.0313,0 q -0.18784,0.28176 -0.53221,0.4696 -0.34437,0.18784 -0.77484,0.18784 -0.74353,0 -1.28357,-0.587 -0.54004,-0.587 -0.54004,-1.45576 0,-0.86876 0.54004,-1.45576 0.54004,-0.587 1.28357,-0.587 0.43047,0 0.77484,0.18784 0.34437,0.18784 0.53221,0.4696 l 0.0313,0 0,-0.53222 0.68875,0 0,3.63941 q 0,0.98616 -0.57135,1.49489 -0.57135,0.51656 -1.39315,0.51656 z m 0.0548,-2.348 q 0.50873,0 0.86093,-0.37568 0.36003,-0.37568 0.36003,-1.00964 0,-0.63396 -0.36003,-1.00964 -0.3522,-0.37568 -0.86093,-0.37568 -0.50091,0 -0.86093,0.3835 -0.36003,0.37568 -0.36003,1.00182 0,0.62613 0.36003,1.00964 0.36002,0.37568 0.86093,0.37568 z"
           style="font-style:normal;font-variant:normal;font-weight:normal;font-stretch:normal;font-family:'Product Sans';-inkscape-font-specification:'Product Sans';fill:#ffffff;fill-opacity:1"
           id="path4170" />
        <path
           d="m 433.65515,566.21223 0,0.53222 0.0313,0 q 0.15654,-0.27394 0.49308,-0.46178 0.33655,-0.19566 0.72006,-0.19566 0.71223,0 1.08791,0.43829 0.37568,0.43829 0.37568,1.174 l 0,2.348 -0.72006,0 0,-2.23843 q 0,-1.06442 -0.94703,-1.06442 -0.44612,0 -0.72788,0.36002 -0.28176,0.3522 -0.28176,0.8218 l 0,2.12103 -0.72005,0 0,-3.83507 0.68875,0 z"
           style="font-style:normal;font-variant:normal;font-weight:normal;font-stretch:normal;font-family:'Product Sans';-inkscape-font-specification:'Product Sans';fill:#ffffff;fill-opacity:1"
           id="path4172" />
      </g>
      <g
         transform="matrix(1.8038299,0,0,1.8038299,-589.54623,-575.79303)"
         id="layer1-34"
         inkscape:label="Capa 1"
         style="fill:#104563;fill-opacity:1">
        <path
           inkscape:connector-curvature="0"
           id="path4116"
           d="m 561.94385,619.49994 c 0.9248,0 0.577,1.08812 0,1.34158 -0.96919,0.42573 -1.96116,-0.41644 -2.16436,-1.34158 -0.3066,-1.39597 0.81949,-2.66615 2.16436,-2.86307 1.75688,-0.25724 3.30414,1.15496 3.49172,2.86307 0.22895,2.08488 -1.45293,3.89381 -3.49172,4.07293 -2.3905,0.21001 -4.44713,-1.72619 -4.61894,-4.07293 -0.19615,-2.67922 1.9815,-4.9718 4.61894,-5.13731 2.95446,-0.1854 5.47311,2.22296 5.63313,5.13731 0.17673,3.21857 -2.45324,5.95485 -5.63313,6.11005 -3.47324,0.16952 -6.41987,-2.67425 -6.5708,-6.11005 -0.16339,-3.71975 2.88738,-6.87035 6.5708,-7.01744 3.95911,-0.1581 7.30802,3.09368 7.45165,7.01744 0.15346,4.19213 -3.294,7.7343 -7.45165,7.87478 -4.41946,0.14934 -8.15032,-3.489 -8.28793,-7.87478 -0.14564,-4.64165 3.67923,-8.55706 8.28793,-8.69202 4.85915,-0.1423 8.95532,3.86516 9.08784,8.69202 0.13925,5.07236 -4.04716,9.34581 -9.08784,9.47605 -5.28162,0.13648 -9.72912,-4.22555 -9.85725,-9.47605 -0.13391,-5.48721 4.40063,-10.10578 9.85725,-10.23194 5.68939,-0.13153 10.47625,4.57265 10.60055,10.23194 0.12933,5.8884 -4.74179,10.84094 -10.60055,10.9635 -4.76367,0.0996 -9.1397,-2.99674 -10.69939,-7.48704"
           style="fill:#104563;fill-rule:evenodd;stroke:none;stroke-width:1px;stroke-linecap:butt;stroke-linejoin:miter;stroke-opacity:1;fill-opacity:1"
           transform="matrix(0.7510871,0,0,0.75470056,140.25312,150.83503)" />
      </g>
    </g>
  </g>
</svg>
