<?xml version="1.0" encoding="UTF-8" standalone="no"?>
<svg
   xmlns:osb="http://www.openswatchbook.org/uri/2009/osb"
   xmlns:dc="http://purl.org/dc/elements/1.1/"
   xmlns:cc="http://creativecommons.org/ns#"
   xmlns:rdf="http://www.w3.org/1999/02/22-rdf-syntax-ns#"
   xmlns:svg="http://www.w3.org/2000/svg"
   xmlns="http://www.w3.org/2000/svg"
   xmlns:xlink="http://www.w3.org/1999/xlink"
   xmlns:sodipodi="http://sodipodi.sourceforge.net/DTD/sodipodi-0.dtd"
   xmlns:inkscape="http://www.inkscape.org/namespaces/inkscape"
   viewBox="0 0 64 64"
   id="svg2"
   version="1.1"
   inkscape:version="0.91 r13725"
   sodipodi:docname="application-pgp-encrypted.svg"
   width="64"
   height="64">
  <metadata
     id="metadata84">
    <rdf:RDF>
      <cc:Work
         rdf:about="">
        <dc:format>image/svg+xml</dc:format>
        <dc:type
           rdf:resource="http://purl.org/dc/dcmitype/StillImage" />
        <dc:title />
      </cc:Work>
    </rdf:RDF>
  </metadata>
  <sodipodi:namedview
     pagecolor="#919191"
     bordercolor="#666666"
     borderopacity="1"
     objecttolerance="10"
     gridtolerance="10"
     guidetolerance="10"
     inkscape:pageopacity="0"
     inkscape:pageshadow="2"
     inkscape:window-width="1366"
     inkscape:window-height="642"
     id="namedview82"
     showgrid="false"
     inkscape:showpageshadow="false"
     inkscape:zoom="5.2750166"
     inkscape:cx="-20.525386"
     inkscape:cy="29.271318"
     inkscape:window-x="0"
     inkscape:window-y="33"
     inkscape:window-maximized="1"
     inkscape:current-layer="svg2"
     showguides="false"
     inkscape:snap-bbox="true"
     inkscape:snap-bbox-edge-midpoints="false"
     inkscape:bbox-nodes="true">
    <inkscape:grid
       type="xygrid"
       id="grid3413" />
    <sodipodi:guide
       position="0,64"
       orientation="64,0"
       id="guide3482" />
    <sodipodi:guide
       position="0,0"
       orientation="0,64"
       id="guide3484" />
    <sodipodi:guide
       position="64,0"
       orientation="-64,0"
       id="guide3486" />
    <sodipodi:guide
       position="10,61"
       orientation="58,0"
       id="guide3492" />
    <sodipodi:guide
       position="10,3"
       orientation="0,44"
       id="guide3494" />
    <sodipodi:guide
       position="54,3"
       orientation="-58,0"
       id="guide3496" />
    <sodipodi:guide
       position="54,61"
       orientation="0,-44"
       id="guide3498" />
    <sodipodi:guide
       position="54,47"
       orientation="-14,0"
       id="guide4310" />
    <sodipodi:guide
       position="54,61"
       orientation="0,-14"
       id="guide4312" />
    <sodipodi:guide
       position="21,43"
       orientation="22,0"
       id="guide4250" />
    <sodipodi:guide
       position="21,21"
       orientation="0,22"
       id="guide4252" />
    <sodipodi:guide
       position="43,21"
       orientation="-22,0"
       id="guide4254" />
    <sodipodi:guide
       position="43,43"
       orientation="0,-22"
       id="guide4256" />
  </sodipodi:namedview>
  <defs
     id="defs4">
    <linearGradient
       id="linearGradient4531"
       inkscape:collect="always">
      <stop
         id="stop4533"
         offset="0"
         style="stop-color:#179985;stop-opacity:1" />
      <stop
         id="stop4535"
         offset="1"
         style="stop-color:#3cc380;stop-opacity:1" />
    </linearGradient>
    <linearGradient
       inkscape:collect="always"
       xlink:href="#linearGradient4531"
       id="linearGradient4190-9"
       x1="375.57144"
       y1="543.79797"
       x2="375.57144"
       y2="517.79797"
       gradientUnits="userSpaceOnUse"
       gradientTransform="matrix(2.1937939,0,0,2.2303048,-398.02626,-639.90393)" />
    <linearGradient
       osb:paint="gradient"
       id="linearGradient4207">
      <stop
         id="stop3371"
         offset="0"
         style="stop-color:#3498db;stop-opacity:1;" />
      <stop
         id="stop3373"
         offset="1"
         style="stop-color:#3498db;stop-opacity:0;" />
    </linearGradient>
  </defs>
  <g
     transform="translate(-392.98822,-511.27795)"
     id="layer1"
     inkscape:label="Capa 1"
     inkscape:transform-center-x="5.4653607"
     inkscape:transform-center-y="-9.4924686">
    <g
       transform="translate(0.41988239,0.03484499)"
       inkscape:label="Capa 1"
       id="layer1-3">
      <rect
         style="opacity:0.997;fill:url(#linearGradient4190-9);fill-opacity:1.0;stroke:none;stroke-width:0.104;stroke-linecap:round;stroke-linejoin:round;stroke-miterlimit:4;stroke-dasharray:none;stroke-opacity:1"
         id="rect4182-2"
         width="46.069672"
         height="57.987926"
         x="401.76834"
         y="514.94318"
         ry="1.7192465" />
      <path
         style="opacity:0.56499999;fill:#000000;fill-opacity:1;fill-rule:evenodd;stroke:none;stroke-width:1px;stroke-linecap:butt;stroke-linejoin:miter;stroke-opacity:1"
         d="m 401.76839,563.18111 -4e-5,7.90428 c 0,0 -0.0224,1.83572 1.81022,1.83572 l 42.46177,0 c 0,0 1.93884,-0.0444 1.91466,-2.52819 l -0.0702,-7.21181 z"
         id="path4302"
         inkscape:connector-curvature="0"
         sodipodi:nodetypes="ccccccc" />
      <g
         style="font-style:normal;font-weight:normal;font-size:7.8266716px;line-height:125%;font-family:sans-serif;letter-spacing:0px;word-spacing:0px;fill:#ffffff;fill-opacity:1;stroke:none;stroke-width:1px;stroke-linecap:butt;stroke-linejoin:miter;stroke-opacity:1"
         id="text4304">
        <path
           d="m 419.58138,570.54785 -0.72005,0 0,-5.6039 0.72005,0 0,5.6039 z"
           style="font-style:normal;font-variant:normal;font-weight:normal;font-stretch:normal;font-family:'Product Sans';-inkscape-font-specification:'Product Sans';fill:#ffffff;fill-opacity:1"
           id="path4162" />
        <path
           d="m 420.74181,567.17456 q 0.55569,-0.587 1.41663,-0.587 0.86093,0 1.41662,0.587 0.5557,0.57917 0.5557,1.45576 0,0.87658 -0.5557,1.46358 -0.55569,0.57918 -1.41662,0.57918 -0.86094,0 -1.41663,-0.57918 -0.5557,-0.587 -0.5557,-1.46358 0,-0.87659 0.5557,-1.45576 z m 0.53221,2.4654 q 0.37568,0.37568 0.88442,0.37568 0.50873,0 0.87658,-0.37568 0.37568,-0.38351 0.37568,-1.00964 0,-0.62614 -0.37568,-1.00182 -0.36785,-0.3835 -0.87658,-0.3835 -0.50874,0 -0.88442,0.3835 -0.36785,0.37568 -0.36785,1.00182 0,0.62613 0.36785,1.00964 z"
           style="font-style:normal;font-variant:normal;font-weight:normal;font-stretch:normal;font-family:'Product Sans';-inkscape-font-specification:'Product Sans';fill:#ffffff;fill-opacity:1"
           id="path4164" />
        <path
           d="m 426.54565,570.67308 q -0.86093,0 -1.41663,-0.57918 -0.55569,-0.587 -0.55569,-1.46358 0,-0.87659 0.55569,-1.45576 0.5557,-0.587 1.41663,-0.587 0.64179,0 1.06443,0.31306 0.42264,0.31307 0.61831,0.7905 l -0.65744,0.27393 q -0.29742,-0.72005 -1.07226,-0.72005 -0.47742,0 -0.84528,0.39133 -0.36003,0.39133 -0.36003,0.99399 0,0.60265 0.36003,0.99398 0.36786,0.39134 0.84528,0.39134 0.80615,0 1.11139,-0.72006 l 0.64179,0.27394 q -0.19567,0.4696 -0.63396,0.79049 -0.43047,0.31307 -1.07226,0.31307 z"
           style="font-style:normal;font-variant:normal;font-weight:normal;font-stretch:normal;font-family:'Product Sans';-inkscape-font-specification:'Product Sans';fill:#ffffff;fill-opacity:1"
           id="path4166" />
        <path
           d="m 429.59402,564.94395 0,3.45157 1.65925,-1.68274 0.92355,0 0,0.0313 -1.49489,1.49489 1.56533,2.27756 0,0.0313 -0.86876,0 -1.20531,-1.80796 -0.57917,0.57917 0,1.22879 -0.72006,0 0,-5.6039 0.72006,0 z"
           style="font-style:normal;font-variant:normal;font-weight:normal;font-stretch:normal;font-family:'Product Sans';-inkscape-font-specification:'Product Sans';fill:#ffffff;fill-opacity:1"
           id="path4168" />
      </g>
      <g
         transform="matrix(1.3056978,0,0,1.3056978,410.59946,-819.42334)"
         id="layer1-34"
         inkscape:label="Capa 1"
         style="fill:#0a362d;fill-opacity:1">
        <path
           style="fill:#0c4439;fill-opacity:1"
           inkscape:connector-curvature="0"
           id="path3"
           d="m 16.507441,1040.1505 0,-2.2304 c 0,-3.0269 -2.462746,-5.4903 -5.489918,-5.4903 -3.0271667,0 -5.4899168,2.4634 -5.4899168,5.4903 l 0,2.2304 c -0.4326359,0.09 -0.7586062,0.4753 -0.7586062,0.9348 l 0,8.3578 c 0,0.5263 0.4283869,0.9549 0.9549429,0.9549 l 10.5871141,0 c 0.526555,0 0.954943,-0.4286 0.954943,-0.9549 l 0,-8.3578 c 0,-0.4595 -0.32592,-0.8437 -0.758559,-0.9348 z m -10.3252691,9.2107 c -0.3317947,0 -0.6008021,-0.269 -0.6008021,-0.6008 0,-0.3318 0.2689597,-0.6007 0.6008021,-0.6007 0.3318424,0 0.6008023,0.2689 0.6008023,0.6007 0,0.3316 -0.269007,0.6008 -0.6008023,0.6008 z m 0,-6.9929 c -0.3317947,0 -0.6008021,-0.2688 -0.6008021,-0.6006 0,-0.3319 0.2689597,-0.6008 0.6008021,-0.6008 0.3318424,0 0.6008023,0.2691 0.6008023,0.6008 0,0.3318 -0.269007,0.6006 -0.6008023,0.6006 z m 6.1179371,4.9069 c 0.01947,0.1048 -0.05052,0.1877 -0.155561,0.1877 l -2.2286935,0 c -0.1050401,0 -0.175041,-0.083 -0.1555596,-0.1877 l 0.3548591,-1.8806 c -0.268628,-0.2449 -0.4372225,-0.5975 -0.4372225,-0.9898 0,-0.7402 0.5997505,-1.34 1.3395915,-1.34 0.739845,0 1.339596,0.5998 1.339596,1.34 0,0.3815 -0.159764,0.7253 -0.415733,0.9694 l 0.358723,1.901 z m 2.29745,-7.1449 -7.160067,0 0,-2.2102 c 0,-1.9741 1.6059748,-3.58 3.580031,-3.58 1.974059,0 3.580036,1.606 3.580036,3.58 l 0,2.2102 z m 1.25532,9.2309 c -0.331795,0 -0.600807,-0.269 -0.600807,-0.6008 0,-0.3318 0.268962,-0.6007 0.600807,-0.6007 0.331839,0 0.600802,0.2689 0.600802,0.6007 0,0.3316 -0.269008,0.6008 -0.600802,0.6008 z m 0,-6.9929 c -0.331795,0 -0.600807,-0.2688 -0.600807,-0.6006 0,-0.3319 0.268962,-0.6008 0.600807,-0.6008 0.331839,0 0.600802,0.2691 0.600802,0.6008 0,0.3318 -0.269008,0.6006 -0.600802,0.6006 z" />
      </g>
    </g>
  </g>
</svg>
