<?xml version="1.0" encoding="UTF-8" standalone="no"?>
<svg
   xmlns:osb="http://www.openswatchbook.org/uri/2009/osb"
   xmlns:dc="http://purl.org/dc/elements/1.1/"
   xmlns:cc="http://creativecommons.org/ns#"
   xmlns:rdf="http://www.w3.org/1999/02/22-rdf-syntax-ns#"
   xmlns:svg="http://www.w3.org/2000/svg"
   xmlns="http://www.w3.org/2000/svg"
   xmlns:xlink="http://www.w3.org/1999/xlink"
   xmlns:sodipodi="http://sodipodi.sourceforge.net/DTD/sodipodi-0.dtd"
   xmlns:inkscape="http://www.inkscape.org/namespaces/inkscape"
   viewBox="0 0 64 64"
   id="svg2"
   version="1.1"
   inkscape:version="0.91 r13725"
   sodipodi:docname="application-x-msdos-program.svg"
   width="64"
   height="64">
  <metadata
     id="metadata84">
    <rdf:RDF>
      <cc:Work
         rdf:about="">
        <dc:format>image/svg+xml</dc:format>
        <dc:type
           rdf:resource="http://purl.org/dc/dcmitype/StillImage" />
        <dc:title />
      </cc:Work>
    </rdf:RDF>
  </metadata>
  <sodipodi:namedview
     pagecolor="#bdbdbd"
     bordercolor="#666666"
     borderopacity="1"
     objecttolerance="10"
     gridtolerance="10"
     guidetolerance="10"
     inkscape:pageopacity="0"
     inkscape:pageshadow="2"
     inkscape:window-width="1366"
     inkscape:window-height="642"
     id="namedview82"
     showgrid="false"
     inkscape:showpageshadow="false"
     inkscape:zoom="5.577837"
     inkscape:cx="-21.661268"
     inkscape:cy="35.031257"
     inkscape:window-x="0"
     inkscape:window-y="33"
     inkscape:window-maximized="1"
     inkscape:current-layer="layer1-3"
     showguides="false"
     inkscape:snap-bbox="true"
     inkscape:snap-bbox-edge-midpoints="false"
     inkscape:bbox-nodes="true">
    <inkscape:grid
       type="xygrid"
       id="grid3413" />
    <sodipodi:guide
       position="0,64"
       orientation="64,0"
       id="guide3482" />
    <sodipodi:guide
       position="0,0"
       orientation="0,64"
       id="guide3484" />
    <sodipodi:guide
       position="64,0"
       orientation="-64,0"
       id="guide3486" />
    <sodipodi:guide
       position="10,61"
       orientation="58,0"
       id="guide3492" />
    <sodipodi:guide
       position="10,3"
       orientation="0,44"
       id="guide3494" />
    <sodipodi:guide
       position="54,3"
       orientation="-58,0"
       id="guide3496" />
    <sodipodi:guide
       position="54,61"
       orientation="0,-44"
       id="guide3498" />
    <sodipodi:guide
       position="54,47"
       orientation="-14,0"
       id="guide4310" />
    <sodipodi:guide
       position="54,61"
       orientation="0,-14"
       id="guide4312" />
    <sodipodi:guide
       position="21,43"
       orientation="22,0"
       id="guide4250" />
    <sodipodi:guide
       position="21,21"
       orientation="0,22"
       id="guide4252" />
    <sodipodi:guide
       position="43,21"
       orientation="-22,0"
       id="guide4254" />
    <sodipodi:guide
       position="43,43"
       orientation="0,-22"
       id="guide4256" />
  </sodipodi:namedview>
  <defs
     id="defs4">
    <linearGradient
       inkscape:collect="always"
       xlink:href="#linearGradient4422-0"
       id="linearGradient4190-9"
       x1="375.57144"
       y1="543.79797"
       x2="375.57144"
       y2="517.79797"
       gradientUnits="userSpaceOnUse"
       gradientTransform="matrix(2.1937939,0,0,2.2303048,-398.02626,-639.90393)" />
    <linearGradient
       id="linearGradient4207"
       osb:paint="gradient">
      <stop
         style="stop-color:#3498db;stop-opacity:1;"
         offset="0"
         id="stop3371" />
      <stop
         style="stop-color:#3498db;stop-opacity:0;"
         offset="1"
         id="stop3373" />
    </linearGradient>
    <linearGradient
       id="linearGradient4422-0">
      <stop
         style="stop-color:#25292d;stop-opacity:1"
         offset="0"
         id="stop4424-4" />
      <stop
         style="stop-color:#525962;stop-opacity:1"
         offset="1"
         id="stop4426-0" />
    </linearGradient>
  </defs>
  <g
     transform="translate(-392.98822,-511.27795)"
     id="layer1"
     inkscape:label="Capa 1"
     inkscape:transform-center-x="5.4653607"
     inkscape:transform-center-y="-9.4924686">
    <g
       transform="translate(0.41988239,0.03484499)"
       inkscape:label="Capa 1"
       id="layer1-3">
      <rect
         style="opacity:0.997;fill:url(#linearGradient4190-9);fill-opacity:1.0;stroke:none;stroke-width:0.104;stroke-linecap:round;stroke-linejoin:round;stroke-miterlimit:4;stroke-dasharray:none;stroke-opacity:1"
         id="rect4182-2"
         width="46.069672"
         height="57.987926"
         x="401.76834"
         y="514.94318"
         ry="1.7192465" />
      <path
         style="opacity:0.56499999;fill:#000000;fill-opacity:1;fill-rule:evenodd;stroke:none;stroke-width:1px;stroke-linecap:butt;stroke-linejoin:miter;stroke-opacity:1"
         d="m 401.76839,563.18111 -4e-5,7.90428 c 0,0 -0.0224,1.83572 1.81022,1.83572 l 42.46177,0 c 0,0 1.93884,-0.0444 1.91466,-2.52819 l -0.0702,-7.21181 z"
         id="path4302"
         inkscape:connector-curvature="0"
         sodipodi:nodetypes="ccccccc" />
      <g
         style="font-style:normal;font-weight:normal;font-size:7.8266716px;line-height:125%;font-family:sans-serif;letter-spacing:0px;word-spacing:0px;fill:#ffffff;fill-opacity:1;stroke:none;stroke-width:1px;stroke-linecap:butt;stroke-linejoin:miter;stroke-opacity:1"
         id="text4304">
        <path
           d="m 421.099,570.27311 q -0.86876,0 -1.41663,-0.57917 -0.54004,-0.57917 -0.54004,-1.46359 0,-0.83745 0.52439,-1.4401 0.53221,-0.60266 1.35402,-0.60266 0.8531,0 1.36184,0.5557 0.51656,0.55569 0.51656,1.48706 l -0.008,0.13306 -3.02892,0 q 0.0313,0.57917 0.3835,0.91572 0.36003,0.33654 0.83746,0.33654 0.77484,0 1.04877,-0.65744 l 0.64179,0.26611 q -0.18784,0.44612 -0.61831,0.75136 -0.43046,0.29741 -1.0566,0.29741 z m 1.03312,-2.50453 q -0.0235,-0.32872 -0.30524,-0.62613 -0.27393,-0.29742 -0.8218,-0.29742 -0.39916,0 -0.69657,0.25046 -0.28959,0.25045 -0.39916,0.67309 l 2.22277,0 z"
           style="font-style:normal;font-variant:normal;font-weight:normal;font-stretch:normal;font-family:'Product Sans';-inkscape-font-specification:'Product Sans';fill:#ffffff;fill-opacity:1"
           id="path4172" />
        <path
           d="m 426.66682,570.14789 -0.84528,0 -0.94702,-1.41663 -0.93138,1.41663 -0.84528,0 1.35401,-1.94884 -1.3227,-1.88623 0.81397,0 0.94703,1.35401 0.90007,-1.35401 0.84528,0 -1.33836,1.88623 1.36966,1.94884 z"
           style="font-style:normal;font-variant:normal;font-weight:normal;font-stretch:normal;font-family:'Product Sans';-inkscape-font-specification:'Product Sans';fill:#ffffff;fill-opacity:1"
           id="path4174" />
        <path
           d="m 428.7881,570.27311 q -0.86876,0 -1.41663,-0.57917 -0.54004,-0.57917 -0.54004,-1.46359 0,-0.83745 0.52438,-1.4401 0.53222,-0.60266 1.35402,-0.60266 0.85311,0 1.36184,0.5557 0.51656,0.55569 0.51656,1.48706 l -0.008,0.13306 -3.02892,0 q 0.0313,0.57917 0.38351,0.91572 0.36003,0.33654 0.83745,0.33654 0.77484,0 1.04878,-0.65744 l 0.64178,0.26611 q -0.18784,0.44612 -0.6183,0.75136 -0.43047,0.29741 -1.0566,0.29741 z m 1.03312,-2.50453 q -0.0235,-0.32872 -0.30524,-0.62613 -0.27394,-0.29742 -0.8218,-0.29742 -0.39916,0 -0.69658,0.25046 -0.28959,0.25045 -0.39916,0.67309 l 2.22278,0 z"
           style="font-style:normal;font-variant:normal;font-weight:normal;font-stretch:normal;font-family:'Product Sans';-inkscape-font-specification:'Product Sans';fill:#ffffff;fill-opacity:1"
           id="path4176" />
      </g>
      <g
         transform="matrix(1.8038299,0,0,1.8038299,-589.54623,-575.79303)"
         id="layer1-34"
         inkscape:label="Capa 1"
         style="fill:#104563;fill-opacity:1" />
      <g
         transform="translate(-37.930796,37.016448)"
         id="layer1-6"
         inkscape:label="Capa 1">
        <g
           transform="translate(-51.525445,5.4558218)"
           inkscape:label="Capa 1"
           id="layer1-4-4">
          <g
             id="layer1-3-0"
             inkscape:label="Capa 1"
             transform="translate(-34.965532,2.4832225)" />
        </g>
        <g
           transform="translate(51.385479,-6.0099446)"
           id="g4403" />
      </g>
      <g
         id="g4205"
         transform="translate(317.23403,508.33441)"
         style="fill:#eff7ff;fill-opacity:1">
        <g
           inkscape:transform-center-y="-9.4924686"
           inkscape:transform-center-x="5.4653607"
           inkscape:label="Capa 1"
           id="layer1-7"
           transform="translate(-392.98822,-511.27795)"
           style="fill:#eff7ff;fill-opacity:1" />
        <g
           style="fill:#eff7ff;fill-opacity:1"
           transform="matrix(0.04882393,0,0,0.05356881,95.634189,18.281741)"
           id="g3">
          <path
             style="fill:#eff7ff;fill-opacity:1"
             inkscape:connector-curvature="0"
             id="path5"
             d="M 0.176,224 0.001,67.963 l 192,-26.072 0,182.109 z"
             sodipodi:nodetypes="ccccc" />
          <path
             style="opacity:1;fill:#eff7ff;fill-opacity:1"
             inkscape:connector-curvature="0"
             id="path5-7"
             d="m 188.80472,439.65523 -191.84402,-26.297 -0.01,-157.62101 191.85402,0 z"
             sodipodi:nodetypes="ccccc" />
          <path
             style="opacity:1;fill:#eff7ff;fill-opacity:1"
             inkscape:connector-curvature="0"
             id="path5-6"
             d="m 220.86731,36.978241 255.936,-37.24099926 0,223.99999826 -255.936,0 z"
             sodipodi:nodetypes="ccccc" />
          <path
             style="opacity:1;fill:#eff7ff;fill-opacity:1"
             inkscape:connector-curvature="0"
             id="path5-2"
             d="m 476.80281,255.73723 -0.0615,224.00001 -255.93601,-36.008 0,-187.99201 255.99801,0 z"
             sodipodi:nodetypes="cccccc" />
        </g>
      </g>
    </g>
  </g>
</svg>
