<?xml version="1.0" encoding="UTF-8" standalone="no"?>
<svg
   xmlns:osb="http://www.openswatchbook.org/uri/2009/osb"
   xmlns:dc="http://purl.org/dc/elements/1.1/"
   xmlns:cc="http://creativecommons.org/ns#"
   xmlns:rdf="http://www.w3.org/1999/02/22-rdf-syntax-ns#"
   xmlns:svg="http://www.w3.org/2000/svg"
   xmlns="http://www.w3.org/2000/svg"
   xmlns:xlink="http://www.w3.org/1999/xlink"
   xmlns:sodipodi="http://sodipodi.sourceforge.net/DTD/sodipodi-0.dtd"
   xmlns:inkscape="http://www.inkscape.org/namespaces/inkscape"
   viewBox="0 0 64 64"
   id="svg2"
   version="1.1"
   inkscape:version="0.91 r13725"
   sodipodi:docname="application-x-javascript.svg"
   width="64"
   height="64">
  <metadata
     id="metadata84">
    <rdf:RDF>
      <cc:Work
         rdf:about="">
        <dc:format>image/svg+xml</dc:format>
        <dc:type
           rdf:resource="http://purl.org/dc/dcmitype/StillImage" />
        <dc:title />
      </cc:Work>
    </rdf:RDF>
  </metadata>
  <sodipodi:namedview
     pagecolor="#828282"
     bordercolor="#666666"
     borderopacity="1"
     objecttolerance="10"
     gridtolerance="10"
     guidetolerance="10"
     inkscape:pageopacity="0"
     inkscape:pageshadow="2"
     inkscape:window-width="1366"
     inkscape:window-height="642"
     id="namedview82"
     showgrid="false"
     inkscape:showpageshadow="false"
     inkscape:zoom="7.4642639"
     inkscape:cx="0.79388706"
     inkscape:cy="34.736357"
     inkscape:window-x="0"
     inkscape:window-y="33"
     inkscape:window-maximized="1"
     inkscape:current-layer="svg2"
     showguides="false"
     inkscape:snap-bbox="true"
     inkscape:snap-bbox-edge-midpoints="false"
     inkscape:bbox-nodes="true"
     inkscape:guide-bbox="true">
    <inkscape:grid
       type="xygrid"
       id="grid3413" />
    <sodipodi:guide
       position="0,64"
       orientation="64,0"
       id="guide3482" />
    <sodipodi:guide
       position="0,0"
       orientation="0,64"
       id="guide3484" />
    <sodipodi:guide
       position="64,0"
       orientation="-64,0"
       id="guide3486" />
    <sodipodi:guide
       position="10,61"
       orientation="58,0"
       id="guide3492" />
    <sodipodi:guide
       position="10,3"
       orientation="0,44"
       id="guide3494" />
    <sodipodi:guide
       position="54,3"
       orientation="-58,0"
       id="guide3496" />
    <sodipodi:guide
       position="54,61"
       orientation="0,-44"
       id="guide3498" />
    <sodipodi:guide
       position="54,47"
       orientation="-14,0"
       id="guide4310" />
    <sodipodi:guide
       position="54,61"
       orientation="0,-14"
       id="guide4312" />
    <sodipodi:guide
       position="21,43"
       orientation="22,0"
       id="guide4250" />
    <sodipodi:guide
       position="21,21"
       orientation="0,22"
       id="guide4252" />
    <sodipodi:guide
       position="43,21"
       orientation="-22,0"
       id="guide4254" />
    <sodipodi:guide
       position="43,43"
       orientation="0,-22"
       id="guide4256" />
    <sodipodi:guide
       position="25.052705,61"
       orientation="0,1"
       id="guide6551" />
  </sodipodi:namedview>
  <defs
     id="defs4">
    <linearGradient
       inkscape:collect="always"
       xlink:href="#linearGradient4422"
       id="linearGradient4190-9"
       x1="375.57144"
       y1="543.79797"
       x2="375.57144"
       y2="517.79797"
       gradientUnits="userSpaceOnUse"
       gradientTransform="matrix(2.1937939,0,0,2.2303048,-398.02626,-639.90393)" />
    <linearGradient
       id="linearGradient4422">
      <stop
         id="stop4424"
         offset="0"
         style="stop-color:#db733d;stop-opacity:1" />
      <stop
         id="stop4426"
         offset="1"
         style="stop-color:#ff8f65;stop-opacity:1" />
    </linearGradient>
    <linearGradient
       id="linearGradient4207"
       osb:paint="gradient">
      <stop
         style="stop-color:#3498db;stop-opacity:1;"
         offset="0"
         id="stop3371" />
      <stop
         style="stop-color:#3498db;stop-opacity:0;"
         offset="1"
         id="stop3373" />
    </linearGradient>
  </defs>
  <g
     transform="translate(-392.98822,-511.27795)"
     id="layer1"
     inkscape:label="Capa 1"
     inkscape:transform-center-x="5.4653607"
     inkscape:transform-center-y="-9.4924686">
    <g
       transform="translate(0.41988239,0.03484499)"
       inkscape:label="Capa 1"
       id="layer1-3">
      <rect
         style="opacity:0.997;fill:url(#linearGradient4190-9);fill-opacity:1.0;stroke:none;stroke-width:0.104;stroke-linecap:round;stroke-linejoin:round;stroke-miterlimit:4;stroke-dasharray:none;stroke-opacity:1"
         id="rect4182-2"
         width="46.069672"
         height="57.987926"
         x="401.76834"
         y="514.94318"
         ry="1.7192465" />
      <path
         style="opacity:0.56499999;fill:#000000;fill-opacity:1;fill-rule:evenodd;stroke:none;stroke-width:1px;stroke-linecap:butt;stroke-linejoin:miter;stroke-opacity:1"
         d="m 401.76839,563.18111 -4e-5,7.90428 c 0,0 -0.0224,1.83572 1.81022,1.83572 l 42.46177,0 c 0,0 1.93884,-0.0444 1.91466,-2.52819 l -0.0702,-7.21181 z"
         id="path4302"
         inkscape:connector-curvature="0"
         sodipodi:nodetypes="ccccccc" />
      <g
         style="font-style:normal;font-weight:normal;font-size:7.8266716px;line-height:125%;font-family:sans-serif;letter-spacing:0px;word-spacing:0px;fill:#ffffff;fill-opacity:1;stroke:none;stroke-width:1px;stroke-linecap:butt;stroke-linejoin:miter;stroke-opacity:1"
         id="text4304">
        <path
           d="m 419.14448,565.34953 q -0.1487,0.1487 -0.36002,0.1487 -0.21132,0 -0.36003,-0.1487 -0.14871,-0.14871 -0.14871,-0.36003 0,-0.21132 0.14871,-0.36003 0.14871,-0.1487 0.36003,-0.1487 0.21132,0 0.36002,0.1487 0.14871,0.14871 0.14871,0.36003 0,0.21132 -0.14871,0.36003 z m -1.15052,6.56658 q -0.21132,0 -0.42264,-0.0783 l 0.18784,-0.62613 q 0.10175,0.047 0.21132,0.047 0.45395,0 0.45395,-0.59483 l 0,-4.35163 0.72005,0 0,4.35163 q 0,0.63396 -0.30524,0.9392 -0.30524,0.31307 -0.84528,0.31307 z"
           style="font-style:normal;font-variant:normal;font-weight:normal;font-stretch:normal;font-family:'Product Sans';-inkscape-font-specification:'Product Sans';fill:#ffffff;fill-opacity:1"
           id="path4170" />
        <path
           d="m 421.25646,570.2725 q -0.61048,0 -1.02529,-0.3522 -0.40699,-0.3522 -0.40699,-0.93137 0,-0.62613 0.48525,-0.97833 0.48526,-0.36003 1.19749,-0.36003 0.63396,0 1.04094,0.2348 l 0,-0.10957 q 0,-0.42264 -0.28958,-0.6731 -0.28959,-0.25828 -0.71223,-0.25828 -0.31307,0 -0.57135,0.14871 -0.25045,0.14871 -0.34437,0.40699 l -0.65744,-0.28176 q 0.13305,-0.34438 0.52439,-0.63396 0.39133,-0.29742 1.03312,-0.29742 0.7357,0 1.22096,0.43047 0.48525,0.43047 0.48525,1.21313 l 0,2.3167 -0.68875,0 0,-0.53222 -0.0313,0 q -0.43047,0.65744 -1.2601,0.65744 z m 0.1174,-0.65744 q 0.44612,0 0.80615,-0.32872 0.36785,-0.33654 0.36785,-0.79049 -0.30524,-0.25045 -0.91572,-0.25045 -0.52438,0 -0.79049,0.22697 -0.26611,0.22697 -0.26611,0.53221 0,0.28176 0.24263,0.44612 0.24263,0.16436 0.55569,0.16436 z"
           style="font-style:normal;font-variant:normal;font-weight:normal;font-stretch:normal;font-family:'Product Sans';-inkscape-font-specification:'Product Sans';fill:#ffffff;fill-opacity:1"
           id="path4172" />
        <path
           d="m 425.11464,570.14728 -1.54968,-3.83507 0.78267,0 1.12704,2.97413 0.0156,0 1.1427,-2.97413 0.76701,0 -1.56533,3.83507 -0.72006,0 z"
           style="font-style:normal;font-variant:normal;font-weight:normal;font-stretch:normal;font-family:'Product Sans';-inkscape-font-specification:'Product Sans';fill:#ffffff;fill-opacity:1"
           id="path4174" />
        <path
           d="m 429.0067,570.2725 q -0.61048,0 -1.02529,-0.3522 -0.40699,-0.3522 -0.40699,-0.93137 0,-0.62613 0.48525,-0.97833 0.48526,-0.36003 1.19748,-0.36003 0.63396,0 1.04095,0.2348 l 0,-0.10957 q 0,-0.42264 -0.28959,-0.6731 -0.28958,-0.25828 -0.71222,-0.25828 -0.31307,0 -0.57135,0.14871 -0.25045,0.14871 -0.34437,0.40699 l -0.65744,-0.28176 q 0.13305,-0.34438 0.52438,-0.63396 0.39134,-0.29742 1.03312,-0.29742 0.73571,0 1.22097,0.43047 0.48525,0.43047 0.48525,1.21313 l 0,2.3167 -0.68875,0 0,-0.53222 -0.0313,0 q -0.43047,0.65744 -1.2601,0.65744 z m 0.1174,-0.65744 q 0.44612,0 0.80615,-0.32872 0.36785,-0.33654 0.36785,-0.79049 -0.30524,-0.25045 -0.91572,-0.25045 -0.52439,0 -0.79049,0.22697 -0.26611,0.22697 -0.26611,0.53221 0,0.28176 0.24263,0.44612 0.24262,0.16436 0.55569,0.16436 z"
           style="font-style:normal;font-variant:normal;font-weight:normal;font-stretch:normal;font-family:'Product Sans';-inkscape-font-specification:'Product Sans';fill:#ffffff;fill-opacity:1"
           id="path4176" />
      </g>
      <g
         style="font-style:normal;font-weight:normal;font-size:24.0174427px;line-height:125%;font-family:sans-serif;letter-spacing:0px;word-spacing:0px;fill:#61331c;fill-opacity:1;stroke:none;stroke-width:1px;stroke-linecap:butt;stroke-linejoin:miter;stroke-opacity:1"
         id="text55110">
        <path
           d="m 420.71951,552.64308 q -1.84934,0 -2.93013,-1.08079 -1.05676,-1.08078 -1.05676,-2.88209 l 0,-4.10698 q 0,-0.98472 -0.50437,-1.48908 -0.50437,-0.52839 -1.27293,-0.52839 l 0,-1.82532 q 0.76856,0 1.27293,-0.50437 0.50437,-0.52838 0.50437,-1.5131 l 0,-4.10698 q 0,-1.80131 1.05676,-2.88209 1.08079,-1.08079 2.93013,-1.08079 l 0.52838,0 0,1.82533 -0.52838,0 q -0.84061,0 -1.41703,0.60043 -0.5524,0.60044 -0.5524,1.60917 l 0,4.10699 q 0,2.18558 -1.6572,2.81004 l 0,0.0961 q 1.6572,0.57641 1.6572,2.81004 l 0,4.10698 q 0,1.00873 0.5524,1.60917 0.57642,0.60043 1.41703,0.60043 l 0.52838,0 0,1.82533 -0.52838,0 z"
           style="font-style:normal;font-variant:normal;font-weight:normal;font-stretch:normal;font-family:'Product Sans';-inkscape-font-specification:'Product Sans';fill:#61331c;fill-opacity:1"
           id="path4163" />
        <path
           d="m 425.96395,540.53829 q -0.48035,0.48035 -1.15284,0.48035 -0.67249,0 -1.15284,-0.48035 -0.48035,-0.48035 -0.48035,-1.15284 0,-0.67249 0.48035,-1.15284 0.48035,-0.48034 1.15284,-0.48034 0.67249,0 1.15284,0.48034 0.48034,0.48035 0.48034,1.15284 0,0.67249 -0.48034,1.15284 z m -1.84935,11.36025 -1.03275,-0.67249 1.39301,-2.01746 q -0.52838,-0.0961 -0.91266,-0.48035 -0.38428,-0.4083 -0.38428,-1.00874 0,-0.6965 0.48035,-1.15283 0.48035,-0.48035 1.15284,-0.48035 0.67249,0 1.15284,0.48035 0.48034,0.45633 0.48034,1.15283 0,0.69651 -0.72052,1.77729 l -1.60917,2.40175 z"
           style="font-style:normal;font-variant:normal;font-weight:normal;font-stretch:normal;font-family:'Product Sans';-inkscape-font-specification:'Product Sans';fill:#61331c;fill-opacity:1"
           id="path4165" />
        <path
           d="m 428.90421,552.64308 -0.52839,0 0,-1.82533 0.52839,0 q 0.84061,0 1.39301,-0.60043 0.57642,-0.60044 0.57642,-1.60917 l 0,-4.10698 q 0,-2.23363 1.6572,-2.81004 l 0,-0.0961 q -1.6572,-0.62446 -1.6572,-2.81004 l 0,-4.10699 q 0,-1.00873 -0.57642,-1.60917 -0.5524,-0.60043 -1.39301,-0.60043 l -0.52839,0 0,-1.82533 0.52839,0 q 1.84934,0 2.90611,1.08079 1.08078,1.08078 1.08078,2.88209 l 0,4.10698 q 0,0.98472 0.50437,1.5131 0.50436,0.50437 1.27292,0.50437 l 0,1.82532 q -0.76856,0 -1.27292,0.52839 -0.50437,0.50436 -0.50437,1.48908 l 0,4.10698 q 0,1.80131 -1.08078,2.88209 -1.05677,1.08079 -2.90611,1.08079 z"
           style="font-style:normal;font-variant:normal;font-weight:normal;font-stretch:normal;font-family:'Product Sans';-inkscape-font-specification:'Product Sans';fill:#61331c;fill-opacity:1"
           id="path4167" />
      </g>
    </g>
  </g>
</svg>
