<?xml version="1.0" encoding="UTF-8" standalone="no"?>
<svg
   xmlns:osb="http://www.openswatchbook.org/uri/2009/osb"
   xmlns:dc="http://purl.org/dc/elements/1.1/"
   xmlns:cc="http://creativecommons.org/ns#"
   xmlns:rdf="http://www.w3.org/1999/02/22-rdf-syntax-ns#"
   xmlns:svg="http://www.w3.org/2000/svg"
   xmlns="http://www.w3.org/2000/svg"
   xmlns:xlink="http://www.w3.org/1999/xlink"
   xmlns:sodipodi="http://sodipodi.sourceforge.net/DTD/sodipodi-0.dtd"
   xmlns:inkscape="http://www.inkscape.org/namespaces/inkscape"
   viewBox="0 0 64 64"
   id="svg2"
   version="1.1"
   inkscape:version="0.91 r13725"
   sodipodi:docname="application-x-php.svg"
   width="64"
   height="64">
  <metadata
     id="metadata84">
    <rdf:RDF>
      <cc:Work
         rdf:about="">
        <dc:format>image/svg+xml</dc:format>
        <dc:type
           rdf:resource="http://purl.org/dc/dcmitype/StillImage" />
        <dc:title />
      </cc:Work>
    </rdf:RDF>
  </metadata>
  <sodipodi:namedview
     pagecolor="#777777"
     bordercolor="#666666"
     borderopacity="1"
     objecttolerance="10"
     gridtolerance="10"
     guidetolerance="10"
     inkscape:pageopacity="0"
     inkscape:pageshadow="2"
     inkscape:window-width="1366"
     inkscape:window-height="642"
     id="namedview82"
     showgrid="false"
     inkscape:showpageshadow="false"
     inkscape:zoom="7.4642639"
     inkscape:cx="27.910628"
     inkscape:cy="28.611839"
     inkscape:window-x="0"
     inkscape:window-y="33"
     inkscape:window-maximized="1"
     inkscape:current-layer="layer1-3"
     showguides="true"
     inkscape:snap-bbox="true"
     inkscape:snap-bbox-edge-midpoints="false"
     inkscape:bbox-nodes="true"
     inkscape:guide-bbox="true">
    <inkscape:grid
       type="xygrid"
       id="grid3413" />
    <sodipodi:guide
       position="0,64"
       orientation="64,0"
       id="guide3482" />
    <sodipodi:guide
       position="0,0"
       orientation="0,64"
       id="guide3484" />
    <sodipodi:guide
       position="64,0"
       orientation="-64,0"
       id="guide3486" />
    <sodipodi:guide
       position="10,61"
       orientation="58,0"
       id="guide3492" />
    <sodipodi:guide
       position="10,3"
       orientation="0,44"
       id="guide3494" />
    <sodipodi:guide
       position="54,3"
       orientation="-58,0"
       id="guide3496" />
    <sodipodi:guide
       position="54,61"
       orientation="0,-44"
       id="guide3498" />
    <sodipodi:guide
       position="54,47"
       orientation="-14,0"
       id="guide4310" />
    <sodipodi:guide
       position="54,61"
       orientation="0,-14"
       id="guide4312" />
    <sodipodi:guide
       position="21,43"
       orientation="22,0"
       id="guide4250" />
    <sodipodi:guide
       position="21,21"
       orientation="0,22"
       id="guide4252" />
    <sodipodi:guide
       position="43,21"
       orientation="-22,0"
       id="guide4254" />
    <sodipodi:guide
       position="43,43"
       orientation="0,-22"
       id="guide4256" />
    <sodipodi:guide
       position="25.052705,61"
       orientation="0,1"
       id="guide6551" />
  </sodipodi:namedview>
  <defs
     id="defs4">
    <linearGradient
       inkscape:collect="always"
       xlink:href="#linearGradient4422"
       id="linearGradient4190-9"
       x1="375.57144"
       y1="543.79797"
       x2="375.57144"
       y2="517.79797"
       gradientUnits="userSpaceOnUse"
       gradientTransform="matrix(2.1937939,0,0,2.2303048,-398.02626,-639.90393)" />
    <linearGradient
       id="linearGradient4422">
      <stop
         id="stop4424"
         offset="0"
         style="stop-color:#546096;stop-opacity:1" />
      <stop
         id="stop4426"
         offset="1"
         style="stop-color:#929cc8;stop-opacity:1" />
    </linearGradient>
    <linearGradient
       id="linearGradient4207"
       osb:paint="gradient">
      <stop
         style="stop-color:#3498db;stop-opacity:1;"
         offset="0"
         id="stop3371" />
      <stop
         style="stop-color:#3498db;stop-opacity:0;"
         offset="1"
         id="stop3373" />
    </linearGradient>
  </defs>
  <g
     transform="translate(-392.98822,-511.27795)"
     id="layer1"
     inkscape:label="Capa 1"
     inkscape:transform-center-x="5.4653607"
     inkscape:transform-center-y="-9.4924686">
    <g
       transform="translate(0.41988239,0.03484499)"
       inkscape:label="Capa 1"
       id="layer1-3">
      <rect
         style="opacity:0.997;fill:url(#linearGradient4190-9);fill-opacity:1.0;stroke:none;stroke-width:0.104;stroke-linecap:round;stroke-linejoin:round;stroke-miterlimit:4;stroke-dasharray:none;stroke-opacity:1"
         id="rect4182-2"
         width="46.069672"
         height="57.987926"
         x="401.76834"
         y="514.94318"
         ry="1.7192465" />
      <path
         style="opacity:0.56499999;fill:#000000;fill-opacity:1;fill-rule:evenodd;stroke:none;stroke-width:1px;stroke-linecap:butt;stroke-linejoin:miter;stroke-opacity:1"
         d="m 401.76839,563.18111 -4e-5,7.90428 c 0,0 -0.0224,1.83572 1.81022,1.83572 l 42.46177,0 c 0,0 1.93884,-0.0444 1.91466,-2.52819 l -0.0702,-7.21181 z"
         id="path4302"
         inkscape:connector-curvature="0"
         sodipodi:nodetypes="ccccccc" />
      <g
         style="font-style:normal;font-weight:normal;font-size:7.8266716px;line-height:125%;font-family:sans-serif;letter-spacing:0px;word-spacing:0px;fill:#ffffff;fill-opacity:1;stroke:none;stroke-width:1px;stroke-linecap:butt;stroke-linejoin:miter;stroke-opacity:1"
         id="text4304"
         transform="translate(0.40000761,-0.19998499)">
        <path
           d="m 420.35743,570.57176 q -0.43829,0 -0.79049,-0.18784 -0.34437,-0.18784 -0.51656,-0.4696 l -0.0313,0 0.0313,0.53221 0,1.69056 -0.72005,0 0,-5.52563 0.68874,0 0,0.53222 0.0313,0 q 0.17219,-0.28176 0.51656,-0.4696 0.3522,-0.18784 0.79049,-0.18784 0.74354,0 1.28358,0.587 0.54004,0.587 0.54004,1.45576 0,0.86876 -0.54004,1.45576 -0.54004,0.587 -1.28358,0.587 z m -0.1174,-0.65744 q 0.50091,0 0.86094,-0.37568 0.36003,-0.38351 0.36003,-1.00964 0,-0.62614 -0.36003,-1.00182 -0.36003,-0.3835 -0.86094,-0.3835 -0.50873,0 -0.86876,0.37568 -0.3522,0.37568 -0.3522,1.00964 0,0.63396 0.3522,1.00964 0.36003,0.37568 0.86876,0.37568 z"
           style="font-style:normal;font-variant:normal;font-weight:normal;font-stretch:normal;font-family:'Product Sans';-inkscape-font-specification:'Product Sans';fill:#ffffff;fill-opacity:1"
           id="path4174"
           inkscape:connector-curvature="0" />
        <path
           d="m 423.48419,564.84264 0,1.76882 -0.0313,0.53222 0.0313,0 q 0.15653,-0.27394 0.49308,-0.46178 0.33655,-0.19566 0.72005,-0.19566 0.71223,0 1.08791,0.43829 0.37568,0.43829 0.37568,1.174 l 0,2.348 -0.72005,0 0,-2.23842 q 0,-1.06443 -0.94703,-1.06443 -0.44612,0 -0.72788,0.36002 -0.28176,0.3522 -0.28176,0.82181 l 0,2.12102 -0.72005,0 0,-5.60389 0.72005,0 z"
           style="font-style:normal;font-variant:normal;font-weight:normal;font-stretch:normal;font-family:'Product Sans';-inkscape-font-specification:'Product Sans';fill:#ffffff;fill-opacity:1"
           id="path4176"
           inkscape:connector-curvature="0" />
        <path
           d="m 429.00958,570.57176 q -0.4383,0 -0.7905,-0.18784 -0.34437,-0.18784 -0.51656,-0.4696 l -0.0313,0 0.0313,0.53221 0,1.69056 -0.72005,0 0,-5.52563 0.68875,0 0,0.53222 0.0313,0 q 0.17219,-0.28176 0.51656,-0.4696 0.3522,-0.18784 0.7905,-0.18784 0.74353,0 1.28357,0.587 0.54004,0.587 0.54004,1.45576 0,0.86876 -0.54004,1.45576 -0.54004,0.587 -1.28357,0.587 z m -0.1174,-0.65744 q 0.5009,0 0.86093,-0.37568 0.36003,-0.38351 0.36003,-1.00964 0,-0.62614 -0.36003,-1.00182 -0.36003,-0.3835 -0.86093,-0.3835 -0.50874,0 -0.86876,0.37568 -0.3522,0.37568 -0.3522,1.00964 0,0.63396 0.3522,1.00964 0.36002,0.37568 0.86876,0.37568 z"
           style="font-style:normal;font-variant:normal;font-weight:normal;font-stretch:normal;font-family:'Product Sans';-inkscape-font-specification:'Product Sans';fill:#ffffff;fill-opacity:1"
           id="path4178"
           inkscape:connector-curvature="0" />
      </g>
      <g
         id="g7383"
         style="fill:#272c43;fill-opacity:1"
         transform="matrix(2.0158242,0,0,2.0158242,-408.82013,-566.15353)">
        <g
           style="font-style:normal;font-weight:normal;font-size:12.5px;line-height:125%;font-family:sans-serif;letter-spacing:0px;word-spacing:0px;fill:#272c43;fill-opacity:1;stroke:none;stroke-width:1px;stroke-linecap:butt;stroke-linejoin:miter;stroke-opacity:1"
           id="text7375">
          <path
             d="m 411.74034,554.24309 -0.925,-0.375 4.0375,-9.725 0.925,0.375 -4.0375,9.725 z"
             style="font-style:normal;font-variant:normal;font-weight:normal;font-stretch:normal;font-family:'Product Sans';-inkscape-font-specification:'Product Sans';fill:#272c43;fill-opacity:1"
             id="path4166" />
          <path
             d="m 419.62159,553.49309 q -0.2375,0.25 -0.6,0.25 -0.3625,0 -0.6125,-0.25 -0.2375,-0.25 -0.2375,-0.6 0,-0.35 0.2375,-0.6 0.25,-0.25 0.6125,-0.25 0.3625,0 0.6,0.25 0.25,0.25 0.25,0.6 0,0.35 -0.25,0.6 z m -0.0125,-2.6 -1.175,0 0,-0.5875 q 0,-0.5625 0.2375,-0.9625 0.2375,-0.4125 0.8375,-0.9625 0.3375,-0.3125 0.475,-0.4625 0.15,-0.1625 0.2875,-0.4375 0.15,-0.2875 0.15,-0.5875 0,-0.575 -0.375,-0.925 -0.3625,-0.35 -1.0125,-0.35 -1.075,0 -1.475,1.2 l -1.075,-0.45 q 0.2625,-0.7125 0.9,-1.275 0.65,-0.575 1.65,-0.575 1.1375,0 1.85,0.675 0.7125,0.6625 0.7125,1.7 0,0.45 -0.2375,0.9125 -0.2375,0.4625 -0.425,0.6625 -0.175,0.1875 -0.5,0.4875 -0.0375,0.0375 -0.0625,0.0625 -0.7625,0.6875 -0.7625,1.375 l 0,0.5 z"
             style="font-style:normal;font-variant:normal;font-weight:normal;font-stretch:normal;font-family:'Product Sans';-inkscape-font-specification:'Product Sans';fill:#272c43;fill-opacity:1"
             id="path4168" />
        </g>
        <g
           style="font-style:normal;font-weight:normal;font-size:12.5px;line-height:125%;font-family:sans-serif;letter-spacing:0px;word-spacing:0px;fill:#272c43;fill-opacity:1;stroke:none;stroke-width:1px;stroke-linecap:butt;stroke-linejoin:miter;stroke-opacity:1"
           id="text7379">
          <path
             d="m 410.36446,551.41598 -4.875,-2.3125 0,-0.85 4.875,-2.3125 0,1.05 -3.675,1.6625 0,0.05 3.675,1.6625 0,1.05 z"
             style="font-style:normal;font-variant:normal;font-weight:normal;font-stretch:normal;font-family:'Product Sans';-inkscape-font-specification:'Product Sans';fill:#272c43;fill-opacity:1"
             id="path4171" />
        </g>
      </g>
    </g>
  </g>
</svg>
