<?xml version="1.0" encoding="UTF-8" standalone="no"?>
<svg
   xmlns:sketch="http://www.bohemiancoding.com/sketch/ns"
   xmlns:osb="http://www.openswatchbook.org/uri/2009/osb"
   xmlns:dc="http://purl.org/dc/elements/1.1/"
   xmlns:cc="http://creativecommons.org/ns#"
   xmlns:rdf="http://www.w3.org/1999/02/22-rdf-syntax-ns#"
   xmlns:svg="http://www.w3.org/2000/svg"
   xmlns="http://www.w3.org/2000/svg"
   xmlns:xlink="http://www.w3.org/1999/xlink"
   xmlns:sodipodi="http://sodipodi.sourceforge.net/DTD/sodipodi-0.dtd"
   xmlns:inkscape="http://www.inkscape.org/namespaces/inkscape"
   viewBox="0 0 64 64"
   id="svg2"
   version="1.1"
   inkscape:version="0.91 r13725"
   sodipodi:docname="application-ogg.svg"
   width="64"
   height="64">
  <metadata
     id="metadata84">
    <rdf:RDF>
      <cc:Work
         rdf:about="">
        <dc:format>image/svg+xml</dc:format>
        <dc:type
           rdf:resource="http://purl.org/dc/dcmitype/StillImage" />
        <dc:title />
      </cc:Work>
    </rdf:RDF>
  </metadata>
  <sodipodi:namedview
     pagecolor="#9a9a9a"
     bordercolor="#666666"
     borderopacity="1"
     objecttolerance="10"
     gridtolerance="10"
     guidetolerance="10"
     inkscape:pageopacity="0"
     inkscape:pageshadow="2"
     inkscape:window-width="1366"
     inkscape:window-height="642"
     id="namedview82"
     showgrid="false"
     inkscape:showpageshadow="false"
     inkscape:zoom="5.2750166"
     inkscape:cx="-13.231783"
     inkscape:cy="44.275375"
     inkscape:window-x="0"
     inkscape:window-y="33"
     inkscape:window-maximized="1"
     inkscape:current-layer="layer1-3"
     showguides="false"
     inkscape:snap-bbox="true"
     inkscape:snap-bbox-edge-midpoints="false"
     inkscape:bbox-nodes="true">
    <inkscape:grid
       type="xygrid"
       id="grid3413" />
    <sodipodi:guide
       position="0,64"
       orientation="64,0"
       id="guide3482" />
    <sodipodi:guide
       position="0,0"
       orientation="0,64"
       id="guide3484" />
    <sodipodi:guide
       position="64,0"
       orientation="-64,0"
       id="guide3486" />
    <sodipodi:guide
       position="10,61"
       orientation="58,0"
       id="guide3492" />
    <sodipodi:guide
       position="10,3"
       orientation="0,44"
       id="guide3494" />
    <sodipodi:guide
       position="54,3"
       orientation="-58,0"
       id="guide3496" />
    <sodipodi:guide
       position="54,61"
       orientation="0,-44"
       id="guide3498" />
    <sodipodi:guide
       position="54,47"
       orientation="-14,0"
       id="guide4310" />
    <sodipodi:guide
       position="54,61"
       orientation="0,-14"
       id="guide4312" />
    <sodipodi:guide
       position="21,43"
       orientation="22,0"
       id="guide4250" />
    <sodipodi:guide
       position="21,21"
       orientation="0,22"
       id="guide4252" />
    <sodipodi:guide
       position="43,21"
       orientation="-22,0"
       id="guide4254" />
    <sodipodi:guide
       position="43,43"
       orientation="0,-22"
       id="guide4256" />
  </sodipodi:namedview>
  <defs
     id="defs4">
    <linearGradient
       id="linearGradient4531"
       inkscape:collect="always">
      <stop
         id="stop4533"
         offset="0"
         style="stop-color:#04a47f;stop-opacity:1" />
      <stop
         id="stop4535"
         offset="1"
         style="stop-color:#40ca85;stop-opacity:1" />
    </linearGradient>
    <linearGradient
       inkscape:collect="always"
       xlink:href="#linearGradient4531"
       id="linearGradient4190-9"
       x1="375.57144"
       y1="543.79797"
       x2="375.57144"
       y2="517.79797"
       gradientUnits="userSpaceOnUse"
       gradientTransform="matrix(2.1937939,0,0,2.2303048,-398.02626,-639.90393)" />
    <linearGradient
       osb:paint="gradient"
       id="linearGradient4207">
      <stop
         id="stop3371"
         offset="0"
         style="stop-color:#3498db;stop-opacity:1;" />
      <stop
         id="stop3373"
         offset="1"
         style="stop-color:#3498db;stop-opacity:0;" />
    </linearGradient>
  </defs>
  <g
     transform="translate(-392.98822,-511.27795)"
     id="layer1"
     inkscape:label="Capa 1"
     inkscape:transform-center-x="5.4653607"
     inkscape:transform-center-y="-9.4924686">
    <g
       transform="translate(0.41988239,0.03484499)"
       inkscape:label="Capa 1"
       id="layer1-3">
      <rect
         style="opacity:0.997;fill:url(#linearGradient4190-9);fill-opacity:1.0;stroke:none;stroke-width:0.104;stroke-linecap:round;stroke-linejoin:round;stroke-miterlimit:4;stroke-dasharray:none;stroke-opacity:1"
         id="rect4182-2"
         width="46.069672"
         height="57.987926"
         x="401.76834"
         y="514.94318"
         ry="1.7192465" />
      <path
         style="opacity:0.56499999;fill:#000000;fill-opacity:1;fill-rule:evenodd;stroke:none;stroke-width:1px;stroke-linecap:butt;stroke-linejoin:miter;stroke-opacity:1"
         d="m 401.76839,563.18111 -4e-5,7.90428 c 0,0 -0.0224,1.83572 1.81022,1.83572 l 42.46177,0 c 0,0 1.93884,-0.0444 1.91466,-2.52819 l -0.0702,-7.21181 z"
         id="path4302"
         inkscape:connector-curvature="0"
         sodipodi:nodetypes="ccccccc" />
      <g
         style="font-style:normal;font-weight:normal;font-size:7.8266716px;line-height:125%;font-family:sans-serif;letter-spacing:0px;word-spacing:0px;fill:#ffffff;fill-opacity:1;stroke:none;stroke-width:1px;stroke-linecap:butt;stroke-linejoin:miter;stroke-opacity:1"
         id="text4304">
        <path
           d="m 419.09802,566.17401 q 0.5557,-0.587 1.41663,-0.587 0.86093,0 1.41663,0.587 0.55569,0.57917 0.55569,1.45576 0,0.87658 -0.55569,1.46359 -0.5557,0.57917 -1.41663,0.57917 -0.86093,0 -1.41663,-0.57917 -0.55569,-0.58701 -0.55569,-1.46359 0,-0.87659 0.55569,-1.45576 z m 0.53222,2.4654 q 0.37568,0.37568 0.88441,0.37568 0.50873,0 0.87659,-0.37568 0.37568,-0.38351 0.37568,-1.00964 0,-0.62614 -0.37568,-1.00182 -0.36786,-0.3835 -0.87659,-0.3835 -0.50873,0 -0.88441,0.3835 -0.36786,0.37568 -0.36786,1.00182 0,0.62613 0.36786,1.00964 z"
           style="font-style:normal;font-variant:normal;font-weight:normal;font-stretch:normal;font-family:'Product Sans';-inkscape-font-specification:'Product Sans';fill:#ffffff;fill-opacity:1"
           id="path4161" />
        <path
           d="m 424.81577,571.36309 q -0.68092,0 -1.11139,-0.34437 -0.43046,-0.33655 -0.6183,-0.77484 l 0.65744,-0.27394 q 0.10957,0.31307 0.39916,0.52439 0.29741,0.21132 0.67309,0.21132 0.59483,0 0.93138,-0.36003 0.34437,-0.3522 0.34437,-0.96268 l 0,-0.36785 -0.0313,0 q -0.18784,0.28176 -0.53221,0.4696 -0.34437,0.18784 -0.77484,0.18784 -0.74354,0 -1.28358,-0.587 -0.54004,-0.587 -0.54004,-1.45576 0,-0.86876 0.54004,-1.45576 0.54004,-0.587 1.28358,-0.587 0.43047,0 0.77484,0.18784 0.34437,0.18784 0.53221,0.4696 l 0.0313,0 0,-0.53222 0.68875,0 0,3.63941 q 0,0.98616 -0.57135,1.49489 -0.57135,0.51656 -1.39315,0.51656 z m 0.0548,-2.348 q 0.50873,0 0.86093,-0.37568 0.36003,-0.37568 0.36003,-1.00964 0,-0.63396 -0.36003,-1.00964 -0.3522,-0.37568 -0.86093,-0.37568 -0.50091,0 -0.86094,0.3835 -0.36002,0.37568 -0.36002,1.00182 0,0.62613 0.36002,1.00964 0.36003,0.37568 0.86094,0.37568 z"
           style="font-style:normal;font-variant:normal;font-weight:normal;font-stretch:normal;font-family:'Product Sans';-inkscape-font-specification:'Product Sans';fill:#ffffff;fill-opacity:1"
           id="path4163" />
        <path
           d="m 429.27942,571.36309 q -0.68092,0 -1.11139,-0.34437 -0.43046,-0.33655 -0.6183,-0.77484 l 0.65744,-0.27394 q 0.10957,0.31307 0.39916,0.52439 0.29741,0.21132 0.67309,0.21132 0.59483,0 0.93137,-0.36003 0.34438,-0.3522 0.34438,-0.96268 l 0,-0.36785 -0.0313,0 q -0.18784,0.28176 -0.53221,0.4696 -0.34438,0.18784 -0.77484,0.18784 -0.74354,0 -1.28358,-0.587 -0.54004,-0.587 -0.54004,-1.45576 0,-0.86876 0.54004,-1.45576 0.54004,-0.587 1.28358,-0.587 0.43046,0 0.77484,0.18784 0.34437,0.18784 0.53221,0.4696 l 0.0313,0 0,-0.53222 0.68874,0 0,3.63941 q 0,0.98616 -0.57134,1.49489 -0.57135,0.51656 -1.39315,0.51656 z m 0.0548,-2.348 q 0.50873,0 0.86093,-0.37568 0.36003,-0.37568 0.36003,-1.00964 0,-0.63396 -0.36003,-1.00964 -0.3522,-0.37568 -0.86093,-0.37568 -0.50091,0 -0.86094,0.3835 -0.36002,0.37568 -0.36002,1.00182 0,0.62613 0.36002,1.00964 0.36003,0.37568 0.86094,0.37568 z"
           style="font-style:normal;font-variant:normal;font-weight:normal;font-stretch:normal;font-family:'Product Sans';-inkscape-font-specification:'Product Sans';fill:#ffffff;fill-opacity:1"
           id="path4165" />
      </g>
      <path
         d="m 421.85468,531.25625 c -0.77055,0.21615 -1.39088,1.07614 -1.39088,1.91144 l 0,13.24391 c -0.78136,-0.4284 -1.78487,-0.60167 -2.82524,-0.31858 -1.87737,0.51076 -3.0538,2.16147 -2.65137,3.68645 0.40242,1.52491 2.25182,2.37672 4.12918,1.86596 1.49776,-0.40749 2.53019,-1.56046 2.69484,-2.7762 l 0.0435,-12.51573 9.7362,-2.73066 0,9.87599 c -0.78136,-0.4284 -1.78487,-0.60161 -2.82523,-0.31858 -1.87738,0.51076 -3.05382,2.16147 -2.65137,3.68644 0.40242,1.52497 2.25181,2.37678 4.12918,1.86596 1.49775,-0.40743 2.53018,-1.5604 2.69484,-2.7762 l 0.0435,-16.29314 c 0,-0.62649 -0.36977,-1.09519 -0.86931,-1.18333 l -10.25778,2.77627 z"
         id="Music"
         sketch:type="MSShapeGroup"
         inkscape:connector-curvature="0"
         style="fill:#044937;fill-opacity:1" />
    </g>
  </g>
</svg>
