<?xml version="1.0" encoding="UTF-8" standalone="no"?>
<svg
   xmlns:osb="http://www.openswatchbook.org/uri/2009/osb"
   xmlns:dc="http://purl.org/dc/elements/1.1/"
   xmlns:cc="http://creativecommons.org/ns#"
   xmlns:rdf="http://www.w3.org/1999/02/22-rdf-syntax-ns#"
   xmlns:svg="http://www.w3.org/2000/svg"
   xmlns="http://www.w3.org/2000/svg"
   xmlns:xlink="http://www.w3.org/1999/xlink"
   xmlns:sodipodi="http://sodipodi.sourceforge.net/DTD/sodipodi-0.dtd"
   xmlns:inkscape="http://www.inkscape.org/namespaces/inkscape"
   viewBox="0 0 64 64"
   id="svg2"
   version="1.1"
   inkscape:version="0.91 r13725"
   sodipodi:docname="application-vnd.oasis.opendocument.web-template.svg"
   width="64"
   height="64">
  <metadata
     id="metadata84">
    <rdf:RDF>
      <cc:Work
         rdf:about="">
        <dc:format>image/svg+xml</dc:format>
        <dc:type
           rdf:resource="http://purl.org/dc/dcmitype/StillImage" />
        <dc:title></dc:title>
      </cc:Work>
    </rdf:RDF>
  </metadata>
  <sodipodi:namedview
     pagecolor="#989898"
     bordercolor="#666666"
     borderopacity="1"
     objecttolerance="10"
     gridtolerance="10"
     guidetolerance="10"
     inkscape:pageopacity="0"
     inkscape:pageshadow="2"
     inkscape:window-width="1366"
     inkscape:window-height="642"
     id="namedview82"
     showgrid="false"
     inkscape:showpageshadow="false"
     inkscape:zoom="4.5921687"
     inkscape:cx="-61.11245"
     inkscape:cy="38.020985"
     inkscape:window-x="0"
     inkscape:window-y="33"
     inkscape:window-maximized="1"
     inkscape:current-layer="layer1-3"
     showguides="false"
     inkscape:snap-bbox="true"
     inkscape:snap-bbox-edge-midpoints="false"
     inkscape:bbox-nodes="true">
    <inkscape:grid
       type="xygrid"
       id="grid3413" />
    <sodipodi:guide
       position="0,64"
       orientation="64,0"
       id="guide3482" />
    <sodipodi:guide
       position="0,0"
       orientation="0,64"
       id="guide3484" />
    <sodipodi:guide
       position="64,0"
       orientation="-64,0"
       id="guide3486" />
    <sodipodi:guide
       position="10,61"
       orientation="58,0"
       id="guide3492" />
    <sodipodi:guide
       position="10,3"
       orientation="0,44"
       id="guide3494" />
    <sodipodi:guide
       position="54,3"
       orientation="-58,0"
       id="guide3496" />
    <sodipodi:guide
       position="54,61"
       orientation="0,-44"
       id="guide3498" />
    <sodipodi:guide
       position="54,47"
       orientation="-14,0"
       id="guide4310" />
    <sodipodi:guide
       position="54,61"
       orientation="0,-14"
       id="guide4312" />
    <sodipodi:guide
       position="21,43"
       orientation="22,0"
       id="guide4250" />
    <sodipodi:guide
       position="21,21"
       orientation="0,22"
       id="guide4252" />
    <sodipodi:guide
       position="43,21"
       orientation="-22,0"
       id="guide4254" />
    <sodipodi:guide
       position="43,43"
       orientation="0,-22"
       id="guide4256" />
  </sodipodi:namedview>
  <defs
     id="defs4">
    <linearGradient
       id="linearGradient4531"
       inkscape:collect="always">
      <stop
         id="stop4533"
         offset="0"
         style="stop-color:#8798a9;stop-opacity:1" />
      <stop
         id="stop4535"
         offset="1"
         style="stop-color:#acb4bc;stop-opacity:1" />
    </linearGradient>
    <linearGradient
       inkscape:collect="always"
       xlink:href="#linearGradient4531"
       id="linearGradient4190-9"
       x1="375.57144"
       y1="543.79797"
       x2="375.57144"
       y2="517.79797"
       gradientUnits="userSpaceOnUse"
       gradientTransform="matrix(2.1937939,0,0,2.2303048,-398.02626,-639.90393)" />
    <linearGradient
       osb:paint="gradient"
       id="linearGradient4207">
      <stop
         id="stop3371"
         offset="0"
         style="stop-color:#3498db;stop-opacity:1;" />
      <stop
         id="stop3373"
         offset="1"
         style="stop-color:#3498db;stop-opacity:0;" />
    </linearGradient>
  </defs>
  <g
     transform="translate(-392.98822,-511.27795)"
     id="layer1"
     inkscape:label="Capa 1"
     inkscape:transform-center-x="5.4653607"
     inkscape:transform-center-y="-9.4924686">
    <g
       transform="translate(0.41988239,0.03484499)"
       inkscape:label="Capa 1"
       id="layer1-3">
      <rect
         style="opacity:0.997;fill:url(#linearGradient4190-9);fill-opacity:1.0;stroke:none;stroke-width:0.104;stroke-linecap:round;stroke-linejoin:round;stroke-miterlimit:4;stroke-dasharray:none;stroke-opacity:1"
         id="rect4182-2"
         width="46.069672"
         height="57.987926"
         x="401.76834"
         y="514.94318"
         ry="1.7192465" />
      <path
         style="opacity:0.56499999;fill:#000000;fill-opacity:1;fill-rule:evenodd;stroke:none;stroke-width:1px;stroke-linecap:butt;stroke-linejoin:miter;stroke-opacity:1"
         d="m 401.76839,563.18111 -4e-5,7.90428 c 0,0 -0.0224,1.83572 1.81022,1.83572 l 42.46177,0 c 0,0 1.93884,-0.0444 1.91466,-2.52819 l -0.0702,-7.21181 z"
         id="path4302"
         inkscape:connector-curvature="0"
         sodipodi:nodetypes="ccccccc" />
      <text
         xml:space="preserve"
         style="font-style:normal;font-weight:normal;font-size:7.8266716px;line-height:125%;font-family:sans-serif;letter-spacing:0px;word-spacing:0px;fill:#ffffff;fill-opacity:1;stroke:none;stroke-width:1px;stroke-linecap:butt;stroke-linejoin:miter;stroke-opacity:1"
         x="417.72302"
         y="570.54785"
         id="text4304"
         sodipodi:linespacing="125%"><tspan
           sodipodi:role="line"
           id="tspan4306"
           x="417.72302"
           y="570.54785"
           style="font-style:normal;font-variant:normal;font-weight:normal;font-stretch:normal;font-family:'Product Sans';-inkscape-font-specification:'Product Sans';fill:#ffffff;fill-opacity:1">web</tspan></text>
      <g
         id="g8884"
         transform="translate(337.42678,508.81238)">
        <path
           id="path26"
           d="m 87.448963,17.367914 c -7.652627,0 -13.813406,6.160779 -13.813406,13.813406 0,7.652626 6.160779,13.813405 13.813406,13.813405 7.652626,0 13.813407,-6.160779 13.813407,-13.813405 0,-7.652627 -6.160781,-13.813406 -13.813407,-13.813406 z m 0,1.255763 c 2.086606,0 4.045498,0.51223 5.773571,1.405378 0.0054,0.0499 0.004,0.08664 0,0.142254 0.07282,0.03264 0.114848,0.167668 0.237908,0.235457 0.04521,0.02511 0.07504,0.03627 0.117729,0.05886 0.07282,0.04018 0.1328,0.106281 0.117728,0.176592 -0.02009,0.102934 -0.16514,0.09883 -0.235457,0.17414 0.01006,0.145617 -0.08006,0.139991 -0.117729,0.237907 0.02261,0.06277 0.107699,0.04241 0.117729,0.117728 -0.01261,0.08034 -0.147867,0.09129 -0.117729,0.174139 0.135611,0.105451 0.283972,0.01757 0.412049,0 0.281267,-0.03514 0.530632,0.01786 0.703915,-0.117728 -0.0226,-0.133061 0.19166,-0.173807 0.176592,-0.29432 -0.01261,-0.09039 -0.167651,-0.111372 -0.235456,-0.174138 -0.01521,-0.01413 -0.03469,-0.04949 -0.05151,-0.07604 0.20722,0.136148 0.404993,0.283807 0.603353,0.431669 -0.04887,0.03974 -0.08927,0.08998 -0.139801,0.112824 -0.05275,0.02258 -0.128875,0.02874 -0.176592,0.05885 -0.07032,0.04772 -0.09623,0.121408 -0.176593,0.174139 -0.05775,0.04018 -0.234047,0.176593 -0.294319,0.176593 -0.07282,0 -0.182718,-0.07399 -0.235455,-0.05641 -0.07533,0.02259 -0.03235,0.144012 -0.117728,0.17414 -0.165747,0.06026 -0.472016,-0.13083 -0.529775,0.117728 0.07032,0.143109 0.286481,0.09877 0.412047,0.176592 0.07786,0.0502 0.215366,0.26782 0.235456,0.353183 0.02009,0.07031 0.03013,0.336728 0,0.412048 -0.07786,0.200854 -0.298734,0.181611 -0.529775,0.176591 -0.06278,0 -0.118833,0.005 -0.176592,0 -0.389256,-0.02511 -0.763579,-0.160959 -0.939371,0.117728 0.01261,0.213407 0.04772,0.343986 0,0.529777 -0.03516,0.135582 -0.184125,0.235182 -0.176593,0.353182 0.0025,0.06026 0.102654,0.152606 0.117728,0.235457 0.01006,0.0452 -0.02009,0.136426 0,0.176591 0.06529,0.123015 0.237663,-0.02008 0.353184,0 0.110495,0.01758 0.23791,0.171298 0.23791,0.294319 0,0.08786 -0.06494,0.267821 -0.120177,0.353185 -0.110495,0.165704 -0.3127,0.145072 -0.470911,0.235455 -0.130595,0.07532 -0.157606,0.22508 -0.235456,0.355637 -0.08286,0.140597 -0.150379,0.211194 -0.117728,0.412047 -0.113011,0.223449 -0.23981,0.362952 -0.473364,0.470912 -0.0678,0.03012 -0.172672,0.07253 -0.235456,0.117728 -0.05021,0.03515 -0.10627,0.09624 -0.176592,0.176592 -0.08788,0.09793 -0.187742,0.160137 -0.235455,0.235456 -0.03516,0.05774 -0.02121,0.157624 -0.05886,0.235455 -0.05526,0.105451 -0.165139,0.188872 -0.235456,0.29432 -0.03265,0.0502 -0.08257,0.111314 -0.117728,0.176592 -0.08036,0.145618 -0.191658,0.284003 -0.176591,0.412047 0.0126,0.123015 0.169058,0.1275 0.176591,0.235456 0.0075,0.06026 -0.06138,0.108856 -0.05886,0.17414 0.0025,0.0954 0.05133,0.162588 0.05886,0.237908 0.01757,0.18579 -0.08259,0.225139 -0.117728,0.353183 -0.01757,0.06026 0.01508,0.128891 0,0.176593 -0.03013,0.09288 -0.174081,0.181396 -0.176591,0.291867 -0.0025,0.07782 0.11019,0.127443 0.117728,0.237907 0.005,0.07532 -0.07148,0.165157 -0.05641,0.235456 0.02762,0.135582 0.306571,0.306599 0.412047,0.412048 0.143146,0.14311 0.2904,0.261408 0.353185,0.412048 0.05275,0.128046 0.07866,0.316642 0.176592,0.412048 0.07282,0.0703 0.201401,0.101332 0.294319,0.174139 0.08788,0.06778 0.198949,0.103777 0.291867,0.176591 0.153191,0.120515 0.345042,0.370761 0.588639,0.353184 0.128075,-0.01006 0.268903,-0.09261 0.412048,-0.117728 0.148167,-0.02511 0.320232,-0.07148 0.470912,-0.05641 0.115527,0.01261 0.235092,0.06394 0.355636,0.05641 0.125564,-0.0075 0.268903,-0.05496 0.412048,-0.117728 0.24862,-0.107955 0.636604,-0.288181 0.998234,-0.235455 0.276245,0.04018 0.279993,0.347888 0.473365,0.470911 0.220996,0.02008 0.410395,-0.04268 0.586186,0 0.133103,0.03265 0.281765,0.250188 0.294319,0.355637 0.01261,0.107955 -0.102654,0.22408 -0.117726,0.291866 -0.03516,0.14562 -0.03376,0.319155 -0.05885,0.412048 -0.02009,0.07282 -0.05894,0.162645 -0.0564,0.235456 0,0.06528 0.108797,0.208957 0.176591,0.294319 0.08287,0.105451 0.191415,0.17883 0.291868,0.294321 0.183328,0.210897 0.28397,0.486546 0.412046,0.76523 0.03265,0.0703 -0.03013,0.08871 0,0.176593 -0.05524,0.421793 -0.194666,0.710292 -0.47091,1.177278 -0.130582,0.150639 -0.296831,0.341475 -0.29432,0.529776 -0.01006,0.451921 0.255547,0.679104 0.235456,1.115961 -0.04521,0.587497 -0.01135,0.686851 -0.0564,1.000689 0.198394,0.100419 0.114193,0.377802 0.0564,0.586185 -0.0854,0.248558 -0.187742,0.30766 -0.235456,0.473365 0.15555,0.0673 0.326379,0.05085 0.500344,0.0074 -2.287916,2.438606 -5.53508,3.965926 -9.158266,3.965926 -1.541721,0 -3.010783,-0.288296 -4.373101,-0.79221 -0.05003,-0.0198 -0.105216,-0.03114 -0.154516,-0.05886 -0.07786,-0.0452 -0.127774,-0.140051 -0.117728,-0.235456 0.130595,-0.05523 0.377935,0.124408 0.473363,-0.05886 0.04772,-0.08787 -0.06278,-0.265311 0,-0.353183 0.04521,-0.06026 0.319129,-0.102654 0.412048,-0.117728 0.133101,-0.02258 0.277843,-0.01112 0.353183,-0.05885 0.08287,-0.05273 0.19166,-0.197522 0.176593,-0.353183 -0.0075,-0.07282 -0.05997,-0.111314 -0.117728,-0.176593 -0.04772,-0.05523 -0.02622,-0.12393 -0.05886,-0.174138 -0.06027,-0.08786 -0.151479,-0.107406 -0.176593,-0.235456 0.180815,-0.03515 0.445191,0.190534 0.706368,0.117728 0.123065,-0.03515 0.295424,-0.296556 0.353184,-0.412049 0.01758,-0.03515 -0.02009,-0.133905 0,-0.176591 0.0226,-0.04771 0.112637,-0.09261 0.120177,-0.117728 0.01758,-0.06778 -0.01508,-0.07505 0,-0.117728 0.04521,-0.128047 0.160115,-0.201425 0.235456,-0.29432 0.05775,-0.07031 0.123868,-0.162644 0.17659,-0.235454 0.06028,-0.07782 0.07755,-0.108799 0.117728,-0.176593 0.03767,-0.228473 -0.114122,-0.385333 -0.05886,-0.586187 0.06028,-0.225961 0.370154,-0.370427 0.588639,-0.473364 0.07533,-0.03514 0.172669,-0.09513 0.235456,-0.117728 0.150679,-0.05273 0.330275,-0.06751 0.470911,-0.117728 0.236063,-0.08536 0.296526,-0.313858 0.412047,-0.529775 0.05526,-0.100419 0.110144,-0.221513 0.120175,-0.29432 0.01006,-0.06528 -0.01261,-0.09883 0,-0.17414 0.01261,-0.07531 0.03632,-0.155055 0.0564,-0.237907 0.02763,-0.107967 0.05886,-0.289085 0.05886,-0.409596 0,-0.100419 -0.05636,-0.147524 -0.05886,-0.237908 -0.01757,-0.326388 0.11493,-0.351518 0.235455,-0.529776 0.06028,-0.08786 0.07504,-0.229099 0.117728,-0.291867 0.203417,-0.30128 0.554889,-0.428468 0.529775,-0.885412 -0.01006,-0.150641 -0.06363,-0.482072 -0.174139,-0.529775 -0.06278,-0.02762 -0.201402,-0.02127 -0.29432,-0.05641 -0.296335,-0.110471 -0.515203,-0.448257 -0.824095,-0.473364 -0.06529,-0.0025 -0.103766,0.0025 -0.176591,0 -0.12054,-0.0025 -0.273984,-0.102654 -0.409595,-0.117728 -0.08539,-0.01006 -0.244093,0.02511 -0.29432,0 -0.07786,-0.03766 -0.05496,-0.192774 -0.117728,-0.235457 -0.05021,-0.03514 -0.160057,-0.03124 -0.237908,-0.05885 -0.123065,-0.04769 -0.210037,-0.107686 -0.353184,-0.117727 -0.04521,-0.0025 -0.126365,0.0075 -0.176591,0 -0.07786,-0.01261 -0.162629,-0.07253 -0.235457,-0.117728 -0.09042,-0.05524 -0.138922,-0.09632 -0.176592,-0.17414 0.08287,-0.271153 -0.180205,-0.315191 -0.235456,-0.473364 -0.02511,-0.07282 0.02511,-0.170177 0,-0.235456 -0.03265,-0.09288 -0.132493,-0.157625 -0.235455,-0.235455 -0.180815,-0.1406 -0.329974,-0.261681 -0.588639,-0.29432 -0.115527,-0.01261 -0.273926,0.01006 -0.412048,0 -0.145656,-0.01006 -0.301549,-0.109921 -0.412048,-0.235457 -0.105474,-0.123014 -0.142539,-0.236574 -0.235456,-0.294319 -0.08788,-0.05523 -0.234045,-0.05998 -0.294319,-0.117728 -0.02762,-0.02511 -0.0313,-0.05999 -0.05641,-0.117728 -0.04521,-0.09039 -0.114123,-0.127445 -0.05886,-0.237908 -0.100466,-0.0502 -0.06615,0.07895 -0.17414,0.05885 -0.09795,-0.138086 -0.191052,-0.219275 -0.412049,-0.176592 -0.100465,0.02008 -0.176288,0.174081 -0.294319,0.176592 -0.09794,0.0025 -0.166242,-0.159019 -0.29432,-0.176592 -0.09794,-0.01261 -0.226514,0.07394 -0.294319,0.05886 -0.107991,-0.02008 -0.137515,-0.111314 -0.235456,-0.176592 -0.07283,-0.04771 -0.195275,-0.17665 -0.235456,-0.174139 -0.125564,0.0025 -0.238767,0.267032 -0.412047,0.174139 -0.08539,-0.107966 0.156871,-0.135034 0.0564,-0.235456 -0.07533,-0.07532 -0.113877,0.0187 -0.174138,0.05885 -0.07032,0.04772 -0.157607,0.09011 -0.235457,0.117728 -0.173281,0.06528 -0.276436,0.04743 -0.412048,0.117728 -0.125563,0.06528 -0.165081,0.166276 -0.237907,0.29432 -0.05775,0.105451 -0.147561,0.286846 -0.235456,0.291865 -0.105475,0.0075 -0.198889,-0.133972 -0.294321,-0.174137 -0.288801,-0.12554 -0.465339,0.05391 -0.703914,0.0564 -0.220995,0.0025 -0.539821,-0.321388 -0.529776,-0.529774 0.0075,-0.128046 0.102654,-0.31274 0.117728,-0.470912 0.01261,-0.125538 0.115235,-0.240145 0.117728,-0.355637 0.0025,-0.153152 -0.255183,-0.274288 -0.355635,-0.291866 -0.236063,-0.04268 -0.552931,0.105451 -0.821643,0 -0.05021,-0.08536 0.08759,-0.155057 0.117728,-0.23791 0.01757,-0.0477 -0.01758,-0.06499 0,-0.117728 0.03013,-0.08033 0.136471,-0.150092 0.174138,-0.235455 0.02762,-0.06528 0.03126,-0.155114 0.05885,-0.235456 0.03265,-0.09039 0.110191,-0.170178 0.117728,-0.235456 0.01006,-0.08536 -0.04992,-0.182674 -0.117728,-0.237908 -0.208438,0.01261 -0.35282,0.0036 -0.473364,0.05885 -0.271222,0.123015 -0.197179,0.503278 -0.470911,0.588639 -0.09293,0.03012 -0.247708,0.03884 -0.353184,0.0564 -0.04592,0.0089 -0.09813,0.01648 -0.149612,0.02943 0.17539,-0.911681 0.446887,-1.788029 0.806926,-2.616993 0.0604,-1.6e-5 0.123014,-0.0081 0.164328,0 0.09542,0.01758 0.155036,0.11019 0.23791,0.117727 0.231041,0.01758 0.280052,-0.193894 0.470911,-0.29432 0.195883,0.02762 0.295059,-0.02008 0.473363,0 0.120542,0.01261 0.257754,0.16906 0.353185,0.176593 0.08036,0.0025 0.101262,-0.07144 0.176592,-0.05885 0.07534,0.01261 0.222898,0.14507 0.235455,0.235455 0.01261,0.112987 -0.09152,0.230102 -0.05886,0.355636 0.11803,0.120516 0.361517,0.165157 0.529776,0.235456 0.110495,-0.09039 0.01758,-0.281494 0,-0.412048 -0.0025,-0.05774 0.0075,-0.123855 0,-0.176592 -0.01261,-0.09039 -0.05641,-0.157625 -0.05641,-0.235456 0,-0.359025 0.288689,-0.506905 0.529775,-0.647502 0.102958,-0.06027 0.203912,-0.190265 0.29432,-0.235456 0.128074,-0.06277 0.188844,-0.05746 0.294319,-0.117729 0.190861,-0.107955 0.381609,-0.232612 0.529776,-0.355635 0.06781,-0.163195 -0.0075,-0.369093 0,-0.529776 0.06781,-0.04268 0.101308,0.0075 0.17414,0 0.115527,-0.02511 0.172613,-0.170178 0.237908,-0.235455 0.03767,-0.03766 0.12894,-0.08007 0.174138,-0.117729 0.115527,-0.09039 0.135001,-0.195284 0.235457,-0.235456 0.03515,-0.01261 0.121344,-0.0438 0.176591,-0.05886 0.07535,-0.02008 0.173777,-0.07505 0.29432,-0.117728 0.07786,-0.02762 0.264185,-0.02629 0.294319,-0.0564 0.03767,-0.03766 -0.01006,-0.180164 0,-0.23791 0.06028,-0.283705 0.51159,-0.314189 0.765233,-0.409595 0.17579,-0.06778 0.333894,-0.214252 0.529775,-0.176591 -0.03767,0.135583 -0.209239,0.131124 -0.176592,0.294319 0.04268,0.22847 0.331685,-0.08509 0.412047,-0.117728 0.153192,-0.06528 0.446599,-0.103777 0.647505,-0.176591 0.175792,-0.06276 0.460065,-0.149818 0.294319,-0.353183 -0.138123,-0.01006 -0.173777,0.12393 -0.294319,0.174139 -0.08287,0.01261 -0.103814,-0.0514 -0.17414,-0.05641 -0.06781,-0.0025 -0.108799,0.06897 -0.176592,0.05641 -0.06781,-0.01261 -0.166547,-0.155114 -0.176592,-0.235456 -0.02763,-0.210898 0.208935,-0.256387 0.29432,-0.412047 -0.05775,-0.190812 -0.310189,-0.04241 -0.470912,-0.117728 0.01758,-0.112988 0.102362,-0.21286 0.235455,-0.235456 0.107991,-0.01758 0.346756,0.0036 0.412049,0.0564 0.03767,0.03264 -0.0014,0.123857 0.0564,0.176593 0.06529,0.05774 0.152524,0.01261 0.237908,0 0.03013,-0.143111 -0.201706,-0.0837 -0.176591,-0.176593 0.170768,-0.110471 0.497928,-0.0288 0.706367,-0.0564 0.120541,-0.01758 0.245196,-0.118846 0.353183,-0.176592 0.100466,-0.05774 0.188846,-0.151823 0.29432,-0.0564 0.03013,0.102935 -0.05998,0.182733 -0.117728,0.235456 -0.193372,0.170728 -0.379097,0.331433 -0.529775,0.529776 0.09293,0.09039 0.256346,0.03883 0.412048,0.05641 0.06028,0.0075 0.111349,0.04883 0.174139,0.05886 0.07534,0.01261 0.177635,-0.01261 0.237907,0 0.105475,0.02511 0.129974,0.176591 0.235457,0.176591 0.17077,0 0.154361,-0.178828 0.05641,-0.294319 0.03013,-0.118004 0.101578,-0.211465 0.05886,-0.294319 -0.07786,-0.155661 -0.396978,0.02175 -0.412048,-0.176592 -0.01006,-0.125539 0.131394,-0.14005 0.176592,-0.235456 -0.02009,-0.241024 0.199253,-0.252482 0.174139,-0.470912 -0.01261,-0.09039 -0.111348,-0.09123 -0.174139,-0.176591 -0.03265,-0.0452 -0.02119,-0.143953 -0.05886,-0.176592 -0.130582,-0.110471 -0.39698,-0.08097 -0.412048,-0.291868 -0.0075,-0.125537 0.01758,-0.220058 0,-0.355635 -0.01757,-0.128047 -0.124961,-0.50467 -0.235456,-0.529777 -0.140631,-0.03012 -0.243788,0.216489 -0.412046,0.29432 -0.0904,0.04268 -0.260265,0.07644 -0.353185,0.05886 -0.06028,-0.01261 -0.16906,-0.0611 -0.176591,-0.176592 -0.01261,-0.133062 0.09263,-0.153721 0.117728,-0.294321 1.081918,-0.301952 2.218571,-0.47582 3.39939,-0.47582 z m -5.064752,1.064457 c -0.03615,0.516499 -0.496885,0.784118 -1.03993,0.770137 -0.115527,0.110472 -0.05496,0.317759 -0.117728,0.470911 -0.05275,0.128046 -0.225107,0.247953 -0.353183,0.23791 -0.09293,-0.0075 -0.235456,-0.150037 -0.235456,-0.23791 0,-0.107966 0.149338,-0.168844 0.05641,-0.291866 0.0039,-0.02579 0.03768,-0.05177 0.06377,-0.07849 0.51929,-0.326937 1.058735,-0.621464 1.626116,-0.870696 z m 10.482687,0.59845 c -0.04619,0.0085 -0.07191,0.03235 -0.112812,0.0564 -0.09542,0.05774 -0.103765,0.148976 -0.176593,0.176591 -0.102958,0.03766 -0.220387,0.02484 -0.235455,0.117728 -0.0126,0.07783 0.06138,0.103836 0.05885,0.174139 -0.03767,0.0929 -0.09763,0.122463 -0.117729,0.235456 0.128075,0.208385 0.427975,-0.01135 0.586187,-0.05641 0.07032,-0.02008 0.138923,-0.0036 0.176592,-0.05886 0.04268,-0.06778 0.02377,-0.19646 0.05641,-0.291867 0.03516,-0.105451 0.130295,-0.0837 0.117728,-0.176591 -0.01006,-0.09291 -0.197483,-0.191657 -0.353183,-0.176592 z m -13.747184,1.498577 c 0.122162,0.06257 0.328346,0.345301 0.0932,0.446387 -0.02511,0.01261 -0.351776,0.06897 -0.412047,0.05641 -0.04864,-0.007 -0.08907,-0.05166 -0.12999,-0.09566 0.144361,-0.140977 0.297797,-0.273235 0.448836,-0.407143 z m 0.443933,0.561662 c 0.06028,0.0025 0.10627,0.112707 0.176592,0.117727 0.06781,0.005 0.136408,-0.07143 0.176591,-0.05885 0.105475,0.02762 0.156872,0.216489 0.05641,0.29432 -0.08288,0.01006 -0.113877,-0.06896 -0.17414,-0.0564 -0.170769,0.03012 -0.227559,0.363227 -0.355636,0.353183 -0.120541,-0.01261 -0.179474,-0.265309 -0.0564,-0.353183 0.0025,-0.07532 -0.06391,-0.101262 -0.05885,-0.176592 0.03767,-0.04771 0.135001,-0.125263 0.235457,-0.117728 l 0,-0.0025 z m -0.586187,0.05886 c 0.03516,0 0.04386,-0.01508 0.05641,0 -0.01757,0.13306 -0.07116,0.175139 -0.174139,0.237907 -0.178304,0.107956 -0.297876,0.239931 -0.355637,0.470912 -0.01757,0.06779 -0.206482,0.253031 -0.291867,0.235456 -0.198394,-0.04268 0.07252,-0.413167 0.117727,-0.470912 0.05021,-0.06276 0.11637,-0.106293 0.17414,-0.176592 0.05775,-0.07031 0.0625,-0.195284 0.117728,-0.235455 0.06028,-0.04268 0.250161,-0.06389 0.355637,-0.05885 l 0,-0.0025 z m 17.767101,0.336014 c 0.07931,0.08734 0.161067,0.172862 0.237908,0.262435 -0.07918,-0.09266 -0.208412,-0.128186 -0.237908,-0.262435 z m -0.767684,0.02453 c 0.198394,-0.01261 0.321642,0.232673 0.412048,0.353185 0.07534,0.09793 0.288993,0.226529 0.412048,0.29432 0.07032,0.03766 0.157603,0.08258 0.235455,0.117728 0.163238,0.07282 0.463378,0.310228 0.470906,0.47091 0.0028,0.08033 -0.06892,0.162587 -0.05639,0.237909 0.123056,0.02008 0.232945,-0.171297 0.23546,-0.294321 0,-0.02918 -0.01,-0.04734 -0.02212,-0.06621 0.355421,0.497281 0.675668,1.01911 0.956536,1.567254 -0.110705,0.03249 -0.205356,0.08593 -0.223194,0.193759 -0.02506,0.1406 0.09323,0.328077 -0.11773,0.353183 -0.1331,0.01758 -0.290039,-0.136427 -0.47336,-0.176591 -0.07538,-0.01758 -0.175185,0.02008 -0.23546,0 -0.138122,-0.04772 -0.117426,-0.209015 -0.23545,-0.291867 -0.06778,-0.04772 -0.247653,-0.10517 -0.35564,-0.117728 -0.06781,-0.0075 -0.103813,0.01006 -0.174138,0 -0.08539,-0.01006 -0.224003,-0.0162 -0.29432,-0.05886 -0.06781,-0.04268 -0.217877,-0.118847 -0.235457,-0.176592 -0.02762,-0.09289 0.169116,-0.21404 0.17414,-0.291868 0.005,-0.06027 -0.04386,-0.08621 -0.05641,-0.176591 -0.01006,-0.05523 0.01261,-0.141443 0,-0.176593 -0.01757,-0.06528 -0.134945,-0.115199 -0.237907,-0.117728 -0.09042,0 -0.157607,0.05885 -0.235456,0.05885 -0.110495,0.0025 -0.332788,-0.07142 -0.470911,-0.05885 -0.08287,0.0075 -0.160059,0.05386 -0.237909,0.05885 -0.218486,0.01758 -0.359007,-0.01261 -0.529775,0 -0.123066,0.0075 -0.355392,0.06499 -0.470911,0.117728 -0.05775,0.02762 -0.101262,0.08007 -0.176594,0.117729 -0.03514,0.01757 -0.07252,0.03632 -0.117728,0.0564 -0.07032,0.03265 -0.167649,0.102596 -0.235455,0.120177 -0.09794,0.02511 -0.233742,-0.0075 -0.412047,0 -0.128074,0.0075 -0.350672,-0.02343 -0.353184,-0.176592 -0.0025,-0.233493 0.426507,-0.136426 0.647503,-0.176592 0.08287,-0.01757 0.135002,-0.116393 0.235456,-0.174139 0.04772,-0.02762 0.07252,-0.02873 0.117727,-0.05886 0.07535,-0.05273 0.2229,-0.175201 0.235457,-0.235457 0.01006,-0.05522 -0.06394,-0.136426 -0.0564,-0.176591 0.01006,-0.05273 0.10634,-0.106364 0.174138,-0.17414 0.105475,-0.105451 0.163733,-0.226532 0.29432,-0.29432 0.0879,-0.04772 0.254138,-0.04743 0.29432,-0.117728 0.01006,-0.08034 -0.0025,-0.103777 0,-0.176591 0.05526,-0.0502 0.07252,-0.107687 0.117728,-0.117728 0.135608,-0.03012 0.253833,0.06394 0.412048,0.05641 0.06781,-0.0025 0.162628,-0.0086 0.235456,-0.05641 0.06028,-0.04017 0.116334,-0.0876 0.176591,-0.117728 0.06529,-0.03515 0.09623,-0.112707 0.176592,-0.117727 z m -15.714221,0.120178 0.0025,0 c 0.05775,-0.0025 0.113806,0 0.176591,0 0.06278,0 0.149026,-0.02511 0.174139,0 -0.04019,0.165705 -0.399185,0.116673 -0.529774,0.05641 0.0075,-0.06276 0.09623,-0.04887 0.176591,-0.05641 z m 16.719813,0.120176 c 0.07173,0.08366 0.146284,0.164615 0.21583,0.250172 -0.01168,-0.0065 -0.02905,-0.0094 -0.03921,-0.01716 -0.06985,-0.05487 -0.107192,-0.148084 -0.176589,-0.233003 z m -17.308453,0.17414 c 0.04268,0 0.07496,-0.01758 0.120178,0 -0.115527,0.09791 -0.272459,0.17269 -0.473364,0.235456 -0.09542,0.03012 -0.217878,0.04658 -0.235456,-0.05886 -0.0201,-0.130553 0.09122,-0.10517 0.176591,-0.117728 0.110495,-0.01261 0.281518,-0.05391 0.409595,-0.05641 l 0.0025,-0.0025 z m 16.361725,0.0025 c -0.08287,0.02762 -0.123064,0.212858 0,0.235455 0.05775,-0.03515 0.07394,-0.130005 0.05886,-0.235455 -0.03265,-0.03515 -0.03377,-0.01006 -0.05886,0 z m -0.05641,0.353183 c -0.04019,0.01261 -0.07505,0.01135 -0.117728,0.0564 0.0025,0.140595 0.02763,0.232612 0,0.355636 0.08036,0.15566 0.251687,0.04659 0.291866,-0.05885 0.04772,-0.261109 -0.0536,-0.385821 -0.174138,-0.353184 z m 1.115962,0.706367 c -0.110494,-0.005 -0.226572,0.0036 -0.291868,0.05641 0.09293,0.150639 0.262473,0.197797 0.470914,0.235456 0.07528,-0.05523 0.08259,-0.196461 0.11773,-0.291867 -0.09038,0 -0.183824,0.005 -0.294324,0 l -0.0025,0 z m -22.066624,5.172627 c 0.141571,0.128636 0.240168,0.342925 0.409595,0.426763 0.06278,0.03264 0.155093,0.0413 0.235456,0.05885 0.06529,0.01261 0.113806,0.03632 0.176591,0.05641 0.133103,0.0452 0.306574,0.07248 0.412048,0.120178 0.160726,0.0703 0.273925,0.329253 0.412048,0.409595 0.0075,0.08034 -0.02511,0.177652 0,0.237907 0.06529,0.08786 0.188843,0.116394 0.29432,0.17414 0.128074,0.0703 0.171324,0.239086 0.291867,0.29432 0.04268,0.01757 0.111302,-0.02008 0.176592,0 0.165747,0.0502 0.212491,0.278138 0.355636,0.235455 0.09293,-0.02762 0.102655,-0.14507 0.117728,-0.235455 0.06278,-0.06779 0.137515,-0.176592 0.235456,-0.176592 0.155702,-0.0025 0.177694,0.202486 0.235456,0.355637 0.03265,0.08537 0.09512,0.14507 0.117728,0.235455 0.03767,0.155662 0.03265,0.613473 0,0.706366 -0.04019,0.115493 -0.19889,0.166337 -0.29432,0.291868 -0.04521,0.06027 -0.08257,0.136427 -0.117728,0.176593 -0.06028,0.07532 -0.128929,0.108809 -0.17414,0.176591 -0.02511,0.03766 -0.03627,0.121407 -0.05886,0.17414 -0.07534,0.16068 -0.180513,0.280042 -0.117728,0.473364 0.02511,0.07782 0.117728,0.142561 0.117728,0.235455 0,0.110471 -0.217875,0.173809 -0.235455,0.294319 -0.01261,0.08787 0.09009,0.235181 0.117727,0.353185 0.02009,0.08786 0.182719,0.17771 0.235457,0.235456 0.0879,0.09793 0.157545,0.230103 0.237907,0.355636 0.158213,0.243535 0.253894,0.526718 0.409596,0.765231 0.08287,0.123015 0.239071,0.222628 0.29432,0.353184 0.02762,0.06528 -0.02511,0.1752 0,0.235455 0.0904,0.203364 0.502949,0.42935 0.706368,0.529776 0.09542,0.0477 0.206421,0.06996 0.294319,0.120176 0.133102,0.07532 0.403105,0.235182 0.470911,0.353184 0.06028,0.105451 0.08759,0.361562 0.117728,0.529776 0.03767,0.220938 -0.01006,0.408989 0,0.647503 0.0075,0.130554 0.05885,0.222628 0.05885,0.353183 0,0.0452 0.0025,0.131399 0,0.176593 -0.0025,0.15566 0.01261,0.312739 0,0.470911 -0.0075,0.08537 -0.005,0.165098 0,0.237908 0.0075,0.07782 0.0514,0.106352 0.05641,0.17414 0.005,0.07282 -0.06394,0.180161 -0.05641,0.237907 0.01758,0.158173 0.146456,0.263977 0.176592,0.409595 0.02511,0.115493 0.07148,0.391691 0.0564,0.529777 -0.01006,0.07282 -0.04638,0.157567 -0.0564,0.237908 -0.0075,0.06276 0.01006,0.116393 0,0.174139 -0.0081,0.05609 -0.02183,0.103379 -0.0368,0.152065 -3.493521,-2.225263 -5.810358,-6.121909 -5.810358,-10.588135 0,-0.601401 0.05638,-1.18753 0.137349,-1.765918 z m 4.885707,1.375944 c 0.120541,-0.05522 0.09794,0.161527 0,0.176591 -0.09293,0.01261 -0.09042,-0.133905 0,-0.176591 z"
           style="color:#000000;fill:#31363b;fill-opacity:1;fill-rule:nonzero"
           inkscape:connector-curvature="0" />
      </g>
    </g>
  </g>
</svg>
