<?xml version="1.0" encoding="UTF-8" standalone="no"?>
<svg
   xmlns:dc="http://purl.org/dc/elements/1.1/"
   xmlns:cc="http://creativecommons.org/ns#"
   xmlns:rdf="http://www.w3.org/1999/02/22-rdf-syntax-ns#"
   xmlns:svg="http://www.w3.org/2000/svg"
   xmlns="http://www.w3.org/2000/svg"
   xmlns:xlink="http://www.w3.org/1999/xlink"
   xmlns:sodipodi="http://sodipodi.sourceforge.net/DTD/sodipodi-0.dtd"
   xmlns:inkscape="http://www.inkscape.org/namespaces/inkscape"
   viewBox="0 0 64 64"
   id="svg2"
   version="1.1"
   inkscape:version="0.91 r13725"
   sodipodi:docname="application-illustrator.svg"
   width="64"
   height="64">
  <metadata
     id="metadata84">
    <rdf:RDF>
      <cc:Work
         rdf:about="">
        <dc:format>image/svg+xml</dc:format>
        <dc:type
           rdf:resource="http://purl.org/dc/dcmitype/StillImage" />
        <dc:title />
      </cc:Work>
    </rdf:RDF>
  </metadata>
  <sodipodi:namedview
     pagecolor="#848484"
     bordercolor="#666666"
     borderopacity="1"
     objecttolerance="10"
     gridtolerance="10"
     guidetolerance="10"
     inkscape:pageopacity="0"
     inkscape:pageshadow="2"
     inkscape:window-width="1366"
     inkscape:window-height="642"
     id="namedview82"
     showgrid="false"
     inkscape:showpageshadow="false"
     inkscape:zoom="3.25"
     inkscape:cx="-62.30291"
     inkscape:cy="34.756231"
     inkscape:window-x="0"
     inkscape:window-y="33"
     inkscape:window-maximized="1"
     inkscape:current-layer="svg2"
     showguides="false"
     inkscape:snap-bbox="true"
     inkscape:snap-bbox-edge-midpoints="false"
     inkscape:bbox-nodes="true">
    <inkscape:grid
       type="xygrid"
       id="grid3413" />
    <sodipodi:guide
       position="0,64"
       orientation="64,0"
       id="guide3482" />
    <sodipodi:guide
       position="0,0"
       orientation="0,64"
       id="guide3484" />
    <sodipodi:guide
       position="64,0"
       orientation="-64,0"
       id="guide3486" />
    <sodipodi:guide
       position="10,61"
       orientation="58,0"
       id="guide3492" />
    <sodipodi:guide
       position="10,3"
       orientation="0,44"
       id="guide3494" />
    <sodipodi:guide
       position="54,3"
       orientation="-58,0"
       id="guide3496" />
    <sodipodi:guide
       position="54,61"
       orientation="0,-44"
       id="guide3498" />
    <sodipodi:guide
       position="54,47"
       orientation="-14,0"
       id="guide4310" />
    <sodipodi:guide
       position="54,61"
       orientation="0,-14"
       id="guide4312" />
    <sodipodi:guide
       position="21,43"
       orientation="22,0"
       id="guide4250" />
    <sodipodi:guide
       position="21,21"
       orientation="0,22"
       id="guide4252" />
    <sodipodi:guide
       position="43,21"
       orientation="-22,0"
       id="guide4254" />
    <sodipodi:guide
       position="43,43"
       orientation="0,-22"
       id="guide4256" />
  </sodipodi:namedview>
  <defs
     id="defs4">
    <linearGradient
       inkscape:collect="always"
       xlink:href="#linearGradient4422"
       id="linearGradient4190-9"
       x1="375.57144"
       y1="543.79797"
       x2="375.57144"
       y2="517.79797"
       gradientUnits="userSpaceOnUse"
       gradientTransform="matrix(2.1937939,0,0,2.2303048,-398.02626,-639.90393)" />
    <linearGradient
       id="linearGradient4422">
      <stop
         id="stop4424"
         offset="0"
         style="stop-color:#ffa400;stop-opacity:1" />
      <stop
         id="stop4426"
         offset="1"
         style="stop-color:#ffdd00;stop-opacity:1" />
    </linearGradient>
  </defs>
  <g
     transform="translate(-392.98822,-511.27795)"
     id="layer1"
     inkscape:label="Capa 1"
     inkscape:transform-center-x="5.4653607"
     inkscape:transform-center-y="-9.4924686">
    <g
       transform="translate(0.41988239,0.03484499)"
       inkscape:label="Capa 1"
       id="layer1-3">
      <rect
         style="opacity:0.997;fill:url(#linearGradient4190-9);fill-opacity:1.0;stroke:none;stroke-width:0.104;stroke-linecap:round;stroke-linejoin:round;stroke-miterlimit:4;stroke-dasharray:none;stroke-opacity:1"
         id="rect4182-2"
         width="46.069672"
         height="57.987926"
         x="401.76834"
         y="514.94318"
         ry="1.7192465" />
      <path
         style="opacity:0.56499999;fill:#000000;fill-opacity:1;fill-rule:evenodd;stroke:none;stroke-width:1px;stroke-linecap:butt;stroke-linejoin:miter;stroke-opacity:1"
         d="m 401.76839,563.18111 -4e-5,7.90428 c 0,0 -0.0224,1.83572 1.81022,1.83572 l 42.46177,0 c 0,0 1.93884,-0.0444 1.91466,-2.52819 l -0.0702,-7.21181 z"
         id="path4302"
         inkscape:connector-curvature="0"
         sodipodi:nodetypes="ccccccc" />
      <g
         style="font-style:normal;font-weight:normal;font-size:7.8266716px;line-height:125%;font-family:sans-serif;letter-spacing:0px;word-spacing:0px;fill:#ffffff;fill-opacity:1;stroke:none;stroke-width:1px;stroke-linecap:butt;stroke-linejoin:miter;stroke-opacity:1"
         id="text4304">
        <path
           d="m 422.97461,570.37236 q -0.61048,0 -1.0253,-0.3522 -0.40698,-0.3522 -0.40698,-0.93138 0,-0.62613 0.48525,-0.97833 0.48526,-0.36003 1.19748,-0.36003 0.63396,0 1.04095,0.2348 l 0,-0.10957 q 0,-0.42264 -0.28959,-0.67309 -0.28958,-0.25828 -0.71222,-0.25828 -0.31307,0 -0.57135,0.1487 -0.25045,0.14871 -0.34437,0.40699 l -0.65745,-0.28176 q 0.13306,-0.34437 0.52439,-0.63396 0.39134,-0.29741 1.03312,-0.29741 0.73571,0 1.22096,0.43046 0.48526,0.43047 0.48526,1.21314 l 0,2.31669 -0.68875,0 0,-0.53221 -0.0313,0 q -0.43046,0.65744 -1.26009,0.65744 z m 0.1174,-0.65744 q 0.44612,0 0.80615,-0.32872 0.36785,-0.33655 0.36785,-0.7905 -0.30524,-0.25045 -0.91572,-0.25045 -0.52439,0 -0.79049,0.22697 -0.26611,0.22698 -0.26611,0.53222 0,0.28176 0.24263,0.44612 0.24262,0.16436 0.55569,0.16436 z"
           style="font-style:normal;font-variant:normal;font-weight:normal;font-stretch:normal;font-family:'Product Sans';-inkscape-font-specification:'Product Sans';fill:#ffffff;fill-opacity:1"
           id="path4161" />
        <path
           d="m 426.5492,565.44938 q -0.14871,0.14871 -0.36003,0.14871 -0.21132,0 -0.36003,-0.14871 -0.1487,-0.14871 -0.1487,-0.36003 0,-0.21132 0.1487,-0.36002 0.14871,-0.14871 0.36003,-0.14871 0.21132,0 0.36003,0.14871 0.1487,0.1487 0.1487,0.36002 0,0.21132 -0.1487,0.36003 z m 0,4.79775 -0.72006,0 0,-3.83507 0.72006,0 0,3.83507 z"
           style="font-style:normal;font-variant:normal;font-weight:normal;font-stretch:normal;font-family:'Product Sans';-inkscape-font-specification:'Product Sans';fill:#ffffff;fill-opacity:1"
           id="path4163" />
      </g>
      <g
         id="g3"
         transform="matrix(0.09159947,0,0,0.09159947,411.21246,525.4247)"
         style="fill:#6f4300;fill-opacity:1">
        <g
           id="g5"
           style="fill:#6f4300;fill-opacity:1">
          <path
             d="m 112.326,119.283 24.049,38.219 c 5.069,8.049 9.04,6.874 8.86,-2.644 l -0.792,-42.292 c -4.159,-1.452 -7.188,-5.331 -7.271,-9.995 -0.125,-5.986 4.652,-10.93 10.632,-11.043 5.986,-0.112 10.93,4.652 11.043,10.638 0.088,4.658 -2.801,8.656 -6.896,10.251 l 0.786,42.368 c 0.174,9.523 4.214,10.571 9.015,2.351 l 22.828,-39.053 c 2.119,-3.565 2.923,-9.693 1.809,-13.685 l -13.024,-38.791 5.23,-0.097 c 3.465,-0.07 6.217,-2.92 6.144,-6.366 -0.073,-3.462 -2.91,-6.211 -6.375,-6.141 l -7.532,0.143 3.051,-36.285 C 174.681,7.371 167.605,-0.174 158.094,0.003 L 135.086,0.426 C 125.57,0.6 118.647,8.418 119.627,17.89 l 3.736,36.133 -7.539,0.149 c -3.449,0.058 -6.198,2.902 -6.131,6.37 0.07,3.446 2.914,6.201 6.366,6.135 l 4.299,-0.083 -10.714,39.196 c -0.892,4.046 0.311,10.089 2.682,13.493 z"
             id="path7"
             inkscape:connector-curvature="0"
             style="fill:#6f4300;fill-opacity:1" />
          <path
             d="m 279.449,191.157 0,-28.314 -28.314,0 0,9.846 -193.367,0 0,-9.846 -28.315,0 0,28.314 28.314,0 0,-9.846 68.457,0 0,14.163 c -14.86,5.395 -79.512,32.687 -86.073,99.131 l -3.678,0 0,14.298 14.285,0 0,-14.298 -1.838,0 c 6.266,-57.427 59.902,-83.093 77.311,-89.925 l 0,15.747 43.796,0 0,-15.284 c 18.571,7.478 70.001,33.211 76.12,89.462 l -2.095,0 0,14.298 14.285,0 0,-14.298 -3.428,0 c -6.406,-64.752 -67.992,-92.348 -84.883,-98.692 l 0,-14.608 81.119,0 0,9.847 28.303,0 0,0.005 z m -118.044,20.66 -26.564,0 0,-26.561 26.564,0 0,26.561 z"
             id="path9"
             inkscape:connector-curvature="0"
             style="fill:#6f4300;fill-opacity:1" />
        </g>
      </g>
    </g>
  </g>
</svg>
