<?xml version="1.0" encoding="UTF-8" standalone="no"?>
<svg
   xmlns:osb="http://www.openswatchbook.org/uri/2009/osb"
   xmlns:dc="http://purl.org/dc/elements/1.1/"
   xmlns:cc="http://creativecommons.org/ns#"
   xmlns:rdf="http://www.w3.org/1999/02/22-rdf-syntax-ns#"
   xmlns:svg="http://www.w3.org/2000/svg"
   xmlns="http://www.w3.org/2000/svg"
   xmlns:xlink="http://www.w3.org/1999/xlink"
   xmlns:sodipodi="http://sodipodi.sourceforge.net/DTD/sodipodi-0.dtd"
   xmlns:inkscape="http://www.inkscape.org/namespaces/inkscape"
   viewBox="0 0 64 64"
   id="svg2"
   version="1.1"
   inkscape:version="0.91 r13725"
   sodipodi:docname="application-x-cda.svg"
   width="64"
   height="64">
  <metadata
     id="metadata84">
    <rdf:RDF>
      <cc:Work
         rdf:about="">
        <dc:format>image/svg+xml</dc:format>
        <dc:type
           rdf:resource="http://purl.org/dc/dcmitype/StillImage" />
        <dc:title />
      </cc:Work>
    </rdf:RDF>
  </metadata>
  <sodipodi:namedview
     pagecolor="#7b7b7b"
     bordercolor="#666666"
     borderopacity="1"
     objecttolerance="10"
     gridtolerance="10"
     guidetolerance="10"
     inkscape:pageopacity="0"
     inkscape:pageshadow="2"
     inkscape:window-width="1366"
     inkscape:window-height="642"
     id="namedview82"
     showgrid="false"
     inkscape:showpageshadow="false"
     inkscape:zoom="2.8268114"
     inkscape:cx="-86.312073"
     inkscape:cy="29.420396"
     inkscape:window-x="0"
     inkscape:window-y="33"
     inkscape:window-maximized="1"
     inkscape:current-layer="layer1-3"
     showguides="false"
     inkscape:snap-bbox="true"
     inkscape:snap-bbox-edge-midpoints="false"
     inkscape:bbox-nodes="true">
    <inkscape:grid
       type="xygrid"
       id="grid3413" />
    <sodipodi:guide
       position="0,64"
       orientation="64,0"
       id="guide3482" />
    <sodipodi:guide
       position="0,0"
       orientation="0,64"
       id="guide3484" />
    <sodipodi:guide
       position="64,0"
       orientation="-64,0"
       id="guide3486" />
    <sodipodi:guide
       position="10,61"
       orientation="58,0"
       id="guide3492" />
    <sodipodi:guide
       position="10,3"
       orientation="0,44"
       id="guide3494" />
    <sodipodi:guide
       position="54,3"
       orientation="-58,0"
       id="guide3496" />
    <sodipodi:guide
       position="54,61"
       orientation="0,-44"
       id="guide3498" />
    <sodipodi:guide
       position="54,47"
       orientation="-14,0"
       id="guide4310" />
    <sodipodi:guide
       position="54,61"
       orientation="0,-14"
       id="guide4312" />
    <sodipodi:guide
       position="21,43"
       orientation="22,0"
       id="guide4250" />
    <sodipodi:guide
       position="21,21"
       orientation="0,22"
       id="guide4252" />
    <sodipodi:guide
       position="43,21"
       orientation="-22,0"
       id="guide4254" />
    <sodipodi:guide
       position="43,43"
       orientation="0,-22"
       id="guide4256" />
  </sodipodi:namedview>
  <defs
     id="defs4">
    <linearGradient
       inkscape:collect="always"
       xlink:href="#linearGradient4422"
       id="linearGradient4190-9"
       x1="375.57144"
       y1="543.79797"
       x2="375.57144"
       y2="517.79797"
       gradientUnits="userSpaceOnUse"
       gradientTransform="matrix(2.1937939,0,0,2.2303048,-398.02626,-639.90393)" />
    <linearGradient
       id="linearGradient4422">
      <stop
         id="stop4424"
         offset="0"
         style="stop-color:#4d5052;stop-opacity:1" />
      <stop
         id="stop4426"
         offset="1"
         style="stop-color:#6f7376;stop-opacity:1" />
    </linearGradient>
    <linearGradient
       id="linearGradient4207"
       osb:paint="gradient">
      <stop
         style="stop-color:#3498db;stop-opacity:1;"
         offset="0"
         id="stop3371" />
      <stop
         style="stop-color:#3498db;stop-opacity:0;"
         offset="1"
         id="stop3373" />
    </linearGradient>
    <linearGradient
       id="linearGradient4202"
       inkscape:collect="always">
      <stop
         id="stop4204"
         offset="0"
         style="stop-color:#e6c02a;stop-opacity:1" />
      <stop
         id="stop4206"
         offset="1"
         style="stop-color:#000000;stop-opacity:0;" />
    </linearGradient>
    <linearGradient
       gradientUnits="userSpaceOnUse"
       y2="0.73601341"
       x2="14.990056"
       y1="29.237474"
       x1="15.37001"
       id="linearGradient4208"
       xlink:href="#linearGradient4202"
       inkscape:collect="always" />
    <linearGradient
       inkscape:collect="always"
       xlink:href="#linearGradient4202"
       id="linearGradient6699"
       gradientUnits="userSpaceOnUse"
       x1="15.37001"
       y1="29.237474"
       x2="14.990056"
       y2="0.73601341" />
  </defs>
  <g
     transform="translate(-392.98822,-511.27795)"
     id="layer1"
     inkscape:label="Capa 1"
     inkscape:transform-center-x="5.4653607"
     inkscape:transform-center-y="-9.4924686">
    <g
       transform="translate(0.41988239,0.03484499)"
       inkscape:label="Capa 1"
       id="layer1-3">
      <rect
         style="opacity:0.997;fill:url(#linearGradient4190-9);fill-opacity:1.0;stroke:none;stroke-width:0.104;stroke-linecap:round;stroke-linejoin:round;stroke-miterlimit:4;stroke-dasharray:none;stroke-opacity:1"
         id="rect4182-2"
         width="46.069672"
         height="57.987926"
         x="401.76834"
         y="514.94318"
         ry="1.7192465" />
      <path
         style="opacity:0.56499999;fill:#000000;fill-opacity:1;fill-rule:evenodd;stroke:none;stroke-width:1px;stroke-linecap:butt;stroke-linejoin:miter;stroke-opacity:1"
         d="m 401.76839,563.18111 -4e-5,7.90428 c 0,0 -0.0224,1.83572 1.81022,1.83572 l 42.46177,0 c 0,0 1.93884,-0.0444 1.91466,-2.52819 l -0.0702,-7.21181 z"
         id="path4302"
         inkscape:connector-curvature="0"
         sodipodi:nodetypes="ccccccc" />
      <g
         style="font-style:normal;font-weight:normal;font-size:7.8266716px;line-height:125%;font-family:sans-serif;letter-spacing:0px;word-spacing:0px;fill:#ffffff;fill-opacity:1;stroke:none;stroke-width:1px;stroke-linecap:butt;stroke-linejoin:miter;stroke-opacity:1"
         id="text4304">
        <path
           d="m 421.01465,570.77208 q -0.86093,0 -1.41663,-0.57918 -0.55569,-0.587 -0.55569,-1.46358 0,-0.87659 0.55569,-1.45576 0.5557,-0.58701 1.41663,-0.58701 0.64179,0 1.06443,0.31307 0.42264,0.31307 0.6183,0.7905 l -0.65744,0.27393 q -0.29741,-0.72005 -1.07225,-0.72005 -0.47743,0 -0.84528,0.39133 -0.36003,0.39133 -0.36003,0.99399 0,0.60265 0.36003,0.99398 0.36785,0.39134 0.84528,0.39134 0.80615,0 1.11139,-0.72006 l 0.64178,0.27394 q -0.19566,0.4696 -0.63396,0.79049 -0.43046,0.31307 -1.07225,0.31307 z"
           style="font-style:normal;font-variant:normal;font-weight:normal;font-stretch:normal;font-family:'Product Sans';-inkscape-font-specification:'Product Sans';fill:#ffffff;fill-opacity:1"
           id="path4171" />
        <path
           d="m 424.90157,570.77208 q -0.74353,0 -1.28357,-0.587 -0.54004,-0.587 -0.54004,-1.45576 0,-0.86876 0.54004,-1.45576 0.54004,-0.58701 1.28357,-0.58701 0.43829,0 0.78267,0.18784 0.3522,0.18784 0.52438,0.46961 l 0.0313,0 -0.0313,-0.53222 0,-1.76883 0.72006,0 0,5.6039 -0.68875,0 0,-0.53221 -0.0313,0 q -0.17218,0.28176 -0.52438,0.4696 -0.34438,0.18784 -0.78267,0.18784 z m 0.1174,-0.65744 q 0.50873,0 0.86093,-0.37568 0.36003,-0.37568 0.36003,-1.00964 0,-0.63396 -0.36003,-1.00964 -0.3522,-0.37568 -0.86093,-0.37568 -0.50091,0 -0.86093,0.3835 -0.36003,0.37568 -0.36003,1.00182 0,0.62613 0.36003,1.00964 0.36002,0.37568 0.86093,0.37568 z"
           style="font-style:normal;font-variant:normal;font-weight:normal;font-stretch:normal;font-family:'Product Sans';-inkscape-font-specification:'Product Sans';fill:#ffffff;fill-opacity:1"
           id="path4173" />
        <path
           d="m 428.97389,570.77208 q -0.61049,0 -1.0253,-0.3522 -0.40699,-0.3522 -0.40699,-0.93138 0,-0.62613 0.48526,-0.97833 0.48525,-0.36003 1.19748,-0.36003 0.63396,0 1.04095,0.2348 l 0,-0.10957 q 0,-0.42264 -0.28959,-0.67309 -0.28959,-0.25828 -0.71223,-0.25828 -0.31306,0 -0.57135,0.1487 -0.25045,0.14871 -0.34437,0.40699 l -0.65744,-0.28176 q 0.13305,-0.34437 0.52439,-0.63396 0.39133,-0.29742 1.03312,-0.29742 0.73571,0 1.22096,0.43047 0.48525,0.43047 0.48525,1.21314 l 0,2.31669 -0.68874,0 0,-0.53221 -0.0313,0 q -0.43047,0.65744 -1.26009,0.65744 z m 0.1174,-0.65744 q 0.44612,0 0.80614,-0.32872 0.36786,-0.33655 0.36786,-0.7905 -0.30524,-0.25045 -0.91572,-0.25045 -0.52439,0 -0.7905,0.22697 -0.26611,0.22698 -0.26611,0.53222 0,0.28176 0.24263,0.44612 0.24263,0.16436 0.5557,0.16436 z"
           style="font-style:normal;font-variant:normal;font-weight:normal;font-stretch:normal;font-family:'Product Sans';-inkscape-font-specification:'Product Sans';fill:#ffffff;fill-opacity:1"
           id="path4175" />
      </g>
      <g
         style="display:inline"
         transform="matrix(0.56098546,0,0,0.56098546,194.7777,246.41555)"
         id="layer1-39"
         inkscape:label="Capa 1">
        <g
           transform="matrix(1.1062439,0,0,1.1062439,-41.753038,-55.510718)"
           id="g4768">
          <path
             style="display:inline;opacity:1;fill:#fbff41;fill-opacity:1;stroke:none;stroke-width:8.58666897;stroke-miterlimit:4;stroke-dasharray:none;stroke-opacity:0.55026455"
             d="m 408.39272,504.87809 c -4.85676,0 -9.71405,1.86053 -13.43555,5.58203 -7.443,7.443 -7.443,19.4281 0,26.8711 7.443,7.443 19.4281,7.443 26.8711,0 7.443,-7.443 7.443,-19.4281 0,-26.8711 -3.7215,-3.7215 -8.57879,-5.58203 -13.43555,-5.58203 z"
             id="rect4166-6"
             inkscape:connector-curvature="0"
             sodipodi:nodetypes="ssssss" />
          <g
             transform="matrix(0.64872777,-1.1659445,1.1659445,0.64872777,381.19159,531.6494)"
             id="g3"
             style="fill:url(#linearGradient4208);fill-opacity:1">
            <g
               id="c59_radiactive"
               style="fill:url(#linearGradient6699);fill-opacity:1">
              <path
                 inkscape:connector-curvature="0"
                 style="fill:#232425;fill-opacity:1"
                 d="M 22.685,2.124 C 15.578,-2.12 6.376,0.193 2.127,7.298 c -4.248,7.104 -1.932,16.309 5.171,20.555 7.108,4.248 16.307,1.93 20.555,-5.174 4.248,-7.104 1.932,-16.302 -5.168,-20.555 z m -7.553,12.782 5.724,10.94 c -0.908,0.486 -1.872,0.861 -2.868,1.115 -3.045,0.762 -6.36,0.381 -9.269,-1.332 L 15.124,14.916 2.627,14.416 C 2.718,12.442 3.276,10.459 4.366,8.637 5.508,6.727 7.085,5.243 8.891,4.224 L 15.132,14.9 21.396,4.426 c 2.882,1.757 4.792,4.493 5.557,7.538 0.221,0.876 0.343,1.776 0.367,2.683 l -12.188,0.259 z"
                 id="path6" />
            </g>
          </g>
        </g>
      </g>
    </g>
  </g>
</svg>
