<?xml version="1.0" encoding="UTF-8" standalone="no"?>
<svg
   xmlns:osb="http://www.openswatchbook.org/uri/2009/osb"
   xmlns:dc="http://purl.org/dc/elements/1.1/"
   xmlns:cc="http://creativecommons.org/ns#"
   xmlns:rdf="http://www.w3.org/1999/02/22-rdf-syntax-ns#"
   xmlns:svg="http://www.w3.org/2000/svg"
   xmlns="http://www.w3.org/2000/svg"
   xmlns:xlink="http://www.w3.org/1999/xlink"
   xmlns:sodipodi="http://sodipodi.sourceforge.net/DTD/sodipodi-0.dtd"
   xmlns:inkscape="http://www.inkscape.org/namespaces/inkscape"
   viewBox="0 0 64 64"
   id="svg2"
   version="1.1"
   inkscape:version="0.91 r13725"
   sodipodi:docname="application-x-sqlite.svg"
   width="64"
   height="64">
  <metadata
     id="metadata84">
    <rdf:RDF>
      <cc:Work
         rdf:about="">
        <dc:format>image/svg+xml</dc:format>
        <dc:type
           rdf:resource="http://purl.org/dc/dcmitype/StillImage" />
        <dc:title />
      </cc:Work>
    </rdf:RDF>
  </metadata>
  <sodipodi:namedview
     pagecolor="#7f7f7f"
     bordercolor="#666666"
     borderopacity="1"
     objecttolerance="10"
     gridtolerance="10"
     guidetolerance="10"
     inkscape:pageopacity="0"
     inkscape:pageshadow="2"
     inkscape:window-width="1366"
     inkscape:window-height="642"
     id="namedview82"
     showgrid="false"
     inkscape:showpageshadow="false"
     inkscape:zoom="7.4642639"
     inkscape:cx="21.37435"
     inkscape:cy="29.37749"
     inkscape:window-x="0"
     inkscape:window-y="33"
     inkscape:window-maximized="1"
     inkscape:current-layer="layer1-3"
     showguides="false"
     inkscape:snap-bbox="true"
     inkscape:snap-bbox-edge-midpoints="false"
     inkscape:bbox-nodes="true"
     inkscape:guide-bbox="true">
    <inkscape:grid
       type="xygrid"
       id="grid3413" />
    <sodipodi:guide
       position="0,64"
       orientation="64,0"
       id="guide3482" />
    <sodipodi:guide
       position="0,0"
       orientation="0,64"
       id="guide3484" />
    <sodipodi:guide
       position="64,0"
       orientation="-64,0"
       id="guide3486" />
    <sodipodi:guide
       position="10,61"
       orientation="58,0"
       id="guide3492" />
    <sodipodi:guide
       position="10,3"
       orientation="0,44"
       id="guide3494" />
    <sodipodi:guide
       position="54,3"
       orientation="-58,0"
       id="guide3496" />
    <sodipodi:guide
       position="54,61"
       orientation="0,-44"
       id="guide3498" />
    <sodipodi:guide
       position="54,47"
       orientation="-14,0"
       id="guide4310" />
    <sodipodi:guide
       position="54,61"
       orientation="0,-14"
       id="guide4312" />
    <sodipodi:guide
       position="21,43"
       orientation="22,0"
       id="guide4250" />
    <sodipodi:guide
       position="21,21"
       orientation="0,22"
       id="guide4252" />
    <sodipodi:guide
       position="43,21"
       orientation="-22,0"
       id="guide4254" />
    <sodipodi:guide
       position="29.47377,43.138882"
       orientation="0,-22"
       id="guide4256" />
    <sodipodi:guide
       position="25.052705,61"
       orientation="0,1"
       id="guide6551" />
  </sodipodi:namedview>
  <defs
     id="defs4">
    <linearGradient
       inkscape:collect="always"
       xlink:href="#linearGradient4256"
       id="linearGradient4190-9"
       x1="375.57144"
       y1="543.79797"
       x2="375.57144"
       y2="517.79797"
       gradientUnits="userSpaceOnUse"
       gradientTransform="matrix(2.1937939,0,0,2.2303048,-398.02626,-639.90393)" />
    <linearGradient
       id="linearGradient4256">
      <stop
         style="stop-color:#8cbdf8;stop-opacity:1;"
         offset="0"
         id="stop4258" />
      <stop
         style="stop-color:#d5e8ff;stop-opacity:1;"
         offset="1"
         id="stop4260" />
    </linearGradient>
    <linearGradient
       id="linearGradient4207"
       osb:paint="gradient">
      <stop
         style="stop-color:#3498db;stop-opacity:1;"
         offset="0"
         id="stop3371" />
      <stop
         style="stop-color:#3498db;stop-opacity:0;"
         offset="1"
         id="stop3373" />
    </linearGradient>
  </defs>
  <g
     transform="translate(-392.98822,-511.27795)"
     id="layer1"
     inkscape:label="Capa 1"
     inkscape:transform-center-x="5.4653607"
     inkscape:transform-center-y="-9.4924686">
    <g
       transform="translate(0.41988239,0.03484499)"
       inkscape:label="Capa 1"
       id="layer1-3">
      <rect
         style="opacity:0.997;fill:url(#linearGradient4190-9);fill-opacity:1.0;stroke:none;stroke-width:0.104;stroke-linecap:round;stroke-linejoin:round;stroke-miterlimit:4;stroke-dasharray:none;stroke-opacity:1"
         id="rect4182-2"
         width="46.069672"
         height="57.987926"
         x="401.76834"
         y="514.94318"
         ry="1.7192465" />
      <path
         style="opacity:0.56499999;fill:#000000;fill-opacity:1;fill-rule:evenodd;stroke:none;stroke-width:1px;stroke-linecap:butt;stroke-linejoin:miter;stroke-opacity:1"
         d="m 401.76839,563.18111 -4e-5,7.90428 c 0,0 -0.0224,1.83572 1.81022,1.83572 l 42.46177,0 c 0,0 1.93884,-0.0444 1.91466,-2.52819 l -0.0702,-7.21181 z"
         id="path4302"
         inkscape:connector-curvature="0"
         sodipodi:nodetypes="ccccccc" />
      <g
         style="font-style:normal;font-weight:normal;font-size:7.8266716px;line-height:125%;font-family:sans-serif;letter-spacing:0px;word-spacing:0px;fill:#ffffff;fill-opacity:1;stroke:none;stroke-width:1px;stroke-linecap:butt;stroke-linejoin:miter;stroke-opacity:1"
         id="text4304">
        <path
           d="m 421.78624,570.47209 q -0.64179,0 -1.06443,-0.31307 -0.41481,-0.31306 -0.61048,-0.78266 l 0.64179,-0.26611 q 0.30524,0.72005 1.04095,0.72005 0.33654,0 0.54786,-0.1487 0.21915,-0.14871 0.21915,-0.39134 0,-0.37568 -0.52439,-0.50873 l -0.77484,-0.18784 q -0.36785,-0.0939 -0.69657,-0.3522 -0.32872,-0.26611 -0.32872,-0.71223 0,-0.50873 0.44612,-0.8218 0.45395,-0.32089 1.07225,-0.32089 0.50874,0 0.9079,0.2348 0.39916,0.22697 0.57134,0.65744 l -0.62613,0.25828 q -0.21132,-0.50874 -0.87659,-0.50874 -0.32089,0 -0.54004,0.13306 -0.21914,0.13305 -0.21914,0.36002 0,0.32872 0.50873,0.44612 l 0.75919,0.18002 q 0.54004,0.12522 0.79832,0.43047 0.25828,0.30524 0.25828,0.68874 0,0.51656 -0.42264,0.86094 -0.42264,0.34437 -1.08791,0.34437 z"
           style="font-style:normal;font-variant:normal;font-weight:normal;font-stretch:normal;font-family:'Product Sans';-inkscape-font-specification:'Product Sans';fill:#ffffff;fill-opacity:1"
           id="path4178" />
        <path
           d="m 426.88091,572.03742 0,-1.69056 0.0313,-0.53221 -0.0313,0 q -0.17218,0.28176 -0.52438,0.4696 -0.34438,0.18784 -0.78267,0.18784 -0.74353,0 -1.28357,-0.587 -0.54004,-0.587 -0.54004,-1.45576 0,-0.86876 0.54004,-1.45576 0.54004,-0.587 1.28357,-0.587 0.43829,0 0.78267,0.18784 0.3522,0.18784 0.52438,0.4696 l 0.0313,0 0,-0.53222 0.68875,0 0,5.52563 -0.72006,0 z m -1.18965,-2.22277 q 0.50873,0 0.86093,-0.37568 0.36003,-0.37568 0.36003,-1.00964 0,-0.63396 -0.36003,-1.00964 -0.3522,-0.37568 -0.86093,-0.37568 -0.50091,0 -0.86093,0.3835 -0.36003,0.37568 -0.36003,1.00182 0,0.62613 0.36003,1.00964 0.36002,0.37568 0.86093,0.37568 z"
           style="font-style:normal;font-variant:normal;font-weight:normal;font-stretch:normal;font-family:'Product Sans';-inkscape-font-specification:'Product Sans';fill:#ffffff;fill-opacity:1"
           id="path4180" />
        <path
           d="m 429.16838,570.34686 -0.72005,0 0,-5.60389 0.72005,0 0,5.60389 z"
           style="font-style:normal;font-variant:normal;font-weight:normal;font-stretch:normal;font-family:'Product Sans';-inkscape-font-specification:'Product Sans';fill:#ffffff;fill-opacity:1"
           id="path4182" />
      </g>
      <g
         id="g4217"
         transform="matrix(-0.09279907,0,0,0.09279907,437.61445,527.65363)"
         style="fill:#3f546c;fill-opacity:1">
        <path
           id="path4179"
           d="m 284.395,115.13 c -3.853,4.085 -9.53,4.085 -11.396,4.085 -3.46,0 -7.738,-0.573 -13.868,-1.859 -4.815,-1.01 -8.961,-2.017 -12.617,-2.904 -7.192,-1.747 -12.39,-3.01 -17.283,-3.01 -2.758,0 -7.79,1.195 -13.119,2.461 -8.297,1.971 -18.622,4.423 -28.609,4.423 -10.083,0 -20.696,-0.784 -27.383,-1.389 -2.221,8.326 -7.505,22.056 -19.499,31.884 -16.307,13.36 -28.397,19.32 -28.904,19.567 -3.097,1.51 -6.821,0.719 -9.034,-1.922 -2.213,-2.639 -2.345,-6.445 -0.319,-9.23 0.067,-0.095 8.217,-11.616 7.904,-24.564 -0.124,-5.151 -0.311,-9.187 -0.502,-12.261 -10.157,2.994 -27.451,9.687 -36.372,22.286 -13.514,19.083 -19.058,48.463 -17.573,58.101 1.546,10.042 1.731,10.042 6.496,10.042 10.382,0 19.104,0.425 28.928,5.773 8.69,4.729 13.476,9.903 13.992,10.478 1.949,2.165 2.468,5.263 1.331,7.944 -1.137,2.683 -3.724,4.464 -6.635,4.568 -2.808,0.105 -11.305,0.813 -16.766,2.795 -2.9,1.053 -5.398,2.285 -7.814,3.477 -3.865,1.907 -7.516,3.708 -11.775,4.211 -1.385,0.164 -2.807,0.244 -4.153,0.219 -1.57,3.647 -4.242,7.994 -8.736,11.443 -3.44,2.641 -6.94,4.27 -10.028,5.706 -3.792,1.765 -6.788,3.159 -9.088,6.011 -6.028,7.475 -8.051,15.58 -8.07,15.661 -0.788,3.237 -3.622,5.583 -6.95,5.734 -0.115,0.006 -0.231,0.008 -0.346,0.008 -3.191,0 -6.054,-2.012 -7.095,-5.056 -0.469,-1.367 -4.422,-13.896 0.839,-32.235 1.881,-6.556 4.795,-12.231 7.612,-17.721 4.584,-8.929 8.543,-16.64 6.882,-26.089 -7.808,-44.411 -7.269,-80.521 1.601,-107.323 13.792,-41.684 47.18,-64.909 53.733,-69.14 3.251,-2.101 6.177,-3.949 8.643,-5.485 -2.287,-1.822 -5.194,-3.736 -8.65,-5.205 C 71.906,23.27 68.6,22.356 67.684,22.138 67.625,22.14 67.568,22.14 67.511,22.14 64.246,22.141 61.736,19.985 60.781,16.801 59.789,13.495 61.632,9.946 64.603,8.191 65.168,7.856 78.681,0 96.49,0 c 3.675,0 7.326,0.337 10.851,1.002 10.983,2.073 18.745,5.17 26.251,8.164 7.329,2.924 14.252,5.686 24.588,7.863 5.021,1.058 9.645,1.874 14.116,2.664 15.383,2.716 28.668,5.062 48.531,15.205 25.924,13.24 40.501,27.726 41.047,40.787 0.115,2.753 0.055,5.213 -0.181,7.375 2.426,1.213 5.374,2.746 8.352,4.44 12.123,6.895 17.207,12.059 17.546,17.822 0.235,4.01 -0.84,7.309 -3.196,9.808 z"
           inkscape:connector-curvature="0"
           style="fill:#3f546c;fill-opacity:1" />
        <g
           id="g4181"
           style="fill:#3f546c;fill-opacity:1" />
        <g
           id="g4183"
           style="fill:#3f546c;fill-opacity:1" />
        <g
           id="g4185"
           style="fill:#3f546c;fill-opacity:1" />
        <g
           id="g4187"
           style="fill:#3f546c;fill-opacity:1" />
        <g
           id="g4189"
           style="fill:#3f546c;fill-opacity:1" />
        <g
           id="g4191"
           style="fill:#3f546c;fill-opacity:1" />
        <g
           id="g4193"
           style="fill:#3f546c;fill-opacity:1" />
        <g
           id="g4195"
           style="fill:#3f546c;fill-opacity:1" />
        <g
           id="g4197"
           style="fill:#3f546c;fill-opacity:1" />
        <g
           id="g4199"
           style="fill:#3f546c;fill-opacity:1" />
        <g
           id="g4201"
           style="fill:#3f546c;fill-opacity:1" />
        <g
           id="g4203"
           style="fill:#3f546c;fill-opacity:1" />
        <g
           id="g4205"
           style="fill:#3f546c;fill-opacity:1" />
        <g
           id="g4207"
           style="fill:#3f546c;fill-opacity:1" />
        <g
           id="g4209"
           style="fill:#3f546c;fill-opacity:1" />
      </g>
    </g>
  </g>
</svg>
