<?xml version="1.0" encoding="UTF-8" standalone="no"?>
<svg
   xmlns:osb="http://www.openswatchbook.org/uri/2009/osb"
   xmlns:dc="http://purl.org/dc/elements/1.1/"
   xmlns:cc="http://creativecommons.org/ns#"
   xmlns:rdf="http://www.w3.org/1999/02/22-rdf-syntax-ns#"
   xmlns:svg="http://www.w3.org/2000/svg"
   xmlns="http://www.w3.org/2000/svg"
   xmlns:xlink="http://www.w3.org/1999/xlink"
   xmlns:sodipodi="http://sodipodi.sourceforge.net/DTD/sodipodi-0.dtd"
   xmlns:inkscape="http://www.inkscape.org/namespaces/inkscape"
   viewBox="0 0 64 64"
   id="svg2"
   version="1.1"
   inkscape:version="0.91 r13725"
   sodipodi:docname="application-x-trash.svg"
   width="64"
   height="64">
  <metadata
     id="metadata84">
    <rdf:RDF>
      <cc:Work
         rdf:about="">
        <dc:format>image/svg+xml</dc:format>
        <dc:type
           rdf:resource="http://purl.org/dc/dcmitype/StillImage" />
        <dc:title />
      </cc:Work>
    </rdf:RDF>
  </metadata>
  <sodipodi:namedview
     pagecolor="#828282"
     bordercolor="#666666"
     borderopacity="1"
     objecttolerance="10"
     gridtolerance="10"
     guidetolerance="10"
     inkscape:pageopacity="0"
     inkscape:pageshadow="2"
     inkscape:window-width="1366"
     inkscape:window-height="642"
     id="namedview82"
     showgrid="false"
     inkscape:showpageshadow="false"
     inkscape:zoom="7.4642639"
     inkscape:cx="20.282623"
     inkscape:cy="2.5831528"
     inkscape:window-x="0"
     inkscape:window-y="33"
     inkscape:window-maximized="1"
     inkscape:current-layer="layer1-3"
     showguides="true"
     inkscape:snap-bbox="true"
     inkscape:snap-bbox-edge-midpoints="false"
     inkscape:bbox-nodes="true"
     inkscape:guide-bbox="true">
    <inkscape:grid
       type="xygrid"
       id="grid3413" />
    <sodipodi:guide
       position="0,64"
       orientation="64,0"
       id="guide3482" />
    <sodipodi:guide
       position="0,0"
       orientation="0,64"
       id="guide3484" />
    <sodipodi:guide
       position="64,0"
       orientation="-64,0"
       id="guide3486" />
    <sodipodi:guide
       position="10,61"
       orientation="58,0"
       id="guide3492" />
    <sodipodi:guide
       position="10,3"
       orientation="0,44"
       id="guide3494" />
    <sodipodi:guide
       position="54,3"
       orientation="-58,0"
       id="guide3496" />
    <sodipodi:guide
       position="54,61"
       orientation="0,-44"
       id="guide3498" />
    <sodipodi:guide
       position="54,47"
       orientation="-14,0"
       id="guide4310" />
    <sodipodi:guide
       position="54,61"
       orientation="0,-14"
       id="guide4312" />
    <sodipodi:guide
       position="21,43"
       orientation="22,0"
       id="guide4250" />
    <sodipodi:guide
       position="21,21"
       orientation="0,22"
       id="guide4252" />
    <sodipodi:guide
       position="43,21"
       orientation="-22,0"
       id="guide4254" />
    <sodipodi:guide
       position="43,43"
       orientation="0,-22"
       id="guide4256" />
    <sodipodi:guide
       position="25.052705,61"
       orientation="0,1"
       id="guide6551" />
  </sodipodi:namedview>
  <defs
     id="defs4">
    <linearGradient
       inkscape:collect="always"
       xlink:href="#linearGradient4422"
       id="linearGradient4190-9"
       x1="375.57144"
       y1="543.79797"
       x2="375.57144"
       y2="517.79797"
       gradientUnits="userSpaceOnUse"
       gradientTransform="matrix(2.1937939,0,0,2.2303048,-398.02626,-639.90393)" />
    <linearGradient
       id="linearGradient4422">
      <stop
         id="stop4424"
         offset="0"
         style="stop-color:#059e7a;stop-opacity:1" />
      <stop
         id="stop4426"
         offset="1"
         style="stop-color:#3ec380;stop-opacity:1" />
    </linearGradient>
    <linearGradient
       id="linearGradient4207"
       osb:paint="gradient">
      <stop
         style="stop-color:#3498db;stop-opacity:1;"
         offset="0"
         id="stop3371" />
      <stop
         style="stop-color:#3498db;stop-opacity:0;"
         offset="1"
         id="stop3373" />
    </linearGradient>
  </defs>
  <g
     transform="translate(-392.98822,-511.27795)"
     id="layer1"
     inkscape:label="Capa 1"
     inkscape:transform-center-x="5.4653607"
     inkscape:transform-center-y="-9.4924686">
    <g
       transform="translate(0.41988239,0.03484499)"
       inkscape:label="Capa 1"
       id="layer1-3">
      <rect
         style="opacity:0.997;fill:url(#linearGradient4190-9);fill-opacity:1.0;stroke:none;stroke-width:0.104;stroke-linecap:round;stroke-linejoin:round;stroke-miterlimit:4;stroke-dasharray:none;stroke-opacity:1"
         id="rect4182-2"
         width="46.069672"
         height="57.987926"
         x="401.76834"
         y="514.94318"
         ry="1.7192465" />
      <path
         style="opacity:0.56499999;fill:#000000;fill-opacity:1;fill-rule:evenodd;stroke:none;stroke-width:1px;stroke-linecap:butt;stroke-linejoin:miter;stroke-opacity:1"
         d="m 401.76839,563.18111 -4e-5,7.90428 c 0,0 -0.0224,1.83572 1.81022,1.83572 l 42.46177,0 c 0,0 1.93884,-0.0444 1.91466,-2.52819 l -0.0702,-7.21181 z"
         id="path4302"
         inkscape:connector-curvature="0"
         sodipodi:nodetypes="ccccccc" />
      <g
         style="font-style:normal;font-weight:normal;font-size:7.8266716px;line-height:125%;font-family:sans-serif;letter-spacing:0px;word-spacing:0px;fill:#ffffff;fill-opacity:1;stroke:none;stroke-width:1px;stroke-linecap:butt;stroke-linejoin:miter;stroke-opacity:1"
         id="text4304">
        <path
           d="m 418.22105,570.40948 q -0.60265,0 -0.92354,-0.3209 -0.31307,-0.32089 -0.31307,-0.90789 l 0,-2.01146 -0.6731,0 0,-0.65744 0.6731,0 0,-1.174 0.72005,0 0,1.174 0.9392,0 0,0.65744 -0.9392,0 0,1.95667 q 0,0.62614 0.51656,0.62614 0.19567,0 0.32872,-0.0626 l 0.25046,0.61831 q -0.2348,0.10175 -0.57918,0.10175 z"
           style="font-style:normal;font-variant:normal;font-weight:normal;font-stretch:normal;font-family:'Product Sans';-inkscape-font-specification:'Product Sans';fill:#ffffff;fill-opacity:1"
           id="path4169" />
        <path
           d="m 420.0487,570.34686 -0.72005,0 0,-3.83507 0.68875,0 0,0.62614 0.0313,0 q 0.10958,-0.31307 0.44612,-0.51656 0.34438,-0.2035 0.66527,-0.2035 0.32089,0 0.54004,0.0939 l -0.27393,0.6731 q -0.14088,-0.0548 -0.38351,-0.0548 -0.39133,0 -0.69657,0.31307 -0.29742,0.30524 -0.29742,0.80614 l 0,2.09755 z"
           style="font-style:normal;font-variant:normal;font-weight:normal;font-stretch:normal;font-family:'Product Sans';-inkscape-font-specification:'Product Sans';fill:#ffffff;fill-opacity:1"
           id="path4172" />
        <path
           d="m 423.2322,570.47209 q -0.61048,0 -1.02529,-0.3522 -0.40699,-0.3522 -0.40699,-0.93137 0,-0.62614 0.48525,-0.97834 0.48526,-0.36003 1.19748,-0.36003 0.63396,0 1.04095,0.2348 l 0,-0.10957 q 0,-0.42264 -0.28958,-0.67309 -0.28959,-0.25828 -0.71223,-0.25828 -0.31307,0 -0.57135,0.1487 -0.25045,0.14871 -0.34437,0.40699 l -0.65744,-0.28176 q 0.13305,-0.34437 0.52438,-0.63396 0.39134,-0.29741 1.03312,-0.29741 0.73571,0 1.22097,0.43046 0.48525,0.43047 0.48525,1.21314 l 0,2.31669 -0.68875,0 0,-0.53221 -0.0313,0 q -0.43047,0.65744 -1.2601,0.65744 z m 0.1174,-0.65744 q 0.44612,0 0.80615,-0.32872 0.36785,-0.33655 0.36785,-0.79049 -0.30524,-0.25046 -0.91572,-0.25046 -0.52439,0 -0.79049,0.22698 -0.26611,0.22697 -0.26611,0.53221 0,0.28176 0.24263,0.44612 0.24262,0.16436 0.55569,0.16436 z"
           style="font-style:normal;font-variant:normal;font-weight:normal;font-stretch:normal;font-family:'Product Sans';-inkscape-font-specification:'Product Sans';fill:#ffffff;fill-opacity:1"
           id="path4174" />
        <path
           d="m 427.40272,570.47209 q -0.64179,0 -1.06443,-0.31307 -0.41481,-0.31306 -0.61048,-0.78266 l 0.64179,-0.26611 q 0.30524,0.72005 1.04094,0.72005 0.33655,0 0.54787,-0.1487 0.21915,-0.14871 0.21915,-0.39134 0,-0.37568 -0.52439,-0.50873 l -0.77484,-0.18784 q -0.36785,-0.0939 -0.69657,-0.3522 -0.32872,-0.26611 -0.32872,-0.71223 0,-0.50873 0.44612,-0.8218 0.45394,-0.32089 1.07225,-0.32089 0.50873,0 0.90789,0.2348 0.39916,0.22697 0.57135,0.65744 l -0.62613,0.25828 q -0.21132,-0.50874 -0.87659,-0.50874 -0.32089,0 -0.54004,0.13306 -0.21915,0.13305 -0.21915,0.36002 0,0.32872 0.50874,0.44612 l 0.75918,0.18002 q 0.54004,0.12522 0.79832,0.43047 0.25828,0.30524 0.25828,0.68874 0,0.51656 -0.42264,0.86094 -0.42264,0.34437 -1.0879,0.34437 z"
           style="font-style:normal;font-variant:normal;font-weight:normal;font-stretch:normal;font-family:'Product Sans';-inkscape-font-specification:'Product Sans';fill:#ffffff;fill-opacity:1"
           id="path4176" />
        <path
           d="m 430.26006,564.74297 0,1.76882 -0.0313,0.53222 0.0313,0 q 0.15654,-0.27394 0.49308,-0.46178 0.33655,-0.19566 0.72006,-0.19566 0.71222,0 1.0879,0.43829 0.37569,0.43829 0.37569,1.174 l 0,2.348 -0.72006,0 0,-2.23843 q 0,-1.06442 -0.94703,-1.06442 -0.44612,0 -0.72788,0.36002 -0.28176,0.3522 -0.28176,0.8218 l 0,2.12103 -0.72005,0 0,-5.60389 0.72005,0 z"
           style="font-style:normal;font-variant:normal;font-weight:normal;font-stretch:normal;font-family:'Product Sans';-inkscape-font-specification:'Product Sans';fill:#ffffff;fill-opacity:1"
           id="path4178" />
      </g>
      <g
         transform="translate(388.75259,-492.27203)"
         id="layer1-22"
         inkscape:label="Capa 1">
        <g
           style="fill:none;fill-opacity:1;stroke:#4f96d1;stroke-opacity:1"
           inkscape:label="Capa 1"
           id="layer1-0"
           transform="matrix(0.90537551,0,0,0.90537551,-365.91682,562.06022)" />
        <g
           inkscape:label="Capa 1"
           id="layer1-00"
           transform="translate(-401.01229,510.63371)">
          <g
             inkscape:label="Capa 1"
             id="layer1-4"
             transform="translate(5.05585,-5.251147)">
            <g
               style="stroke:#000000;stroke-opacity:0.8"
               inkscape:label="Capa 1"
               id="layer1-9"
               transform="translate(-11.317,5.8824915)">
              <g
                 inkscape:label="Capa 1"
                 id="layer1-79"
                 transform="translate(1.8733025,-0.28410538)">
                <g
                   inkscape:label="Capa 1"
                   id="layer1-2"
                   transform="translate(-2.0518724,-0.97858527)">
                  <path
                     id="path4171"
                     d="m 430.40543,518.99026 1.6586,1.32991 -1.56105,3.06886 c -0.7805,1.41512 0.56036,2.79363 1.41467,3.2735 0.84103,0.4724 2.1464,0.52855 3.36595,0.51153 l 2.19517,-3.6827 1.65859,0.92067 -2.87814,-5.47284 -5.85379,0.051 z m 0.24389,7.51238 3.56107,6.75156 c 0.71546,0.93769 2.06511,1.15936 3.46352,1.12526 l 3.75619,0 0,-6.39351 -7.12214,-0.0512 c -1.10568,0.0682 -2.55292,-0.17048 -3.65864,-1.43217 z m 22.40447,-12.44234 -1.93748,0.84395 -1.85874,-2.88889 c -0.82761,-1.3866 -2.65262,-0.85145 -3.47574,-0.31726 -0.81029,0.52585 -1.49105,1.67027 -2.06777,2.77313 l 2.07441,3.75569 -1.58877,1.04232 6.05969,0.0701 2.7944,-5.27897 z m -6.5208,-3.42308 -7.48062,-0.0771 c -1.14603,0.18748 -1.98926,1.29143 -2.63816,2.56317 l -1.82102,3.37139 5.44902,3.09965 3.49648,-6.36774 c 0.47793,-1.02556 1.38297,-2.20877 2.9943,-2.58951 z m 0.3254,26.05155 0.2199,-2.14819 3.3633,-0.26769 c 1.58297,-0.0707 2.01165,-1.96808 1.95546,-2.96589 -0.0553,-0.98224 -0.70066,-2.14806 -1.36103,-3.20037 l -4.20653,0.041 -0.11811,-1.93134 -2.99748,5.40495 3.14443,5.06744 z m 6.07879,-4.19319 3.69224,-6.67689 c 0.39579,-1.11957 -0.13625,-2.41161 -0.90551,-3.61058 l -1.99048,-3.26897 -5.28348,3.38803 3.73191,6.22544 c 0.64235,0.92613 1.21198,2.31205 0.75532,3.94297 z"
                     inkscape:connector-curvature="0"
                     style="display:inline;fill:#054736;fill-opacity:1;stroke:none;stroke-opacity:0.8" />
                </g>
              </g>
            </g>
          </g>
        </g>
      </g>
    </g>
  </g>
</svg>
