<?xml version="1.0" encoding="UTF-8" standalone="no"?>
<svg
   xmlns:sketch="http://www.bohemiancoding.com/sketch/ns"
   xmlns:osb="http://www.openswatchbook.org/uri/2009/osb"
   xmlns:dc="http://purl.org/dc/elements/1.1/"
   xmlns:cc="http://creativecommons.org/ns#"
   xmlns:rdf="http://www.w3.org/1999/02/22-rdf-syntax-ns#"
   xmlns:svg="http://www.w3.org/2000/svg"
   xmlns="http://www.w3.org/2000/svg"
   xmlns:xlink="http://www.w3.org/1999/xlink"
   xmlns:sodipodi="http://sodipodi.sourceforge.net/DTD/sodipodi-0.dtd"
   xmlns:inkscape="http://www.inkscape.org/namespaces/inkscape"
   viewBox="0 0 64 64"
   id="svg2"
   version="1.1"
   inkscape:version="0.91 r13725"
   sodipodi:docname="audio-x-wav.svg"
   width="64"
   height="64">
  <metadata
     id="metadata84">
    <rdf:RDF>
      <cc:Work
         rdf:about="">
        <dc:format>image/svg+xml</dc:format>
        <dc:type
           rdf:resource="http://purl.org/dc/dcmitype/StillImage" />
        <dc:title />
      </cc:Work>
    </rdf:RDF>
  </metadata>
  <sodipodi:namedview
     pagecolor="#6e6e6e"
     bordercolor="#666666"
     borderopacity="1"
     objecttolerance="10"
     gridtolerance="10"
     guidetolerance="10"
     inkscape:pageopacity="0"
     inkscape:pageshadow="2"
     inkscape:window-width="1366"
     inkscape:window-height="642"
     id="namedview82"
     showgrid="false"
     inkscape:showpageshadow="false"
     inkscape:zoom="7.4642639"
     inkscape:cx="28.191096"
     inkscape:cy="23.817664"
     inkscape:window-x="0"
     inkscape:window-y="33"
     inkscape:window-maximized="1"
     inkscape:current-layer="svg2"
     showguides="true"
     inkscape:snap-bbox="true"
     inkscape:snap-bbox-edge-midpoints="false"
     inkscape:bbox-nodes="true">
    <inkscape:grid
       type="xygrid"
       id="grid3413" />
    <sodipodi:guide
       position="0,64"
       orientation="64,0"
       id="guide3482" />
    <sodipodi:guide
       position="0,0"
       orientation="0,64"
       id="guide3484" />
    <sodipodi:guide
       position="64,0"
       orientation="-64,0"
       id="guide3486" />
    <sodipodi:guide
       position="10,61"
       orientation="58,0"
       id="guide3492" />
    <sodipodi:guide
       position="10,3"
       orientation="0,44"
       id="guide3494" />
    <sodipodi:guide
       position="54,3"
       orientation="-58,0"
       id="guide3496" />
    <sodipodi:guide
       position="54,61"
       orientation="0,-44"
       id="guide3498" />
    <sodipodi:guide
       position="54,47"
       orientation="-14,0"
       id="guide4310" />
    <sodipodi:guide
       position="54,61"
       orientation="0,-14"
       id="guide4312" />
    <sodipodi:guide
       position="21,43"
       orientation="22,0"
       id="guide4250" />
    <sodipodi:guide
       position="21,21"
       orientation="0,22"
       id="guide4252" />
    <sodipodi:guide
       position="43,21"
       orientation="-22,0"
       id="guide4254" />
    <sodipodi:guide
       position="43,43"
       orientation="0,-22"
       id="guide4256" />
  </sodipodi:namedview>
  <defs
     id="defs4">
    <linearGradient
       id="linearGradient4531"
       inkscape:collect="always">
      <stop
         id="stop4533"
         offset="0"
         style="stop-color:#d9191e;stop-opacity:1" />
      <stop
         id="stop4535"
         offset="1"
         style="stop-color:#ff4f1c;stop-opacity:1" />
    </linearGradient>
    <linearGradient
       inkscape:collect="always"
       xlink:href="#linearGradient4531"
       id="linearGradient4190-9"
       x1="375.57144"
       y1="543.79797"
       x2="375.57144"
       y2="517.79797"
       gradientUnits="userSpaceOnUse"
       gradientTransform="matrix(2.1937939,0,0,2.2303048,-398.02626,-639.90393)" />
    <linearGradient
       osb:paint="gradient"
       id="linearGradient4207">
      <stop
         id="stop3371"
         offset="0"
         style="stop-color:#3498db;stop-opacity:1;" />
      <stop
         id="stop3373"
         offset="1"
         style="stop-color:#3498db;stop-opacity:0;" />
    </linearGradient>
  </defs>
  <g
     transform="translate(-392.98822,-511.27795)"
     id="layer1"
     inkscape:label="Capa 1"
     inkscape:transform-center-x="5.4653607"
     inkscape:transform-center-y="-9.4924686">
    <g
       transform="translate(0.41988239,0.03484499)"
       inkscape:label="Capa 1"
       id="layer1-3">
      <rect
         style="opacity:0.997;fill:url(#linearGradient4190-9);fill-opacity:1.0;stroke:none;stroke-width:0.104;stroke-linecap:round;stroke-linejoin:round;stroke-miterlimit:4;stroke-dasharray:none;stroke-opacity:1"
         id="rect4182-2"
         width="46.069672"
         height="57.987926"
         x="401.76834"
         y="514.94318"
         ry="1.7192465" />
      <path
         style="opacity:0.56499999;fill:#000000;fill-opacity:1;fill-rule:evenodd;stroke:none;stroke-width:1px;stroke-linecap:butt;stroke-linejoin:miter;stroke-opacity:1"
         d="m 401.76839,563.18111 -4e-5,7.90428 c 0,0 -0.0224,1.83572 1.81022,1.83572 l 42.46177,0 c 0,0 1.93884,-0.0444 1.91466,-2.52819 l -0.0702,-7.21181 z"
         id="path4302"
         inkscape:connector-curvature="0"
         sodipodi:nodetypes="ccccccc" />
      <g
         style="font-style:normal;font-weight:normal;font-size:7.8266716px;line-height:125%;font-family:sans-serif;letter-spacing:0px;word-spacing:0px;fill:#ffffff;fill-opacity:1;stroke:none;stroke-width:1px;stroke-linecap:butt;stroke-linejoin:miter;stroke-opacity:1"
         id="text4304">
        <path
           d="m 416.97461,570.572 q -0.61048,0 -1.0253,-0.3522 -0.40698,-0.3522 -0.40698,-0.93137 0,-0.62613 0.48525,-0.97833 0.48526,-0.36003 1.19748,-0.36003 0.63396,0 1.04095,0.2348 l 0,-0.10957 q 0,-0.42264 -0.28959,-0.6731 -0.28958,-0.25828 -0.71222,-0.25828 -0.31307,0 -0.57135,0.14871 -0.25045,0.14871 -0.34437,0.40699 l -0.65745,-0.28176 q 0.13306,-0.34438 0.52439,-0.63396 0.39134,-0.29742 1.03312,-0.29742 0.73571,0 1.22096,0.43047 0.48526,0.43047 0.48526,1.21313 l 0,2.3167 -0.68875,0 0,-0.53222 -0.0313,0 q -0.43046,0.65744 -1.26009,0.65744 z m 0.1174,-0.65744 q 0.44612,0 0.80615,-0.32872 0.36785,-0.33654 0.36785,-0.79049 -0.30524,-0.25045 -0.91572,-0.25045 -0.52439,0 -0.79049,0.22697 -0.26611,0.22697 -0.26611,0.53221 0,0.28176 0.24263,0.44612 0.24262,0.16436 0.55569,0.16436 z"
           style="font-style:normal;font-variant:normal;font-weight:normal;font-stretch:normal;font-family:'Product Sans';-inkscape-font-specification:'Product Sans';fill:#ffffff;fill-opacity:1"
           id="path4161" />
        <path
           d="m 423.132,570.44678 -0.68875,0 0,-0.53222 -0.0313,0 q -0.16436,0.27394 -0.5009,0.4696 -0.33655,0.18784 -0.71223,0.18784 -0.72005,0 -1.09573,-0.43829 -0.36786,-0.43829 -0.36786,-1.174 l 0,-2.348 0.72006,0 0,2.2306 q 0,1.07225 0.94702,1.07225 0.44612,0 0.72788,-0.36002 0.28176,-0.36003 0.28176,-0.82963 l 0,-2.1132 0.72006,0 0,3.83507 z"
           style="font-style:normal;font-variant:normal;font-weight:normal;font-stretch:normal;font-family:'Product Sans';-inkscape-font-specification:'Product Sans';fill:#ffffff;fill-opacity:1"
           id="path4163" />
        <path
           d="m 425.57478,570.572 q -0.74354,0 -1.28358,-0.587 -0.54004,-0.587 -0.54004,-1.45576 0,-0.86876 0.54004,-1.45576 0.54004,-0.587 1.28358,-0.587 0.43829,0 0.78266,0.18784 0.3522,0.18784 0.52439,0.4696 l 0.0313,0 -0.0313,-0.53221 0,-1.76883 0.72005,0 0,5.6039 -0.68874,0 0,-0.53222 -0.0313,0 q -0.17219,0.28176 -0.52439,0.4696 -0.34437,0.18784 -0.78266,0.18784 z m 0.1174,-0.65744 q 0.50873,0 0.86093,-0.37568 0.36003,-0.37568 0.36003,-1.00964 0,-0.63396 -0.36003,-1.00964 -0.3522,-0.37568 -0.86093,-0.37568 -0.50091,0 -0.86094,0.38351 -0.36002,0.37568 -0.36002,1.00181 0,0.62614 0.36002,1.00964 0.36003,0.37568 0.86094,0.37568 z"
           style="font-style:normal;font-variant:normal;font-weight:normal;font-stretch:normal;font-family:'Product Sans';-inkscape-font-specification:'Product Sans';fill:#ffffff;fill-opacity:1"
           id="path4165" />
        <path
           d="m 429.26248,565.64903 q -0.1487,0.1487 -0.36002,0.1487 -0.21132,0 -0.36003,-0.1487 -0.14871,-0.14871 -0.14871,-0.36003 0,-0.21132 0.14871,-0.36003 0.14871,-0.1487 0.36003,-0.1487 0.21132,0 0.36002,0.1487 0.14871,0.14871 0.14871,0.36003 0,0.21132 -0.14871,0.36003 z m 0,4.79775 -0.72005,0 0,-3.83507 0.72005,0 0,3.83507 z"
           style="font-style:normal;font-variant:normal;font-weight:normal;font-stretch:normal;font-family:'Product Sans';-inkscape-font-specification:'Product Sans';fill:#ffffff;fill-opacity:1"
           id="path4167" />
        <path
           d="m 430.49787,567.07348 q 0.5557,-0.587 1.41663,-0.587 0.86094,0 1.41663,0.587 0.55569,0.57918 0.55569,1.45576 0,0.87659 -0.55569,1.46359 -0.55569,0.57917 -1.41663,0.57917 -0.86093,0 -1.41663,-0.57917 -0.55569,-0.587 -0.55569,-1.46359 0,-0.87658 0.55569,-1.45576 z m 0.53222,2.4654 q 0.37568,0.37568 0.88441,0.37568 0.50874,0 0.87659,-0.37568 0.37568,-0.3835 0.37568,-1.00964 0,-0.62613 -0.37568,-1.00181 -0.36785,-0.38351 -0.87659,-0.38351 -0.50873,0 -0.88441,0.38351 -0.36786,0.37568 -0.36786,1.00181 0,0.62614 0.36786,1.00964 z"
           style="font-style:normal;font-variant:normal;font-weight:normal;font-stretch:normal;font-family:'Product Sans';-inkscape-font-specification:'Product Sans';fill:#ffffff;fill-opacity:1"
           id="path4169" />
      </g>
      <path
         d="m 421.85468,531.25625 c -0.77055,0.21615 -1.39088,1.07614 -1.39088,1.91144 l 0,13.24391 c -0.78136,-0.4284 -1.78487,-0.60167 -2.82524,-0.31858 -1.87737,0.51076 -3.0538,2.16147 -2.65137,3.68645 0.40242,1.52491 2.25182,2.37672 4.12918,1.86596 1.49776,-0.40749 2.53019,-1.56046 2.69484,-2.7762 l 0.0435,-12.51573 9.7362,-2.73066 0,9.87599 c -0.78136,-0.4284 -1.78487,-0.60161 -2.82523,-0.31858 -1.87738,0.51076 -3.05382,2.16147 -2.65137,3.68644 0.40242,1.52497 2.25181,2.37678 4.12918,1.86596 1.49775,-0.40743 2.53018,-1.5604 2.69484,-2.7762 l 0.0435,-16.29314 c 0,-0.62649 -0.36977,-1.09519 -0.86931,-1.18333 l -10.25778,2.77627 z"
         id="Music"
         sketch:type="MSShapeGroup"
         inkscape:connector-curvature="0"
         style="fill:#5f0c0d;fill-opacity:1" />
    </g>
  </g>
</svg>
