<?xml version="1.0" encoding="UTF-8" standalone="no"?>
<svg
   xmlns:osb="http://www.openswatchbook.org/uri/2009/osb"
   xmlns:dc="http://purl.org/dc/elements/1.1/"
   xmlns:cc="http://creativecommons.org/ns#"
   xmlns:rdf="http://www.w3.org/1999/02/22-rdf-syntax-ns#"
   xmlns:svg="http://www.w3.org/2000/svg"
   xmlns="http://www.w3.org/2000/svg"
   xmlns:xlink="http://www.w3.org/1999/xlink"
   xmlns:sodipodi="http://sodipodi.sourceforge.net/DTD/sodipodi-0.dtd"
   xmlns:inkscape="http://www.inkscape.org/namespaces/inkscape"
   viewBox="0 0 64 64"
   id="svg2"
   version="1.1"
   inkscape:version="0.91 r13725"
   sodipodi:docname="package-x-generic.svg"
   width="64"
   height="64">
  <metadata
     id="metadata84">
    <rdf:RDF>
      <cc:Work
         rdf:about="">
        <dc:format>image/svg+xml</dc:format>
        <dc:type
           rdf:resource="http://purl.org/dc/dcmitype/StillImage" />
        <dc:title />
      </cc:Work>
    </rdf:RDF>
  </metadata>
  <sodipodi:namedview
     pagecolor="#5c5c5c"
     bordercolor="#666666"
     borderopacity="1"
     objecttolerance="10"
     gridtolerance="10"
     guidetolerance="10"
     inkscape:pageopacity="0"
     inkscape:pageshadow="2"
     inkscape:window-width="1366"
     inkscape:window-height="642"
     id="namedview82"
     showgrid="false"
     inkscape:showpageshadow="false"
     inkscape:zoom="7.4642639"
     inkscape:cx="-7.3613443"
     inkscape:cy="2.5161672"
     inkscape:window-x="0"
     inkscape:window-y="33"
     inkscape:window-maximized="1"
     inkscape:current-layer="svg2"
     showguides="false"
     inkscape:snap-bbox="true"
     inkscape:snap-bbox-edge-midpoints="false"
     inkscape:bbox-nodes="true">
    <inkscape:grid
       type="xygrid"
       id="grid3413" />
    <sodipodi:guide
       position="0,64"
       orientation="64,0"
       id="guide3482" />
    <sodipodi:guide
       position="0,0"
       orientation="0,64"
       id="guide3484" />
    <sodipodi:guide
       position="64,0"
       orientation="-64,0"
       id="guide3486" />
    <sodipodi:guide
       position="10,61"
       orientation="58,0"
       id="guide3492" />
    <sodipodi:guide
       position="10,3"
       orientation="0,44"
       id="guide3494" />
    <sodipodi:guide
       position="54,3"
       orientation="-58,0"
       id="guide3496" />
    <sodipodi:guide
       position="54,61"
       orientation="0,-44"
       id="guide3498" />
    <sodipodi:guide
       position="54,47"
       orientation="-14,0"
       id="guide4310" />
    <sodipodi:guide
       position="54,61"
       orientation="0,-14"
       id="guide4312" />
    <sodipodi:guide
       position="21,43"
       orientation="22,0"
       id="guide4250" />
    <sodipodi:guide
       position="21,21"
       orientation="0,22"
       id="guide4252" />
    <sodipodi:guide
       position="43,21"
       orientation="-22,0"
       id="guide4254" />
    <sodipodi:guide
       position="43,43"
       orientation="0,-22"
       id="guide4256" />
  </sodipodi:namedview>
  <defs
     id="defs4">
    <linearGradient
       inkscape:collect="always"
       xlink:href="#linearGradient4422-9"
       id="linearGradient4190-9"
       x1="375.57144"
       y1="543.79797"
       x2="375.57144"
       y2="517.79797"
       gradientUnits="userSpaceOnUse"
       gradientTransform="matrix(2.1937939,0,0,2.2303048,-398.02626,-639.90393)" />
    <linearGradient
       id="linearGradient4207"
       osb:paint="gradient">
      <stop
         style="stop-color:#3498db;stop-opacity:1;"
         offset="0"
         id="stop3371" />
      <stop
         style="stop-color:#3498db;stop-opacity:0;"
         offset="1"
         id="stop3373" />
    </linearGradient>
    <linearGradient
       id="linearGradient4422-9">
      <stop
         style="stop-color:#d1d7df;stop-opacity:1"
         offset="0"
         id="stop4424-9" />
      <stop
         style="stop-color:#e0e5e7;stop-opacity:1"
         offset="1"
         id="stop4426-5" />
    </linearGradient>
  </defs>
  <g
     transform="translate(-392.98822,-511.27795)"
     id="layer1"
     inkscape:label="Capa 1"
     inkscape:transform-center-x="5.4653607"
     inkscape:transform-center-y="-9.4924686">
    <g
       transform="translate(0.41988239,0.03484499)"
       inkscape:label="Capa 1"
       id="layer1-3">
      <rect
         style="opacity:0.997;fill:url(#linearGradient4190-9);fill-opacity:1.0;stroke:none;stroke-width:0.104;stroke-linecap:round;stroke-linejoin:round;stroke-miterlimit:4;stroke-dasharray:none;stroke-opacity:1"
         id="rect4182-2"
         width="46.069672"
         height="57.987926"
         x="401.76834"
         y="514.94318"
         ry="1.7192465" />
      <path
         style="opacity:0.56499999;fill:#000000;fill-opacity:1;fill-rule:evenodd;stroke:none;stroke-width:1px;stroke-linecap:butt;stroke-linejoin:miter;stroke-opacity:1"
         d="m 401.76839,563.18111 -4e-5,7.90428 c 0,0 -0.0224,1.83572 1.81022,1.83572 l 42.46177,0 c 0,0 1.93884,-0.0444 1.91466,-2.52819 l -0.0702,-7.21181 z"
         id="path4302"
         inkscape:connector-curvature="0"
         sodipodi:nodetypes="ccccccc" />
      <g
         style="font-style:normal;font-weight:normal;font-size:7.8266716px;line-height:125%;font-family:sans-serif;letter-spacing:0px;word-spacing:0px;fill:#ffffff;fill-opacity:1;stroke:none;stroke-width:1px;stroke-linecap:butt;stroke-linejoin:miter;stroke-opacity:1"
         id="text4304">
        <path
           d="m 414.27463,570.77208 q -0.61048,0 -1.0253,-0.3522 -0.40698,-0.3522 -0.40698,-0.93138 0,-0.62613 0.48525,-0.97833 0.48525,-0.36003 1.19748,-0.36003 0.63396,0 1.04095,0.2348 l 0,-0.10957 q 0,-0.42264 -0.28959,-0.67309 -0.28959,-0.25828 -0.71223,-0.25828 -0.31306,0 -0.57134,0.1487 -0.25046,0.14871 -0.34438,0.40699 l -0.65744,-0.28176 q 0.13306,-0.34437 0.52439,-0.63396 0.39133,-0.29742 1.03312,-0.29742 0.73571,0 1.22096,0.43047 0.48526,0.43047 0.48526,1.21314 l 0,2.31669 -0.68875,0 0,-0.53221 -0.0313,0 q -0.43047,0.65744 -1.26009,0.65744 z m 0.1174,-0.65744 q 0.44612,0 0.80614,-0.32872 0.36786,-0.33655 0.36786,-0.7905 -0.30524,-0.25045 -0.91572,-0.25045 -0.52439,0 -0.7905,0.22697 -0.2661,0.22698 -0.2661,0.53222 0,0.28176 0.24262,0.44612 0.24263,0.16436 0.5557,0.16436 z"
           style="font-style:normal;font-variant:normal;font-weight:normal;font-stretch:normal;font-family:'Product Sans';-inkscape-font-specification:'Product Sans';fill:#ffffff;fill-opacity:1"
           id="path4171" />
        <path
           d="m 417.7866,570.64685 -0.72005,0 0,-3.83507 0.68874,0 0,0.62614 0.0313,0 q 0.10957,-0.31307 0.44612,-0.51657 0.34438,-0.20349 0.66527,-0.20349 0.32089,0 0.54004,0.0939 l -0.27393,0.6731 q -0.14088,-0.0548 -0.38351,-0.0548 -0.39133,0 -0.69658,0.31307 -0.29741,0.30524 -0.29741,0.80614 l 0,2.09755 z"
           style="font-style:normal;font-variant:normal;font-weight:normal;font-stretch:normal;font-family:'Product Sans';-inkscape-font-specification:'Product Sans';fill:#ffffff;fill-opacity:1"
           id="path4173" />
        <path
           d="m 421.43371,570.77208 q -0.86094,0 -1.41663,-0.57918 -0.55569,-0.587 -0.55569,-1.46358 0,-0.87659 0.55569,-1.45576 0.55569,-0.58701 1.41663,-0.58701 0.64179,0 1.06443,0.31307 0.42264,0.31307 0.6183,0.7905 l -0.65744,0.27393 q -0.29741,-0.72005 -1.07225,-0.72005 -0.47743,0 -0.84528,0.39133 -0.36003,0.39133 -0.36003,0.99399 0,0.60265 0.36003,0.99398 0.36785,0.39134 0.84528,0.39134 0.80615,0 1.11139,-0.72006 l 0.64178,0.27394 q -0.19566,0.4696 -0.63396,0.79049 -0.43046,0.31307 -1.07225,0.31307 z"
           style="font-style:normal;font-variant:normal;font-weight:normal;font-stretch:normal;font-family:'Product Sans';-inkscape-font-specification:'Product Sans';fill:#ffffff;fill-opacity:1"
           id="path4175" />
        <path
           d="m 424.48207,565.04295 0,1.76883 -0.0313,0.53222 0.0313,0 q 0.15654,-0.27394 0.49308,-0.46178 0.33655,-0.19567 0.72006,-0.19567 0.71223,0 1.08791,0.4383 0.37568,0.43829 0.37568,1.174 l 0,2.348 -0.72006,0 0,-2.23843 q 0,-1.06442 -0.94703,-1.06442 -0.44612,0 -0.72788,0.36002 -0.28176,0.3522 -0.28176,0.8218 l 0,2.12103 -0.72005,0 0,-5.6039 0.72005,0 z"
           style="font-style:normal;font-variant:normal;font-weight:normal;font-stretch:normal;font-family:'Product Sans';-inkscape-font-specification:'Product Sans';fill:#ffffff;fill-opacity:1"
           id="path4177" />
        <path
           d="m 428.79433,565.8491 q -0.14871,0.14871 -0.36003,0.14871 -0.21132,0 -0.36003,-0.14871 -0.1487,-0.14871 -0.1487,-0.36003 0,-0.21132 0.1487,-0.36002 0.14871,-0.14871 0.36003,-0.14871 0.21132,0 0.36003,0.14871 0.1487,0.1487 0.1487,0.36002 0,0.21132 -0.1487,0.36003 z m 0,4.79775 -0.72006,0 0,-3.83507 0.72006,0 0,3.83507 z"
           style="font-style:normal;font-variant:normal;font-weight:normal;font-stretch:normal;font-family:'Product Sans';-inkscape-font-specification:'Product Sans';fill:#ffffff;fill-opacity:1"
           id="path4179" />
        <path
           d="m 430.88172,570.64685 -1.54968,-3.83507 0.78267,0 1.12704,2.97414 0.0156,0 1.1427,-2.97414 0.76701,0 -1.56533,3.83507 -0.72006,0 z"
           style="font-style:normal;font-variant:normal;font-weight:normal;font-stretch:normal;font-family:'Product Sans';-inkscape-font-specification:'Product Sans';fill:#ffffff;fill-opacity:1"
           id="path4181" />
        <path
           d="m 435.25231,570.77208 q -0.86876,0 -1.41663,-0.57918 -0.54004,-0.57917 -0.54004,-1.46358 0,-0.83746 0.52439,-1.44011 0.53221,-0.60266 1.35401,-0.60266 0.85311,0 1.36184,0.5557 0.51656,0.55569 0.51656,1.48707 l -0.008,0.13305 -3.02893,0 q 0.0313,0.57917 0.38351,0.91572 0.36003,0.33655 0.83746,0.33655 0.77484,0 1.04877,-0.65744 l 0.64179,0.2661 q -0.18784,0.44612 -0.61831,0.75136 -0.43047,0.29742 -1.0566,0.29742 z m 1.03312,-2.50454 q -0.0235,-0.32872 -0.30524,-0.62613 -0.27393,-0.29741 -0.8218,-0.29741 -0.39916,0 -0.69657,0.25045 -0.28959,0.25045 -0.39917,0.67309 l 2.22278,0 z"
           style="font-style:normal;font-variant:normal;font-weight:normal;font-stretch:normal;font-family:'Product Sans';-inkscape-font-specification:'Product Sans';fill:#ffffff;fill-opacity:1"
           id="path4183" />
      </g>
      <g
         transform="translate(-38.856403,13.075478)"
         id="layer1-5"
         inkscape:label="Capa 1">
        <g
           id="g4414"
           transform="matrix(1.5263052,0,0,1.5263052,376.49864,-1040.1735)">
          <rect
             style="opacity:1;fill:#5c5e62;fill-opacity:1;stroke:none;stroke-width:2.79999995;stroke-miterlimit:4;stroke-dasharray:none;stroke-opacity:0.55026455"
             id="rect4319"
             width="15.317949"
             height="17.01993"
             x="49.363712"
             y="1018.4269"
             ry="0.85099536" />
          <g
             style="fill:#dbe0e4;fill-opacity:1"
             id="layer1-7"
             inkscape:label="Capa 1"
             transform="matrix(0.42549858,0,0,0.42549858,-117.12914,804.06892)">
            <rect
               style="opacity:0.92900002;fill:#dbe0e4;fill-opacity:1;stroke:none;stroke-width:1.02600002;stroke-linecap:round;stroke-linejoin:round;stroke-miterlimit:4;stroke-dasharray:none;stroke-opacity:1"
               id="rect4199"
               width="4"
               height="2"
               x="407.3606"
               y="504.89221"
               ry="0.88864768" />
            <rect
               style="opacity:0.92900002;fill:#dbe0e4;fill-opacity:1;stroke:none;stroke-width:1.02600002;stroke-linecap:round;stroke-linejoin:round;stroke-miterlimit:4;stroke-dasharray:none;stroke-opacity:1"
               id="rect4199-5"
               width="4"
               height="2"
               x="407.35223"
               y="507.78485"
               ry="0.88864768" />
            <rect
               style="opacity:0.92900002;fill:#dbe0e4;fill-opacity:1;stroke:none;stroke-width:1.02600002;stroke-linecap:round;stroke-linejoin:round;stroke-miterlimit:4;stroke-dasharray:none;stroke-opacity:1"
               id="rect4199-5-3"
               width="4"
               height="2"
               x="407.32715"
               y="510.64264"
               ry="0.88864768" />
            <rect
               style="opacity:0.92900002;fill:#dbe0e4;fill-opacity:1;stroke:none;stroke-width:1.02600002;stroke-linecap:round;stroke-linejoin:round;stroke-miterlimit:4;stroke-dasharray:none;stroke-opacity:1"
               id="rect4199-5-3-9"
               width="4"
               height="2"
               x="407.37097"
               y="513.61755"
               ry="0.88864768" />
            <rect
               style="opacity:0.92900002;fill:#dbe0e4;fill-opacity:1;stroke:none;stroke-width:1.02600002;stroke-linecap:round;stroke-linejoin:round;stroke-miterlimit:4;stroke-dasharray:none;stroke-opacity:1"
               id="rect4199-5-3-9-2"
               width="4"
               height="2"
               x="407.37097"
               y="516.54028"
               ry="0.88864768" />
          </g>
          <rect
             style="opacity:0.92900002;fill:#d9dee3;fill-opacity:1;stroke:none;stroke-width:1.02600002;stroke-linecap:round;stroke-linejoin:round;stroke-miterlimit:4;stroke-dasharray:none;stroke-opacity:1"
             id="rect4199-5-3-9-8"
             width="1.7019943"
             height="0.85099715"
             x="56.206608"
             y="1025.129"
             ry="0.37811834" />
          <path
             inkscape:connector-curvature="0"
             d="m 57.680674,1027.2238 0,-0.537 c 0,-0.1497 -0.120909,-0.271 -0.269991,-0.271 l -0.750133,0 c -0.149082,0 -0.270021,0.1214 -0.270021,0.271 l 0,0.5367 -0.417227,1.2302 c -0.116736,0.3429 -0.06072,0.7238 0.149622,1.019 0.210349,0.2947 0.551433,0.4707 0.912677,0.4707 0.361317,0 0.702431,-0.176 0.912776,-0.4707 0.210345,-0.2952 0.26629,-0.6761 0.149588,-1.0187 z m -0.174263,1.9316 c -0.216438,0.3041 -0.725181,0.3041 -0.941654,0 -0.108489,-0.1522 -0.137372,-0.3487 -0.07742,-0.5257 l 0.140027,-0.4126 0.816438,0 0.140066,0.4129 c 0.05998,0.1767 0.03102,0.3732 -0.07746,0.5254 z"
             id="path7"
             style="opacity:1;fill:#d9dfe3;fill-opacity:1"
             sodipodi:nodetypes="csssscccscccccccccc" />
        </g>
      </g>
    </g>
  </g>
</svg>
