<?xml version="1.0" encoding="UTF-8" standalone="no"?>
<svg
   xmlns:osb="http://www.openswatchbook.org/uri/2009/osb"
   xmlns:dc="http://purl.org/dc/elements/1.1/"
   xmlns:cc="http://creativecommons.org/ns#"
   xmlns:rdf="http://www.w3.org/1999/02/22-rdf-syntax-ns#"
   xmlns:svg="http://www.w3.org/2000/svg"
   xmlns="http://www.w3.org/2000/svg"
   xmlns:xlink="http://www.w3.org/1999/xlink"
   xmlns:sodipodi="http://sodipodi.sourceforge.net/DTD/sodipodi-0.dtd"
   xmlns:inkscape="http://www.inkscape.org/namespaces/inkscape"
   viewBox="0 0 64 64"
   id="svg2"
   version="1.1"
   inkscape:version="0.91 r13725"
   sodipodi:docname="text-x-texinfo.svg"
   width="64"
   height="64">
  <metadata
     id="metadata84">
    <rdf:RDF>
      <cc:Work
         rdf:about="">
        <dc:format>image/svg+xml</dc:format>
        <dc:type
           rdf:resource="http://purl.org/dc/dcmitype/StillImage" />
        <dc:title />
      </cc:Work>
    </rdf:RDF>
  </metadata>
  <sodipodi:namedview
     pagecolor="#707070"
     bordercolor="#666666"
     borderopacity="1"
     objecttolerance="10"
     gridtolerance="10"
     guidetolerance="10"
     inkscape:pageopacity="0"
     inkscape:pageshadow="2"
     inkscape:window-width="1366"
     inkscape:window-height="642"
     id="namedview82"
     showgrid="false"
     inkscape:showpageshadow="false"
     inkscape:zoom="7.4642639"
     inkscape:cx="-5.9040963"
     inkscape:cy="17.489962"
     inkscape:window-x="0"
     inkscape:window-y="33"
     inkscape:window-maximized="1"
     inkscape:current-layer="svg2"
     showguides="false"
     inkscape:snap-bbox="true"
     inkscape:snap-bbox-edge-midpoints="false"
     inkscape:bbox-nodes="true">
    <inkscape:grid
       type="xygrid"
       id="grid3413" />
    <sodipodi:guide
       position="0,64"
       orientation="64,0"
       id="guide3482" />
    <sodipodi:guide
       position="0,0"
       orientation="0,64"
       id="guide3484" />
    <sodipodi:guide
       position="64,0"
       orientation="-64,0"
       id="guide3486" />
    <sodipodi:guide
       position="10,61"
       orientation="58,0"
       id="guide3492" />
    <sodipodi:guide
       position="10,3"
       orientation="0,44"
       id="guide3494" />
    <sodipodi:guide
       position="54,3"
       orientation="-58,0"
       id="guide3496" />
    <sodipodi:guide
       position="54,61"
       orientation="0,-44"
       id="guide3498" />
    <sodipodi:guide
       position="54,47"
       orientation="-14,0"
       id="guide4310" />
    <sodipodi:guide
       position="54,61"
       orientation="0,-14"
       id="guide4312" />
    <sodipodi:guide
       position="21,43"
       orientation="22,0"
       id="guide4250" />
    <sodipodi:guide
       position="21,21"
       orientation="0,22"
       id="guide4252" />
    <sodipodi:guide
       position="43,21"
       orientation="-22,0"
       id="guide4254" />
    <sodipodi:guide
       position="43,43"
       orientation="0,-22"
       id="guide4256" />
  </sodipodi:namedview>
  <defs
     id="defs4">
    <linearGradient
       id="linearGradient4531"
       inkscape:collect="always">
      <stop
         id="stop4533"
         offset="0"
         style="stop-color:#1a89f3;stop-opacity:1" />
      <stop
         id="stop4535"
         offset="1"
         style="stop-color:#20bbfa;stop-opacity:1" />
    </linearGradient>
    <linearGradient
       inkscape:collect="always"
       xlink:href="#linearGradient4531"
       id="linearGradient4190-9"
       x1="375.57144"
       y1="543.79797"
       x2="375.57144"
       y2="517.79797"
       gradientUnits="userSpaceOnUse"
       gradientTransform="matrix(2.1937939,0,0,2.2303048,-398.02626,-639.90393)" />
    <linearGradient
       osb:paint="gradient"
       id="linearGradient4207">
      <stop
         id="stop3371"
         offset="0"
         style="stop-color:#3498db;stop-opacity:1;" />
      <stop
         id="stop3373"
         offset="1"
         style="stop-color:#3498db;stop-opacity:0;" />
    </linearGradient>
  </defs>
  <g
     transform="translate(-392.98822,-511.27795)"
     id="layer1"
     inkscape:label="Capa 1"
     inkscape:transform-center-x="5.4653607"
     inkscape:transform-center-y="-9.4924686">
    <g
       transform="translate(0.41988239,0.03484499)"
       inkscape:label="Capa 1"
       id="layer1-3">
      <rect
         style="opacity:0.997;fill:url(#linearGradient4190-9);fill-opacity:1.0;stroke:none;stroke-width:0.104;stroke-linecap:round;stroke-linejoin:round;stroke-miterlimit:4;stroke-dasharray:none;stroke-opacity:1"
         id="rect4182-2"
         width="46.069672"
         height="57.987926"
         x="401.76834"
         y="514.94318"
         ry="1.7192465" />
      <path
         style="opacity:0.56499999;fill:#000000;fill-opacity:1;fill-rule:evenodd;stroke:none;stroke-width:1px;stroke-linecap:butt;stroke-linejoin:miter;stroke-opacity:1"
         d="m 401.76839,563.18111 -4e-5,7.90428 c 0,0 -0.0224,1.83572 1.81022,1.83572 l 42.46177,0 c 0,0 1.93884,-0.0444 1.91466,-2.52819 l -0.0702,-7.21181 z"
         id="path4302"
         inkscape:connector-curvature="0"
         sodipodi:nodetypes="ccccccc" />
      <g
         style="font-style:normal;font-weight:normal;font-size:7.8266716px;line-height:125%;font-family:sans-serif;letter-spacing:0px;word-spacing:0px;fill:#ffffff;fill-opacity:1;stroke:none;stroke-width:1px;stroke-linecap:butt;stroke-linejoin:miter;stroke-opacity:1"
         id="text4304">
        <path
           d="m 419.24415,565.85014 q -0.1487,0.14871 -0.36002,0.14871 -0.21132,0 -0.36003,-0.14871 -0.14871,-0.14871 -0.14871,-0.36003 0,-0.21132 0.14871,-0.36003 0.14871,-0.1487 0.36003,-0.1487 0.21132,0 0.36002,0.1487 0.14871,0.14871 0.14871,0.36003 0,0.21132 -0.14871,0.36003 z m 0,4.79775 -0.72005,0 0,-3.83507 0.72005,0 0,3.83507 z"
           style="font-style:normal;font-variant:normal;font-weight:normal;font-stretch:normal;font-family:'Product Sans';-inkscape-font-specification:'Product Sans';fill:#ffffff;fill-opacity:1"
           id="path4184" />
        <path
           d="m 420.8776,566.81282 0,0.53221 0.0313,0 q 0.15654,-0.27393 0.49308,-0.46177 0.33655,-0.19567 0.72006,-0.19567 0.71222,0 1.0879,0.4383 0.37568,0.43829 0.37568,1.174 l 0,2.348 -0.72005,0 0,-2.23843 q 0,-1.06443 -0.94703,-1.06443 -0.44612,0 -0.72788,0.36003 -0.28176,0.3522 -0.28176,0.8218 l 0,2.12103 -0.72005,0 0,-3.83507 0.68874,0 z"
           style="font-style:normal;font-variant:normal;font-weight:normal;font-stretch:normal;font-family:'Product Sans';-inkscape-font-specification:'Product Sans';fill:#ffffff;fill-opacity:1"
           id="path4186" />
        <path
           d="m 426.1935,565.01268 q 0.34438,0 0.57918,0.10175 l -0.25046,0.61831 q -0.12522,-0.0626 -0.32872,-0.0626 -0.28176,0 -0.46177,0.17218 -0.18001,0.16436 -0.18001,0.48526 l 0,0.48525 1.00181,0 0,0.65744 -1.00181,0 0,3.17763 -0.72006,0 0,-3.17763 -0.72005,0 0,-0.65744 0.72005,0 0,-0.50873 q 0,-0.587 0.37568,-0.93921 0.37568,-0.3522 0.98616,-0.3522 z"
           style="font-style:normal;font-variant:normal;font-weight:normal;font-stretch:normal;font-family:'Product Sans';-inkscape-font-specification:'Product Sans';fill:#ffffff;fill-opacity:1"
           id="path4188" />
        <path
           d="m 427.34317,567.27459 q 0.55569,-0.587 1.41663,-0.587 0.86093,0 1.41662,0.587 0.5557,0.57918 0.5557,1.45576 0,0.87659 -0.5557,1.46359 -0.55569,0.57917 -1.41662,0.57917 -0.86094,0 -1.41663,-0.57917 -0.55569,-0.587 -0.55569,-1.46359 0,-0.87658 0.55569,-1.45576 z m 0.53221,2.4654 q 0.37568,0.37568 0.88442,0.37568 0.50873,0 0.87658,-0.37568 0.37568,-0.3835 0.37568,-1.00964 0,-0.62613 -0.37568,-1.00181 -0.36785,-0.38351 -0.87658,-0.38351 -0.50874,0 -0.88442,0.38351 -0.36785,0.37568 -0.36785,1.00181 0,0.62614 0.36785,1.00964 z"
           style="font-style:normal;font-variant:normal;font-weight:normal;font-stretch:normal;font-family:'Product Sans';-inkscape-font-specification:'Product Sans';fill:#ffffff;fill-opacity:1"
           id="path4190" />
      </g>
      <g
         transform="matrix(1.76669,0,0,1.76669,405.35027,-1299.9866)"
         id="layer1-8"
         inkscape:label="Capa 1"
         style="opacity:1;fill:#0c3e6a;fill-opacity:1;stroke:none">
        <path
           sodipodi:nodetypes="ssssssssss"
           inkscape:connector-curvature="0"
           id="rect4129"
           transform="translate(0,1030.3622)"
           d="m 11,3 c -4.432,0 -8,3.568 -8,8 0,4.432 3.568,8 8,8 4.432,0 8,-3.568 8,-8 0,-4.432 -3.568,-8 -8,-8 z m 0,1 c 3.878,0 7,3.122 7,7 0,3.878 -3.122,7 -7,7 C 7.122,18 4,14.878 4,11 4,7.122 7.122,4 11,4 Z"
           style="opacity:1;fill:#0c3e6a;fill-opacity:1;stroke:none;stroke-width:0.30000001;stroke-miterlimit:4;stroke-dasharray:none;stroke-opacity:1" />
        <g
           style="fill:#0c3e6a;fill-opacity:1;stroke:none;stroke-width:0.30000001;stroke-miterlimit:4;stroke-dasharray:none;stroke-opacity:1"
           inkscape:label="Capa 1"
           id="layer1-7"
           transform="translate(-345.34735,495.16358)">
          <g
             transform="matrix(0.30924083,0,0,0.30924083,99.330471,486.10014)"
             id="layer1-9"
             inkscape:label="Layer 1"
             style="fill:#0c3e6a;fill-opacity:1;stroke:none;stroke-width:0.97011769;stroke-miterlimit:4;stroke-dasharray:none;stroke-opacity:1">
            <g
               style="fill:#0c3e6a;fill-opacity:1;stroke:none;stroke-width:0.79559839;stroke-miterlimit:4;stroke-dasharray:none;stroke-opacity:1"
               transform="matrix(1.219356,0,0,1.219356,779.29263,166.4101)"
               id="g5257">
              <g
                 style="fill:#0c3e6a;fill-opacity:1;stroke:none;stroke-width:0.91636318;stroke-miterlimit:4;stroke-dasharray:none;stroke-opacity:1"
                 transform="matrix(0.86821297,0,0,0.86821297,22.89117,3.3794412)"
                 id="g5211">
                <g
                   style="fill:#0c3e6a;fill-opacity:1;stroke:none;stroke-width:0.91636318;stroke-miterlimit:4;stroke-dasharray:none;stroke-opacity:1"
                   id="g5213">
                  <path
                     style="fill:#0c3e6a;fill-opacity:1;stroke:none;stroke-width:0.91636318;stroke-miterlimit:4;stroke-dasharray:none;stroke-opacity:1"
                     inkscape:connector-curvature="0"
                     d="m 22.683,16.977 c -2.028,0 -3.465,1.646 -3.465,3.672 l 0,12.485 c 0,2.028 1.437,3.671 3.465,3.671 2.027,0 3.463,-1.643 3.463,-3.671 l 0,-12.485 c 0,-2.028 -1.436,-3.672 -3.463,-3.672 z"
                     id="path5215" />
                  <path
                     style="fill:#0c3e6a;fill-opacity:1;stroke:none;stroke-width:0.91636318;stroke-miterlimit:4;stroke-dasharray:none;stroke-opacity:1"
                     inkscape:connector-curvature="0"
                     d="m 22.698,7.432 c -2.095,0 -3.795,1.699 -3.795,3.795 0,2.095 1.7,3.793 3.795,3.793 2.093,0 3.793,-1.698 3.793,-3.793 0,-2.096 -1.7,-3.795 -3.793,-3.795 z"
                     id="path5217" />
                </g>
              </g>
              <g
                 style="fill:#0c3e6a;fill-opacity:1;stroke:none;stroke-width:0.79559839;stroke-miterlimit:4;stroke-dasharray:none;stroke-opacity:1"
                 id="g5221" />
              <g
                 style="fill:#0c3e6a;fill-opacity:1;stroke:none;stroke-width:0.79559839;stroke-miterlimit:4;stroke-dasharray:none;stroke-opacity:1"
                 id="g5223" />
              <g
                 style="fill:#0c3e6a;fill-opacity:1;stroke:none;stroke-width:0.79559839;stroke-miterlimit:4;stroke-dasharray:none;stroke-opacity:1"
                 id="g5225" />
              <g
                 style="fill:#0c3e6a;fill-opacity:1;stroke:none;stroke-width:0.79559839;stroke-miterlimit:4;stroke-dasharray:none;stroke-opacity:1"
                 id="g5227" />
              <g
                 style="fill:#0c3e6a;fill-opacity:1;stroke:none;stroke-width:0.79559839;stroke-miterlimit:4;stroke-dasharray:none;stroke-opacity:1"
                 id="g5229" />
              <g
                 style="fill:#0c3e6a;fill-opacity:1;stroke:none;stroke-width:0.79559839;stroke-miterlimit:4;stroke-dasharray:none;stroke-opacity:1"
                 id="g5231" />
              <g
                 style="fill:#0c3e6a;fill-opacity:1;stroke:none;stroke-width:0.79559839;stroke-miterlimit:4;stroke-dasharray:none;stroke-opacity:1"
                 id="g5233" />
              <g
                 style="fill:#0c3e6a;fill-opacity:1;stroke:none;stroke-width:0.79559839;stroke-miterlimit:4;stroke-dasharray:none;stroke-opacity:1"
                 id="g5235" />
              <g
                 style="fill:#0c3e6a;fill-opacity:1;stroke:none;stroke-width:0.79559839;stroke-miterlimit:4;stroke-dasharray:none;stroke-opacity:1"
                 id="g5237" />
              <g
                 style="fill:#0c3e6a;fill-opacity:1;stroke:none;stroke-width:0.79559839;stroke-miterlimit:4;stroke-dasharray:none;stroke-opacity:1"
                 id="g5239" />
              <g
                 style="fill:#0c3e6a;fill-opacity:1;stroke:none;stroke-width:0.79559839;stroke-miterlimit:4;stroke-dasharray:none;stroke-opacity:1"
                 id="g5241" />
              <g
                 style="fill:#0c3e6a;fill-opacity:1;stroke:none;stroke-width:0.79559839;stroke-miterlimit:4;stroke-dasharray:none;stroke-opacity:1"
                 id="g5243" />
              <g
                 style="fill:#0c3e6a;fill-opacity:1;stroke:none;stroke-width:0.79559839;stroke-miterlimit:4;stroke-dasharray:none;stroke-opacity:1"
                 id="g5245" />
              <g
                 style="fill:#0c3e6a;fill-opacity:1;stroke:none;stroke-width:0.79559839;stroke-miterlimit:4;stroke-dasharray:none;stroke-opacity:1"
                 id="g5247" />
              <g
                 style="fill:#0c3e6a;fill-opacity:1;stroke:none;stroke-width:0.79559839;stroke-miterlimit:4;stroke-dasharray:none;stroke-opacity:1"
                 id="g5249" />
            </g>
          </g>
        </g>
      </g>
    </g>
  </g>
</svg>
