<?xml version="1.0" encoding="UTF-8" standalone="no"?>
<svg
   xmlns:sketch="http://www.bohemiancoding.com/sketch/ns"
   xmlns:osb="http://www.openswatchbook.org/uri/2009/osb"
   xmlns:dc="http://purl.org/dc/elements/1.1/"
   xmlns:cc="http://creativecommons.org/ns#"
   xmlns:rdf="http://www.w3.org/1999/02/22-rdf-syntax-ns#"
   xmlns:svg="http://www.w3.org/2000/svg"
   xmlns="http://www.w3.org/2000/svg"
   xmlns:xlink="http://www.w3.org/1999/xlink"
   xmlns:sodipodi="http://sodipodi.sourceforge.net/DTD/sodipodi-0.dtd"
   xmlns:inkscape="http://www.inkscape.org/namespaces/inkscape"
   viewBox="0 0 64 64"
   id="svg2"
   version="1.1"
   inkscape:version="0.91 r13725"
   sodipodi:docname="text-x-install.svg"
   width="64"
   height="64">
  <metadata
     id="metadata84">
    <rdf:RDF>
      <cc:Work
         rdf:about="">
        <dc:format>image/svg+xml</dc:format>
        <dc:type
           rdf:resource="http://purl.org/dc/dcmitype/StillImage" />
        <dc:title />
      </cc:Work>
    </rdf:RDF>
  </metadata>
  <sodipodi:namedview
     pagecolor="#5e5e5e"
     bordercolor="#666666"
     borderopacity="1"
     objecttolerance="10"
     gridtolerance="10"
     guidetolerance="10"
     inkscape:pageopacity="0"
     inkscape:pageshadow="2"
     inkscape:window-width="1366"
     inkscape:window-height="642"
     id="namedview82"
     showgrid="false"
     inkscape:showpageshadow="false"
     inkscape:zoom="7.4642639"
     inkscape:cx="-0.23895425"
     inkscape:cy="2.3821952"
     inkscape:window-x="0"
     inkscape:window-y="33"
     inkscape:window-maximized="1"
     inkscape:current-layer="svg2"
     showguides="false"
     inkscape:snap-bbox="true"
     inkscape:snap-bbox-edge-midpoints="false"
     inkscape:bbox-nodes="true">
    <inkscape:grid
       type="xygrid"
       id="grid3413" />
    <sodipodi:guide
       position="0,64"
       orientation="64,0"
       id="guide3482" />
    <sodipodi:guide
       position="0,0"
       orientation="0,64"
       id="guide3484" />
    <sodipodi:guide
       position="64,0"
       orientation="-64,0"
       id="guide3486" />
    <sodipodi:guide
       position="10,61"
       orientation="58,0"
       id="guide3492" />
    <sodipodi:guide
       position="10,3"
       orientation="0,44"
       id="guide3494" />
    <sodipodi:guide
       position="54,3"
       orientation="-58,0"
       id="guide3496" />
    <sodipodi:guide
       position="54,61"
       orientation="0,-44"
       id="guide3498" />
    <sodipodi:guide
       position="54,47"
       orientation="-14,0"
       id="guide4310" />
    <sodipodi:guide
       position="54,61"
       orientation="0,-14"
       id="guide4312" />
    <sodipodi:guide
       position="21,43"
       orientation="22,0"
       id="guide4250" />
    <sodipodi:guide
       position="21,21"
       orientation="0,22"
       id="guide4252" />
    <sodipodi:guide
       position="43,21"
       orientation="-22,0"
       id="guide4254" />
    <sodipodi:guide
       position="43,43"
       orientation="0,-22"
       id="guide4256" />
  </sodipodi:namedview>
  <defs
     id="defs4">
    <linearGradient
       id="linearGradient4531"
       inkscape:collect="always">
      <stop
         id="stop4533"
         offset="0"
         style="stop-color:#2daf7b;stop-opacity:1" />
      <stop
         id="stop4535"
         offset="1"
         style="stop-color:#3ec380;stop-opacity:1" />
    </linearGradient>
    <linearGradient
       inkscape:collect="always"
       xlink:href="#linearGradient4531"
       id="linearGradient4190-9"
       x1="375.57144"
       y1="543.79797"
       x2="375.57144"
       y2="517.79797"
       gradientUnits="userSpaceOnUse"
       gradientTransform="matrix(2.1937939,0,0,2.2303048,-398.02626,-639.90393)" />
    <linearGradient
       osb:paint="gradient"
       id="linearGradient4207">
      <stop
         id="stop3371"
         offset="0"
         style="stop-color:#3498db;stop-opacity:1;" />
      <stop
         id="stop3373"
         offset="1"
         style="stop-color:#3498db;stop-opacity:0;" />
    </linearGradient>
  </defs>
  <g
     transform="translate(-392.98822,-511.27795)"
     id="layer1"
     inkscape:label="Capa 1"
     inkscape:transform-center-x="5.4653607"
     inkscape:transform-center-y="-9.4924686">
    <g
       transform="translate(0.41988239,0.03484499)"
       inkscape:label="Capa 1"
       id="layer1-3">
      <rect
         style="opacity:0.997;fill:url(#linearGradient4190-9);fill-opacity:1.0;stroke:none;stroke-width:0.104;stroke-linecap:round;stroke-linejoin:round;stroke-miterlimit:4;stroke-dasharray:none;stroke-opacity:1"
         id="rect4182-2"
         width="46.069672"
         height="57.987926"
         x="401.76834"
         y="514.94318"
         ry="1.7192465" />
      <path
         style="opacity:0.56499999;fill:#000000;fill-opacity:1;fill-rule:evenodd;stroke:none;stroke-width:1px;stroke-linecap:butt;stroke-linejoin:miter;stroke-opacity:1"
         d="m 401.76839,563.18111 -4e-5,7.90428 c 0,0 -0.0224,1.83572 1.81022,1.83572 l 42.46177,0 c 0,0 1.93884,-0.0444 1.91466,-2.52819 l -0.0702,-7.21181 z"
         id="path4302"
         inkscape:connector-curvature="0"
         sodipodi:nodetypes="ccccccc" />
      <g
         style="font-style:normal;font-weight:normal;font-size:7.8266716px;line-height:125%;font-family:sans-serif;letter-spacing:0px;word-spacing:0px;fill:#ffffff;fill-opacity:1;stroke:none;stroke-width:1px;stroke-linecap:butt;stroke-linejoin:miter;stroke-opacity:1"
         id="text4304">
        <path
           d="m 416.74403,565.44938 q -0.1487,0.14871 -0.36002,0.14871 -0.21132,0 -0.36003,-0.14871 -0.14871,-0.14871 -0.14871,-0.36003 0,-0.21132 0.14871,-0.36002 0.14871,-0.14871 0.36003,-0.14871 0.21132,0 0.36002,0.14871 0.14871,0.1487 0.14871,0.36002 0,0.21132 -0.14871,0.36003 z m 0,4.79775 -0.72005,0 0,-3.83507 0.72005,0 0,3.83507 z"
           style="font-style:normal;font-variant:normal;font-weight:normal;font-stretch:normal;font-family:'Product Sans';-inkscape-font-specification:'Product Sans';fill:#ffffff;fill-opacity:1"
           id="path4173" />
        <path
           d="m 418.37748,566.41206 0,0.53222 0.0313,0 q 0.15653,-0.27394 0.49308,-0.46178 0.33655,-0.19566 0.72005,-0.19566 0.71223,0 1.08791,0.43829 0.37568,0.43829 0.37568,1.174 l 0,2.348 -0.72005,0 0,-2.23843 q 0,-1.06442 -0.94703,-1.06442 -0.44612,0 -0.72788,0.36002 -0.28176,0.3522 -0.28176,0.8218 l 0,2.12103 -0.72005,0 0,-3.83507 0.68874,0 z"
           style="font-style:normal;font-variant:normal;font-weight:normal;font-stretch:normal;font-family:'Product Sans';-inkscape-font-specification:'Product Sans';fill:#ffffff;fill-opacity:1"
           id="path4175" />
        <path
           d="m 423.31697,570.37236 q -0.64179,0 -1.06443,-0.31307 -0.41481,-0.31307 -0.61048,-0.78267 l 0.64179,-0.2661 q 0.30524,0.72005 1.04095,0.72005 0.33654,0 0.54786,-0.14871 0.21915,-0.1487 0.21915,-0.39133 0,-0.37568 -0.52439,-0.50873 l -0.77484,-0.18784 q -0.36785,-0.0939 -0.69657,-0.3522 -0.32872,-0.26611 -0.32872,-0.71223 0,-0.50873 0.44612,-0.8218 0.45394,-0.32089 1.07225,-0.32089 0.50874,0 0.9079,0.2348 0.39916,0.22697 0.57134,0.65744 l -0.62613,0.25828 q -0.21132,-0.50874 -0.87659,-0.50874 -0.32089,0 -0.54004,0.13306 -0.21915,0.13305 -0.21915,0.36002 0,0.32872 0.50874,0.44612 l 0.75919,0.18002 q 0.54004,0.12522 0.79832,0.43046 0.25828,0.30524 0.25828,0.68875 0,0.51656 -0.42264,0.86093 -0.42264,0.34438 -1.08791,0.34438 z"
           style="font-style:normal;font-variant:normal;font-weight:normal;font-stretch:normal;font-family:'Product Sans';-inkscape-font-specification:'Product Sans';fill:#ffffff;fill-opacity:1"
           id="path4177" />
        <path
           d="m 427.06766,570.30974 q -0.60266,0 -0.92355,-0.32089 -0.31307,-0.32089 -0.31307,-0.90789 l 0,-2.01146 -0.67309,0 0,-0.65744 0.67309,0 0,-1.174 0.72006,0 0,1.174 0.9392,0 0,0.65744 -0.9392,0 0,1.95667 q 0,0.62613 0.51656,0.62613 0.19566,0 0.32872,-0.0626 l 0.25045,0.61831 q -0.2348,0.10174 -0.57917,0.10174 z"
           style="font-style:normal;font-variant:normal;font-weight:normal;font-stretch:normal;font-family:'Product Sans';-inkscape-font-specification:'Product Sans';fill:#ffffff;fill-opacity:1"
           id="path4179" />
        <path
           d="m 429.31195,570.37236 q -0.61048,0 -1.02529,-0.3522 -0.40699,-0.3522 -0.40699,-0.93138 0,-0.62613 0.48526,-0.97833 0.48525,-0.36003 1.19748,-0.36003 0.63396,0 1.04095,0.2348 l 0,-0.10957 q 0,-0.42264 -0.28959,-0.67309 -0.28959,-0.25828 -0.71223,-0.25828 -0.31307,0 -0.57135,0.1487 -0.25045,0.14871 -0.34437,0.40699 l -0.65744,-0.28176 q 0.13305,-0.34437 0.52439,-0.63396 0.39133,-0.29741 1.03312,-0.29741 0.73571,0 1.22096,0.43046 0.48525,0.43047 0.48525,1.21314 l 0,2.31669 -0.68874,0 0,-0.53221 -0.0313,0 q -0.43047,0.65744 -1.2601,0.65744 z m 0.11741,-0.65744 q 0.44612,0 0.80614,-0.32872 0.36786,-0.33655 0.36786,-0.7905 -0.30524,-0.25045 -0.91572,-0.25045 -0.52439,0 -0.7905,0.22697 -0.26611,0.22698 -0.26611,0.53222 0,0.28176 0.24263,0.44612 0.24263,0.16436 0.5557,0.16436 z"
           style="font-style:normal;font-variant:normal;font-weight:normal;font-stretch:normal;font-family:'Product Sans';-inkscape-font-specification:'Product Sans';fill:#ffffff;fill-opacity:1"
           id="path4181" />
        <path
           d="m 432.82393,570.24713 -0.72006,0 0,-5.6039 0.72006,0 0,5.6039 z"
           style="font-style:normal;font-variant:normal;font-weight:normal;font-stretch:normal;font-family:'Product Sans';-inkscape-font-specification:'Product Sans';fill:#ffffff;fill-opacity:1"
           id="path4183" />
        <path
           d="m 434.41372,570.24713 -0.72005,0 0,-5.6039 0.72005,0 0,5.6039 z"
           style="font-style:normal;font-variant:normal;font-weight:normal;font-stretch:normal;font-family:'Product Sans';-inkscape-font-specification:'Product Sans';fill:#ffffff;fill-opacity:1"
           id="path4185" />
      </g>
      <g
         transform="translate(24.766288,8.2846664)"
         id="layer1-8"
         inkscape:label="Capa 1">
        <g
           transform="matrix(0.65762761,0,0,0.65762761,163.45346,180.49688)"
           id="g4447">
          <g
             transform="translate(-48.123492,9.4954666)"
             id="layer1-6"
             inkscape:label="Capa 1">
            <g
               transform="translate(-51.525445,5.4558218)"
               inkscape:label="Capa 1"
               id="layer1-4">
              <g
                 id="layer1-3-8"
                 inkscape:label="Capa 1"
                 transform="translate(-34.965532,2.4832225)" />
            </g>
            <g
               transform="translate(50.472933,-5.4014337)"
               id="g4403">
              <rect
                 ry="1.6441816"
                 y="513.12695"
                 x="334.23404"
                 height="34.938858"
                 width="46.302639"
                 id="rect4195"
                 style="opacity:1;fill:#144d36;fill-opacity:1;stroke:none;stroke-width:0.2;stroke-linecap:round;stroke-linejoin:round;stroke-miterlimit:4;stroke-dasharray:none;stroke-opacity:1" />
              <g
                 transform="matrix(0.83317883,0,0,0.83317883,65.74755,84.6955)"
                 style="fill:#39bd7f;fill-opacity:1"
                 id="g4247">
                <circle
                   style="opacity:1;fill:#39bd7f;fill-opacity:1;stroke:none;stroke-width:0.2;stroke-linecap:round;stroke-linejoin:round;stroke-miterlimit:4;stroke-dasharray:none;stroke-opacity:1"
                   id="path4224"
                   cx="373.36642"
                   cy="518.737"
                   r="2.25" />
                <circle
                   style="opacity:1;fill:#39bd7f;fill-opacity:1;stroke:none;stroke-width:0.2;stroke-linecap:round;stroke-linejoin:round;stroke-miterlimit:4;stroke-dasharray:none;stroke-opacity:1"
                   id="path4224-4"
                   cx="367.8389"
                   cy="518.78473"
                   r="2.25" />
                <circle
                   style="opacity:1;fill:#39bd7f;fill-opacity:1;stroke:none;stroke-width:0.2;stroke-linecap:round;stroke-linejoin:round;stroke-miterlimit:4;stroke-dasharray:none;stroke-opacity:1"
                   id="path4224-8"
                   cx="362.40543"
                   cy="518.83801"
                   r="2.25" />
              </g>
            </g>
          </g>
          <g
             id="chevron18"
             sketch:type="MSLayerGroup"
             transform="matrix(0,0.14062974,-0.14062974,0,369.37429,531.36703)"
             style="fill:#35b97d;fill-opacity:1">
            <path
               d="M 76.988,55.667 23.869,2.628 c -1.956,-2.064 -4.399,-3.096 -7.333,-3.096 -2.934,0 -5.377,1.033 -7.333,3.096 L 3.011,8.739 c -2.01,2.01 -3.015,4.453 -3.015,7.332 0,2.824 1.005,5.296 3.015,7.414 L 42.607,63 3.01,102.596 c -2.01,2.01 -3.015,4.454 -3.015,7.333 0,2.824 1.005,5.296 3.015,7.414 l 6.192,6.11 c 2.01,2.01 4.455,3.015 7.333,3.015 2.879,0 5.324,-1.005 7.333,-3.015 l 53.12,-53.039 c 2.01,-2.118 3.016,-4.59 3.016,-7.414 0,-2.879 -1.006,-5.323 -3.016,-7.333 l 0,0 z"
               id="path1551"
               sketch:type="MSShapeGroup"
               inkscape:connector-curvature="0"
               style="fill:#35b97d;fill-opacity:1" />
          </g>
        </g>
      </g>
    </g>
  </g>
</svg>
