<?xml version="1.0" encoding="UTF-8" standalone="no"?>
<svg
   xmlns:osb="http://www.openswatchbook.org/uri/2009/osb"
   xmlns:dc="http://purl.org/dc/elements/1.1/"
   xmlns:cc="http://creativecommons.org/ns#"
   xmlns:rdf="http://www.w3.org/1999/02/22-rdf-syntax-ns#"
   xmlns:svg="http://www.w3.org/2000/svg"
   xmlns="http://www.w3.org/2000/svg"
   xmlns:xlink="http://www.w3.org/1999/xlink"
   xmlns:sodipodi="http://sodipodi.sourceforge.net/DTD/sodipodi-0.dtd"
   xmlns:inkscape="http://www.inkscape.org/namespaces/inkscape"
   viewBox="0 0 64 64"
   id="svg2"
   version="1.1"
   inkscape:version="0.91 r13725"
   sodipodi:docname="text-x-patch.svg"
   width="64"
   height="64">
  <metadata
     id="metadata84">
    <rdf:RDF>
      <cc:Work
         rdf:about="">
        <dc:format>image/svg+xml</dc:format>
        <dc:type
           rdf:resource="http://purl.org/dc/dcmitype/StillImage" />
        <dc:title />
      </cc:Work>
    </rdf:RDF>
  </metadata>
  <sodipodi:namedview
     pagecolor="#777777"
     bordercolor="#666666"
     borderopacity="1"
     objecttolerance="10"
     gridtolerance="10"
     guidetolerance="10"
     inkscape:pageopacity="0"
     inkscape:pageshadow="2"
     inkscape:window-width="1366"
     inkscape:window-height="642"
     id="namedview82"
     showgrid="false"
     inkscape:showpageshadow="false"
     inkscape:zoom="7.5211951"
     inkscape:cx="-4.4009829"
     inkscape:cy="29.593713"
     inkscape:window-x="0"
     inkscape:window-y="33"
     inkscape:window-maximized="1"
     inkscape:current-layer="svg2"
     showguides="false"
     inkscape:snap-bbox="true"
     inkscape:snap-bbox-edge-midpoints="false"
     inkscape:bbox-nodes="true">
    <inkscape:grid
       type="xygrid"
       id="grid3413" />
    <sodipodi:guide
       position="0,64"
       orientation="64,0"
       id="guide3482" />
    <sodipodi:guide
       position="0,0"
       orientation="0,64"
       id="guide3484" />
    <sodipodi:guide
       position="64,0"
       orientation="-64,0"
       id="guide3486" />
    <sodipodi:guide
       position="10,61"
       orientation="58,0"
       id="guide3492" />
    <sodipodi:guide
       position="10,3"
       orientation="0,44"
       id="guide3494" />
    <sodipodi:guide
       position="54,3"
       orientation="-58,0"
       id="guide3496" />
    <sodipodi:guide
       position="54,61"
       orientation="0,-44"
       id="guide3498" />
    <sodipodi:guide
       position="54,47"
       orientation="-14,0"
       id="guide4310" />
    <sodipodi:guide
       position="54,61"
       orientation="0,-14"
       id="guide4312" />
    <sodipodi:guide
       position="21,43"
       orientation="22,0"
       id="guide4250" />
    <sodipodi:guide
       position="21,21"
       orientation="0,22"
       id="guide4252" />
    <sodipodi:guide
       position="43,21"
       orientation="-22,0"
       id="guide4254" />
    <sodipodi:guide
       position="43,43"
       orientation="0,-22"
       id="guide4256" />
  </sodipodi:namedview>
  <defs
     id="defs4">
    <linearGradient
       inkscape:collect="always"
       xlink:href="#linearGradient4422"
       id="linearGradient4190-9"
       x1="375.57144"
       y1="543.79797"
       x2="375.57144"
       y2="517.79797"
       gradientUnits="userSpaceOnUse"
       gradientTransform="matrix(2.1937939,0,0,2.2303048,-398.02626,-639.90393)" />
    <linearGradient
       id="linearGradient4422">
      <stop
         id="stop4424"
         offset="0"
         style="stop-color:#8290a0;stop-opacity:1" />
      <stop
         id="stop4426"
         offset="1"
         style="stop-color:#9fb3c7;stop-opacity:1" />
    </linearGradient>
    <linearGradient
       id="linearGradient4207"
       osb:paint="gradient">
      <stop
         style="stop-color:#3498db;stop-opacity:1;"
         offset="0"
         id="stop3371" />
      <stop
         style="stop-color:#3498db;stop-opacity:0;"
         offset="1"
         id="stop3373" />
    </linearGradient>
  </defs>
  <g
     transform="translate(-392.98822,-511.27795)"
     id="layer1"
     inkscape:label="Capa 1"
     inkscape:transform-center-x="5.4653607"
     inkscape:transform-center-y="-9.4924686">
    <g
       transform="translate(0.41988239,0.03484499)"
       inkscape:label="Capa 1"
       id="layer1-3">
      <rect
         style="opacity:0.997;fill:url(#linearGradient4190-9);fill-opacity:1.0;stroke:none;stroke-width:0.104;stroke-linecap:round;stroke-linejoin:round;stroke-miterlimit:4;stroke-dasharray:none;stroke-opacity:1"
         id="rect4182-2"
         width="46.069672"
         height="57.987926"
         x="401.76834"
         y="514.94318"
         ry="1.7192465" />
      <path
         style="opacity:0.56499999;fill:#000000;fill-opacity:1;fill-rule:evenodd;stroke:none;stroke-width:1px;stroke-linecap:butt;stroke-linejoin:miter;stroke-opacity:1"
         d="m 401.76839,563.18111 -4e-5,7.90428 c 0,0 -0.0224,1.83572 1.81022,1.83572 l 42.46177,0 c 0,0 1.93884,-0.0444 1.91466,-2.52819 l -0.0702,-7.21181 z"
         id="path4302"
         inkscape:connector-curvature="0"
         sodipodi:nodetypes="ccccccc" />
      <g
         style="font-style:normal;font-weight:normal;font-size:7.8266716px;line-height:125%;font-family:sans-serif;letter-spacing:0px;word-spacing:0px;fill:#ffffff;fill-opacity:1;stroke:none;stroke-width:1px;stroke-linecap:butt;stroke-linejoin:miter;stroke-opacity:1"
         id="text4304">
        <path
           d="m 417.35743,570.27177 q -0.43829,0 -0.79049,-0.18784 -0.34437,-0.18784 -0.51656,-0.4696 l -0.0313,0 0.0313,0.53222 0,1.69056 -0.72005,0 0,-5.52563 0.68874,0 0,0.53221 0.0313,0 q 0.17219,-0.28176 0.51656,-0.4696 0.3522,-0.18784 0.79049,-0.18784 0.74354,0 1.28358,0.587 0.54004,0.587 0.54004,1.45576 0,0.86876 -0.54004,1.45576 -0.54004,0.587 -1.28358,0.587 z m -0.1174,-0.65744 q 0.50091,0 0.86094,-0.37568 0.36003,-0.38351 0.36003,-1.00964 0,-0.62613 -0.36003,-1.00181 -0.36003,-0.38351 -0.86094,-0.38351 -0.50873,0 -0.86876,0.37568 -0.3522,0.37568 -0.3522,1.00964 0,0.63396 0.3522,1.00964 0.36003,0.37568 0.86876,0.37568 z"
           style="font-style:normal;font-variant:normal;font-weight:normal;font-stretch:normal;font-family:'Product Sans';-inkscape-font-specification:'Product Sans';fill:#ffffff;fill-opacity:1"
           id="path4161" />
        <path
           d="m 421.0537,570.27177 q -0.61048,0 -1.02529,-0.3522 -0.40699,-0.3522 -0.40699,-0.93137 0,-0.62614 0.48526,-0.97834 0.48525,-0.36002 1.19748,-0.36002 0.63396,0 1.04094,0.2348 l 0,-0.10958 q 0,-0.42264 -0.28958,-0.67309 -0.28959,-0.25828 -0.71223,-0.25828 -0.31307,0 -0.57135,0.14871 -0.25045,0.1487 -0.34437,0.40698 l -0.65744,-0.28176 q 0.13305,-0.34437 0.52439,-0.63396 0.39133,-0.29741 1.03312,-0.29741 0.7357,0 1.22096,0.43047 0.48525,0.43046 0.48525,1.21313 l 0,2.3167 -0.68875,0 0,-0.53222 -0.0313,0 q -0.43047,0.65744 -1.2601,0.65744 z m 0.1174,-0.65744 q 0.44612,0 0.80615,-0.32872 0.36785,-0.33655 0.36785,-0.79049 -0.30524,-0.25046 -0.91572,-0.25046 -0.52438,0 -0.79049,0.22698 -0.26611,0.22697 -0.26611,0.53221 0,0.28176 0.24263,0.44612 0.24263,0.16436 0.55569,0.16436 z"
           style="font-style:normal;font-variant:normal;font-weight:normal;font-stretch:normal;font-family:'Product Sans';-inkscape-font-specification:'Product Sans';fill:#ffffff;fill-opacity:1"
           id="path4163" />
        <path
           d="m 425.42845,570.20916 q -0.60266,0 -0.92355,-0.32089 -0.31307,-0.3209 -0.31307,-0.9079 l 0,-2.01145 -0.67309,0 0,-0.65744 0.67309,0 0,-1.174 0.72005,0 0,1.174 0.93921,0 0,0.65744 -0.93921,0 0,1.95666 q 0,0.62614 0.51657,0.62614 0.19566,0 0.32872,-0.0626 l 0.25045,0.61831 q -0.2348,0.10175 -0.57917,0.10175 z"
           style="font-style:normal;font-variant:normal;font-weight:normal;font-stretch:normal;font-family:'Product Sans';-inkscape-font-specification:'Product Sans';fill:#ffffff;fill-opacity:1"
           id="path4165" />
        <path
           d="m 428.24336,570.27177 q -0.86094,0 -1.41663,-0.57917 -0.55569,-0.587 -0.55569,-1.46359 0,-0.87659 0.55569,-1.45576 0.55569,-0.587 1.41663,-0.587 0.64178,0 1.06442,0.31307 0.42264,0.31306 0.61831,0.79049 l -0.65744,0.27393 q -0.29741,-0.72005 -1.07225,-0.72005 -0.47743,0 -0.84528,0.39133 -0.36003,0.39134 -0.36003,0.99399 0,0.60265 0.36003,0.99399 0.36785,0.39133 0.84528,0.39133 0.80614,0 1.11138,-0.72005 l 0.64179,0.27393 q -0.19567,0.4696 -0.63396,0.7905 -0.43047,0.31306 -1.07225,0.31306 z"
           style="font-style:normal;font-variant:normal;font-weight:normal;font-stretch:normal;font-family:'Product Sans';-inkscape-font-specification:'Product Sans';fill:#ffffff;fill-opacity:1"
           id="path4167" />
        <path
           d="m 431.29172,564.54265 0,1.76883 -0.0313,0.53221 0.0313,0 q 0.15654,-0.27393 0.49308,-0.46177 0.33655,-0.19567 0.72006,-0.19567 0.71222,0 1.0879,0.43829 0.37569,0.4383 0.37569,1.174 l 0,2.34801 -0.72006,0 0,-2.23843 q 0,-1.06443 -0.94703,-1.06443 -0.44612,0 -0.72788,0.36003 -0.28176,0.3522 -0.28176,0.8218 l 0,2.12103 -0.72005,0 0,-5.6039 0.72005,0 z"
           style="font-style:normal;font-variant:normal;font-weight:normal;font-stretch:normal;font-family:'Product Sans';-inkscape-font-specification:'Product Sans';fill:#ffffff;fill-opacity:1"
           id="path4169" />
      </g>
      <path
         id="path4211"
         d="m 418.01885,526.61611 a 2.4713951,2.4713951 0 0 0 -2.4714,2.4714 2.4713951,2.4713951 0 0 0 1.2357,2.13591 l 0,17.96831 a 2.4713951,2.4713951 0 0 0 -1.2357,2.13833 2.4713951,2.4713951 0 0 0 2.4714,2.4714 2.4713951,2.4713951 0 0 0 2.47139,-2.4714 2.4713951,2.4713951 0 0 0 -1.2357,-2.13592 l 0,-17.96831 a 2.4713951,2.4713951 0 0 0 1.2357,-2.13832 2.4713951,2.4713951 0 0 0 -2.47139,-2.4714 z m 2.47139,2.4714 3.70709,2.59447 0,-1.35877 4.94279,0 c 1.36916,0 2.4714,1.10224 2.4714,2.47139 l 0,8.64988 0,7.74725 a 2.4713951,2.4713951 0 0 0 -1.2357,2.13833 2.4713951,2.4713951 0 0 0 2.4714,2.4714 2.4713951,2.4713951 0 0 0 2.47139,-2.4714 2.4713951,2.4713951 0 0 0 -1.2357,-2.13592 l 0,-17.63524 c 0,-2.05373 -1.65377,-3.66603 -3.70709,-3.70709 l -6.17849,0 0,-1.2357 -3.70709,2.4714 z m -2.47139,-1.2357 a 1.2356976,1.2356976 0 0 1 1.23569,1.2357 1.2356976,1.2356976 0 0 1 -1.23569,1.2357 1.2356976,1.2356976 0 0 1 -1.2357,-1.2357 1.2356976,1.2356976 0 0 1 1.2357,-1.2357 z m 0,22.24256 a 1.2356976,1.2356976 0 0 1 1.23569,1.23569 1.2356976,1.2356976 0 0 1 -1.23569,1.2357 1.2356976,1.2356976 0 0 1 -1.2357,-1.2357 1.2356976,1.2356976 0 0 1 1.2357,-1.23569 z m 14.82837,0 a 1.2356976,1.2356976 0 0 1 1.23569,1.23569 1.2356976,1.2356976 0 0 1 -1.23569,1.2357 1.2356976,1.2356976 0 0 1 -1.2357,-1.2357 1.2356976,1.2356976 0 0 1 1.2357,-1.23569 z"
         style="opacity:1;fill:#394047;fill-opacity:1;stroke:none;stroke-opacity:1"
         inkscape:connector-curvature="0" />
    </g>
  </g>
</svg>
