<?xml version="1.0" encoding="UTF-8" standalone="no"?>
<svg
   xmlns:osb="http://www.openswatchbook.org/uri/2009/osb"
   xmlns:dc="http://purl.org/dc/elements/1.1/"
   xmlns:cc="http://creativecommons.org/ns#"
   xmlns:rdf="http://www.w3.org/1999/02/22-rdf-syntax-ns#"
   xmlns:svg="http://www.w3.org/2000/svg"
   xmlns="http://www.w3.org/2000/svg"
   xmlns:xlink="http://www.w3.org/1999/xlink"
   xmlns:sodipodi="http://sodipodi.sourceforge.net/DTD/sodipodi-0.dtd"
   xmlns:inkscape="http://www.inkscape.org/namespaces/inkscape"
   viewBox="0 0 64 64"
   id="svg2"
   version="1.1"
   inkscape:version="0.91 r13725"
   sodipodi:docname="text-x-c++src.svg"
   width="64"
   height="64">
  <metadata
     id="metadata84">
    <rdf:RDF>
      <cc:Work
         rdf:about="">
        <dc:format>image/svg+xml</dc:format>
        <dc:type
           rdf:resource="http://purl.org/dc/dcmitype/StillImage" />
        <dc:title />
      </cc:Work>
    </rdf:RDF>
  </metadata>
  <sodipodi:namedview
     pagecolor="#777777"
     bordercolor="#666666"
     borderopacity="1"
     objecttolerance="10"
     gridtolerance="10"
     guidetolerance="10"
     inkscape:pageopacity="0"
     inkscape:pageshadow="2"
     inkscape:window-width="1366"
     inkscape:window-height="642"
     id="namedview82"
     showgrid="false"
     inkscape:showpageshadow="false"
     inkscape:zoom="7.4642639"
     inkscape:cx="8.6028587"
     inkscape:cy="18.659755"
     inkscape:window-x="0"
     inkscape:window-y="33"
     inkscape:window-maximized="1"
     inkscape:current-layer="svg2"
     showguides="false"
     inkscape:snap-bbox="true"
     inkscape:snap-bbox-edge-midpoints="false"
     inkscape:bbox-nodes="true">
    <inkscape:grid
       type="xygrid"
       id="grid3413" />
    <sodipodi:guide
       position="0,64"
       orientation="64,0"
       id="guide3482" />
    <sodipodi:guide
       position="0,0"
       orientation="0,64"
       id="guide3484" />
    <sodipodi:guide
       position="64,0"
       orientation="-64,0"
       id="guide3486" />
    <sodipodi:guide
       position="10,61"
       orientation="58,0"
       id="guide3492" />
    <sodipodi:guide
       position="10,3"
       orientation="0,44"
       id="guide3494" />
    <sodipodi:guide
       position="54,3"
       orientation="-58,0"
       id="guide3496" />
    <sodipodi:guide
       position="54,61"
       orientation="0,-44"
       id="guide3498" />
    <sodipodi:guide
       position="54,47"
       orientation="-14,0"
       id="guide4310" />
    <sodipodi:guide
       position="54,61"
       orientation="0,-14"
       id="guide4312" />
    <sodipodi:guide
       position="21,43"
       orientation="22,0"
       id="guide4250" />
    <sodipodi:guide
       position="21,21"
       orientation="0,22"
       id="guide4252" />
    <sodipodi:guide
       position="43,21"
       orientation="-22,0"
       id="guide4254" />
    <sodipodi:guide
       position="43,43"
       orientation="0,-22"
       id="guide4256" />
  </sodipodi:namedview>
  <defs
     id="defs4">
    <linearGradient
       inkscape:collect="always"
       xlink:href="#linearGradient4422"
       id="linearGradient4190-9"
       x1="375.57144"
       y1="543.79797"
       x2="375.57144"
       y2="517.79797"
       gradientUnits="userSpaceOnUse"
       gradientTransform="matrix(2.1937939,0,0,2.2303048,-398.02626,-639.90393)" />
    <linearGradient
       id="linearGradient4422">
      <stop
         id="stop4424"
         offset="0"
         style="stop-color:#2db07b;stop-opacity:1" />
      <stop
         id="stop4426"
         offset="1"
         style="stop-color:#3ec380;stop-opacity:1" />
    </linearGradient>
    <linearGradient
       id="linearGradient4207"
       osb:paint="gradient">
      <stop
         style="stop-color:#3498db;stop-opacity:1;"
         offset="0"
         id="stop3371" />
      <stop
         style="stop-color:#3498db;stop-opacity:0;"
         offset="1"
         id="stop3373" />
    </linearGradient>
  </defs>
  <g
     transform="translate(-392.98822,-511.27795)"
     id="layer1"
     inkscape:label="Capa 1"
     inkscape:transform-center-x="5.4653607"
     inkscape:transform-center-y="-9.4924686">
    <g
       transform="translate(0.41988239,0.03484499)"
       inkscape:label="Capa 1"
       id="layer1-3">
      <rect
         style="opacity:0.997;fill:url(#linearGradient4190-9);fill-opacity:1.0;stroke:none;stroke-width:0.104;stroke-linecap:round;stroke-linejoin:round;stroke-miterlimit:4;stroke-dasharray:none;stroke-opacity:1"
         id="rect4182-2"
         width="46.069672"
         height="57.987926"
         x="401.76834"
         y="514.94318"
         ry="1.7192465" />
      <path
         style="opacity:0.56499999;fill:#000000;fill-opacity:1;fill-rule:evenodd;stroke:none;stroke-width:1px;stroke-linecap:butt;stroke-linejoin:miter;stroke-opacity:1"
         d="m 401.76839,563.18111 -4e-5,7.90428 c 0,0 -0.0224,1.83572 1.81022,1.83572 l 42.46177,0 c 0,0 1.93884,-0.0444 1.91466,-2.52819 l -0.0702,-7.21181 z"
         id="path4302"
         inkscape:connector-curvature="0"
         sodipodi:nodetypes="ccccccc" />
      <g
         style="font-style:normal;font-weight:normal;font-size:7.8266716px;line-height:125%;font-family:sans-serif;letter-spacing:0px;word-spacing:0px;fill:#ffffff;fill-opacity:1;stroke:none;stroke-width:1px;stroke-linecap:butt;stroke-linejoin:miter;stroke-opacity:1"
         id="text4304">
        <path
           d="m 418.31467,570.6721 q -0.86094,0 -1.41663,-0.57917 -0.55569,-0.587 -0.55569,-1.46359 0,-0.87659 0.55569,-1.45576 0.55569,-0.587 1.41663,-0.587 0.64178,0 1.06442,0.31307 0.42265,0.31306 0.61831,0.79049 l -0.65744,0.27393 q -0.29741,-0.72005 -1.07225,-0.72005 -0.47743,0 -0.84528,0.39133 -0.36003,0.39134 -0.36003,0.99399 0,0.60265 0.36003,0.99399 0.36785,0.39133 0.84528,0.39133 0.80614,0 1.11138,-0.72005 l 0.64179,0.27393 q -0.19566,0.4696 -0.63396,0.79049 -0.43047,0.31307 -1.07225,0.31307 z"
           style="font-style:normal;font-variant:normal;font-weight:normal;font-stretch:normal;font-family:'Product Sans';-inkscape-font-specification:'Product Sans';fill:#ffffff;fill-opacity:1"
           id="path4169" />
        <path
           d="m 420.93367,567.17358 q 0.55569,-0.587 1.41662,-0.587 0.86094,0 1.41663,0.587 0.5557,0.57917 0.5557,1.45576 0,0.87659 -0.5557,1.46359 -0.55569,0.57917 -1.41663,0.57917 -0.86093,0 -1.41662,-0.57917 -0.5557,-0.587 -0.5557,-1.46359 0,-0.87659 0.5557,-1.45576 z m 0.53221,2.4654 q 0.37568,0.37568 0.88441,0.37568 0.50874,0 0.87659,-0.37568 0.37568,-0.38351 0.37568,-1.00964 0,-0.62613 -0.37568,-1.00181 -0.36785,-0.38351 -0.87659,-0.38351 -0.50873,0 -0.88441,0.38351 -0.36785,0.37568 -0.36785,1.00181 0,0.62613 0.36785,1.00964 z"
           style="font-style:normal;font-variant:normal;font-weight:normal;font-stretch:normal;font-family:'Product Sans';-inkscape-font-specification:'Product Sans';fill:#ffffff;fill-opacity:1"
           id="path4171" />
        <path
           d="m 426.5888,570.6721 q -0.74353,0 -1.28357,-0.587 -0.54004,-0.587 -0.54004,-1.45576 0,-0.86876 0.54004,-1.45576 0.54004,-0.587 1.28357,-0.587 0.4383,0 0.78267,0.18784 0.3522,0.18784 0.52439,0.4696 l 0.0313,0 -0.0313,-0.53221 0,-1.76883 0.72005,0 0,5.60389 -0.68874,0 0,-0.53221 -0.0313,0 q -0.17219,0.28176 -0.52439,0.4696 -0.34437,0.18784 -0.78267,0.18784 z m 0.1174,-0.65744 q 0.50874,0 0.86094,-0.37568 0.36003,-0.37568 0.36003,-1.00964 0,-0.63396 -0.36003,-1.00964 -0.3522,-0.37568 -0.86094,-0.37568 -0.5009,0 -0.86093,0.38351 -0.36003,0.37568 -0.36003,1.00181 0,0.62613 0.36003,1.00964 0.36003,0.37568 0.86093,0.37568 z"
           style="font-style:normal;font-variant:normal;font-weight:normal;font-stretch:normal;font-family:'Product Sans';-inkscape-font-specification:'Product Sans';fill:#ffffff;fill-opacity:1"
           id="path4173" />
        <path
           d="m 431.18551,570.6721 q -0.86876,0 -1.41663,-0.57917 -0.54004,-0.57918 -0.54004,-1.46359 0,-0.83745 0.52439,-1.44011 0.53221,-0.60265 1.35401,-0.60265 0.85311,0 1.36184,0.55569 0.51656,0.5557 0.51656,1.48707 l -0.008,0.13305 -3.02892,0 q 0.0313,0.57918 0.38351,0.91572 0.36003,0.33655 0.83745,0.33655 0.77484,0 1.04878,-0.65744 l 0.64178,0.26611 q -0.18784,0.44612 -0.6183,0.75136 -0.43047,0.29741 -1.0566,0.29741 z m 1.03312,-2.50453 q -0.0235,-0.32872 -0.30524,-0.62614 -0.27394,-0.29741 -0.8218,-0.29741 -0.39916,0 -0.69658,0.25045 -0.28958,0.25046 -0.39916,0.6731 l 2.22278,0 z"
           style="font-style:normal;font-variant:normal;font-weight:normal;font-stretch:normal;font-family:'Product Sans';-inkscape-font-specification:'Product Sans';fill:#ffffff;fill-opacity:1"
           id="path4175" />
      </g>
      <g
         style="font-style:normal;font-weight:normal;font-size:20.74239349px;line-height:125%;font-family:sans-serif;letter-spacing:0px;word-spacing:0px;fill:#144d36;fill-opacity:1;stroke:none;stroke-width:1px;stroke-linecap:butt;stroke-linejoin:miter;stroke-opacity:1"
         id="text6701">
        <path
           d="m 413.88941,547.04581 q -2.28166,0 -3.75437,-1.53494 -1.47271,-1.55568 -1.47271,-3.87883 0,-2.32315 1.47271,-3.85808 1.47271,-1.55568 3.75437,-1.55568 1.70088,0 2.82097,0.82969 1.12009,0.8297 1.63865,2.09498 l -1.74236,0.72599 q -0.78821,-1.9083 -2.84171,-1.9083 -1.26529,0 -2.24018,1.03712 -0.95415,1.03712 -0.95415,2.63428 0,1.59717 0.95415,2.63429 0.97489,1.03712 2.24018,1.03712 2.13647,0 2.94542,-1.9083 l 1.70087,0.72598 q -0.51855,1.24454 -1.68013,2.09498 -1.14083,0.8297 -2.84171,0.8297 z"
           style="font-style:normal;font-variant:normal;font-weight:normal;font-stretch:normal;font-family:'Product Sans';-inkscape-font-specification:'Product Sans';fill:#144d36;fill-opacity:1"
           id="path4162" />
        <path
           d="m 425.39075,536.55016 0,3.75437 3.75437,0 0,1.57642 -3.75437,0 0,3.75437 -1.57643,0 0,-3.75437 -3.75437,0 0,-1.57642 3.75437,0 0,-3.75437 1.57643,0 z"
           style="font-style:normal;font-variant:normal;font-weight:normal;font-stretch:normal;font-family:'Product Sans';-inkscape-font-specification:'Product Sans';fill:#144d36;fill-opacity:1"
           id="path4164" />
        <path
           d="m 436.81527,536.55016 0,3.75437 3.75437,0 0,1.57642 -3.75437,0 0,3.75437 -1.57642,0 0,-3.75437 -3.75438,0 0,-1.57642 3.75438,0 0,-3.75437 1.57642,0 z"
           style="font-style:normal;font-variant:normal;font-weight:normal;font-stretch:normal;font-family:'Product Sans';-inkscape-font-specification:'Product Sans';fill:#144d36;fill-opacity:1"
           id="path4166" />
      </g>
    </g>
  </g>
</svg>
