<?xml version="1.0" encoding="UTF-8" standalone="no"?>
<svg
   xmlns:osb="http://www.openswatchbook.org/uri/2009/osb"
   xmlns:dc="http://purl.org/dc/elements/1.1/"
   xmlns:cc="http://creativecommons.org/ns#"
   xmlns:rdf="http://www.w3.org/1999/02/22-rdf-syntax-ns#"
   xmlns:svg="http://www.w3.org/2000/svg"
   xmlns="http://www.w3.org/2000/svg"
   xmlns:xlink="http://www.w3.org/1999/xlink"
   xmlns:sodipodi="http://sodipodi.sourceforge.net/DTD/sodipodi-0.dtd"
   xmlns:inkscape="http://www.inkscape.org/namespaces/inkscape"
   viewBox="0 0 64 64"
   id="svg2"
   version="1.1"
   inkscape:version="0.91 r13725"
   sodipodi:docname="text-x-authors.svg"
   width="64"
   height="64">
  <metadata
     id="metadata84">
    <rdf:RDF>
      <cc:Work
         rdf:about="">
        <dc:format>image/svg+xml</dc:format>
        <dc:type
           rdf:resource="http://purl.org/dc/dcmitype/StillImage" />
        <dc:title />
      </cc:Work>
    </rdf:RDF>
  </metadata>
  <sodipodi:namedview
     pagecolor="#6a6a6a"
     bordercolor="#666666"
     borderopacity="1"
     objecttolerance="10"
     gridtolerance="10"
     guidetolerance="10"
     inkscape:pageopacity="0"
     inkscape:pageshadow="2"
     inkscape:window-width="1366"
     inkscape:window-height="642"
     id="namedview82"
     showgrid="false"
     inkscape:showpageshadow="false"
     inkscape:zoom="7.5211951"
     inkscape:cx="37.886539"
     inkscape:cy="13.771759"
     inkscape:window-x="0"
     inkscape:window-y="33"
     inkscape:window-maximized="1"
     inkscape:current-layer="svg2"
     showguides="false"
     inkscape:snap-bbox="true"
     inkscape:snap-bbox-edge-midpoints="false"
     inkscape:bbox-nodes="true">
    <inkscape:grid
       type="xygrid"
       id="grid3413" />
    <sodipodi:guide
       position="0,64"
       orientation="64,0"
       id="guide3482" />
    <sodipodi:guide
       position="0,0"
       orientation="0,64"
       id="guide3484" />
    <sodipodi:guide
       position="64,0"
       orientation="-64,0"
       id="guide3486" />
    <sodipodi:guide
       position="10,61"
       orientation="58,0"
       id="guide3492" />
    <sodipodi:guide
       position="10,3"
       orientation="0,44"
       id="guide3494" />
    <sodipodi:guide
       position="54,3"
       orientation="-58,0"
       id="guide3496" />
    <sodipodi:guide
       position="54,61"
       orientation="0,-44"
       id="guide3498" />
    <sodipodi:guide
       position="54,47"
       orientation="-14,0"
       id="guide4310" />
    <sodipodi:guide
       position="54,61"
       orientation="0,-14"
       id="guide4312" />
    <sodipodi:guide
       position="21,43"
       orientation="22,0"
       id="guide4250" />
    <sodipodi:guide
       position="21,21"
       orientation="0,22"
       id="guide4252" />
    <sodipodi:guide
       position="43,21"
       orientation="-22,0"
       id="guide4254" />
    <sodipodi:guide
       position="43,43"
       orientation="0,-22"
       id="guide4256" />
  </sodipodi:namedview>
  <defs
     id="defs4">
    <linearGradient
       inkscape:collect="always"
       xlink:href="#linearGradient4422"
       id="linearGradient4190-9"
       x1="375.57144"
       y1="543.79797"
       x2="375.57144"
       y2="517.79797"
       gradientUnits="userSpaceOnUse"
       gradientTransform="matrix(2.1937939,0,0,2.2303048,-398.02626,-639.90393)" />
    <linearGradient
       id="linearGradient4422">
      <stop
         id="stop4424"
         offset="0"
         style="stop-color:#8999af;stop-opacity:1" />
      <stop
         id="stop4426"
         offset="1"
         style="stop-color:#9fb3c7;stop-opacity:1" />
    </linearGradient>
    <linearGradient
       id="linearGradient4207"
       osb:paint="gradient">
      <stop
         style="stop-color:#3498db;stop-opacity:1;"
         offset="0"
         id="stop3371" />
      <stop
         style="stop-color:#3498db;stop-opacity:0;"
         offset="1"
         id="stop3373" />
    </linearGradient>
  </defs>
  <g
     transform="translate(-392.98822,-511.27795)"
     id="layer1"
     inkscape:label="Capa 1"
     inkscape:transform-center-x="5.4653607"
     inkscape:transform-center-y="-9.4924686">
    <g
       transform="translate(0.41988239,0.03484499)"
       inkscape:label="Capa 1"
       id="layer1-3">
      <rect
         style="opacity:0.997;fill:url(#linearGradient4190-9);fill-opacity:1.0;stroke:none;stroke-width:0.104;stroke-linecap:round;stroke-linejoin:round;stroke-miterlimit:4;stroke-dasharray:none;stroke-opacity:1"
         id="rect4182-2"
         width="46.069672"
         height="57.987926"
         x="401.76834"
         y="514.94318"
         ry="1.7192465" />
      <path
         style="opacity:0.56499999;fill:#000000;fill-opacity:1;fill-rule:evenodd;stroke:none;stroke-width:1px;stroke-linecap:butt;stroke-linejoin:miter;stroke-opacity:1"
         d="m 401.76839,563.18111 -4e-5,7.90428 c 0,0 -0.0224,1.83572 1.81022,1.83572 l 42.46177,0 c 0,0 1.93884,-0.0444 1.91466,-2.52819 l -0.0702,-7.21181 z"
         id="path4302"
         inkscape:connector-curvature="0"
         sodipodi:nodetypes="ccccccc" />
      <g
         style="font-style:normal;font-weight:normal;font-size:7.8266716px;line-height:125%;font-family:sans-serif;letter-spacing:0px;word-spacing:0px;fill:#ffffff;fill-opacity:1;stroke:none;stroke-width:1px;stroke-linecap:butt;stroke-linejoin:miter;stroke-opacity:1"
         id="text4304">
        <path
           d="m 413.67459,570.77208 q -0.61048,0 -1.02529,-0.3522 -0.40699,-0.3522 -0.40699,-0.93138 0,-0.62613 0.48525,-0.97833 0.48526,-0.36003 1.19748,-0.36003 0.63396,0 1.04095,0.2348 l 0,-0.10957 q 0,-0.42264 -0.28959,-0.67309 -0.28958,-0.25828 -0.71222,-0.25828 -0.31307,0 -0.57135,0.1487 -0.25045,0.14871 -0.34437,0.40699 l -0.65744,-0.28176 q 0.13305,-0.34437 0.52438,-0.63396 0.39134,-0.29742 1.03312,-0.29742 0.73571,0 1.22096,0.43047 0.48526,0.43047 0.48526,1.21314 l 0,2.31669 -0.68875,0 0,-0.53221 -0.0313,0 q -0.43046,0.65744 -1.26009,0.65744 z m 0.1174,-0.65744 q 0.44612,0 0.80615,-0.32872 0.36785,-0.33655 0.36785,-0.7905 -0.30524,-0.25045 -0.91572,-0.25045 -0.52439,0 -0.79049,0.22697 -0.26611,0.22698 -0.26611,0.53222 0,0.28176 0.24263,0.44612 0.24262,0.16436 0.55569,0.16436 z"
           style="font-style:normal;font-variant:normal;font-weight:normal;font-stretch:normal;font-family:'Product Sans';-inkscape-font-specification:'Product Sans';fill:#ffffff;fill-opacity:1"
           id="path4163" />
        <path
           d="m 419.83198,570.64685 -0.68875,0 0,-0.53221 -0.0313,0 q -0.16436,0.27393 -0.50091,0.4696 -0.33655,0.18784 -0.71223,0.18784 -0.72005,0 -1.09573,-0.4383 -0.36786,-0.43829 -0.36786,-1.174 l 0,-2.348 0.72006,0 0,2.2306 q 0,1.07226 0.94703,1.07226 0.44612,0 0.72788,-0.36003 0.28176,-0.36003 0.28176,-0.82963 l 0,-2.1132 0.72005,0 0,3.83507 z"
           style="font-style:normal;font-variant:normal;font-weight:normal;font-stretch:normal;font-family:'Product Sans';-inkscape-font-specification:'Product Sans';fill:#ffffff;fill-opacity:1"
           id="path4165" />
        <path
           d="m 422.42126,570.70946 q -0.60265,0 -0.92354,-0.32089 -0.31307,-0.32089 -0.31307,-0.90789 l 0,-2.01146 -0.67309,0 0,-0.65744 0.67309,0 0,-1.174 0.72005,0 0,1.174 0.9392,0 0,0.65744 -0.9392,0 0,1.95667 q 0,0.62613 0.51656,0.62613 0.19567,0 0.32872,-0.0626 l 0.25046,0.61831 q -0.2348,0.10174 -0.57918,0.10174 z"
           style="font-style:normal;font-variant:normal;font-weight:normal;font-stretch:normal;font-family:'Product Sans';-inkscape-font-specification:'Product Sans';fill:#ffffff;fill-opacity:1"
           id="path4167" />
        <path
           d="m 424.29477,565.04295 0,1.76883 -0.0313,0.53222 0.0313,0 q 0.15654,-0.27394 0.49308,-0.46178 0.33655,-0.19567 0.72006,-0.19567 0.71222,0 1.0879,0.4383 0.37568,0.43829 0.37568,1.174 l 0,2.348 -0.72005,0 0,-2.23843 q 0,-1.06442 -0.94703,-1.06442 -0.44612,0 -0.72788,0.36002 -0.28176,0.3522 -0.28176,0.8218 l 0,2.12103 -0.72005,0 0,-5.6039 0.72005,0 z"
           style="font-style:normal;font-variant:normal;font-weight:normal;font-stretch:normal;font-family:'Product Sans';-inkscape-font-specification:'Product Sans';fill:#ffffff;fill-opacity:1"
           id="path4169" />
        <path
           d="m 428.1609,567.27356 q 0.5557,-0.58701 1.41663,-0.58701 0.86093,0 1.41663,0.58701 0.55569,0.57917 0.55569,1.45576 0,0.87658 -0.55569,1.46358 -0.5557,0.57918 -1.41663,0.57918 -0.86093,0 -1.41663,-0.57918 -0.55569,-0.587 -0.55569,-1.46358 0,-0.87659 0.55569,-1.45576 z m 0.53222,2.4654 q 0.37568,0.37568 0.88441,0.37568 0.50873,0 0.87659,-0.37568 0.37568,-0.38351 0.37568,-1.00964 0,-0.62614 -0.37568,-1.00182 -0.36786,-0.3835 -0.87659,-0.3835 -0.50873,0 -0.88441,0.3835 -0.36786,0.37568 -0.36786,1.00182 0,0.62613 0.36786,1.00964 z"
           style="font-style:normal;font-variant:normal;font-weight:normal;font-stretch:normal;font-family:'Product Sans';-inkscape-font-specification:'Product Sans';fill:#ffffff;fill-opacity:1"
           id="path4171" />
        <path
           d="m 432.85519,570.64685 -0.72005,0 0,-3.83507 0.68875,0 0,0.62614 0.0313,0 q 0.10958,-0.31307 0.44612,-0.51657 0.34438,-0.20349 0.66527,-0.20349 0.32089,0 0.54004,0.0939 l -0.27393,0.6731 q -0.14088,-0.0548 -0.38351,-0.0548 -0.39133,0 -0.69657,0.31307 -0.29742,0.30524 -0.29742,0.80614 l 0,2.09755 z"
           style="font-style:normal;font-variant:normal;font-weight:normal;font-stretch:normal;font-family:'Product Sans';-inkscape-font-specification:'Product Sans';fill:#ffffff;fill-opacity:1"
           id="path4173" />
        <path
           d="m 436.25001,570.77208 q -0.64178,0 -1.06443,-0.31307 -0.41481,-0.31307 -0.61048,-0.78267 l 0.64179,-0.2661 q 0.30524,0.72005 1.04095,0.72005 0.33655,0 0.54787,-0.14871 0.21914,-0.1487 0.21914,-0.39133 0,-0.37568 -0.52438,-0.50873 l -0.77484,-0.18784 q -0.36786,-0.0939 -0.69658,-0.3522 -0.32872,-0.26611 -0.32872,-0.71223 0,-0.50873 0.44612,-0.8218 0.45395,-0.3209 1.07226,-0.3209 0.50873,0 0.90789,0.2348 0.39916,0.22698 0.57135,0.65745 l -0.62614,0.25828 q -0.21132,-0.50874 -0.87658,-0.50874 -0.3209,0 -0.54004,0.13306 -0.21915,0.13305 -0.21915,0.36002 0,0.32872 0.50873,0.44612 l 0.75919,0.18002 q 0.54004,0.12522 0.79832,0.43046 0.25828,0.30524 0.25828,0.68875 0,0.51656 -0.42264,0.86093 -0.42264,0.34438 -1.08791,0.34438 z"
           style="font-style:normal;font-variant:normal;font-weight:normal;font-stretch:normal;font-family:'Product Sans';-inkscape-font-specification:'Product Sans';fill:#ffffff;fill-opacity:1"
           id="path4175" />
      </g>
      <g
         id="g7525"
         transform="matrix(0.03061224,0,0,0.03061224,409.75634,525.37211)"
         style="stroke:#2c3137;stroke-opacity:1">
        <circle
           id="circle7515"
           r="440"
           cy="490"
           cx="490"
           style="fill:none;stroke:#2c3137;stroke-width:100;stroke-opacity:1" />
        <path
           id="path7517"
           d="m 486,215 c -130,0 -239,91 -267,213 l 131,0 c 24,-52 76,-88 136,-88 83,0 150,67 150,150 0,83 -67,150 -150,150 -60,0 -112,-36 -136,-87 l -131,0 C 247,674 356,765 486,765 638,765 761,642 761,490 761,338 638,215 486,215 Z"
           inkscape:connector-curvature="0"
           style="fill:#2b3037;fill-opacity:1;stroke:none;stroke-opacity:1" />
      </g>
    </g>
  </g>
</svg>
