<?xml version="1.0" encoding="UTF-8" standalone="no"?>
<svg
   xmlns:osb="http://www.openswatchbook.org/uri/2009/osb"
   xmlns:dc="http://purl.org/dc/elements/1.1/"
   xmlns:cc="http://creativecommons.org/ns#"
   xmlns:rdf="http://www.w3.org/1999/02/22-rdf-syntax-ns#"
   xmlns:svg="http://www.w3.org/2000/svg"
   xmlns="http://www.w3.org/2000/svg"
   xmlns:xlink="http://www.w3.org/1999/xlink"
   xmlns:sodipodi="http://sodipodi.sourceforge.net/DTD/sodipodi-0.dtd"
   xmlns:inkscape="http://www.inkscape.org/namespaces/inkscape"
   viewBox="0 0 64 64"
   id="svg2"
   version="1.1"
   inkscape:version="0.91 r13725"
   sodipodi:docname="text-markdown.svg"
   width="64"
   height="64">
  <metadata
     id="metadata84">
    <rdf:RDF>
      <cc:Work
         rdf:about="">
        <dc:format>image/svg+xml</dc:format>
        <dc:type
           rdf:resource="http://purl.org/dc/dcmitype/StillImage" />
        <dc:title />
      </cc:Work>
    </rdf:RDF>
  </metadata>
  <sodipodi:namedview
     pagecolor="#727272"
     bordercolor="#666666"
     borderopacity="1"
     objecttolerance="10"
     gridtolerance="10"
     guidetolerance="10"
     inkscape:pageopacity="0"
     inkscape:pageshadow="2"
     inkscape:window-width="1366"
     inkscape:window-height="642"
     id="namedview82"
     showgrid="false"
     inkscape:showpageshadow="false"
     inkscape:zoom="3.988716"
     inkscape:cx="31.702977"
     inkscape:cy="36.118931"
     inkscape:window-x="0"
     inkscape:window-y="33"
     inkscape:window-maximized="1"
     inkscape:current-layer="layer1-3"
     showguides="false"
     inkscape:snap-bbox="true"
     inkscape:snap-bbox-edge-midpoints="false"
     inkscape:bbox-nodes="true">
    <inkscape:grid
       type="xygrid"
       id="grid3413" />
    <sodipodi:guide
       position="0,64"
       orientation="64,0"
       id="guide3482" />
    <sodipodi:guide
       position="0,0"
       orientation="0,64"
       id="guide3484" />
    <sodipodi:guide
       position="64,0"
       orientation="-64,0"
       id="guide3486" />
    <sodipodi:guide
       position="10,61"
       orientation="58,0"
       id="guide3492" />
    <sodipodi:guide
       position="10,3"
       orientation="0,44"
       id="guide3494" />
    <sodipodi:guide
       position="54,3"
       orientation="-58,0"
       id="guide3496" />
    <sodipodi:guide
       position="54,61"
       orientation="0,-44"
       id="guide3498" />
    <sodipodi:guide
       position="54,47"
       orientation="-14,0"
       id="guide4310" />
    <sodipodi:guide
       position="54,61"
       orientation="0,-14"
       id="guide4312" />
    <sodipodi:guide
       position="21,43"
       orientation="22,0"
       id="guide4250" />
    <sodipodi:guide
       position="21,21"
       orientation="0,22"
       id="guide4252" />
    <sodipodi:guide
       position="43,21"
       orientation="-22,0"
       id="guide4254" />
    <sodipodi:guide
       position="43,43"
       orientation="0,-22"
       id="guide4256" />
  </sodipodi:namedview>
  <defs
     id="defs4">
    <linearGradient
       inkscape:collect="always"
       xlink:href="#linearGradient4422-4"
       id="linearGradient4190-9"
       x1="375.57144"
       y1="543.79797"
       x2="375.57144"
       y2="517.79797"
       gradientUnits="userSpaceOnUse"
       gradientTransform="matrix(2.1937939,0,0,2.2303048,-398.02626,-639.90393)" />
    <linearGradient
       id="linearGradient4207"
       osb:paint="gradient">
      <stop
         style="stop-color:#3498db;stop-opacity:1;"
         offset="0"
         id="stop3371" />
      <stop
         style="stop-color:#3498db;stop-opacity:0;"
         offset="1"
         id="stop3373" />
    </linearGradient>
    <linearGradient
       id="linearGradient4422-4">
      <stop
         style="stop-color:#d1d7df;stop-opacity:1"
         offset="0"
         id="stop4424-3" />
      <stop
         style="stop-color:#e0e5e7;stop-opacity:1"
         offset="1"
         id="stop4426-4" />
    </linearGradient>
  </defs>
  <g
     transform="translate(-392.98822,-511.27795)"
     id="layer1"
     inkscape:label="Capa 1"
     inkscape:transform-center-x="5.4653607"
     inkscape:transform-center-y="-9.4924686">
    <g
       transform="translate(0.41988239,0.03484499)"
       inkscape:label="Capa 1"
       id="layer1-3">
      <rect
         style="opacity:0.997;fill:url(#linearGradient4190-9);fill-opacity:1.0;stroke:none;stroke-width:0.104;stroke-linecap:round;stroke-linejoin:round;stroke-miterlimit:4;stroke-dasharray:none;stroke-opacity:1"
         id="rect4182-2"
         width="46.069672"
         height="57.987926"
         x="401.76834"
         y="514.94318"
         ry="1.7192465" />
      <path
         style="opacity:0.56499999;fill:#000000;fill-opacity:1;fill-rule:evenodd;stroke:none;stroke-width:1px;stroke-linecap:butt;stroke-linejoin:miter;stroke-opacity:1"
         d="m 401.76839,563.18111 -4e-5,7.90428 c 0,0 -0.0224,1.83572 1.81022,1.83572 l 42.46177,0 c 0,0 1.93884,-0.0444 1.91466,-2.52819 l -0.0702,-7.21181 z"
         id="path4302"
         inkscape:connector-curvature="0"
         sodipodi:nodetypes="ccccccc" />
      <g
         style="font-style:normal;font-weight:normal;font-size:7.8266716px;line-height:125%;font-family:sans-serif;letter-spacing:0px;word-spacing:0px;fill:#ffffff;fill-opacity:1;stroke:none;stroke-width:1px;stroke-linecap:butt;stroke-linejoin:miter;stroke-opacity:1"
         id="text4304">
        <path
           d="m 407.46133,570.54687 0,-3.83506 0.68875,0 0,0.53221 0.0313,0 q 0.16436,-0.27393 0.50091,-0.46177 0.34437,-0.19567 0.68092,-0.19567 0.89224,0 1.21313,0.73571 0.4696,-0.73571 1.33836,-0.73571 0.68092,0 1.02529,0.43829 0.34438,0.43047 0.34438,1.174 l 0,2.348 -0.72006,0 0,-2.23842 q 0,-0.57918 -0.21132,-0.8218 -0.21132,-0.24263 -0.64178,-0.24263 -0.42264,0 -0.7044,0.36003 -0.27394,0.36002 -0.27394,0.8218 l 0,2.12102 -0.72005,0 0,-2.23842 q 0,-0.57918 -0.21132,-0.8218 -0.21132,-0.24263 -0.64179,-0.24263 -0.42264,0 -0.7044,0.36003 -0.27393,0.36002 -0.27393,0.8218 l 0,2.12102 -0.72006,0 z"
           style="font-style:normal;font-variant:normal;font-weight:normal;font-stretch:normal;font-family:'Product Sans';-inkscape-font-specification:'Product Sans';fill:#ffffff;fill-opacity:1"
           id="path4163" />
        <path
           d="m 415.29351,570.6721 q -0.61048,0 -1.0253,-0.3522 -0.40698,-0.3522 -0.40698,-0.93137 0,-0.62614 0.48525,-0.97834 0.48526,-0.36002 1.19748,-0.36002 0.63396,0 1.04095,0.2348 l 0,-0.10958 q 0,-0.42264 -0.28959,-0.67309 -0.28958,-0.25828 -0.71222,-0.25828 -0.31307,0 -0.57135,0.14871 -0.25045,0.1487 -0.34437,0.40698 l -0.65745,-0.28176 q 0.13306,-0.34437 0.52439,-0.63396 0.39134,-0.29741 1.03312,-0.29741 0.73571,0 1.22096,0.43047 0.48526,0.43046 0.48526,1.21313 l 0,2.31669 -0.68875,0 0,-0.53221 -0.0313,0 q -0.43046,0.65744 -1.26009,0.65744 z m 0.1174,-0.65744 q 0.44612,0 0.80615,-0.32872 0.36785,-0.33655 0.36785,-0.79049 -0.30524,-0.25046 -0.91572,-0.25046 -0.52439,0 -0.79049,0.22698 -0.26611,0.22697 -0.26611,0.53221 0,0.28176 0.24263,0.44612 0.24262,0.16436 0.55569,0.16436 z"
           style="font-style:normal;font-variant:normal;font-weight:normal;font-stretch:normal;font-family:'Product Sans';-inkscape-font-specification:'Product Sans';fill:#ffffff;fill-opacity:1"
           id="path4165" />
        <path
           d="m 418.80548,570.54687 -0.72005,0 0,-3.83506 0.68875,0 0,0.62613 0.0313,0 q 0.10958,-0.31307 0.44612,-0.51656 0.34438,-0.20349 0.66527,-0.20349 0.32089,0 0.54004,0.0939 l -0.27393,0.67309 q -0.14088,-0.0548 -0.38351,-0.0548 -0.39133,0 -0.69657,0.31307 -0.29742,0.30524 -0.29742,0.80615 l 0,2.09754 z"
           style="font-style:normal;font-variant:normal;font-weight:normal;font-stretch:normal;font-family:'Product Sans';-inkscape-font-specification:'Product Sans';fill:#ffffff;fill-opacity:1"
           id="path4167" />
        <path
           d="m 421.69463,564.94298 0,3.45156 1.65925,-1.68273 0.92355,0 0,0.0313 -1.4949,1.4949 1.56534,2.27756 0,0.0313 -0.86876,0 -1.20531,-1.80796 -0.57917,0.57918 0,1.22878 -0.72006,0 0,-5.60389 0.72006,0 z"
           style="font-style:normal;font-variant:normal;font-weight:normal;font-stretch:normal;font-family:'Product Sans';-inkscape-font-specification:'Product Sans';fill:#ffffff;fill-opacity:1"
           id="path4169" />
        <path
           d="m 426.2325,570.6721 q -0.74353,0 -1.28357,-0.587 -0.54004,-0.587 -0.54004,-1.45576 0,-0.86876 0.54004,-1.45576 0.54004,-0.587 1.28357,-0.587 0.4383,0 0.78267,0.18784 0.3522,0.18784 0.52439,0.4696 l 0.0313,0 -0.0313,-0.53221 0,-1.76883 0.72005,0 0,5.60389 -0.68874,0 0,-0.53221 -0.0313,0 q -0.17219,0.28176 -0.52439,0.4696 -0.34437,0.18784 -0.78267,0.18784 z m 0.1174,-0.65744 q 0.50874,0 0.86094,-0.37568 0.36003,-0.37568 0.36003,-1.00964 0,-0.63396 -0.36003,-1.00964 -0.3522,-0.37568 -0.86094,-0.37568 -0.5009,0 -0.86093,0.38351 -0.36003,0.37568 -0.36003,1.00181 0,0.62613 0.36003,1.00964 0.36003,0.37568 0.86093,0.37568 z"
           style="font-style:normal;font-variant:normal;font-weight:normal;font-stretch:normal;font-family:'Product Sans';-inkscape-font-specification:'Product Sans';fill:#ffffff;fill-opacity:1"
           id="path4171" />
        <path
           d="m 429.42823,567.17358 q 0.5557,-0.587 1.41663,-0.587 0.86093,0 1.41663,0.587 0.55569,0.57917 0.55569,1.45576 0,0.87659 -0.55569,1.46359 -0.5557,0.57917 -1.41663,0.57917 -0.86093,0 -1.41663,-0.57917 -0.55569,-0.587 -0.55569,-1.46359 0,-0.87659 0.55569,-1.45576 z m 0.53222,2.4654 q 0.37568,0.37568 0.88441,0.37568 0.50873,0 0.87659,-0.37568 0.37568,-0.38351 0.37568,-1.00964 0,-0.62613 -0.37568,-1.00181 -0.36786,-0.38351 -0.87659,-0.38351 -0.50873,0 -0.88441,0.38351 -0.36786,0.37568 -0.36786,1.00181 0,0.62613 0.36786,1.00964 z"
           style="font-style:normal;font-variant:normal;font-weight:normal;font-stretch:normal;font-family:'Product Sans';-inkscape-font-specification:'Product Sans';fill:#ffffff;fill-opacity:1"
           id="path4173" />
        <path
           d="m 437.59757,570.54687 -0.73571,0 -0.95486,-2.94282 -0.94702,2.94282 -0.72788,0 -1.23662,-3.83506 0.75136,0 0.85311,2.89586 0.008,0 0.94702,-2.89586 0.74354,0 0.94703,2.89586 0.008,0 0.84528,-2.89586 0.73571,0 -1.23661,3.83506 z"
           style="font-style:normal;font-variant:normal;font-weight:normal;font-stretch:normal;font-family:'Product Sans';-inkscape-font-specification:'Product Sans';fill:#ffffff;fill-opacity:1"
           id="path4175" />
        <path
           d="m 439.99179,566.71181 0,0.53221 0.0313,0 q 0.15653,-0.27393 0.49308,-0.46177 0.33655,-0.19567 0.72006,-0.19567 0.71222,0 1.0879,0.43829 0.37568,0.4383 0.37568,1.174 l 0,2.348 -0.72005,0 0,-2.23842 q 0,-1.06443 -0.94703,-1.06443 -0.44612,0 -0.72788,0.36003 -0.28176,0.3522 -0.28176,0.8218 l 0,2.12102 -0.72005,0 0,-3.83506 0.68874,0 z"
           style="font-style:normal;font-variant:normal;font-weight:normal;font-stretch:normal;font-family:'Product Sans';-inkscape-font-specification:'Product Sans';fill:#ffffff;fill-opacity:1"
           id="path4177" />
      </g>
      <g
         id="g4188"
         transform="matrix(0.16895189,0,0,0.16895189,407.30934,529.17926)"
         style="fill:#5c5e62;fill-opacity:1;stroke:#5c5e62;stroke-opacity:1">
        <rect
           id="rect4178"
           ry="10"
           y="5"
           x="5"
           height="118"
           width="198"
           style="fill:#5c5e62;fill-opacity:1;stroke:#5c5e62;stroke-width:10;stroke-opacity:1" />
        <path
           id="path4180"
           d="m 30,98 0,-68 20,0 20,25 20,-25 20,0 0,68 -20,0 0,-39 -20,25 -20,-25 0,39 z m 125,0 -30,-33 20,0 0,-35 20,0 0,35 20,0 z"
           inkscape:connector-curvature="0"
           style="fill:#dadfe4;fill-opacity:1;stroke:#5c5e62;stroke-opacity:1" />
      </g>
    </g>
  </g>
</svg>
