<?xml version="1.0" encoding="UTF-8" standalone="no"?>
<svg
   xmlns:osb="http://www.openswatchbook.org/uri/2009/osb"
   xmlns:dc="http://purl.org/dc/elements/1.1/"
   xmlns:cc="http://creativecommons.org/ns#"
   xmlns:rdf="http://www.w3.org/1999/02/22-rdf-syntax-ns#"
   xmlns:svg="http://www.w3.org/2000/svg"
   xmlns="http://www.w3.org/2000/svg"
   xmlns:xlink="http://www.w3.org/1999/xlink"
   xmlns:sodipodi="http://sodipodi.sourceforge.net/DTD/sodipodi-0.dtd"
   xmlns:inkscape="http://www.inkscape.org/namespaces/inkscape"
   viewBox="0 0 64 64"
   id="svg2"
   version="1.1"
   inkscape:version="0.91 r13725"
   sodipodi:docname="text-css.svg"
   width="64"
   height="64">
  <metadata
     id="metadata84">
    <rdf:RDF>
      <cc:Work
         rdf:about="">
        <dc:format>image/svg+xml</dc:format>
        <dc:type
           rdf:resource="http://purl.org/dc/dcmitype/StillImage" />
        <dc:title />
      </cc:Work>
    </rdf:RDF>
  </metadata>
  <sodipodi:namedview
     pagecolor="#777777"
     bordercolor="#666666"
     borderopacity="1"
     objecttolerance="10"
     gridtolerance="10"
     guidetolerance="10"
     inkscape:pageopacity="0"
     inkscape:pageshadow="2"
     inkscape:window-width="1366"
     inkscape:window-height="642"
     id="namedview82"
     showgrid="false"
     inkscape:showpageshadow="false"
     inkscape:zoom="7.4642639"
     inkscape:cx="28.325068"
     inkscape:cy="29.444476"
     inkscape:window-x="0"
     inkscape:window-y="33"
     inkscape:window-maximized="1"
     inkscape:current-layer="layer1-3"
     showguides="false"
     inkscape:snap-bbox="true"
     inkscape:snap-bbox-edge-midpoints="false"
     inkscape:bbox-nodes="true"
     inkscape:guide-bbox="true">
    <inkscape:grid
       type="xygrid"
       id="grid3413" />
    <sodipodi:guide
       position="0,64"
       orientation="64,0"
       id="guide3482" />
    <sodipodi:guide
       position="0,0"
       orientation="0,64"
       id="guide3484" />
    <sodipodi:guide
       position="64,0"
       orientation="-64,0"
       id="guide3486" />
    <sodipodi:guide
       position="10,61"
       orientation="58,0"
       id="guide3492" />
    <sodipodi:guide
       position="10,3"
       orientation="0,44"
       id="guide3494" />
    <sodipodi:guide
       position="54,3"
       orientation="-58,0"
       id="guide3496" />
    <sodipodi:guide
       position="54,61"
       orientation="0,-44"
       id="guide3498" />
    <sodipodi:guide
       position="54,47"
       orientation="-14,0"
       id="guide4310" />
    <sodipodi:guide
       position="54,61"
       orientation="0,-14"
       id="guide4312" />
    <sodipodi:guide
       position="21,43"
       orientation="22,0"
       id="guide4250" />
    <sodipodi:guide
       position="21,21"
       orientation="0,22"
       id="guide4252" />
    <sodipodi:guide
       position="43,21"
       orientation="-22,0"
       id="guide4254" />
    <sodipodi:guide
       position="43,43"
       orientation="0,-22"
       id="guide4256" />
    <sodipodi:guide
       position="25.052705,61"
       orientation="0,1"
       id="guide6551" />
  </sodipodi:namedview>
  <defs
     id="defs4">
    <linearGradient
       inkscape:collect="always"
       xlink:href="#linearGradient4422"
       id="linearGradient4190-9"
       x1="375.57144"
       y1="543.79797"
       x2="375.57144"
       y2="517.79797"
       gradientUnits="userSpaceOnUse"
       gradientTransform="matrix(2.1937939,0,0,2.2303048,-398.02626,-639.90393)" />
    <linearGradient
       id="linearGradient4422">
      <stop
         id="stop4424"
         offset="0"
         style="stop-color:#eb9e27;stop-opacity:1" />
      <stop
         id="stop4426"
         offset="1"
         style="stop-color:#f5a931;stop-opacity:1" />
    </linearGradient>
    <linearGradient
       id="linearGradient4207"
       osb:paint="gradient">
      <stop
         style="stop-color:#3498db;stop-opacity:1;"
         offset="0"
         id="stop3371" />
      <stop
         style="stop-color:#3498db;stop-opacity:0;"
         offset="1"
         id="stop3373" />
    </linearGradient>
  </defs>
  <g
     transform="translate(-392.98822,-511.27795)"
     id="layer1"
     inkscape:label="Capa 1"
     inkscape:transform-center-x="5.4653607"
     inkscape:transform-center-y="-9.4924686">
    <g
       transform="translate(0.41988239,0.03484499)"
       inkscape:label="Capa 1"
       id="layer1-3">
      <rect
         style="opacity:0.997;fill:url(#linearGradient4190-9);fill-opacity:1.0;stroke:none;stroke-width:0.104;stroke-linecap:round;stroke-linejoin:round;stroke-miterlimit:4;stroke-dasharray:none;stroke-opacity:1"
         id="rect4182-2"
         width="46.069672"
         height="57.987926"
         x="401.76834"
         y="514.94318"
         ry="1.7192465" />
      <path
         style="opacity:0.56499999;fill:#000000;fill-opacity:1;fill-rule:evenodd;stroke:none;stroke-width:1px;stroke-linecap:butt;stroke-linejoin:miter;stroke-opacity:1"
         d="m 401.76839,563.18111 -4e-5,7.90428 c 0,0 -0.0224,1.83572 1.81022,1.83572 l 42.46177,0 c 0,0 1.93884,-0.0444 1.91466,-2.52819 l -0.0702,-7.21181 z"
         id="path4302"
         inkscape:connector-curvature="0"
         sodipodi:nodetypes="ccccccc" />
      <g
         style="font-style:normal;font-weight:normal;font-size:7.8266716px;line-height:125%;font-family:sans-serif;letter-spacing:0px;word-spacing:0px;fill:#ffffff;fill-opacity:1;stroke:none;stroke-width:1px;stroke-linecap:butt;stroke-linejoin:miter;stroke-opacity:1"
         id="text4304">
        <path
           d="m 421.11466,570.2725 q -0.86094,0 -1.41663,-0.57917 -0.5557,-0.587 -0.5557,-1.46359 0,-0.87658 0.5557,-1.45576 0.55569,-0.587 1.41663,-0.587 0.64178,0 1.06442,0.31307 0.42264,0.31307 0.61831,0.79049 l -0.65744,0.27394 q -0.29741,-0.72006 -1.07225,-0.72006 -0.47743,0 -0.84529,0.39134 -0.36002,0.39133 -0.36002,0.99398 0,0.60266 0.36002,0.99399 0.36786,0.39133 0.84529,0.39133 0.80614,0 1.11138,-0.72005 l 0.64179,0.27393 q -0.19567,0.4696 -0.63396,0.7905 -0.43047,0.31306 -1.07225,0.31306 z"
           style="font-style:normal;font-variant:normal;font-weight:normal;font-stretch:normal;font-family:'Product Sans';-inkscape-font-specification:'Product Sans';fill:#ffffff;fill-opacity:1"
           id="path4168" />
        <path
           d="m 424.86742,570.2725 q -0.64178,0 -1.06443,-0.31306 -0.41481,-0.31307 -0.61048,-0.78267 l 0.64179,-0.26611 q 0.30524,0.72006 1.04095,0.72006 0.33655,0 0.54787,-0.14871 0.21914,-0.14871 0.21914,-0.39133 0,-0.37568 -0.52438,-0.50874 l -0.77484,-0.18784 q -0.36786,-0.0939 -0.69658,-0.3522 -0.32872,-0.2661 -0.32872,-0.71222 0,-0.50874 0.44612,-0.8218 0.45395,-0.3209 1.07226,-0.3209 0.50873,0 0.90789,0.2348 0.39916,0.22698 0.57135,0.65744 l -0.62614,0.25828 q -0.21132,-0.50873 -0.87658,-0.50873 -0.3209,0 -0.54004,0.13305 -0.21915,0.13306 -0.21915,0.36003 0,0.32872 0.50873,0.44612 l 0.75919,0.18001 q 0.54004,0.12523 0.79832,0.43047 0.25828,0.30524 0.25828,0.68875 0,0.51656 -0.42264,0.86093 -0.42264,0.34437 -1.08791,0.34437 z"
           style="font-style:normal;font-variant:normal;font-weight:normal;font-stretch:normal;font-family:'Product Sans';-inkscape-font-specification:'Product Sans';fill:#ffffff;fill-opacity:1"
           id="path4170" />
        <path
           d="m 428.42917,570.2725 q -0.64179,0 -1.06443,-0.31306 -0.41481,-0.31307 -0.61048,-0.78267 l 0.64179,-0.26611 q 0.30524,0.72006 1.04095,0.72006 0.33654,0 0.54786,-0.14871 0.21915,-0.14871 0.21915,-0.39133 0,-0.37568 -0.52439,-0.50874 l -0.77484,-0.18784 q -0.36785,-0.0939 -0.69657,-0.3522 -0.32872,-0.2661 -0.32872,-0.71222 0,-0.50874 0.44612,-0.8218 0.45395,-0.3209 1.07225,-0.3209 0.50874,0 0.9079,0.2348 0.39916,0.22698 0.57134,0.65744 l -0.62613,0.25828 q -0.21132,-0.50873 -0.87659,-0.50873 -0.32089,0 -0.54004,0.13305 -0.21914,0.13306 -0.21914,0.36003 0,0.32872 0.50873,0.44612 l 0.75919,0.18001 q 0.54004,0.12523 0.79832,0.43047 0.25828,0.30524 0.25828,0.68875 0,0.51656 -0.42264,0.86093 -0.42264,0.34437 -1.08791,0.34437 z"
           style="font-style:normal;font-variant:normal;font-weight:normal;font-stretch:normal;font-family:'Product Sans';-inkscape-font-specification:'Product Sans';fill:#ffffff;fill-opacity:1"
           id="path4172" />
      </g>
      <g
         style="font-style:normal;font-weight:normal;font-size:24.0174427px;line-height:125%;font-family:sans-serif;letter-spacing:0px;word-spacing:0px;fill:#5a3d0f;fill-opacity:1;stroke:none;stroke-width:1px;stroke-linecap:butt;stroke-linejoin:miter;stroke-opacity:1"
         id="text55110">
        <path
           d="m 420.71951,551.24312 q -1.84934,0 -2.93013,-1.08079 -1.05676,-1.08078 -1.05676,-2.88209 l 0,-4.10698 q 0,-0.98472 -0.50437,-1.48909 -0.50437,-0.52838 -1.27293,-0.52838 l 0,-1.82533 q 0.76856,0 1.27293,-0.50436 0.50437,-0.52839 0.50437,-1.5131 l 0,-4.10698 q 0,-1.80131 1.05676,-2.8821 1.08079,-1.08078 2.93013,-1.08078 l 0.52838,0 0,1.82532 -0.52838,0 q -0.84061,0 -1.41703,0.60044 -0.5524,0.60044 -0.5524,1.60917 l 0,4.10698 q 0,2.18559 -1.6572,2.81004 l 0,0.0961 q 1.6572,0.57642 1.6572,2.81004 l 0,4.10699 q 0,1.00873 0.5524,1.60916 0.57642,0.60044 1.41703,0.60044 l 0.52838,0 0,1.82533 -0.52838,0 z"
           style="font-style:normal;font-variant:normal;font-weight:normal;font-stretch:normal;font-family:'Product Sans';-inkscape-font-specification:'Product Sans';fill:#5a3d0f;fill-opacity:1"
           id="path4163" />
        <path
           d="m 428.62275,551.24312 -0.52838,0 0,-1.82533 0.52838,0 q 0.84061,0 1.39301,-0.60044 0.57642,-0.60043 0.57642,-1.60916 l 0,-4.10699 q 0,-2.23362 1.65721,-2.81004 l 0,-0.0961 q -1.65721,-0.62445 -1.65721,-2.81004 l 0,-4.10698 q 0,-1.00873 -0.57642,-1.60917 -0.5524,-0.60044 -1.39301,-0.60044 l -0.52838,0 0,-1.82532 0.52838,0 q 1.84934,0 2.90611,1.08078 1.08079,1.08079 1.08079,2.8821 l 0,4.10698 q 0,0.98471 0.50436,1.5131 0.50437,0.50436 1.27293,0.50436 l 0,1.82533 q -0.76856,0 -1.27293,0.52838 -0.50436,0.50437 -0.50436,1.48909 l 0,4.10698 q 0,1.80131 -1.08079,2.88209 -1.05677,1.08079 -2.90611,1.08079 z"
           style="font-style:normal;font-variant:normal;font-weight:normal;font-stretch:normal;font-family:'Product Sans';-inkscape-font-specification:'Product Sans';fill:#5a3d0f;fill-opacity:1"
           id="path4165" />
      </g>
    </g>
  </g>
</svg>
