<?xml version="1.0" encoding="UTF-8" standalone="no"?>
<svg
   xmlns:osb="http://www.openswatchbook.org/uri/2009/osb"
   xmlns:dc="http://purl.org/dc/elements/1.1/"
   xmlns:cc="http://creativecommons.org/ns#"
   xmlns:rdf="http://www.w3.org/1999/02/22-rdf-syntax-ns#"
   xmlns:svg="http://www.w3.org/2000/svg"
   xmlns="http://www.w3.org/2000/svg"
   xmlns:xlink="http://www.w3.org/1999/xlink"
   xmlns:sodipodi="http://sodipodi.sourceforge.net/DTD/sodipodi-0.dtd"
   xmlns:inkscape="http://www.inkscape.org/namespaces/inkscape"
   viewBox="0 0 64 64"
   id="svg2"
   version="1.1"
   inkscape:version="0.91 r13725"
   sodipodi:docname="text-x-tex.svg"
   width="64"
   height="64">
  <metadata
     id="metadata84">
    <rdf:RDF>
      <cc:Work
         rdf:about="">
        <dc:format>image/svg+xml</dc:format>
        <dc:type
           rdf:resource="http://purl.org/dc/dcmitype/StillImage" />
        <dc:title />
      </cc:Work>
    </rdf:RDF>
  </metadata>
  <sodipodi:namedview
     pagecolor="#a7a7a7"
     bordercolor="#666666"
     borderopacity="1"
     objecttolerance="10"
     gridtolerance="10"
     guidetolerance="10"
     inkscape:pageopacity="0"
     inkscape:pageshadow="2"
     inkscape:window-width="1366"
     inkscape:window-height="642"
     id="namedview82"
     showgrid="false"
     inkscape:showpageshadow="false"
     inkscape:zoom="7.5211951"
     inkscape:cx="-25.300105"
     inkscape:cy="34.912017"
     inkscape:window-x="0"
     inkscape:window-y="33"
     inkscape:window-maximized="1"
     inkscape:current-layer="svg2"
     showguides="false"
     inkscape:snap-bbox="true"
     inkscape:snap-bbox-edge-midpoints="false"
     inkscape:bbox-nodes="true">
    <inkscape:grid
       type="xygrid"
       id="grid3413" />
    <sodipodi:guide
       position="0,64"
       orientation="64,0"
       id="guide3482" />
    <sodipodi:guide
       position="0,0"
       orientation="0,64"
       id="guide3484" />
    <sodipodi:guide
       position="64,0"
       orientation="-64,0"
       id="guide3486" />
    <sodipodi:guide
       position="10,61"
       orientation="58,0"
       id="guide3492" />
    <sodipodi:guide
       position="10,3"
       orientation="0,44"
       id="guide3494" />
    <sodipodi:guide
       position="54,3"
       orientation="-58,0"
       id="guide3496" />
    <sodipodi:guide
       position="54,61"
       orientation="0,-44"
       id="guide3498" />
    <sodipodi:guide
       position="54,47"
       orientation="-14,0"
       id="guide4310" />
    <sodipodi:guide
       position="54,61"
       orientation="0,-14"
       id="guide4312" />
    <sodipodi:guide
       position="21,43"
       orientation="22,0"
       id="guide4250" />
    <sodipodi:guide
       position="21,21"
       orientation="0,22"
       id="guide4252" />
    <sodipodi:guide
       position="43,21"
       orientation="-22,0"
       id="guide4254" />
    <sodipodi:guide
       position="43,43"
       orientation="0,-22"
       id="guide4256" />
  </sodipodi:namedview>
  <defs
     id="defs4">
    <linearGradient
       inkscape:collect="always"
       xlink:href="#linearGradient4422"
       id="linearGradient4190-9"
       x1="375.57144"
       y1="543.79797"
       x2="375.57144"
       y2="517.79797"
       gradientUnits="userSpaceOnUse"
       gradientTransform="matrix(2.1937939,0,0,2.2303048,-398.02626,-639.90393)" />
    <linearGradient
       id="linearGradient4422">
      <stop
         id="stop4424"
         offset="0"
         style="stop-color:#a455c7;stop-opacity:1" />
      <stop
         id="stop4426"
         offset="1"
         style="stop-color:#bc6add;stop-opacity:1" />
    </linearGradient>
    <linearGradient
       id="linearGradient4207"
       osb:paint="gradient">
      <stop
         style="stop-color:#3498db;stop-opacity:1;"
         offset="0"
         id="stop3371" />
      <stop
         style="stop-color:#3498db;stop-opacity:0;"
         offset="1"
         id="stop3373" />
    </linearGradient>
  </defs>
  <g
     transform="translate(-392.98822,-511.27795)"
     id="layer1"
     inkscape:label="Capa 1"
     inkscape:transform-center-x="5.4653607"
     inkscape:transform-center-y="-9.4924686">
    <g
       transform="translate(0.41988239,0.03484499)"
       inkscape:label="Capa 1"
       id="layer1-3">
      <rect
         style="opacity:0.997;fill:url(#linearGradient4190-9);fill-opacity:1.0;stroke:none;stroke-width:0.104;stroke-linecap:round;stroke-linejoin:round;stroke-miterlimit:4;stroke-dasharray:none;stroke-opacity:1"
         id="rect4182-2"
         width="46.069672"
         height="57.987926"
         x="401.76834"
         y="514.94318"
         ry="1.7192465" />
      <path
         style="opacity:0.56499999;fill:#000000;fill-opacity:1;fill-rule:evenodd;stroke:none;stroke-width:1px;stroke-linecap:butt;stroke-linejoin:miter;stroke-opacity:1"
         d="m 401.76839,563.18111 -4e-5,7.90428 c 0,0 -0.0224,1.83572 1.81022,1.83572 l 42.46177,0 c 0,0 1.93884,-0.0444 1.91466,-2.52819 l -0.0702,-7.21181 z"
         id="path4302"
         inkscape:connector-curvature="0"
         sodipodi:nodetypes="ccccccc" />
      <g
         style="font-style:normal;font-weight:normal;font-size:7.8266716px;line-height:125%;font-family:sans-serif;letter-spacing:0px;word-spacing:0px;fill:#ffffff;fill-opacity:1;stroke:none;stroke-width:1px;stroke-linecap:butt;stroke-linejoin:miter;stroke-opacity:1"
         id="text4304">
        <path
           d="m 414.78846,570.77208 q -0.43829,0 -0.79049,-0.18784 -0.34438,-0.18784 -0.51656,-0.4696 l -0.0313,0 0,0.53221 -0.68875,0 0,-5.6039 0.72006,0 0,1.76883 -0.0313,0.53222 0.0313,0 q 0.17218,-0.28177 0.51656,-0.46961 0.3522,-0.18784 0.79049,-0.18784 0.74353,0 1.28357,0.58701 0.54005,0.587 0.54005,1.45576 0,0.86876 -0.54005,1.45576 -0.54004,0.587 -1.28357,0.587 z m -0.1174,-0.65744 q 0.50091,0 0.86093,-0.37568 0.36003,-0.38351 0.36003,-1.00964 0,-0.62614 -0.36003,-1.00182 -0.36002,-0.3835 -0.86093,-0.3835 -0.50873,0 -0.86876,0.37568 -0.3522,0.37568 -0.3522,1.00964 0,0.63396 0.3522,1.00964 0.36003,0.37568 0.86876,0.37568 z"
           style="font-style:normal;font-variant:normal;font-weight:normal;font-stretch:normal;font-family:'Product Sans';-inkscape-font-specification:'Product Sans';fill:#ffffff;fill-opacity:1"
           id="path4162" />
        <path
           d="m 418.00767,565.8491 q -0.14871,0.14871 -0.36003,0.14871 -0.21132,0 -0.36003,-0.14871 -0.1487,-0.14871 -0.1487,-0.36003 0,-0.21132 0.1487,-0.36002 0.14871,-0.14871 0.36003,-0.14871 0.21132,0 0.36003,0.14871 0.14871,0.1487 0.14871,0.36002 0,0.21132 -0.14871,0.36003 z m 0,4.79775 -0.72006,0 0,-3.83507 0.72006,0 0,3.83507 z"
           style="font-style:normal;font-variant:normal;font-weight:normal;font-stretch:normal;font-family:'Product Sans';-inkscape-font-specification:'Product Sans';fill:#ffffff;fill-opacity:1"
           id="path4164" />
        <path
           d="m 420.97948,570.77208 q -0.43829,0 -0.79049,-0.18784 -0.34438,-0.18784 -0.51656,-0.4696 l -0.0313,0 0,0.53221 -0.68875,0 0,-5.6039 0.72006,0 0,1.76883 -0.0313,0.53222 0.0313,0 q 0.17218,-0.28177 0.51656,-0.46961 0.3522,-0.18784 0.79049,-0.18784 0.74353,0 1.28357,0.58701 0.54004,0.587 0.54004,1.45576 0,0.86876 -0.54004,1.45576 -0.54004,0.587 -1.28357,0.587 z m -0.1174,-0.65744 q 0.50091,0 0.86093,-0.37568 0.36003,-0.38351 0.36003,-1.00964 0,-0.62614 -0.36003,-1.00182 -0.36002,-0.3835 -0.86093,-0.3835 -0.50873,0 -0.86876,0.37568 -0.3522,0.37568 -0.3522,1.00964 0,0.63396 0.3522,1.00964 0.36003,0.37568 0.86876,0.37568 z"
           style="font-style:normal;font-variant:normal;font-weight:normal;font-stretch:normal;font-family:'Product Sans';-inkscape-font-specification:'Product Sans';fill:#ffffff;fill-opacity:1"
           id="path4166" />
        <path
           d="m 424.99884,570.70946 q -0.60265,0 -0.92354,-0.32089 -0.31307,-0.32089 -0.31307,-0.90789 l 0,-2.01146 -0.6731,0 0,-0.65744 0.6731,0 0,-1.174 0.72005,0 0,1.174 0.9392,0 0,0.65744 -0.9392,0 0,1.95667 q 0,0.62613 0.51656,0.62613 0.19567,0 0.32872,-0.0626 l 0.25046,0.61831 q -0.2348,0.10174 -0.57918,0.10174 z"
           style="font-style:normal;font-variant:normal;font-weight:normal;font-stretch:normal;font-family:'Product Sans';-inkscape-font-specification:'Product Sans';fill:#ffffff;fill-opacity:1"
           id="path4168" />
        <path
           d="m 427.7981,570.77208 q -0.86876,0 -1.41663,-0.57918 -0.54004,-0.57917 -0.54004,-1.46358 0,-0.83746 0.52439,-1.44011 0.53221,-0.60266 1.35401,-0.60266 0.85311,0 1.36184,0.5557 0.51657,0.55569 0.51657,1.48707 l -0.008,0.13305 -3.02892,0 q 0.0313,0.57917 0.3835,0.91572 0.36003,0.33655 0.83746,0.33655 0.77484,0 1.04877,-0.65744 l 0.64179,0.2661 q -0.18784,0.44612 -0.61831,0.75136 -0.43047,0.29742 -1.0566,0.29742 z m 1.03312,-2.50454 q -0.0235,-0.32872 -0.30524,-0.62613 -0.27393,-0.29741 -0.8218,-0.29741 -0.39916,0 -0.69657,0.25045 -0.28959,0.25045 -0.39916,0.67309 l 2.22277,0 z"
           style="font-style:normal;font-variant:normal;font-weight:normal;font-stretch:normal;font-family:'Product Sans';-inkscape-font-specification:'Product Sans';fill:#ffffff;fill-opacity:1"
           id="path4170" />
        <path
           d="m 433.36592,570.64685 -0.84528,0 -0.94703,-1.41663 -0.93137,1.41663 -0.84528,0 1.35401,-1.94884 -1.3227,-1.88623 0.81397,0 0.94703,1.35402 0.90006,-1.35402 0.84529,0 -1.33837,1.88623 1.36967,1.94884 z"
           style="font-style:normal;font-variant:normal;font-weight:normal;font-stretch:normal;font-family:'Product Sans';-inkscape-font-specification:'Product Sans';fill:#ffffff;fill-opacity:1"
           id="path4172" />
        <path
           d="m 435.53122,570.70946 q -0.60265,0 -0.92355,-0.32089 -0.31306,-0.32089 -0.31306,-0.90789 l 0,-2.01146 -0.6731,0 0,-0.65744 0.6731,0 0,-1.174 0.72005,0 0,1.174 0.9392,0 0,0.65744 -0.9392,0 0,1.95667 q 0,0.62613 0.51656,0.62613 0.19567,0 0.32872,-0.0626 l 0.25045,0.61831 q -0.2348,0.10174 -0.57917,0.10174 z"
           style="font-style:normal;font-variant:normal;font-weight:normal;font-stretch:normal;font-family:'Product Sans';-inkscape-font-specification:'Product Sans';fill:#ffffff;fill-opacity:1"
           id="path4174" />
      </g>
      <g
         id="g7381"
         transform="translate(342.35315,511.99807)">
        <path
           id="rect4274"
           d="m 69.679821,15.282824 0,1.150299 0,1.1503 0,1.1503 25.306598,0 0,-1.1503 0,-1.1503 0,-1.150299 -25.306598,0 z m 9.741603,5.751499 0.03595,1.006512 6.901799,9.346187 -7.476949,9.202399 0,1.1503 16.104198,0 0,-5.751499 -1.1503,0 c 0,1.150299 0.298287,1.863522 -0.68299,2.552227 -1.075795,0.755023 -2.492547,0.898672 -3.738475,0.898672 l -5.931234,0 5.7515,-8.052099 -5.7515,-9.202399 3.379006,0 c 2.397333,0 5.809423,-0.221334 6.758012,2.660068 0.162158,0.492548 0.174857,1.423955 0.215681,1.941131 l 1.1503,0 0,-5.751499 -15.564995,0 z m -9.741603,1.1503 0,1.1503 8.0521,0 0,-1.1503 -8.0521,0 z m 0,3.4509 0,1.150299 10.352699,0 0,-1.150299 -10.352699,0 z m 0,3.450899 0,1.1503 12.653299,0 0,-1.1503 -12.653299,0 z m 0,3.4509 0,1.1503 12.653299,0 0,-1.1503 -12.653299,0 z m 0,3.4509 0,1.150299 10.352699,0 0,-1.150299 -10.352699,0 z m 0,3.450899 0,1.1503 6.9018,0 0,-1.1503 -6.9018,0 z"
           style="opacity:1;fill:#482657;fill-opacity:1;stroke:none"
           inkscape:connector-curvature="0" />
      </g>
    </g>
  </g>
</svg>
