<?xml version="1.0" encoding="UTF-8" standalone="no"?>
<svg
   xmlns:sketch="http://www.bohemiancoding.com/sketch/ns"
   xmlns:osb="http://www.openswatchbook.org/uri/2009/osb"
   xmlns:dc="http://purl.org/dc/elements/1.1/"
   xmlns:cc="http://creativecommons.org/ns#"
   xmlns:rdf="http://www.w3.org/1999/02/22-rdf-syntax-ns#"
   xmlns:svg="http://www.w3.org/2000/svg"
   xmlns="http://www.w3.org/2000/svg"
   xmlns:xlink="http://www.w3.org/1999/xlink"
   xmlns:sodipodi="http://sodipodi.sourceforge.net/DTD/sodipodi-0.dtd"
   xmlns:inkscape="http://www.inkscape.org/namespaces/inkscape"
   viewBox="0 0 64 64"
   id="svg2"
   version="1.1"
   inkscape:version="0.91 r13725"
   sodipodi:docname="x-media-podcast.svg"
   width="64"
   height="64">
  <metadata
     id="metadata84">
    <rdf:RDF>
      <cc:Work
         rdf:about="">
        <dc:format>image/svg+xml</dc:format>
        <dc:type
           rdf:resource="http://purl.org/dc/dcmitype/StillImage" />
        <dc:title />
      </cc:Work>
    </rdf:RDF>
  </metadata>
  <sodipodi:namedview
     pagecolor="#515151"
     bordercolor="#666666"
     borderopacity="1"
     objecttolerance="10"
     gridtolerance="10"
     guidetolerance="10"
     inkscape:pageopacity="0"
     inkscape:pageshadow="2"
     inkscape:window-width="1366"
     inkscape:window-height="642"
     id="namedview82"
     showgrid="false"
     inkscape:showpageshadow="false"
     inkscape:zoom="7.4642639"
     inkscape:cx="31.283121"
     inkscape:cy="23.88465"
     inkscape:window-x="0"
     inkscape:window-y="33"
     inkscape:window-maximized="1"
     inkscape:current-layer="svg2"
     showguides="false"
     inkscape:snap-bbox="true"
     inkscape:snap-bbox-edge-midpoints="false"
     inkscape:bbox-nodes="true">
    <inkscape:grid
       type="xygrid"
       id="grid3413" />
    <sodipodi:guide
       position="0,64"
       orientation="64,0"
       id="guide3482" />
    <sodipodi:guide
       position="0,0"
       orientation="0,64"
       id="guide3484" />
    <sodipodi:guide
       position="64,0"
       orientation="-64,0"
       id="guide3486" />
    <sodipodi:guide
       position="10,61"
       orientation="58,0"
       id="guide3492" />
    <sodipodi:guide
       position="10,3"
       orientation="0,44"
       id="guide3494" />
    <sodipodi:guide
       position="54,3"
       orientation="-58,0"
       id="guide3496" />
    <sodipodi:guide
       position="54,61"
       orientation="0,-44"
       id="guide3498" />
    <sodipodi:guide
       position="54,47"
       orientation="-14,0"
       id="guide4310" />
    <sodipodi:guide
       position="54,61"
       orientation="0,-14"
       id="guide4312" />
    <sodipodi:guide
       position="21,43"
       orientation="22,0"
       id="guide4250" />
    <sodipodi:guide
       position="21,21"
       orientation="0,22"
       id="guide4252" />
    <sodipodi:guide
       position="43,21"
       orientation="-22,0"
       id="guide4254" />
    <sodipodi:guide
       position="43,43"
       orientation="0,-22"
       id="guide4256" />
  </sodipodi:namedview>
  <defs
     id="defs4">
    <linearGradient
       id="linearGradient4531"
       inkscape:collect="always">
      <stop
         id="stop4533"
         offset="0"
         style="stop-color:#ac5dd3;stop-opacity:1" />
      <stop
         id="stop4535"
         offset="1"
         style="stop-color:#c972eb;stop-opacity:1" />
    </linearGradient>
    <linearGradient
       inkscape:collect="always"
       xlink:href="#linearGradient4531"
       id="linearGradient4190-9"
       x1="375.57144"
       y1="543.79797"
       x2="375.57144"
       y2="517.79797"
       gradientUnits="userSpaceOnUse"
       gradientTransform="matrix(2.1937939,0,0,2.2303048,-398.02626,-639.90393)" />
    <linearGradient
       osb:paint="gradient"
       id="linearGradient4207">
      <stop
         id="stop3371"
         offset="0"
         style="stop-color:#3498db;stop-opacity:1;" />
      <stop
         id="stop3373"
         offset="1"
         style="stop-color:#3498db;stop-opacity:0;" />
    </linearGradient>
  </defs>
  <g
     transform="translate(-392.98822,-511.27795)"
     id="layer1"
     inkscape:label="Capa 1"
     inkscape:transform-center-x="5.4653607"
     inkscape:transform-center-y="-9.4924686">
    <g
       transform="translate(0.41988239,0.03484499)"
       inkscape:label="Capa 1"
       id="layer1-3">
      <rect
         style="opacity:0.997;fill:url(#linearGradient4190-9);fill-opacity:1.0;stroke:none;stroke-width:0.104;stroke-linecap:round;stroke-linejoin:round;stroke-miterlimit:4;stroke-dasharray:none;stroke-opacity:1"
         id="rect4182-2"
         width="46.069672"
         height="57.987926"
         x="401.76834"
         y="514.94318"
         ry="1.7192465" />
      <path
         style="opacity:0.56499999;fill:#000000;fill-opacity:1;fill-rule:evenodd;stroke:none;stroke-width:1px;stroke-linecap:butt;stroke-linejoin:miter;stroke-opacity:1"
         d="m 401.76839,563.18111 -4e-5,7.90428 c 0,0 -0.0224,1.83572 1.81022,1.83572 l 42.46177,0 c 0,0 1.93884,-0.0444 1.91466,-2.52819 l -0.0702,-7.21181 z"
         id="path4302"
         inkscape:connector-curvature="0"
         sodipodi:nodetypes="ccccccc" />
      <g
         style="font-style:normal;font-weight:normal;font-size:7.8266716px;line-height:125%;font-family:sans-serif;letter-spacing:0px;word-spacing:0px;fill:#ffffff;fill-opacity:1;stroke:none;stroke-width:1px;stroke-linecap:butt;stroke-linejoin:miter;stroke-opacity:1"
         id="text4304">
        <path
           d="m 413.25746,570.27275 q -0.43829,0 -0.79049,-0.18784 -0.34438,-0.18784 -0.51657,-0.4696 l -0.0313,0 0.0313,0.53221 0,1.69056 -0.72005,0 0,-5.52563 0.68875,0 0,0.53222 0.0313,0 q 0.17219,-0.28176 0.51657,-0.4696 0.3522,-0.18784 0.79049,-0.18784 0.74353,0 1.28357,0.587 0.54004,0.587 0.54004,1.45576 0,0.86876 -0.54004,1.45576 -0.54004,0.587 -1.28357,0.587 z m -0.1174,-0.65744 q 0.50091,0 0.86093,-0.37568 0.36003,-0.38351 0.36003,-1.00964 0,-0.62614 -0.36003,-1.00182 -0.36002,-0.3835 -0.86093,-0.3835 -0.50873,0 -0.86876,0.37568 -0.3522,0.37568 -0.3522,1.00964 0,0.63396 0.3522,1.00964 0.36003,0.37568 0.86876,0.37568 z"
           style="font-style:normal;font-variant:normal;font-weight:normal;font-stretch:normal;font-family:'Product Sans';-inkscape-font-specification:'Product Sans';fill:#ffffff;fill-opacity:1"
           id="path4165" />
        <path
           d="m 416.07714,566.77423 q 0.55569,-0.587 1.41663,-0.587 0.86093,0 1.41663,0.587 0.55569,0.57917 0.55569,1.45576 0,0.87658 -0.55569,1.46359 -0.5557,0.57917 -1.41663,0.57917 -0.86094,0 -1.41663,-0.57917 -0.55569,-0.58701 -0.55569,-1.46359 0,-0.87659 0.55569,-1.45576 z m 0.53221,2.4654 q 0.37568,0.37568 0.88442,0.37568 0.50873,0 0.87658,-0.37568 0.37569,-0.38351 0.37569,-1.00964 0,-0.62614 -0.37569,-1.00182 -0.36785,-0.3835 -0.87658,-0.3835 -0.50874,0 -0.88442,0.3835 -0.36785,0.37568 -0.36785,1.00182 0,0.62613 0.36785,1.00964 z"
           style="font-style:normal;font-variant:normal;font-weight:normal;font-stretch:normal;font-family:'Product Sans';-inkscape-font-specification:'Product Sans';fill:#ffffff;fill-opacity:1"
           id="path4167" />
        <path
           d="m 421.73228,570.27275 q -0.74354,0 -1.28358,-0.587 -0.54004,-0.587 -0.54004,-1.45576 0,-0.86876 0.54004,-1.45576 0.54004,-0.587 1.28358,-0.587 0.43829,0 0.78266,0.18784 0.3522,0.18784 0.52439,0.4696 l 0.0313,0 -0.0313,-0.53222 0,-1.76882 0.72006,0 0,5.60389 -0.68875,0 0,-0.53221 -0.0313,0 q -0.17219,0.28176 -0.52439,0.4696 -0.34437,0.18784 -0.78266,0.18784 z m 0.1174,-0.65744 q 0.50873,0 0.86093,-0.37568 0.36003,-0.37568 0.36003,-1.00964 0,-0.63396 -0.36003,-1.00964 -0.3522,-0.37568 -0.86093,-0.37568 -0.50091,0 -0.86094,0.3835 -0.36002,0.37568 -0.36002,1.00182 0,0.62613 0.36002,1.00964 0.36003,0.37568 0.86094,0.37568 z"
           style="font-style:normal;font-variant:normal;font-weight:normal;font-stretch:normal;font-family:'Product Sans';-inkscape-font-specification:'Product Sans';fill:#ffffff;fill-opacity:1"
           id="path4169" />
        <path
           d="m 426.34463,570.27275 q -0.86093,0 -1.41663,-0.57917 -0.55569,-0.58701 -0.55569,-1.46359 0,-0.87659 0.55569,-1.45576 0.5557,-0.587 1.41663,-0.587 0.64179,0 1.06443,0.31306 0.42264,0.31307 0.61831,0.7905 l -0.65744,0.27393 q -0.29742,-0.72005 -1.07226,-0.72005 -0.47743,0 -0.84528,0.39133 -0.36003,0.39133 -0.36003,0.99399 0,0.60265 0.36003,0.99398 0.36785,0.39134 0.84528,0.39134 0.80615,0 1.11139,-0.72006 l 0.64179,0.27394 q -0.19567,0.4696 -0.63396,0.79049 -0.43047,0.31307 -1.07226,0.31307 z"
           style="font-style:normal;font-variant:normal;font-weight:normal;font-stretch:normal;font-family:'Product Sans';-inkscape-font-specification:'Product Sans';fill:#ffffff;fill-opacity:1"
           id="path4171" />
        <path
           d="m 429.84022,570.27275 q -0.61048,0 -1.02529,-0.3522 -0.40699,-0.3522 -0.40699,-0.93138 0,-0.62613 0.48525,-0.97833 0.48526,-0.36003 1.19748,-0.36003 0.63396,0 1.04095,0.2348 l 0,-0.10957 q 0,-0.42264 -0.28959,-0.67309 -0.28958,-0.25828 -0.71222,-0.25828 -0.31307,0 -0.57135,0.1487 -0.25045,0.14871 -0.34437,0.40699 l -0.65745,-0.28176 q 0.13306,-0.34437 0.52439,-0.63396 0.39134,-0.29741 1.03312,-0.29741 0.73571,0 1.22096,0.43046 0.48526,0.43047 0.48526,1.21314 l 0,2.31669 -0.68875,0 0,-0.53221 -0.0313,0 q -0.43046,0.65744 -1.26009,0.65744 z m 0.1174,-0.65744 q 0.44612,0 0.80615,-0.32872 0.36785,-0.33655 0.36785,-0.7905 -0.30524,-0.25045 -0.91572,-0.25045 -0.52439,0 -0.79049,0.22697 -0.26611,0.22698 -0.26611,0.53222 0,0.28176 0.24263,0.44612 0.24262,0.16436 0.55569,0.16436 z"
           style="font-style:normal;font-variant:normal;font-weight:normal;font-stretch:normal;font-family:'Product Sans';-inkscape-font-specification:'Product Sans';fill:#ffffff;fill-opacity:1"
           id="path4173" />
        <path
           d="m 434.01074,570.27275 q -0.64179,0 -1.06443,-0.31307 -0.41482,-0.31307 -0.61048,-0.78267 l 0.64178,-0.2661 q 0.30524,0.72005 1.04095,0.72005 0.33655,0 0.54787,-0.14871 0.21915,-0.1487 0.21915,-0.39133 0,-0.37568 -0.52439,-0.50873 l -0.77484,-0.18784 q -0.36786,-0.0939 -0.69658,-0.3522 -0.32872,-0.26611 -0.32872,-0.71223 0,-0.50873 0.44612,-0.8218 0.45395,-0.32089 1.07226,-0.32089 0.50873,0 0.90789,0.2348 0.39916,0.22697 0.57135,0.65744 l -0.62613,0.25828 q -0.21132,-0.50874 -0.87659,-0.50874 -0.3209,0 -0.54004,0.13306 -0.21915,0.13305 -0.21915,0.36002 0,0.32872 0.50874,0.44612 l 0.75918,0.18002 q 0.54004,0.12522 0.79832,0.43046 0.25828,0.30524 0.25828,0.68875 0,0.51656 -0.42264,0.86094 -0.42264,0.34437 -1.0879,0.34437 z"
           style="font-style:normal;font-variant:normal;font-weight:normal;font-stretch:normal;font-family:'Product Sans';-inkscape-font-specification:'Product Sans';fill:#ffffff;fill-opacity:1"
           id="path4175" />
        <path
           d="m 437.76142,570.21014 q -0.60265,0 -0.92354,-0.3209 -0.31307,-0.32089 -0.31307,-0.90789 l 0,-2.01146 -0.67309,0 0,-0.65744 0.67309,0 0,-1.174 0.72005,0 0,1.174 0.9392,0 0,0.65744 -0.9392,0 0,1.95667 q 0,0.62613 0.51656,0.62613 0.19567,0 0.32872,-0.0626 l 0.25046,0.61831 q -0.2348,0.10175 -0.57918,0.10175 z"
           style="font-style:normal;font-variant:normal;font-weight:normal;font-stretch:normal;font-family:'Product Sans';-inkscape-font-specification:'Product Sans';fill:#ffffff;fill-opacity:1"
           id="path4177" />
      </g>
      <g
         transform="matrix(2.3840768,0,0,2.3840768,362.00732,-1942.5483)"
         id="layer1-5"
         inkscape:label="Capa 1"
         style="fill:#4d2a5d;fill-opacity:1">
        <g
           style="fill:#4d2a5d;fill-opacity:1"
           transform="matrix(0.07908756,0,0,0.07908756,22.539801,1036.0878)"
           sketch:type="MSLayerGroup"
           id="microphone28">
          <g
             style="fill:#4d2a5d;fill-opacity:1"
             sketch:type="MSShapeGroup"
             id="g4987">
            <path
               style="fill:#4d2a5d;fill-opacity:1"
               inkscape:connector-curvature="0"
               id="path4989"
               d="m 47,94.07 c 7.17,0 13.307,-2.553 18.412,-7.657 C 70.517,81.309 73.07,75.17 73.07,68 l 0,-41.714 C 73.07,19.116 70.519,12.979 65.412,7.873 60.307,2.768 54.17,0.214 47,0.214 c -7.17,0 -13.307,2.554 -18.413,7.659 -5.106,5.105 -7.659,11.243 -7.659,18.413 l 0,41.714 c 0,7.17 2.554,13.309 7.659,18.413 C 33.692,91.517 39.83,94.07 47,94.07 l 0,0 z" />
            <path
               style="fill:#4d2a5d;fill-opacity:1"
               inkscape:connector-curvature="0"
               id="path4991"
               d="m 92.38,53.905 c -1.03,-1.032 -2.254,-1.548 -3.666,-1.548 -1.412,0 -2.634,0.516 -3.666,1.548 -1.032,1.032 -1.548,2.254 -1.548,3.666 L 83.5,68 C 83.5,78.049 79.928,86.643 72.786,93.786 65.645,100.929 57.049,104.5 47,104.5 36.951,104.5 28.356,100.929 21.213,93.786 14.071,86.645 10.5,78.049 10.5,68 l 0,-10.429 C 10.5,56.159 9.984,54.937 8.952,53.905 7.92,52.873 6.699,52.357 5.286,52.357 c -1.413,0 -2.635,0.516 -3.667,1.548 -1.032,1.032 -1.548,2.254 -1.548,3.666 l 0,10.429 c 0,12.004 4.006,22.446 12.017,31.326 8.011,8.88 17.91,13.972 29.697,15.275 l 0,10.756 -20.857,0 c -1.412,0 -2.634,0.516 -3.666,1.548 -1.032,1.032 -1.548,2.254 -1.548,3.666 0,1.411 0.516,2.635 1.548,3.666 1.032,1.032 2.254,1.549 3.666,1.549 l 52.142,0 c 1.412,0 2.636,-0.517 3.666,-1.549 1.033,-1.031 1.55,-2.255 1.55,-3.666 0,-1.412 -0.517,-2.634 -1.55,-3.666 -1.03,-1.032 -2.254,-1.548 -3.666,-1.548 l -20.855,0 0,-10.756 C 64,113.298 73.899,108.206 81.911,99.326 89.923,90.446 93.93,80.004 93.93,68 l 0,-10.429 c 0,-1.412 -0.517,-2.633 -1.55,-3.666 l 0,0 z" />
          </g>
        </g>
      </g>
    </g>
  </g>
</svg>
