<?xml version="1.0" encoding="UTF-8" standalone="no"?>
<!-- Created with Inkscape (http://www.inkscape.org/) -->

<svg
   xmlns:sketch="http://www.bohemiancoding.com/sketch/ns"
   xmlns:osb="http://www.openswatchbook.org/uri/2009/osb"
   xmlns:dc="http://purl.org/dc/elements/1.1/"
   xmlns:cc="http://creativecommons.org/ns#"
   xmlns:rdf="http://www.w3.org/1999/02/22-rdf-syntax-ns#"
   xmlns:svg="http://www.w3.org/2000/svg"
   xmlns="http://www.w3.org/2000/svg"
   xmlns:xlink="http://www.w3.org/1999/xlink"
   xmlns:sodipodi="http://sodipodi.sourceforge.net/DTD/sodipodi-0.dtd"
   xmlns:inkscape="http://www.inkscape.org/namespaces/inkscape"
   width="64"
   height="64"
   id="svg5453"
   version="1.1"
   inkscape:version="0.91 r13725"
   sodipodi:docname="preferences-desktop-cryptography.svg">
  <defs
     id="defs5455">
    <linearGradient
       inkscape:collect="always"
       id="linearGradient4992">
      <stop
         style="stop-color:#b6b9bf;stop-opacity:1"
         offset="0"
         id="stop4994" />
      <stop
         style="stop-color:#dddfe2;stop-opacity:1"
         offset="1"
         id="stop4996" />
    </linearGradient>
    <linearGradient
       inkscape:collect="always"
       id="linearGradient4957">
      <stop
         style="stop-color:#040404;stop-opacity:1"
         offset="0"
         id="stop4959" />
      <stop
         style="stop-color:#121212;stop-opacity:0.90816325"
         offset="1"
         id="stop4961" />
    </linearGradient>
    <linearGradient
       id="linearGradient3923">
      <stop
         style="stop-color:#c8c8c8;stop-opacity:1;"
         offset="0"
         id="stop3925" />
      <stop
         style="stop-color:#969696;stop-opacity:1;"
         offset="1"
         id="stop3927" />
    </linearGradient>
    <linearGradient
       inkscape:collect="always"
       xlink:href="#linearGradient3687"
       id="linearGradient4197"
       gradientUnits="userSpaceOnUse"
       x1="10.09375"
       y1="107.36093"
       x2="122.719"
       y2="107.36093"
       gradientTransform="matrix(0.24841536,0,0,0.24427878,433.38377,517.17091)" />
    <linearGradient
       id="linearGradient3687">
      <stop
         id="stop3689"
         offset="0"
         style="stop-color:#1a1a1a;stop-opacity:1" />
      <stop
         style="stop-color:#2c2c2e;stop-opacity:1"
         offset="0.11054216"
         id="stop3691" />
      <stop
         style="stop-color:#2b2b2d;stop-opacity:1"
         offset="0.29001436"
         id="stop3693" />
      <stop
         style="stop-color:#2a2b2d;stop-opacity:1"
         offset="0.5118711"
         id="stop3695" />
      <stop
         style="stop-color:#2b2b2d;stop-opacity:1"
         offset="0.75173318"
         id="stop3699" />
      <stop
         id="stop3701"
         offset="0.89659214"
         style="stop-color:#323232;stop-opacity:1" />
      <stop
         id="stop3703"
         offset="1"
         style="stop-color:#171717;stop-opacity:1" />
    </linearGradient>
    <linearGradient
       gradientUnits="userSpaceOnUse"
       y2="188.15601"
       x2="319.022"
       y1="188.15601"
       x1="57.289001"
       id="linearGradient5478"
       xlink:href="#linearGradient3923"
       inkscape:collect="always" />
    <linearGradient
       inkscape:collect="always"
       xlink:href="#linearGradient3923"
       id="linearGradient4740"
       gradientUnits="userSpaceOnUse"
       x1="57.289001"
       y1="188.15601"
       x2="319.022"
       y2="188.15601" />
    <linearGradient
       inkscape:collect="always"
       xlink:href="#linearGradient3923"
       id="linearGradient4742"
       gradientUnits="userSpaceOnUse"
       x1="57.289001"
       y1="188.15601"
       x2="319.022"
       y2="188.15601" />
    <linearGradient
       inkscape:collect="always"
       xlink:href="#linearGradient3923"
       id="linearGradient4744"
       gradientUnits="userSpaceOnUse"
       x1="57.289001"
       y1="188.15601"
       x2="319.022"
       y2="188.15601" />
    <linearGradient
       inkscape:collect="always"
       xlink:href="#linearGradient3923"
       id="linearGradient4746"
       gradientUnits="userSpaceOnUse"
       x1="57.289001"
       y1="188.15601"
       x2="319.022"
       y2="188.15601" />
    <linearGradient
       inkscape:collect="always"
       xlink:href="#linearGradient3923"
       id="linearGradient4748"
       gradientUnits="userSpaceOnUse"
       x1="57.289001"
       y1="188.15601"
       x2="319.022"
       y2="188.15601" />
    <linearGradient
       inkscape:collect="always"
       xlink:href="#linearGradient3923"
       id="linearGradient4750"
       gradientUnits="userSpaceOnUse"
       x1="57.289001"
       y1="188.15601"
       x2="319.022"
       y2="188.15601" />
    <linearGradient
       inkscape:collect="always"
       xlink:href="#linearGradient3923"
       id="linearGradient4752"
       gradientUnits="userSpaceOnUse"
       x1="57.289001"
       y1="188.15601"
       x2="319.022"
       y2="188.15601" />
    <linearGradient
       inkscape:collect="always"
       xlink:href="#linearGradient3923"
       id="linearGradient4754"
       gradientUnits="userSpaceOnUse"
       x1="57.289001"
       y1="188.15601"
       x2="319.022"
       y2="188.15601" />
    <linearGradient
       inkscape:collect="always"
       xlink:href="#linearGradient3923"
       id="linearGradient4756"
       gradientUnits="userSpaceOnUse"
       x1="57.289001"
       y1="188.15601"
       x2="319.022"
       y2="188.15601" />
    <linearGradient
       inkscape:collect="always"
       xlink:href="#linearGradient3923"
       id="linearGradient4758"
       gradientUnits="userSpaceOnUse"
       x1="57.289001"
       y1="188.15601"
       x2="319.022"
       y2="188.15601" />
    <linearGradient
       inkscape:collect="always"
       xlink:href="#linearGradient3923"
       id="linearGradient4760"
       gradientUnits="userSpaceOnUse"
       x1="57.289001"
       y1="188.15601"
       x2="319.022"
       y2="188.15601" />
    <linearGradient
       inkscape:collect="always"
       xlink:href="#linearGradient3923"
       id="linearGradient4762"
       gradientUnits="userSpaceOnUse"
       x1="57.289001"
       y1="188.15601"
       x2="319.022"
       y2="188.15601" />
    <linearGradient
       inkscape:collect="always"
       xlink:href="#linearGradient3923"
       id="linearGradient4764"
       gradientUnits="userSpaceOnUse"
       x1="57.289001"
       y1="188.15601"
       x2="319.022"
       y2="188.15601" />
    <linearGradient
       inkscape:collect="always"
       xlink:href="#linearGradient3923"
       id="linearGradient4766"
       gradientUnits="userSpaceOnUse"
       x1="57.289001"
       y1="188.15601"
       x2="319.022"
       y2="188.15601" />
    <linearGradient
       inkscape:collect="always"
       xlink:href="#linearGradient3923"
       id="linearGradient4768"
       gradientUnits="userSpaceOnUse"
       x1="57.289001"
       y1="188.15601"
       x2="319.022"
       y2="188.15601" />
    <linearGradient
       osb:paint="gradient"
       id="linearGradient4207">
      <stop
         id="stop3371"
         offset="0"
         style="stop-color:#3498db;stop-opacity:1;" />
      <stop
         id="stop3373"
         offset="1"
         style="stop-color:#3498db;stop-opacity:0;" />
    </linearGradient>
    <linearGradient
       id="linearGradient4298">
      <stop
         style="stop-color:#d7374c;stop-opacity:1"
         offset="0"
         id="stop4300" />
      <stop
         style="stop-color:#fc593d;stop-opacity:1"
         offset="1"
         id="stop4302" />
    </linearGradient>
    <linearGradient
       inkscape:collect="always"
       xlink:href="#linearGradient4298"
       id="linearGradient4735"
       x1="451.02078"
       y1="544.14978"
       x2="451.02078"
       y2="543.0885"
       gradientUnits="userSpaceOnUse"
       gradientTransform="matrix(0.50539571,0,0,1,229.14839,2.1665552)" />
    <linearGradient
       inkscape:collect="always"
       xlink:href="#linearGradient4957"
       id="linearGradient4963"
       x1="467.17453"
       y1="546.84698"
       x2="467.17453"
       y2="544.72443"
       gradientUnits="userSpaceOnUse"
       gradientTransform="translate(0,0.10639487)" />
    <linearGradient
       inkscape:collect="always"
       xlink:href="#linearGradient4992"
       id="linearGradient4998"
       x1="449.42804"
       y1="540.74573"
       x2="449.54932"
       y2="518.40662"
       gradientUnits="userSpaceOnUse" />
  </defs>
  <sodipodi:namedview
     id="base"
     pagecolor="#9a9a9a"
     bordercolor="#666666"
     borderopacity="1.0"
     inkscape:pageopacity="0"
     inkscape:pageshadow="2"
     inkscape:zoom="7.5255328"
     inkscape:cx="-3.0100947"
     inkscape:cy="30.345503"
     inkscape:document-units="px"
     inkscape:current-layer="layer1-37"
     showgrid="false"
     fit-margin-top="0"
     fit-margin-left="0"
     fit-margin-right="0"
     fit-margin-bottom="0"
     inkscape:window-width="1366"
     inkscape:window-height="642"
     inkscape:window-x="0"
     inkscape:window-y="33"
     inkscape:window-maximized="1"
     inkscape:showpageshadow="false"
     borderlayer="true"
     showguides="false">
    <inkscape:grid
       type="xygrid"
       id="grid4063"
       originx="7.9999866px"
       originy="7.9999772px" />
    <sodipodi:guide
       position="0,0"
       orientation="0,64"
       id="guide4196" />
    <sodipodi:guide
       position="64,0"
       orientation="-64,0"
       id="guide4198" />
    <sodipodi:guide
       position="64,64"
       orientation="0,-64"
       id="guide4200" />
    <sodipodi:guide
       position="6,58"
       orientation="52,0"
       id="guide4202" />
    <sodipodi:guide
       position="32.999987,-1.0000228"
       orientation="0,52"
       id="guide4204" />
    <sodipodi:guide
       position="58,6"
       orientation="-52,0"
       id="guide4206" />
    <sodipodi:guide
       position="58,58"
       orientation="0,-52"
       id="guide4208" />
    <sodipodi:guide
       position="23,43"
       orientation="20,0"
       id="guide4867" />
    <sodipodi:guide
       position="23,23"
       orientation="0,20"
       id="guide4869" />
    <sodipodi:guide
       position="43,23"
       orientation="-20,0"
       id="guide4871" />
    <sodipodi:guide
       position="27.999987,42.999977"
       orientation="0,-20"
       id="guide4873" />
    <sodipodi:guide
       position="15.000002,48.999966"
       orientation="13.999969,0"
       id="guide4221" />
    <sodipodi:guide
       position="15.000002,34.999996"
       orientation="0,14"
       id="guide4223" />
    <sodipodi:guide
       position="29.000002,34.999996"
       orientation="-13.999969,0"
       id="guide4225" />
    <sodipodi:guide
       position="29.000002,48.999966"
       orientation="0,-14"
       id="guide4227" />
  </sodipodi:namedview>
  <metadata
     id="metadata5458">
    <rdf:RDF>
      <cc:Work
         rdf:about="">
        <dc:format>image/svg+xml</dc:format>
        <dc:type
           rdf:resource="http://purl.org/dc/dcmitype/StillImage" />
        <dc:title />
      </cc:Work>
    </rdf:RDF>
  </metadata>
  <g
     inkscape:label="Capa 1"
     inkscape:groupmode="layer"
     id="layer1"
     transform="translate(-376.57144,-491.79797)">
    <g
       transform="matrix(1.8845167,0,0,1.8845167,-346.02351,-478.71524)"
       id="layer1-37"
       inkscape:label="Capa 1">
      <flowRoot
         transform="translate(389.57142,520.79805)"
         style="font-style:normal;font-variant:normal;font-weight:normal;font-stretch:normal;font-size:10px;line-height:125%;font-family:sans-serif;-inkscape-font-specification:'sans-serif, Normal';text-align:start;letter-spacing:0px;word-spacing:0px;writing-mode:lr-tb;text-anchor:start;fill:#000000;fill-opacity:1;stroke:none"
         id="flowRoot4170"
         xml:space="preserve"><flowRegion
           id="flowRegion4172"><rect
             y="3"
             x="22"
             height="15"
             width="27"
             id="rect4174" /></flowRegion><flowPara
           id="flowPara4176">Plasm</flowPara></flowRoot>      <g
         transform="translate(-56.143441,-2.1379465)"
         inkscape:label="Capa 1"
         id="layer1-3">
        <g
           id="g5522"
           transform="translate(6.679591,2.1134711)">
          <path
             sodipodi:nodetypes="ccccccc"
             id="rect3001"
             d="m 435.89128,541.07281 0.24841,3.91531 c 0,0.40601 0.33238,0.73288 0.74525,0.73288 l 25.99045,0 c 0.41287,0 0.74526,-0.32687 0.74526,-0.73288 l 0.24841,-3.91531 -27.97778,0 z"
             style="fill:url(#linearGradient4197);fill-opacity:1;stroke:none"
             inkscape:connector-curvature="0" />
          <path
             sodipodi:nodetypes="ccccccccc"
             id="path3778"
             d="m 438.12877,518.12187 23.25963,0 c 0.41287,0 0.74526,0.32687 0.74526,0.73287 l 1.739,22.0998 c 0,0.406 -0.33237,0.73288 -0.74524,0.73288 l -26.48903,0 c -0.41287,0 -0.74524,-0.32688 -0.74524,-0.73288 l 1.49038,-22.09974 c 0,-0.406 0.33238,-0.73293 0.74524,-0.73293 z"
             style="fill:url(#linearGradient4998);fill-opacity:1;stroke:none"
             inkscape:connector-curvature="0" />
          <g
             id="g4263"
             transform="matrix(0.64819165,0,0,0.64819165,459.04237,-145.91276)" />
          <g
             style="fill:url(#linearGradient5478);fill-opacity:1"
             transform="matrix(0.01560666,-1.1115667e-4,8.7994552e-5,0.01235465,452.52359,526.32623)"
             id="g5408">
            <g
               style="fill:url(#linearGradient4740);fill-opacity:1"
               id="g5372" />
            <g
               style="fill:url(#linearGradient4742);fill-opacity:1"
               id="g5374" />
            <g
               style="fill:url(#linearGradient4744);fill-opacity:1"
               id="g5376" />
            <g
               style="fill:url(#linearGradient4746);fill-opacity:1"
               id="g5378" />
            <g
               style="fill:url(#linearGradient4748);fill-opacity:1"
               id="g5380" />
            <g
               style="fill:url(#linearGradient4750);fill-opacity:1"
               id="g5382" />
            <g
               style="fill:url(#linearGradient4752);fill-opacity:1"
               id="g5384" />
            <g
               style="fill:url(#linearGradient4754);fill-opacity:1"
               id="g5386" />
            <g
               style="fill:url(#linearGradient4756);fill-opacity:1"
               id="g5388" />
            <g
               style="fill:url(#linearGradient4758);fill-opacity:1"
               id="g5390" />
            <g
               style="fill:url(#linearGradient4760);fill-opacity:1"
               id="g5392" />
            <g
               style="fill:url(#linearGradient4762);fill-opacity:1"
               id="g5394" />
            <g
               style="fill:url(#linearGradient4764);fill-opacity:1"
               id="g5396" />
            <g
               style="fill:url(#linearGradient4766);fill-opacity:1"
               id="g5398" />
            <g
               style="fill:url(#linearGradient4768);fill-opacity:1"
               id="g5400" />
          </g>
        </g>
        <rect
           ry="0.3844372"
           y="545.61273"
           x="450.87326"
           height="0.76887441"
           width="11.463281"
           id="rect4727"
           style="opacity:1;fill:url(#linearGradient4735);fill-opacity:1.0;stroke:none;stroke-width:0.2;stroke-linecap:round;stroke-linejoin:round;stroke-miterlimit:4;stroke-dasharray:none;stroke-opacity:1" />
        <ellipse
           style="opacity:0.45199998;fill:url(#linearGradient4963);fill-opacity:1;stroke:none;stroke-width:1.70000005;stroke-linecap:round;stroke-linejoin:round;stroke-miterlimit:4;stroke-dasharray:none;stroke-opacity:1"
           id="path4955"
           cx="467.08929"
           cy="546.02448"
           rx="1.06128"
           ry="1.0612739" />
        <g
           transform="matrix(0.06690024,0,0,0.06690024,429.30819,506.30366)"
           id="layer1-2"
           inkscape:label="Capa 1"
           style="opacity:0.66799999;fill:#e3e8ea;fill-opacity:1">
          <g
             style="fill:#e3e8ea;fill-opacity:1"
             transform="matrix(0.12676497,0,0,0.12676497,556.71721,584.86309)"
             sketch:type="MSLayerGroup"
             id="power27">
            <g
               style="fill:#e3e8ea;fill-opacity:1"
               sketch:type="MSShapeGroup"
               id="g953">
              <path
                 style="fill:#e3e8ea;fill-opacity:1"
                 inkscape:connector-curvature="0"
                 id="path955"
                 d="m 63,73.215 c 2.824,0 5.27,-1.031 7.332,-3.096 2.064,-2.063 3.098,-4.508 3.098,-7.332 l 0,-52.144 C 73.43,7.818 72.397,5.374 70.332,3.311 68.27,1.246 65.825,0.214 63,0.214 c -2.825,0 -5.269,1.033 -7.333,3.097 -2.064,2.063 -3.096,4.508 -3.096,7.332 l 0,52.144 c 0,2.824 1.032,5.269 3.096,7.332 2.064,2.065 4.509,3.096 7.333,3.096 l 0,0 z" />
              <path
                 style="fill:#e3e8ea;fill-opacity:1"
                 inkscape:connector-curvature="0"
                 id="path957"
                 d="M 119.014,45.269 C 114.641,36.525 108.491,29.192 100.561,23.272 98.28,21.534 95.7,20.855 92.821,21.235 c -2.879,0.38 -5.16,1.738 -6.844,4.073 -1.738,2.281 -2.403,4.847 -1.996,7.699 0.406,2.853 1.752,5.147 4.033,6.885 5.321,4.019 9.438,8.935 12.342,14.747 2.906,5.811 4.358,12.004 4.358,18.575 0,5.65 -1.1,11.04 -3.299,16.173 -2.2,5.133 -5.174,9.573 -8.922,13.321 -3.748,3.747 -8.187,6.721 -13.32,8.921 -5.133,2.2 -10.524,3.301 -16.173,3.301 -5.648,0 -11.039,-1.101 -16.172,-3.301 -5.133,-2.2 -9.573,-5.174 -13.321,-8.921 -3.747,-3.748 -6.721,-8.188 -8.921,-13.321 -2.2,-5.133 -3.3,-10.523 -3.3,-16.173 0,-6.571 1.453,-12.763 4.359,-18.575 2.906,-5.811 7.02,-10.727 12.343,-14.747 2.281,-1.739 3.625,-4.033 4.033,-6.885 0.407,-2.851 -0.258,-5.418 -1.996,-7.699 -1.684,-2.335 -3.951,-3.693 -6.803,-4.073 -2.852,-0.38 -5.446,0.299 -7.781,2.037 -7.931,5.92 -14.081,13.253 -18.454,21.997 -4.373,8.745 -6.559,18.06 -6.559,27.945 0,8.474 1.657,16.566 4.97,24.279 3.314,7.713 7.767,14.366 13.362,19.961 5.594,5.594 12.248,10.049 19.961,13.36 7.713,3.314 15.806,4.972 24.279,4.972 8.473,0 16.566,-1.658 24.279,-4.972 7.713,-3.312 14.367,-7.766 19.961,-13.36 5.594,-5.594 10.047,-12.248 13.361,-19.961 3.313,-7.713 4.969,-15.806 4.969,-24.279 0,-9.885 -2.183,-19.2 -6.556,-27.945 l 0,0 z" />
            </g>
          </g>
        </g>
        <path
           style="opacity:1;fill:#a1a7ae;fill-opacity:1;stroke:#909296;stroke-width:0.053064;stroke-linecap:butt;stroke-linejoin:miter;stroke-miterlimit:4;stroke-dasharray:none;stroke-dashoffset:0;stroke-opacity:1"
           d="m 453.75624,524.96601 a 0.92883056,0.80385353 0 0 0 -0.92883,0.80387 0.92883056,0.80385353 0 0 0 0.92883,0.80385 0.92883056,0.80385353 0 0 0 0.92882,-0.80385 0.92883056,0.80385353 0 0 0 -0.92882,-0.80387 z m 4.64411,0 -1.85761,1.60772 3.71528,3.21545 -3.71528,3.21539 1.85761,1.60769 5.57301,-4.82308 -5.57301,-4.82317 z m -7.43064,4.82317 a 1.8576518,1.607699 0 0 0 -1.85764,1.60767 1.8576518,1.607699 0 0 0 1.85764,1.60772 1.8576518,1.607699 0 0 0 1.8577,-1.60772 1.8576518,1.607699 0 0 0 -1.8577,-1.60767 z m 3.71535,4.82308 a 1.8576518,1.607699 0 0 0 -1.85765,1.60768 1.8576518,1.607699 0 0 0 1.85765,1.60772 1.8576518,1.607699 0 0 0 1.85768,-1.60772 1.8576518,1.607699 0 0 0 -1.85768,-1.60768 z"
           id="path4245"
           inkscape:connector-curvature="0" />
      </g>
    </g>
  </g>
</svg>
