<?xml version="1.0" encoding="UTF-8" standalone="no"?>
<!-- Created with Inkscape (http://www.inkscape.org/) -->

<svg
   xmlns:dc="http://purl.org/dc/elements/1.1/"
   xmlns:cc="http://creativecommons.org/ns#"
   xmlns:rdf="http://www.w3.org/1999/02/22-rdf-syntax-ns#"
   xmlns:svg="http://www.w3.org/2000/svg"
   xmlns="http://www.w3.org/2000/svg"
   xmlns:xlink="http://www.w3.org/1999/xlink"
   xmlns:sodipodi="http://sodipodi.sourceforge.net/DTD/sodipodi-0.dtd"
   xmlns:inkscape="http://www.inkscape.org/namespaces/inkscape"
   width="48"
   height="48"
   id="svg5453"
   version="1.1"
   inkscape:version="0.91 r13725"
   sodipodi:docname="yast-firewall.svg">
  <defs
     id="defs5455">
    <linearGradient
       id="linearGradient4422">
      <stop
         id="stop4424"
         offset="0"
         style="stop-color:#197ff1;stop-opacity:1" />
      <stop
         id="stop4426"
         offset="1"
         style="stop-color:#21c6fb;stop-opacity:1" />
    </linearGradient>
    <linearGradient
       id="linearGradient4232">
      <stop
         style="stop-color:#3889e9;stop-opacity:1"
         offset="0"
         id="stop4234-0" />
      <stop
         style="stop-color:#5ea5fb;stop-opacity:1"
         offset="1"
         id="stop4236" />
    </linearGradient>
    <linearGradient
       gradientTransform="matrix(0.04891715,0,0,0.04891715,100.15104,-5.2650711)"
       y2="11.610633"
       x2="493.5094"
       y1="985.34576"
       x1="487.74164"
       gradientUnits="userSpaceOnUse"
       id="linearGradient4340"
       xlink:href="#linearGradient4793"
       inkscape:collect="always" />
    <linearGradient
       inkscape:collect="always"
       id="linearGradient4793">
      <stop
         style="stop-color:#4da70e;stop-opacity:1"
         offset="0"
         id="stop4795" />
      <stop
         style="stop-color:#9ded46;stop-opacity:1"
         offset="1"
         id="stop4797" />
    </linearGradient>
  </defs>
  <sodipodi:namedview
     id="base"
     pagecolor="#ffffff"
     bordercolor="#666666"
     borderopacity="1.0"
     inkscape:pageopacity="0"
     inkscape:pageshadow="2"
     inkscape:zoom="4"
     inkscape:cx="5.875"
     inkscape:cy="15.968792"
     inkscape:document-units="px"
     inkscape:current-layer="g4370"
     showgrid="true"
     fit-margin-top="0"
     fit-margin-left="0"
     fit-margin-right="0"
     fit-margin-bottom="0"
     inkscape:window-width="1366"
     inkscape:window-height="687"
     inkscape:window-x="0"
     inkscape:window-y="0"
     inkscape:window-maximized="1"
     inkscape:showpageshadow="false"
     borderlayer="true"
     showguides="false">
    <inkscape:grid
       type="xygrid"
       id="grid4063" />
    <sodipodi:guide
       position="1.1650391e-05,32.000026"
       orientation="32,0"
       id="guide4157" />
    <sodipodi:guide
       position="1.1650391e-05,2.6367188e-05"
       orientation="0,32"
       id="guide4159" />
    <sodipodi:guide
       position="32.000012,2.6367188e-05"
       orientation="-32,0"
       id="guide4161" />
    <sodipodi:guide
       position="32.000012,32.000026"
       orientation="0,-32"
       id="guide4163" />
    <sodipodi:guide
       position="2.0000117,30.000026"
       orientation="28,0"
       id="guide4167" />
    <sodipodi:guide
       position="2.0000117,2.0000264"
       orientation="0,28"
       id="guide4169" />
    <sodipodi:guide
       position="30.000012,2.0000264"
       orientation="-28,0"
       id="guide4171" />
    <sodipodi:guide
       position="30.000012,30.000026"
       orientation="0,-28"
       id="guide4173" />
    <sodipodi:guide
       position="2.0000117,30.000026"
       orientation="28,0"
       id="guide4181" />
    <sodipodi:guide
       position="2.0000117,2.0000264"
       orientation="0,14"
       id="guide4183" />
    <sodipodi:guide
       position="16.000012,2.0000264"
       orientation="-28,0"
       id="guide4185" />
    <sodipodi:guide
       position="16.000012,30.000026"
       orientation="0,-14"
       id="guide4187" />
    <sodipodi:guide
       position="9.0000117,23.000026"
       orientation="14,0"
       id="guide4193" />
    <sodipodi:guide
       position="9.0000117,9.0000264"
       orientation="0,14.000031"
       id="guide4195" />
    <sodipodi:guide
       position="23.000042,9.0000264"
       orientation="-14,0"
       id="guide4197" />
    <sodipodi:guide
       position="23.000042,23.000026"
       orientation="0,-14.000031"
       id="guide4199" />
  </sodipodi:namedview>
  <metadata
     id="metadata5458">
    <rdf:RDF>
      <cc:Work
         rdf:about="">
        <dc:format>image/svg+xml</dc:format>
        <dc:type
           rdf:resource="http://purl.org/dc/dcmitype/StillImage" />
        <dc:title></dc:title>
      </cc:Work>
    </rdf:RDF>
  </metadata>
  <g
     inkscape:label="Capa 1"
     inkscape:groupmode="layer"
     id="layer1"
     transform="translate(-384.57143,-499.798)">
    <g
       style="display:inline;enable-background:new"
       id="g4238"
       transform="translate(225.81911,462.44565)">
      <g
         style="display:inline"
         id="layer1-8"
         transform="matrix(0.22655187,0,0,0.22655187,106.94841,54.31088)">
        <g
           style="display:none"
           id="layer6" />
        <g
           id="g4027" />
        <g
           id="g4061" />
        <g
           id="g3751" />
        <g
           id="g3782" />
        <g
           id="g3725" />
        <g
           id="g4370"
           transform="matrix(4.4140002,0,0,4.4140002,59.275211,39.357303)">
          <g
             id="g4535"
             transform="translate(-61.776046,-20.60993)">
            <path
               id="path4168"
               d="m 146.43792,4.8437069 c -0.0147,-1.125094 -0.88051,-2.05452 -2.00067,-2.157295 -9.30893,-0.870725 -16.90581,-5.845599 -19.41032,-7.665317 -0.52341,-0.381554 -1.23271,-0.381554 -1.75613,0 -2.49966,1.819718 -10.0965,6.794592 -19.40543,7.665317 -1.1202,0.102775 -1.98114,1.032201 -2.00071,2.157295 -0.11251,7.3424641 1.06639,32.2705951 21.72411,37.8178491 0.36687,0.09783 0.75332,0.09783 1.1202,0 20.65771,-5.542313 21.83657,-30.475434 21.72895,-37.8178491 z"
               inkscape:connector-curvature="0"
               style="opacity:1;fill:url(#linearGradient4340);fill-opacity:1;stroke:none;stroke-width:9.51243782;stroke-miterlimit:4;stroke-dasharray:none;stroke-opacity:1" />
            <path
               id="path4168-0"
               d="m 141.25271,8.3736929 c -0.0113,-0.87299 -0.67672,-1.594155 -1.53762,-1.673901 -7.15444,-0.675618 -12.99307,-4.53575 -14.91793,-5.947716 -0.40227,-0.296057 -0.94741,-0.296057 -1.34968,0 -1.92114,1.411966 -7.75973,5.272098 -14.91417,5.947716 -0.86094,0.07975 -1.52262,0.800911 -1.53766,1.673901 -0.0865,5.6972061 0.81958,25.0395811 16.6962,29.3438381 0.28197,0.07591 0.57897,0.07591 0.86094,0 15.87662,-4.300423 16.78263,-23.64667 16.69992,-29.3438381 z"
               inkscape:connector-curvature="0"
               style="opacity:0.675;fill:#ffffff;fill-opacity:1;stroke:none;stroke-width:9.51243782;stroke-miterlimit:4;stroke-dasharray:none;stroke-opacity:1" />
            <path
               sodipodi:nodetypes="cssscssssssccssccsssccccsssc"
               style="opacity:1;fill:#72c728;fill-opacity:1;stroke:none;stroke-width:9.51243782;stroke-miterlimit:4;stroke-dasharray:none;stroke-opacity:1"
               inkscape:connector-curvature="0"
               id="path3"
               d="m 129.33455,17.710144 0,-2.145821 c 0,-2.912093 -2.36932,-5.282066 -5.28168,-5.282066 -2.91236,0 -5.2817,2.369973 -5.2817,5.282066 l 0,2.145821 c -0.41622,0.0866 -0.72983,0.457258 -0.72983,0.899329 l 0,8.040803 c 0,0.506339 0.41214,0.918686 0.91872,0.918686 l 10.18557,0 c 0.50657,0 0.91872,-0.412347 0.91872,-0.918686 l 0,-8.040803 c 0,-0.442071 -0.31356,-0.811694 -0.7298,-0.899329 z m -4.04775,6.854467 c 0.0188,0.100832 -0.0486,0.180572 -0.14965,0.180572 l -2.14416,0 c -0.10104,0 -0.16841,-0.07981 -0.14968,-0.180572 l 0.34142,-1.809279 c -0.25845,-0.235615 -0.42064,-0.574834 -0.42064,-0.952259 0,-0.712116 0.57699,-1.289177 1.28878,-1.289177 0.71177,0 1.28879,0.577061 1.28879,1.289177 0,0.367029 -0.15371,0.697797 -0.39998,0.932628 z m 2.21031,-6.873919 -6.88848,0 0,-2.126369 c 0,-1.899216 1.54505,-3.444204 3.44424,-3.444204 1.89918,0 3.44424,1.545083 3.44424,3.444204 z" />
          </g>
        </g>
      </g>
    </g>
  </g>
</svg>
