<?xml version="1.0" encoding="UTF-8" standalone="no"?>
<!-- Created with Inkscape (http://www.inkscape.org/) -->

<svg
   xmlns:sketch="http://www.bohemiancoding.com/sketch/ns"
   xmlns:dc="http://purl.org/dc/elements/1.1/"
   xmlns:cc="http://creativecommons.org/ns#"
   xmlns:rdf="http://www.w3.org/1999/02/22-rdf-syntax-ns#"
   xmlns:svg="http://www.w3.org/2000/svg"
   xmlns="http://www.w3.org/2000/svg"
   xmlns:xlink="http://www.w3.org/1999/xlink"
   xmlns:sodipodi="http://sodipodi.sourceforge.net/DTD/sodipodi-0.dtd"
   xmlns:inkscape="http://www.inkscape.org/namespaces/inkscape"
   width="48"
   height="48"
   id="svg5453"
   version="1.1"
   inkscape:version="0.91 r13725"
   sodipodi:docname="yast-remote.svg">
  <defs
     id="defs5455">
    <linearGradient
       id="linearGradient4422">
      <stop
         id="stop4424"
         offset="0"
         style="stop-color:#197ff1;stop-opacity:1" />
      <stop
         id="stop4426"
         offset="1"
         style="stop-color:#21c6fb;stop-opacity:1" />
    </linearGradient>
    <linearGradient
       id="linearGradient4232">
      <stop
         style="stop-color:#3889e9;stop-opacity:1"
         offset="0"
         id="stop4234-0" />
      <stop
         style="stop-color:#5ea5fb;stop-opacity:1"
         offset="1"
         id="stop4236" />
    </linearGradient>
    <linearGradient
       id="linearGradient8467-5">
      <stop
         id="stop8469-7"
         style="stop-color:#d3d3d3;stop-opacity:1"
         offset="0" />
      <stop
         id="stop8471-0"
         style="stop-color:#fcf9f9;stop-opacity:1"
         offset="1" />
    </linearGradient>
    <linearGradient
       id="linearGradient3687-2">
      <stop
         style="stop-color:#1a1a1a;stop-opacity:1"
         offset="0"
         id="stop3689-6" />
      <stop
         id="stop3691-8"
         offset="0.11054216"
         style="stop-color:#2c2c2e;stop-opacity:1" />
      <stop
         id="stop3693-8"
         offset="0.29001436"
         style="stop-color:#2b2b2d;stop-opacity:1" />
      <stop
         id="stop3695-4"
         offset="0.5118711"
         style="stop-color:#2a2b2d;stop-opacity:1" />
      <stop
         id="stop3699-86"
         offset="0.75173318"
         style="stop-color:#2b2b2d;stop-opacity:1" />
      <stop
         style="stop-color:#323232;stop-opacity:1"
         offset="0.89659214"
         id="stop3701-8" />
      <stop
         style="stop-color:#171717;stop-opacity:1"
         offset="1"
         id="stop3703-9" />
    </linearGradient>
    <linearGradient
       inkscape:collect="always"
       xlink:href="#linearGradient4793"
       id="linearGradient4222-8"
       x1="409.57144"
       y1="542.79797"
       x2="409.57144"
       y2="507.798"
       gradientUnits="userSpaceOnUse"
       gradientTransform="matrix(0.94481574,0,0,0.87703745,-272.73381,-466.34262)" />
    <linearGradient
       inkscape:collect="always"
       id="linearGradient4793">
      <stop
         style="stop-color:#4da70e;stop-opacity:1"
         offset="0"
         id="stop4795" />
      <stop
         style="stop-color:#9ded46;stop-opacity:1"
         offset="1"
         id="stop4797" />
    </linearGradient>
    <linearGradient
       inkscape:collect="always"
       xlink:href="#linearGradient8467-5"
       id="linearGradient4222-8-2"
       x1="409.57144"
       y1="542.79797"
       x2="409.57144"
       y2="507.798"
       gradientUnits="userSpaceOnUse"
       gradientTransform="matrix(0.94481574,0,0,0.87703745,-269.42808,-451.79412)" />
    <linearGradient
       gradientTransform="matrix(0.57091359,0,0,0.5719321,-95.167691,-296.49647)"
       y2="517.77289"
       x2="400.69922"
       y1="546.07446"
       x1="400.5119"
       gradientUnits="userSpaceOnUse"
       id="linearGradient4868"
       xlink:href="#linearGradient4793"
       inkscape:collect="always" />
  </defs>
  <sodipodi:namedview
     id="base"
     pagecolor="#ffffff"
     bordercolor="#666666"
     borderopacity="1.0"
     inkscape:pageopacity="0"
     inkscape:pageshadow="2"
     inkscape:zoom="4"
     inkscape:cx="5.875"
     inkscape:cy="15.968792"
     inkscape:document-units="px"
     inkscape:current-layer="g4370"
     showgrid="true"
     fit-margin-top="0"
     fit-margin-left="0"
     fit-margin-right="0"
     fit-margin-bottom="0"
     inkscape:window-width="1366"
     inkscape:window-height="687"
     inkscape:window-x="0"
     inkscape:window-y="0"
     inkscape:window-maximized="1"
     inkscape:showpageshadow="false"
     borderlayer="true"
     showguides="false">
    <inkscape:grid
       type="xygrid"
       id="grid4063" />
    <sodipodi:guide
       position="1.1650391e-05,32.000026"
       orientation="32,0"
       id="guide4157" />
    <sodipodi:guide
       position="1.1650391e-05,2.6367188e-05"
       orientation="0,32"
       id="guide4159" />
    <sodipodi:guide
       position="32.000012,2.6367188e-05"
       orientation="-32,0"
       id="guide4161" />
    <sodipodi:guide
       position="32.000012,32.000026"
       orientation="0,-32"
       id="guide4163" />
    <sodipodi:guide
       position="2.0000117,30.000026"
       orientation="28,0"
       id="guide4167" />
    <sodipodi:guide
       position="2.0000117,2.0000264"
       orientation="0,28"
       id="guide4169" />
    <sodipodi:guide
       position="30.000012,2.0000264"
       orientation="-28,0"
       id="guide4171" />
    <sodipodi:guide
       position="30.000012,30.000026"
       orientation="0,-28"
       id="guide4173" />
    <sodipodi:guide
       position="2.0000117,30.000026"
       orientation="28,0"
       id="guide4181" />
    <sodipodi:guide
       position="2.0000117,2.0000264"
       orientation="0,14"
       id="guide4183" />
    <sodipodi:guide
       position="16.000012,2.0000264"
       orientation="-28,0"
       id="guide4185" />
    <sodipodi:guide
       position="16.000012,30.000026"
       orientation="0,-14"
       id="guide4187" />
    <sodipodi:guide
       position="9.0000117,23.000026"
       orientation="14,0"
       id="guide4193" />
    <sodipodi:guide
       position="9.0000117,9.0000264"
       orientation="0,14.000031"
       id="guide4195" />
    <sodipodi:guide
       position="23.000042,9.0000264"
       orientation="-14,0"
       id="guide4197" />
    <sodipodi:guide
       position="23.000042,23.000026"
       orientation="0,-14.000031"
       id="guide4199" />
  </sodipodi:namedview>
  <metadata
     id="metadata5458">
    <rdf:RDF>
      <cc:Work
         rdf:about="">
        <dc:format>image/svg+xml</dc:format>
        <dc:type
           rdf:resource="http://purl.org/dc/dcmitype/StillImage" />
        <dc:title></dc:title>
      </cc:Work>
    </rdf:RDF>
  </metadata>
  <g
     inkscape:label="Capa 1"
     inkscape:groupmode="layer"
     id="layer1"
     transform="translate(-384.57143,-499.798)">
    <g
       style="display:inline;enable-background:new"
       id="g4238"
       transform="translate(225.81911,462.44565)">
      <g
         style="display:inline"
         id="layer1-8"
         transform="matrix(0.22655187,0,0,0.22655187,106.94841,54.31088)">
        <g
           style="display:none"
           id="layer6" />
        <g
           id="g4027" />
        <g
           id="g4061" />
        <g
           id="g3751" />
        <g
           id="g3782" />
        <g
           id="g3725" />
        <g
           id="g4370"
           transform="matrix(4.4140002,0,0,4.4140002,59.275211,39.357303)">
          <g
             id="g5594"
             transform="translate(-54.011391,-4.9466619)">
            <rect
               transform="matrix(0.9999984,0.00178706,0.00604891,0.99998171,0,0)"
               style="display:inline;opacity:1;fill:url(#linearGradient4222-8);fill-opacity:1;stroke:none;stroke-width:1.79839408;stroke-linecap:round;stroke-linejoin:round;stroke-miterlimit:4;stroke-dasharray:none;stroke-opacity:0.8508065"
               id="rect4195-7"
               width="41.571892"
               height="29.819273"
               x="92.505013"
               y="-20.984743"
               ry="1.40326" />
            <rect
               transform="matrix(0.9999984,0.00178706,0.00604891,0.99998171,0,0)"
               style="display:inline;opacity:1;fill:url(#linearGradient4222-8-2);fill-opacity:1;stroke:none;stroke-width:1.79839408;stroke-linecap:round;stroke-linejoin:round;stroke-miterlimit:4;stroke-dasharray:none;stroke-opacity:0.85483871"
               id="rect4195-7-0"
               width="41.571892"
               height="29.819273"
               x="95.810669"
               y="-6.4364338"
               ry="1.40326" />
            <path
               sodipodi:nodetypes="csssssssssssssssssssssssssscsssssscscssssssssscccsscssssccsssssssssscsssssssss"
               inkscape:connector-curvature="0"
               id="path4251"
               d="m 118.3565,19.658158 c -2.65478,-0.869762 -3.86346,-3.625119 -2.64196,-6.022749 0.55418,-1.087773 1.28474,-1.687702 2.47957,-2.036185 1.55782,-0.454355 3.26695,0.173126 4.16407,1.528775 0.61417,0.92807 0.68467,2.418649 0.16078,3.399456 -1.22977,2.302301 -4.60181,2.253251 -5.49285,-0.0799 -0.51708,-1.35394 0.0815,-2.766032 1.38326,-3.263177 1.32014,-0.504165 2.707,0.303566 2.86058,1.666054 0.0646,0.573699 0.0118,0.757338 -0.33831,1.173298 -0.7559,0.898354 -1.99538,0.79457 -2.45092,-0.205217 -0.24178,-0.530679 -0.0609,-0.631578 0.43407,-0.2422 0.52336,0.411683 0.91035,0.416924 1.30953,0.01772 0.41056,-0.410558 0.39289,-0.821011 -0.0579,-1.345044 -0.83867,-0.975019 -2.46268,-0.182886 -2.49334,1.216144 -0.0173,0.790287 0.36355,1.40046 1.09682,1.757212 1.8582,0.904042 3.91119,-1.135456 3.15573,-3.134974 -0.2082,-0.551014 -0.86154,-1.248397 -1.46435,-1.563017 -1.21792,-0.635675 -3.08327,-0.04837 -3.93521,1.238997 -0.35526,0.536833 -0.42433,0.809627 -0.42433,1.675951 0,0.880269 0.0703,1.148444 0.47083,1.796272 0.29222,0.472683 0.75993,0.940106 1.23304,1.232339 0.66436,0.410359 0.90357,0.470047 1.8627,0.464738 2.2716,-0.01243 3.8299,-1.470132 4.30025,-4.022299 0.33323,-1.808109 -0.32624,-3.861203 -1.65507,-5.1526829 -0.47388,-0.460559 -0.6891,-0.798723 -0.6891,-1.08275 0,-0.474069 -0.2516,-1.014844 -0.47217,-1.014844 -0.0847,0 -0.15009,0.578008 -0.15009,1.326157 l 0,1.3261569 0.70005,0.422848 c 0.7678,0.46378 0.94635,0.969598 0.34224,0.969598 -0.19679,0 -0.43564,-0.07784 -0.53078,-0.172982 -0.0952,-0.09514 -0.61668,-0.325767 -1.15897,-0.512501 -1.00767,-0.346991 -1.30936,-0.746483 -0.63598,-0.842117 0.30111,-0.04277 0.35002,-0.14334 0.35002,-0.7196819 l 0,-0.669967 -0.86993,-0.07215 c -0.97952,-0.08123 -1.14657,-0.24018 -1.15006,-1.094251 -0.002,-0.320849 -0.0638,-0.583379 -0.13889,-0.583379 -0.34862,0 -0.5476,0.582123 -0.61084,1.787115 -0.0666,1.2679979 -0.0597,1.2988579 0.29914,1.3498489 0.7083,0.100631 0.53193,0.563566 -0.366,0.96067 -0.45976,0.203321 -1.09488,0.59705 -1.41139,0.874941 -0.57549,0.505296 -1.04132,0.548242 -1.04132,0.096 0,-0.126773 0.31503,-0.493819 0.70005,-0.815663 0.69015,-0.576895 0.70006,-0.598685 0.70006,-1.5404069 0,-1.188691 -0.39395,-1.846616 -1.43704,-2.399974 l -0.7305,-0.387524 -0.6757,0.663153 -0.67571,0.663159 -3.10202,-0.04234 c -3.08388,-0.04203 -3.1023,-0.04426 -3.15171,-0.3923 l -0.0497,-0.350024 2.40307,0 c 1.94628,0 2.43989,-0.04439 2.59674,-0.233355 0.17092,-0.20595 -0.13511,-0.233354 -2.60655,-0.233354 -2.05348,0 -2.84334,-0.05203 -2.96194,-0.194853 -0.17708,-0.213379 -0.01,-1.422921 0.30346,-2.190411 0.50089,-1.179919 1.33855,-2.292827 2.3412,-3.12116 0.85185,-0.70374898 3.32924,-1.51475598 3.92675,-1.28546198 0.19232,0.0738 0.24163,0.363509 0.24163,1.41991898 0,0.729971 0.056,1.327213 0.12444,1.327213 0.30537,0 0.49782,-0.430694 0.49782,-1.114089 0,-0.738743 0.002,-0.741223 0.66116,-0.92556998 1.0257,-0.286763 3.43141,-0.208475 4.82831,0.15713598 3.84293,1.005792 6.64937,3.695058 7.59573,7.27855 0.42981,1.6275479 0.46572,4.2584879 0.076,5.5714899 -0.71358,2.404288 -2.26096,4.319444 -4.23722,5.244231 -0.82606,0.386561 -1.29009,0.498221 -2.22269,0.534819 -0.64827,0.02549 -1.35413,-0.01125 -1.5686,-0.08149 z m -4.81439,-9.412277 c -0.13475,-0.3544259 -0.24457,-0.3971599 -1.12832,-0.4391239 -0.88022,-0.04184 -0.98405,-0.08182 -1.02875,-0.39652 -0.0473,-0.333451 1.5e-4,-0.350025 1.00464,-0.350025 1.00032,0 1.08368,-0.02872 1.62701,-0.559208 0.49521,-0.483556 0.61709,-0.53541 0.90107,-0.38344 0.44799,0.239751 0.4139,0.450706 -0.17023,1.053357 -0.30522,0.314918 -0.50133,0.678732 -0.5056,0.9379609 -0.009,0.57493 -0.49703,0.67037 -0.69982,0.136999 z"
               style="display:inline;opacity:1;fill:#7cd02f;fill-opacity:1;stroke:none;stroke-width:1.31742239;stroke-miterlimit:4;stroke-dasharray:none;stroke-opacity:0.8" />
            <ellipse
               style="display:inline;opacity:1;fill:url(#linearGradient4868);fill-opacity:1;stroke:none;stroke-width:0.80769163;stroke-miterlimit:4;stroke-dasharray:none;stroke-dashoffset:0;stroke-opacity:1"
               id="path3377-1-9"
               cx="133.52396"
               cy="7.6558299"
               transform="matrix(0.9963968,0.08481397,-0.08481395,0.99639681,0,0)"
               rx="7.9927664"
               ry="8.0070257" />
            <path
               style="display:inline;fill:#ffffff;fill-opacity:0.87244897;stroke:none;stroke-opacity:0.8"
               sketch:type="MSShapeGroup"
               id="Remote-5-4"
               d="m 134.35329,22.556214 c -0.18997,0 -0.37947,-0.08162 -0.51729,-0.241914 -0.35339,-0.412045 -0.85671,-0.647565 -1.38145,-0.647565 -0.53358,0 -1.02387,0.22864 -1.38052,0.644123 -0.25888,0.302396 -0.70027,0.32551 -0.98662,0.05114 -0.28588,-0.273878 -0.30777,-0.740016 -0.0484,-1.041421 0.61553,-0.717391 1.49599,-1.128945 2.41555,-1.128945 0.91818,0 1.79864,0.412541 2.41603,1.131402 0.25934,0.301904 0.23746,0.768033 -0.0484,1.04191 -0.13316,0.128331 -0.30124,0.191269 -0.46886,0.191269 z m 1.54953,-1.845342 c -0.17833,0 -0.35666,-0.07179 -0.49261,-0.21487 -0.7906,-0.83048 -1.84007,-1.287759 -2.95566,-1.287759 -1.11792,0 -2.16786,0.456293 -2.95706,1.284803 -0.27331,0.287153 -0.71564,0.285679 -0.98755,-0.0029 -0.27191,-0.288626 -0.27098,-0.755741 0.003,-1.042898 1.05227,-1.105336 2.45235,-1.714056 3.94182,-1.714056 1.48715,0 2.88675,0.609707 3.94088,1.717008 0.27378,0.287156 0.27471,0.754267 0.003,1.043384 -0.13642,0.144074 -0.31614,0.21733 -0.4954,0.21733 z m 1.54627,-1.842395 c -0.17367,0 -0.3478,-0.06835 -0.48329,-0.205035 -1.21942,-1.234165 -2.8211,-1.913695 -4.51125,-1.913695 -1.69341,0 -3.29602,0.678543 -4.51218,1.911722 -0.27797,0.281746 -0.72029,0.272405 -0.98755,-0.02162 -0.26726,-0.294042 -0.25795,-0.761152 0.02,-1.042894 1.47783,-1.497712 3.4236,-2.322293 5.47971,-2.322293 2.05192,0 3.99722,0.825563 5.47784,2.323762 0.27844,0.281754 0.28775,0.748861 0.021,1.042898 -0.13735,0.15095 -0.3208,0.227162 -0.50425,0.227162 z m -5.08208,5.472195 c 0.46595,0 0.84368,-0.378444 0.84368,-0.845274 0,-0.466825 -0.37773,-0.845269 -0.84368,-0.845269 -0.46594,0 -0.84367,0.378444 -0.84367,0.845269 0,0.46683 0.37773,0.845274 0.84367,0.845274 z"
               inkscape:connector-curvature="0" />
          </g>
        </g>
      </g>
    </g>
  </g>
</svg>
