<?xml version="1.0" encoding="UTF-8" standalone="no"?>
<!-- Created with Inkscape (http://www.inkscape.org/) -->

<svg
   xmlns:dc="http://purl.org/dc/elements/1.1/"
   xmlns:cc="http://creativecommons.org/ns#"
   xmlns:rdf="http://www.w3.org/1999/02/22-rdf-syntax-ns#"
   xmlns:svg="http://www.w3.org/2000/svg"
   xmlns="http://www.w3.org/2000/svg"
   xmlns:xlink="http://www.w3.org/1999/xlink"
   xmlns:sodipodi="http://sodipodi.sourceforge.net/DTD/sodipodi-0.dtd"
   xmlns:inkscape="http://www.inkscape.org/namespaces/inkscape"
   width="48"
   height="48"
   id="svg5453"
   version="1.1"
   inkscape:version="0.91 r13725"
   sodipodi:docname="yast-language.svg">
  <defs
     id="defs5455">
    <linearGradient
       id="linearGradient4422">
      <stop
         id="stop4424"
         offset="0"
         style="stop-color:#197ff1;stop-opacity:1" />
      <stop
         id="stop4426"
         offset="1"
         style="stop-color:#21c6fb;stop-opacity:1" />
    </linearGradient>
    <linearGradient
       id="linearGradient4232">
      <stop
         style="stop-color:#3889e9;stop-opacity:1"
         offset="0"
         id="stop4234-0" />
      <stop
         style="stop-color:#5ea5fb;stop-opacity:1"
         offset="1"
         id="stop4236" />
    </linearGradient>
    <linearGradient
       id="linearGradient8467-5">
      <stop
         id="stop8469-7"
         style="stop-color:#d3d3d3;stop-opacity:1"
         offset="0" />
      <stop
         id="stop8471-0"
         style="stop-color:#fcf9f9;stop-opacity:1"
         offset="1" />
    </linearGradient>
    <linearGradient
       gradientTransform="matrix(1.1437903,0,0,1.1437903,-267.21245,-595.78538)"
       gradientUnits="userSpaceOnUse"
       y2="509.68469"
       x2="311.96344"
       y1="525.35498"
       x1="312.83197"
       id="linearGradient4609"
       xlink:href="#linearGradient4391"
       inkscape:collect="always" />
    <linearGradient
       id="linearGradient4391"
       inkscape:collect="always">
      <stop
         id="stop4393"
         offset="0"
         style="stop-color:#dcebe8;stop-opacity:1" />
      <stop
         id="stop4395"
         offset="1"
         style="stop-color:#f6f8f7;stop-opacity:1" />
    </linearGradient>
    <linearGradient
       gradientTransform="matrix(1.3570964,0,0,-1.0337295,-339.54645,538.02643)"
       gradientUnits="userSpaceOnUse"
       y2="493.74561"
       x2="330.68326"
       y1="531.93317"
       x1="331.19839"
       id="linearGradient4397"
       xlink:href="#linearGradient4391"
       inkscape:collect="always" />
    <linearGradient
       gradientTransform="matrix(1.1437903,0,0,1.1437903,-267.21245,-595.78538)"
       gradientUnits="userSpaceOnUse"
       y2="536.5354"
       x2="330.06686"
       y1="539.17456"
       x1="322.78955"
       id="linearGradient4580"
       xlink:href="#linearGradient4793"
       inkscape:collect="always" />
    <linearGradient
       inkscape:collect="always"
       id="linearGradient4793">
      <stop
         style="stop-color:#4da70e;stop-opacity:1"
         offset="0"
         id="stop4795" />
      <stop
         style="stop-color:#9ded46;stop-opacity:1"
         offset="1"
         id="stop4797" />
    </linearGradient>
    <linearGradient
       gradientTransform="matrix(0.51323687,0,0,0.51323687,-13.947527,-283.68714)"
       gradientUnits="userSpaceOnUse"
       y2="548.61469"
       x2="246.09758"
       y1="581.29999"
       x1="247.31018"
       id="linearGradient5081"
       xlink:href="#linearGradient4793"
       inkscape:collect="always" />
    <linearGradient
       gradientTransform="matrix(1.1864961,0,0,-1.02616,-280.23237,528.27224)"
       gradientUnits="userSpaceOnUse"
       y2="536.53101"
       x2="308.64951"
       y1="499.50363"
       x1="307.01227"
       id="linearGradient4388"
       xlink:href="#linearGradient4793"
       inkscape:collect="always" />
  </defs>
  <sodipodi:namedview
     id="base"
     pagecolor="#ffffff"
     bordercolor="#666666"
     borderopacity="1.0"
     inkscape:pageopacity="0"
     inkscape:pageshadow="2"
     inkscape:zoom="4"
     inkscape:cx="5.875"
     inkscape:cy="15.968792"
     inkscape:document-units="px"
     inkscape:current-layer="g4370"
     showgrid="true"
     fit-margin-top="0"
     fit-margin-left="0"
     fit-margin-right="0"
     fit-margin-bottom="0"
     inkscape:window-width="1366"
     inkscape:window-height="687"
     inkscape:window-x="0"
     inkscape:window-y="0"
     inkscape:window-maximized="1"
     inkscape:showpageshadow="false"
     borderlayer="true"
     showguides="false">
    <inkscape:grid
       type="xygrid"
       id="grid4063" />
    <sodipodi:guide
       position="1.1650391e-05,32.000026"
       orientation="32,0"
       id="guide4157" />
    <sodipodi:guide
       position="1.1650391e-05,2.6367188e-05"
       orientation="0,32"
       id="guide4159" />
    <sodipodi:guide
       position="32.000012,2.6367188e-05"
       orientation="-32,0"
       id="guide4161" />
    <sodipodi:guide
       position="32.000012,32.000026"
       orientation="0,-32"
       id="guide4163" />
    <sodipodi:guide
       position="2.0000117,30.000026"
       orientation="28,0"
       id="guide4167" />
    <sodipodi:guide
       position="2.0000117,2.0000264"
       orientation="0,28"
       id="guide4169" />
    <sodipodi:guide
       position="30.000012,2.0000264"
       orientation="-28,0"
       id="guide4171" />
    <sodipodi:guide
       position="30.000012,30.000026"
       orientation="0,-28"
       id="guide4173" />
    <sodipodi:guide
       position="2.0000117,30.000026"
       orientation="28,0"
       id="guide4181" />
    <sodipodi:guide
       position="2.0000117,2.0000264"
       orientation="0,14"
       id="guide4183" />
    <sodipodi:guide
       position="16.000012,2.0000264"
       orientation="-28,0"
       id="guide4185" />
    <sodipodi:guide
       position="16.000012,30.000026"
       orientation="0,-14"
       id="guide4187" />
    <sodipodi:guide
       position="9.0000117,23.000026"
       orientation="14,0"
       id="guide4193" />
    <sodipodi:guide
       position="9.0000117,9.0000264"
       orientation="0,14.000031"
       id="guide4195" />
    <sodipodi:guide
       position="23.000042,9.0000264"
       orientation="-14,0"
       id="guide4197" />
    <sodipodi:guide
       position="23.000042,23.000026"
       orientation="0,-14.000031"
       id="guide4199" />
  </sodipodi:namedview>
  <metadata
     id="metadata5458">
    <rdf:RDF>
      <cc:Work
         rdf:about="">
        <dc:format>image/svg+xml</dc:format>
        <dc:type
           rdf:resource="http://purl.org/dc/dcmitype/StillImage" />
        <dc:title></dc:title>
      </cc:Work>
    </rdf:RDF>
  </metadata>
  <g
     inkscape:label="Capa 1"
     inkscape:groupmode="layer"
     id="layer1"
     transform="translate(-384.57143,-499.798)">
    <g
       style="display:inline;enable-background:new"
       id="g4238"
       transform="translate(225.81911,462.44565)">
      <g
         style="display:inline"
         id="layer1-8"
         transform="matrix(0.22655187,0,0,0.22655187,106.94841,54.31088)">
        <g
           style="display:none"
           id="layer6" />
        <g
           id="g4027" />
        <g
           id="g4061" />
        <g
           id="g3751" />
        <g
           id="g3782" />
        <g
           id="g3725" />
        <g
           id="g4370"
           transform="matrix(4.4140002,0,0,4.4140002,59.275211,39.357303)">
          <g
             id="g4923"
             transform="translate(-37.883027,-4.1558856)">
            <path
               style="opacity:1;fill:url(#linearGradient4397);fill-opacity:1;fill-rule:evenodd;stroke:none;stroke-width:1px;stroke-linecap:butt;stroke-linejoin:miter;stroke-opacity:1"
               d="m 102.68123,26.163347 -13.23329,-38.97573 28.75482,0 c 5.38342,-0.219127 5.99702,3.5616724 5.99702,3.5616724 l 0,31.1603586 c 0,0 0.94284,4.253699 -4.75799,4.253699 z"
               id="path4343-3"
               inkscape:connector-curvature="0"
               sodipodi:nodetypes="ccccccc" />
            <path
               style="opacity:1;fill:url(#linearGradient5081);fill-opacity:1"
               inkscape:connector-curvature="0"
               d="m 106.31513,2.5223928 9.70868,0 c -0.2736,1.75314 -1.20313,3.620578 -2.7656,5.555353 -0.99588,-1.595315 -1.63637,-3.142509 -2.00162,-4.172713 -0.0923,-0.259975 -0.33798,-0.433727 -0.61355,-0.433727 l -1.59762,0 c -0.20758,0 -0.40285,0.09903 -0.52552,0.266545 -0.12252,0.167674 -0.15783,0.38347 -0.0951,0.581692 0.37854,1.191972 1.25043,3.53206 2.86233,5.9099232 -1.90407,1.851014 -3.80074,3.18504 -4.53451,3.676577 -0.292,0.195759 -0.37592,0.588102 -0.18936,0.886174 l 0.80177,1.282297 c 0.0928,0.148295 0.24191,0.253241 0.41303,0.290846 0.046,0.01037 0.0926,0.0153 0.13894,0.0153 0.12629,0 0.25078,-0.0368 0.35769,-0.106913 0.75561,-0.496628 2.71601,-1.852497 4.76886,-3.819128 0.75956,0.791581 2.54538,2.178977 3.60349,2.948555 0.16144,0.117419 0.36821,0.154043 0.56085,0.09969 0.19247,-0.05485 0.34882,-0.195107 0.42469,-0.379697 l 0.59812,-1.462124 c 0.12021,-0.293802 0.0107,-0.632277 -0.25931,-0.7993 -0.68944,-0.427649 -1.98733,-1.305941 -3.04677,-2.447329 2.32597,-2.7220852 3.65244,-5.3758482 3.94444,-7.8910062 l 0.51255,0 c 0.3595,0 0.651,-0.291503 0.651,-0.651164 l 0,-1.735403 c 0,-0.359497 -0.29134,-0.651 -0.651,-0.651 l -5.07005,0 0,-0.891102 c 0,-0.359656 -0.29134,-0.651164 -0.651,-0.651164 l -1.62422,0 c -0.3595,0 -0.651,0.291344 -0.651,0.651164 l 0,0.891102 -5.07006,0 c -0.35949,0 -0.651,0.291344 -0.651,0.651005 l 0,1.735398 c -1.7e-4,0.358675 0.29134,0.650178 0.65083,0.650178 z"
               id="path4256-4" />
            <path
               style="opacity:1;fill:url(#linearGradient4580);fill-opacity:1;fill-rule:evenodd;stroke:none;stroke-width:0.92006624px;stroke-linecap:butt;stroke-linejoin:miter;stroke-opacity:1"
               d="m 98.972431,16.725075 3.562389,9.516358 8.53467,-9.516358 z"
               id="path4572"
               inkscape:connector-curvature="0"
               sodipodi:nodetypes="cccc" />
            <path
               style="opacity:1;fill:url(#linearGradient4388);fill-opacity:1;fill-rule:evenodd;stroke:none;stroke-width:1px;stroke-linecap:butt;stroke-linejoin:miter;stroke-opacity:1"
               d="m 98.090694,-21.679663 12.985106,38.690331 -30.049164,0 c -4.706663,0.217515 -4.768611,-3.535592 -4.768611,-3.535592 l 0,-30.932185 c 0,0 0.125062,-4.222554 5.109231,-4.222554 z"
               id="path4343"
               inkscape:connector-curvature="0"
               sodipodi:nodetypes="ccccccc" />
            <path
               style="opacity:1;fill:url(#linearGradient4609);fill-opacity:1"
               inkscape:connector-curvature="0"
               d="m 93.045813,-10.754258 c -0.09711,-0.312404 -0.385595,-0.525263 -0.712673,-0.525263 l -4.145119,0 c -0.328016,0 -0.617464,0.214369 -0.713428,0.527882 L 82.521764,5.4422598 c -0.06943,0.226207 -0.02722,0.471996 0.113578,0.662632 0.140812,0.189869 0.363211,0.301846 0.599964,0.301846 l 2.571435,0 c 0.33481,0 0.628936,-0.223554 0.718724,-0.545931 l 1.110323,-3.995122 5.066693,0 1.202353,4.009808 c 0.09448,0.315778 0.385228,0.531634 0.714548,0.531634 l 2.733121,0 c 0.237508,0 0.459941,-0.112664 0.600342,-0.30299 0.140812,-0.19107 0.182343,-0.437157 0.111862,-0.663559 L 93.045813,-10.754258 Z m -4.835969,9.6327628 1.8663,-7.1638794 0.05078,0 1.995571,7.1638794 -3.912689,0 z"
               id="path4258" />
          </g>
        </g>
      </g>
    </g>
  </g>
</svg>
