<?xml version="1.0" encoding="UTF-8" standalone="no"?>
<!-- Created with Inkscape (http://www.inkscape.org/) -->

<svg
   xmlns:dc="http://purl.org/dc/elements/1.1/"
   xmlns:cc="http://creativecommons.org/ns#"
   xmlns:rdf="http://www.w3.org/1999/02/22-rdf-syntax-ns#"
   xmlns:svg="http://www.w3.org/2000/svg"
   xmlns="http://www.w3.org/2000/svg"
   xmlns:xlink="http://www.w3.org/1999/xlink"
   xmlns:sodipodi="http://sodipodi.sourceforge.net/DTD/sodipodi-0.dtd"
   xmlns:inkscape="http://www.inkscape.org/namespaces/inkscape"
   width="48"
   height="48"
   id="svg5453"
   version="1.1"
   inkscape:version="0.91 r13725"
   sodipodi:docname="yast-release-notes.svg">
  <defs
     id="defs5455">
    <linearGradient
       id="linearGradient4422">
      <stop
         id="stop4424"
         offset="0"
         style="stop-color:#197ff1;stop-opacity:1" />
      <stop
         id="stop4426"
         offset="1"
         style="stop-color:#21c6fb;stop-opacity:1" />
    </linearGradient>
    <linearGradient
       id="linearGradient4232">
      <stop
         style="stop-color:#3889e9;stop-opacity:1"
         offset="0"
         id="stop4234-0" />
      <stop
         style="stop-color:#5ea5fb;stop-opacity:1"
         offset="1"
         id="stop4236" />
    </linearGradient>
    <linearGradient
       id="linearGradient8467-5">
      <stop
         id="stop8469-7"
         style="stop-color:#d3d3d3;stop-opacity:1"
         offset="0" />
      <stop
         id="stop8471-0"
         style="stop-color:#fcf9f9;stop-opacity:1"
         offset="1" />
    </linearGradient>
    <linearGradient
       id="linearGradient3687-2">
      <stop
         style="stop-color:#1a1a1a;stop-opacity:1"
         offset="0"
         id="stop3689-6" />
      <stop
         id="stop3691-8"
         offset="0.11054216"
         style="stop-color:#2c2c2e;stop-opacity:1" />
      <stop
         id="stop3693-8"
         offset="0.29001436"
         style="stop-color:#2b2b2d;stop-opacity:1" />
      <stop
         id="stop3695-4"
         offset="0.5118711"
         style="stop-color:#2a2b2d;stop-opacity:1" />
      <stop
         id="stop3699-86"
         offset="0.75173318"
         style="stop-color:#2b2b2d;stop-opacity:1" />
      <stop
         style="stop-color:#323232;stop-opacity:1"
         offset="0.89659214"
         id="stop3701-8" />
      <stop
         style="stop-color:#171717;stop-opacity:1"
         offset="1"
         id="stop3703-9" />
    </linearGradient>
    <linearGradient
       inkscape:collect="always"
       xlink:href="#linearGradient4793"
       id="linearGradient4489"
       x1="408.57144"
       y1="542.79797"
       x2="408.57144"
       y2="503.798"
       gradientUnits="userSpaceOnUse"
       gradientTransform="matrix(1.1999996,0,0,1.1999996,-388.88036,-611.77459)" />
    <linearGradient
       inkscape:collect="always"
       id="linearGradient4793">
      <stop
         style="stop-color:#4da70e;stop-opacity:1"
         offset="0"
         id="stop4795" />
      <stop
         style="stop-color:#9ded46;stop-opacity:1"
         offset="1"
         id="stop4797" />
    </linearGradient>
  </defs>
  <sodipodi:namedview
     id="base"
     pagecolor="#ffffff"
     bordercolor="#666666"
     borderopacity="1.0"
     inkscape:pageopacity="0"
     inkscape:pageshadow="2"
     inkscape:zoom="4"
     inkscape:cx="5.875"
     inkscape:cy="15.968792"
     inkscape:document-units="px"
     inkscape:current-layer="g4370"
     showgrid="true"
     fit-margin-top="0"
     fit-margin-left="0"
     fit-margin-right="0"
     fit-margin-bottom="0"
     inkscape:window-width="1366"
     inkscape:window-height="687"
     inkscape:window-x="0"
     inkscape:window-y="0"
     inkscape:window-maximized="1"
     inkscape:showpageshadow="false"
     borderlayer="true"
     showguides="false">
    <inkscape:grid
       type="xygrid"
       id="grid4063" />
    <sodipodi:guide
       position="1.1650391e-05,32.000026"
       orientation="32,0"
       id="guide4157" />
    <sodipodi:guide
       position="1.1650391e-05,2.6367188e-05"
       orientation="0,32"
       id="guide4159" />
    <sodipodi:guide
       position="32.000012,2.6367188e-05"
       orientation="-32,0"
       id="guide4161" />
    <sodipodi:guide
       position="32.000012,32.000026"
       orientation="0,-32"
       id="guide4163" />
    <sodipodi:guide
       position="2.0000117,30.000026"
       orientation="28,0"
       id="guide4167" />
    <sodipodi:guide
       position="2.0000117,2.0000264"
       orientation="0,28"
       id="guide4169" />
    <sodipodi:guide
       position="30.000012,2.0000264"
       orientation="-28,0"
       id="guide4171" />
    <sodipodi:guide
       position="30.000012,30.000026"
       orientation="0,-28"
       id="guide4173" />
    <sodipodi:guide
       position="2.0000117,30.000026"
       orientation="28,0"
       id="guide4181" />
    <sodipodi:guide
       position="2.0000117,2.0000264"
       orientation="0,14"
       id="guide4183" />
    <sodipodi:guide
       position="16.000012,2.0000264"
       orientation="-28,0"
       id="guide4185" />
    <sodipodi:guide
       position="16.000012,30.000026"
       orientation="0,-14"
       id="guide4187" />
    <sodipodi:guide
       position="9.0000117,23.000026"
       orientation="14,0"
       id="guide4193" />
    <sodipodi:guide
       position="9.0000117,9.0000264"
       orientation="0,14.000031"
       id="guide4195" />
    <sodipodi:guide
       position="23.000042,9.0000264"
       orientation="-14,0"
       id="guide4197" />
    <sodipodi:guide
       position="23.000042,23.000026"
       orientation="0,-14.000031"
       id="guide4199" />
  </sodipodi:namedview>
  <metadata
     id="metadata5458">
    <rdf:RDF>
      <cc:Work
         rdf:about="">
        <dc:format>image/svg+xml</dc:format>
        <dc:type
           rdf:resource="http://purl.org/dc/dcmitype/StillImage" />
        <dc:title></dc:title>
      </cc:Work>
    </rdf:RDF>
  </metadata>
  <g
     inkscape:label="Capa 1"
     inkscape:groupmode="layer"
     id="layer1"
     transform="translate(-384.57143,-499.798)">
    <g
       style="display:inline;enable-background:new"
       id="g4238"
       transform="translate(225.81911,462.44565)">
      <g
         style="display:inline"
         id="layer1-8"
         transform="matrix(0.22655187,0,0,0.22655187,106.94841,54.31088)">
        <g
           style="display:none"
           id="layer6" />
        <g
           id="g4027" />
        <g
           id="g4061" />
        <g
           id="g3751" />
        <g
           id="g3782" />
        <g
           id="g3725" />
        <g
           id="g4370"
           transform="matrix(4.4140002,0,0,4.4140002,59.275211,39.357303)">
          <g
             id="g5478"
             transform="translate(-39.030197,-18.657792)">
            <circle
               r="23.999998"
               cy="16.782791"
               cx="101.4052"
               id="path4173"
               style="opacity:1;fill:url(#linearGradient4489);fill-opacity:1;stroke:none;stroke-width:1.31742239;stroke-linecap:butt;stroke-linejoin:round;stroke-miterlimit:4;stroke-dasharray:none;stroke-opacity:1" />
            <path
               style="opacity:1;fill:#ffffff;fill-opacity:0.85;stroke-width:1.31742239;stroke-miterlimit:4;stroke-dasharray:none"
               d="m 104.98112,32.44403 c -4.05709,-1.329192 -5.904219,-5.539995 -4.0375,-9.204111 0.84691,-1.662361 1.96337,-2.579186 3.78935,-3.111746 2.38069,-0.694357 4.99263,0.264575 6.36363,2.336311 0.93859,1.418299 1.04633,3.696237 0.24571,5.19513 -1.87938,3.518432 -7.03261,3.443472 -8.39431,-0.122103 -0.79021,-2.069123 0.12457,-4.227116 2.11393,-4.986865 2.01747,-0.770477 4.1369,0.463918 4.37161,2.546104 0.0988,0.876741 0.018,1.157382 -0.51701,1.793062 -1.1552,1.372886 -3.0494,1.214282 -3.74556,-0.313617 -0.3695,-0.810996 -0.0931,-0.965192 0.66335,-0.370137 0.79982,0.629145 1.39122,0.637154 2.00125,0.02708 0.62744,-0.627424 0.60044,-1.254687 -0.0885,-2.055527 -1.28167,-1.490048 -3.76352,-0.279491 -3.81037,1.85854 -0.0264,1.207736 0.55558,2.140217 1.67618,2.685413 2.83975,1.381579 5.97718,-1.735231 4.82266,-4.790942 -0.31816,-0.842074 -1.31662,-1.907831 -2.23785,-2.388641 -1.86125,-0.971453 -4.71193,-0.07391 -6.01389,1.893465 -0.54291,0.820403 -0.64846,1.237292 -0.64846,2.56123 0,1.345248 0.10743,1.755079 0.71953,2.745106 0.44658,0.722365 1.16134,1.436692 1.88437,1.88329 1.01529,0.62712 1.38085,0.718336 2.84662,0.710223 3.47151,-0.019 5.85294,-2.246691 6.57174,-6.146974 0.50925,-2.763195 -0.49856,-5.900783 -2.52932,-7.874453 -0.7242,-0.703839 -1.05309,-1.220628 -1.05309,-1.654685 0,-0.724484 -0.38451,-1.550909 -0.72159,-1.550909 -0.1294,0 -0.22937,0.883325 -0.22937,2.026664 l 0,2.026665 1.06983,0.646208 c 1.17338,0.708759 1.44624,1.481763 0.52303,1.481763 -0.30074,0 -0.66576,-0.118958 -0.81115,-0.264357 -0.14541,-0.145398 -0.94243,-0.497844 -1.77118,-0.783216 -1.53993,-0.53028 -2.00099,-1.140794 -0.97192,-1.286942 0.46018,-0.06536 0.53492,-0.219058 0.53492,-1.099837 l 0,-1.023859 -1.32946,-0.110255 c -1.49691,-0.124136 -1.75221,-0.367049 -1.75754,-1.672261 -0.003,-0.49033 -0.0975,-0.891534 -0.21226,-0.891534 -0.53277,0 -0.83685,0.889615 -0.93349,2.731111 -0.10171,1.937786 -0.0912,1.984948 0.45714,2.062872 1.08244,0.153788 0.81291,0.861255 -0.55932,1.46812 -0.70262,0.31072 -1.67323,0.912426 -2.15692,1.337106 -0.87949,0.772206 -1.591372,0.837836 -1.591372,0.14671 0,-0.193738 0.481428,-0.754667 1.069832,-1.246517 1.05471,-0.881625 1.06985,-0.914925 1.06985,-2.354087 0,-1.816586 -0.60205,-2.822042 -2.196125,-3.667697 l -1.116367,-0.592225 -1.032619,1.013447 -1.032638,1.013456 -4.74058,-0.0647 c -4.712867,-0.06423 -4.741017,-0.06765 -4.816519,-0.599524 l -0.07601,-0.534916 3.672429,0 c 2.974347,0 3.728701,-0.06783 3.968393,-0.356618 0.261212,-0.314738 -0.206468,-0.356617 -3.983385,-0.356617 -3.138187,0 -4.345267,-0.07952 -4.526511,-0.29778 -0.270627,-0.326091 -0.01463,-2.174542 0.463746,-3.3474386 0.765479,-1.8031804 2.04561,-3.5039534 3.577879,-4.7698324 1.30182,-1.075486 5.087829,-2.314886 6.000968,-1.964473 0.293903,0.112782 0.369253,0.555523 0.369253,2.169954 0,1.115559 0.0856,2.02828 0.190184,2.02828 0.466664,0 0.760776,-0.658198 0.760776,-1.702578 0,-1.128965 0.0038,-1.132756 1.010406,-1.41448 1.567488,-0.438237 5.24396,-0.318595 7.37874,0.240139 5.87285,1.537076 10.16173,5.6468784 11.60798,11.123257 0.65685,2.487257 0.71172,6.507923 0.11618,8.514485 -1.0905,3.67429 -3.45526,6.601078 -6.47542,8.01436 -1.26241,0.590752 -1.97155,0.761393 -3.39677,0.817324 -0.9907,0.03895 -2.06942,-0.0172 -2.39717,-0.124535 z M 97.623668,18.059962 c -0.205936,-0.541643 -0.373766,-0.606951 -1.724334,-0.67108 -1.345172,-0.06394 -1.503852,-0.125039 -1.572162,-0.605972 -0.0723,-0.509588 2.37e-4,-0.534917 1.535318,-0.534917 1.528706,0 1.656101,-0.04389 2.486431,-0.854595 0.756795,-0.738981 0.943056,-0.818226 1.377047,-0.585982 0.684622,0.366393 0.632532,0.68878 -0.260157,1.609765 -0.466436,0.481267 -0.766134,1.037255 -0.772661,1.433415 -0.01444,0.878622 -0.759579,1.024476 -1.069482,0.209366 z"
               id="path4251"
               inkscape:connector-curvature="0"
               sodipodi:nodetypes="csssssssssssssssssssssssssscsssssscscssssssssscccsscssssccsssssssssscsssssssss" />
          </g>
        </g>
      </g>
    </g>
  </g>
</svg>
