<?xml version="1.0" encoding="UTF-8" standalone="no"?>
<!-- Created with Inkscape (http://www.inkscape.org/) -->

<svg
   xmlns:dc="http://purl.org/dc/elements/1.1/"
   xmlns:cc="http://creativecommons.org/ns#"
   xmlns:rdf="http://www.w3.org/1999/02/22-rdf-syntax-ns#"
   xmlns:svg="http://www.w3.org/2000/svg"
   xmlns="http://www.w3.org/2000/svg"
   xmlns:xlink="http://www.w3.org/1999/xlink"
   xmlns:sodipodi="http://sodipodi.sourceforge.net/DTD/sodipodi-0.dtd"
   xmlns:inkscape="http://www.inkscape.org/namespaces/inkscape"
   width="48"
   height="48"
   id="svg5453"
   version="1.1"
   inkscape:version="0.91 r13725"
   sodipodi:docname="yast-powertweak.svg">
  <defs
     id="defs5455">
    <linearGradient
       id="linearGradient4422">
      <stop
         id="stop4424"
         offset="0"
         style="stop-color:#197ff1;stop-opacity:1" />
      <stop
         id="stop4426"
         offset="1"
         style="stop-color:#21c6fb;stop-opacity:1" />
    </linearGradient>
    <linearGradient
       id="linearGradient4232">
      <stop
         style="stop-color:#3889e9;stop-opacity:1"
         offset="0"
         id="stop4234-0" />
      <stop
         style="stop-color:#5ea5fb;stop-opacity:1"
         offset="1"
         id="stop4236" />
    </linearGradient>
    <linearGradient
       id="linearGradient8467-5">
      <stop
         id="stop8469-7"
         style="stop-color:#d3d3d3;stop-opacity:1"
         offset="0" />
      <stop
         id="stop8471-0"
         style="stop-color:#fcf9f9;stop-opacity:1"
         offset="1" />
    </linearGradient>
    <linearGradient
       id="linearGradient3687-2">
      <stop
         style="stop-color:#1a1a1a;stop-opacity:1"
         offset="0"
         id="stop3689-6" />
      <stop
         id="stop3691-8"
         offset="0.11054216"
         style="stop-color:#2c2c2e;stop-opacity:1" />
      <stop
         id="stop3693-8"
         offset="0.29001436"
         style="stop-color:#2b2b2d;stop-opacity:1" />
      <stop
         id="stop3695-4"
         offset="0.5118711"
         style="stop-color:#2a2b2d;stop-opacity:1" />
      <stop
         id="stop3699-86"
         offset="0.75173318"
         style="stop-color:#2b2b2d;stop-opacity:1" />
      <stop
         style="stop-color:#323232;stop-opacity:1"
         offset="0.89659214"
         id="stop3701-8" />
      <stop
         style="stop-color:#171717;stop-opacity:1"
         offset="1"
         id="stop3703-9" />
    </linearGradient>
    <linearGradient
       inkscape:collect="always"
       xlink:href="#linearGradient4793"
       id="linearGradient4224"
       gradientUnits="userSpaceOnUse"
       gradientTransform="matrix(1.7142876,0,0,1.7142876,-569.05548,-901.34349)"
       x1="400.57138"
       y1="545.79797"
       x2="400.57138"
       y2="517.79797" />
    <linearGradient
       inkscape:collect="always"
       id="linearGradient4793">
      <stop
         style="stop-color:#4da70e;stop-opacity:1"
         offset="0"
         id="stop4795" />
      <stop
         style="stop-color:#9ded46;stop-opacity:1"
         offset="1"
         id="stop4797" />
    </linearGradient>
  </defs>
  <sodipodi:namedview
     id="base"
     pagecolor="#ffffff"
     bordercolor="#666666"
     borderopacity="1.0"
     inkscape:pageopacity="0"
     inkscape:pageshadow="2"
     inkscape:zoom="4"
     inkscape:cx="5.875"
     inkscape:cy="15.968792"
     inkscape:document-units="px"
     inkscape:current-layer="g4370"
     showgrid="true"
     fit-margin-top="0"
     fit-margin-left="0"
     fit-margin-right="0"
     fit-margin-bottom="0"
     inkscape:window-width="1366"
     inkscape:window-height="687"
     inkscape:window-x="0"
     inkscape:window-y="0"
     inkscape:window-maximized="1"
     inkscape:showpageshadow="false"
     borderlayer="true"
     showguides="false">
    <inkscape:grid
       type="xygrid"
       id="grid4063" />
    <sodipodi:guide
       position="1.1650391e-05,32.000026"
       orientation="32,0"
       id="guide4157" />
    <sodipodi:guide
       position="1.1650391e-05,2.6367188e-05"
       orientation="0,32"
       id="guide4159" />
    <sodipodi:guide
       position="32.000012,2.6367188e-05"
       orientation="-32,0"
       id="guide4161" />
    <sodipodi:guide
       position="32.000012,32.000026"
       orientation="0,-32"
       id="guide4163" />
    <sodipodi:guide
       position="2.0000117,30.000026"
       orientation="28,0"
       id="guide4167" />
    <sodipodi:guide
       position="2.0000117,2.0000264"
       orientation="0,28"
       id="guide4169" />
    <sodipodi:guide
       position="30.000012,2.0000264"
       orientation="-28,0"
       id="guide4171" />
    <sodipodi:guide
       position="30.000012,30.000026"
       orientation="0,-28"
       id="guide4173" />
    <sodipodi:guide
       position="2.0000117,30.000026"
       orientation="28,0"
       id="guide4181" />
    <sodipodi:guide
       position="2.0000117,2.0000264"
       orientation="0,14"
       id="guide4183" />
    <sodipodi:guide
       position="16.000012,2.0000264"
       orientation="-28,0"
       id="guide4185" />
    <sodipodi:guide
       position="16.000012,30.000026"
       orientation="0,-14"
       id="guide4187" />
    <sodipodi:guide
       position="9.0000117,23.000026"
       orientation="14,0"
       id="guide4193" />
    <sodipodi:guide
       position="9.0000117,9.0000264"
       orientation="0,14.000031"
       id="guide4195" />
    <sodipodi:guide
       position="23.000042,9.0000264"
       orientation="-14,0"
       id="guide4197" />
    <sodipodi:guide
       position="23.000042,23.000026"
       orientation="0,-14.000031"
       id="guide4199" />
  </sodipodi:namedview>
  <metadata
     id="metadata5458">
    <rdf:RDF>
      <cc:Work
         rdf:about="">
        <dc:format>image/svg+xml</dc:format>
        <dc:type
           rdf:resource="http://purl.org/dc/dcmitype/StillImage" />
        <dc:title></dc:title>
      </cc:Work>
    </rdf:RDF>
  </metadata>
  <g
     inkscape:label="Capa 1"
     inkscape:groupmode="layer"
     id="layer1"
     transform="translate(-384.57143,-499.798)">
    <g
       style="display:inline;enable-background:new"
       id="g4238"
       transform="translate(225.81911,462.44565)">
      <g
         style="display:inline"
         id="layer1-8"
         transform="matrix(0.22655187,0,0,0.22655187,106.94841,54.31088)">
        <g
           style="display:none"
           id="layer6" />
        <g
           id="g4027" />
        <g
           id="g4061" />
        <g
           id="g3751" />
        <g
           id="g3782" />
        <g
           id="g3725" />
        <g
           id="g4370"
           transform="matrix(4.4140002,0,0,4.4140002,59.275211,39.357303)">
          <g
             id="g5361"
             transform="translate(-55.264147,-12.186087)">
            <rect
               style="opacity:1;fill:url(#linearGradient4224);fill-opacity:1;stroke:none;stroke-width:1.31742239;stroke-miterlimit:4;stroke-dasharray:none"
               id="rect4222"
               width="48.000004"
               height="48.000004"
               x="93.639145"
               y="-13.688915"
               ry="24.000002" />
            <path
               inkscape:connector-curvature="0"
               id="path6"
               d="m 134.22989,8.4572088 c -0.0528,-0.469378 -0.60008,-0.822095 -1.07331,-0.822095 -1.53002,0 -2.88771,-0.898379 -3.4571,-2.287753 -0.58169,-1.423044 -0.20661,-3.08264 0.93366,-4.1286164 0.35893,-0.328117 0.40254,-0.877382 0.1015,-1.258923 -0.78308,-0.994416 -1.67313,-1.89267 -2.64494,-2.671157 -0.38054,-0.305382 -0.93888,-0.262892 -1.26886,0.102498 -0.99516,1.102132 -2.78272,1.511751 -4.16402,0.935402 -1.43746,-0.604676 -2.34391,-2.061264 -2.25521,-3.624822 0.0292,-0.491121 -0.32973,-0.918133 -0.81936,-0.975159 -1.24712,-0.144243 -2.50517,-0.148715 -3.75602,-0.0099 -0.48404,0.05342 -0.84297,0.470372 -0.82669,0.95528 0.0544,1.548153 -0.86297,2.979273 -2.28614,3.562206 -1.36477,0.557465 -3.13979,0.151325 -4.13296,-0.940992 -0.32824,-0.359799 -0.87751,-0.404029 -1.25992,-0.105977 -1.00063,0.785072 -1.91068,1.684072 -2.70097,2.670288 -0.30824,0.383404 -0.2629,0.939129 0.0996,1.268986 1.16201,1.052312 1.53722,2.7263196 0.93354,4.1657626 -0.57635,1.372354 -2.00139,2.256817 -3.63278,2.256817 -0.52938,-0.01702 -0.90645,0.338306 -0.96435,0.819611 -0.14685,1.254326 -0.14859,2.532381 -0.007,3.796895 0.0524,0.471366 0.61636,0.820977 1.0948,0.820977 1.45386,-0.03715 2.84969,0.86297 3.43524,2.287877 0.58367,1.423044 0.20847,3.081646 -0.93354,4.128492 -0.35719,0.328117 -0.40254,0.876512 -0.10151,1.258053 0.77576,0.988079 1.66594,1.887203 2.64122,2.672151 0.38253,0.308239 0.93913,0.264755 1.27072,-0.100634 0.99889,-1.104866 2.78633,-1.513739 4.16216,-0.936272 1.44106,0.602812 2.34752,2.059276 2.25881,3.623705 -0.0289,0.491368 0.33172,0.919126 0.81936,0.975283 0.63797,0.07442 1.2798,0.111567 1.92336,0.111567 0.61089,0 1.2219,-0.03355 1.83279,-0.101504 0.48416,-0.05342 0.84284,-0.470372 0.82656,-0.95615 -0.056,-1.547284 0.86297,-2.978403 2.28428,-3.560342 1.37397,-0.561192 3.14153,-0.150455 4.13483,0.940744 0.3301,0.359053 0.87551,0.402413 1.26004,0.105355 0.99876,-0.783208 1.90695,-1.681462 2.70097,-2.670412 0.30812,-0.382534 0.26463,-0.939129 -0.0998,-1.268861 -1.16201,-1.052312 -1.53908,-2.726569 -0.9354,-4.165018 0.56753,-1.354091 1.93963,-2.263278 3.41548,-2.263278 l 0.20648,0.0053 c 0.4787,0.03889 0.91913,-0.329857 0.97715,-0.818492 0.1471,-1.255444 0.14884,-2.532382 0.007,-3.796895 z M 117.6656,15.915329 c -3.07096,0 -5.56893,-2.497967 -5.56893,-5.568928 0,-3.0708382 2.49797,-5.5689292 5.56893,-5.5689292 3.07084,0 5.56881,2.498091 5.56881,5.5689292 0,3.070961 -2.49797,5.568928 -5.56881,5.568928 z"
               style="clip-rule:evenodd;fill:#ffffff;fill-opacity:0.84693879;fill-rule:evenodd;stroke-width:1.31742239;stroke-miterlimit:4;stroke-dasharray:none" />
          </g>
        </g>
      </g>
    </g>
  </g>
</svg>
