<?xml version="1.0" encoding="UTF-8" standalone="no"?>
<!-- Created with Inkscape (http://www.inkscape.org/) -->

<svg
   xmlns:dc="http://purl.org/dc/elements/1.1/"
   xmlns:cc="http://creativecommons.org/ns#"
   xmlns:rdf="http://www.w3.org/1999/02/22-rdf-syntax-ns#"
   xmlns:svg="http://www.w3.org/2000/svg"
   xmlns="http://www.w3.org/2000/svg"
   xmlns:sodipodi="http://sodipodi.sourceforge.net/DTD/sodipodi-0.dtd"
   xmlns:inkscape="http://www.inkscape.org/namespaces/inkscape"
   width="16"
   height="16"
   id="svg2"
   version="1.1"
   inkscape:version="0.91 r13725"
   viewBox="0 0 16 16"
   sodipodi:docname="folder-gnome.svg">
  <defs
     id="defs4" />
  <sodipodi:namedview
     id="base"
     pagecolor="#7f7f7f"
     bordercolor="#666666"
     borderopacity="1.0"
     inkscape:pageopacity="0"
     inkscape:pageshadow="2"
     inkscape:zoom="24.007796"
     inkscape:cx="10.588092"
     inkscape:cy="15.78065"
     inkscape:document-units="px"
     inkscape:current-layer="layer1"
     showgrid="true"
     inkscape:showpageshadow="false"
     borderlayer="true"
     units="px"
     inkscape:window-width="1366"
     inkscape:window-height="634"
     inkscape:window-x="0"
     inkscape:window-y="36"
     inkscape:window-maximized="1"
     inkscape:snap-global="true"
     inkscape:snap-bbox="true">
    <inkscape:grid
       type="xygrid"
       id="grid4062" />
    <sodipodi:guide
       position="2,2.0000174"
       orientation="0,12"
       id="guide4068" />
    <sodipodi:guide
       position="14,2.0000174"
       orientation="-12,0"
       id="guide4070" />
    <sodipodi:guide
       position="14,14.000017"
       orientation="0,-12"
       id="guide4072" />
  </sodipodi:namedview>
  <metadata
     id="metadata7">
    <rdf:RDF>
      <cc:Work
         rdf:about="">
        <dc:format>image/svg+xml</dc:format>
        <dc:type
           rdf:resource="http://purl.org/dc/dcmitype/StillImage" />
        <dc:title />
      </cc:Work>
    </rdf:RDF>
  </metadata>
  <g
     inkscape:label="Capa 1"
     inkscape:groupmode="layer"
     id="layer1"
     transform="translate(0,-1036.3622)">
    <g
       transform="matrix(0.38442648,0,0,0.38442648,-148.77487,842.46513)"
       id="layer1-5"
       inkscape:label="Capa 1"
       style="fill:#4d4d4d;fill-opacity:1">
      <g
         transform="matrix(1.0931221,0,0,1.0931221,33.310366,-50.486049)"
         id="g4471"
         style="fill:#4d4d4d;fill-opacity:1">
        <g
           transform="matrix(1.5444819,0,0,1.5444819,-275.38426,-295.80854)"
           id="layer1-39"
           inkscape:label="Capa 1"
           style="fill:#4d4d4d;fill-opacity:1" />
        <g
           style="fill:#4d4d4d;fill-opacity:1;stroke:none"
           transform="matrix(0.98381885,0,0,0.98381885,5.5651187,8.3948576)"
           id="g4320">
          <g
             id="layer1-3-3"
             inkscape:label="Capa 1"
             transform="matrix(1.5444819,0,0,1.5444819,-275.17538,-295.73877)"
             style="fill:#4d4d4d;fill-opacity:1;stroke:none;stroke-width:1.29989684;stroke-miterlimit:4;stroke-dasharray:none;stroke-opacity:1">
            <circle
               style="opacity:1;fill:#4d4d4d;fill-opacity:1;stroke:none;stroke-width:1.29989684;stroke-miterlimit:4;stroke-dasharray:none;stroke-dashoffset:0;stroke-opacity:1"
               id="ellipse4233"
               cx="400.57138"
               cy="531.79791"
               r="0" />
            <g
               id="g3771"
               style="fill:#4d4d4d;fill-opacity:1;fill-rule:nonzero;stroke:none;stroke-miterlimit:4"
               transform="matrix(0.15891447,0,0,0.15891447,392.33064,523.1461)">
              <g
                 id="g3773"
                 style="fill:#4d4d4d;fill-opacity:1">
                <path
                   id="path3775"
                   style="fill:#4d4d4d;fill-opacity:1"
                   d="M 86.068,0 C 61.466,0 56.851,35.041 70.691,35.041 84.529,35.041 110.671,0 86.068,0 Z"
                   inkscape:connector-curvature="0" />
                <path
                   id="path3777"
                   style="fill:#4d4d4d;fill-opacity:1"
                   d="M 45.217,30.699 C 52.586,31.149 60.671,2.577 46.821,4.374 32.976,6.171 37.845,30.249 45.217,30.699 Z"
                   inkscape:connector-curvature="0" />
                <path
                   id="path3779"
                   style="fill:#4d4d4d;fill-opacity:1"
                   d="M 11.445,48.453 C 16.686,46.146 12.12,23.581 3.208,29.735 -5.7,35.89 6.204,50.759 11.445,48.453 Z"
                   inkscape:connector-curvature="0" />
                <path
                   id="path3781"
                   style="fill:#4d4d4d;fill-opacity:1"
                   d="M 26.212,36.642 C 32.451,35.37 32.793,9.778 21.667,14.369 10.539,18.961 19.978,37.916 26.212,36.642 l 0,0 z"
                   inkscape:connector-curvature="0" />
                <path
                   id="path3783"
                   style="fill:#4d4d4d;fill-opacity:1"
                   d="m 58.791,93.913 c 1.107,8.454 -6.202,12.629 -13.36,7.179 C 22.644,83.743 83.16,75.088 79.171,51.386 75.86,31.712 15.495,37.769 8.621,68.553 3.968,89.374 27.774,118.26 52.614,118.26 c 12.22,0 26.315,-11.034 28.952,-25.012 C 83.58,82.589 57.867,86.86 58.791,93.913 l 0,0 z"
                   inkscape:connector-curvature="0" />
              </g>
            </g>
          </g>
        </g>
      </g>
    </g>
  </g>
</svg>
