<?xml version="1.0" encoding="UTF-8" standalone="no"?>
<!-- Created with Inkscape (http://www.inkscape.org/) -->

<svg
   xmlns:osb="http://www.openswatchbook.org/uri/2009/osb"
   xmlns:dc="http://purl.org/dc/elements/1.1/"
   xmlns:cc="http://creativecommons.org/ns#"
   xmlns:rdf="http://www.w3.org/1999/02/22-rdf-syntax-ns#"
   xmlns:svg="http://www.w3.org/2000/svg"
   xmlns="http://www.w3.org/2000/svg"
   xmlns:xlink="http://www.w3.org/1999/xlink"
   xmlns:sodipodi="http://sodipodi.sourceforge.net/DTD/sodipodi-0.dtd"
   xmlns:inkscape="http://www.inkscape.org/namespaces/inkscape"
   width="32"
   height="32"
   id="svg5453"
   version="1.1"
   inkscape:version="0.91 r13725"
   sodipodi:docname="application-sql.svg">
  <defs
     id="defs5455">
    <linearGradient
       id="linearGradient4251">
      <stop
         style="stop-color:#90c2ff;stop-opacity:1"
         offset="0"
         id="stop4253" />
      <stop
         style="stop-color:#d5e8ff;stop-opacity:1;"
         offset="1"
         id="stop4255" />
    </linearGradient>
    <linearGradient
       gradientTransform="matrix(1.0646823,0,0,1.0824016,51.990004,-31.819073)"
       gradientUnits="userSpaceOnUse"
       y2="517.79797"
       x2="375.57144"
       y1="543.79797"
       x1="375.57144"
       id="linearGradient4190-9"
       xlink:href="#linearGradient4251"
       inkscape:collect="always" />
    <linearGradient
       osb:paint="gradient"
       id="linearGradient4207">
      <stop
         id="stop3371"
         offset="0"
         style="stop-color:#3498db;stop-opacity:1;" />
      <stop
         id="stop3373"
         offset="1"
         style="stop-color:#3498db;stop-opacity:0;" />
    </linearGradient>
  </defs>
  <sodipodi:namedview
     id="base"
     pagecolor="#8d8d8d"
     bordercolor="#666666"
     borderopacity="1.0"
     inkscape:pageopacity="0"
     inkscape:pageshadow="2"
     inkscape:zoom="6.3680588"
     inkscape:cx="5.0773721"
     inkscape:cy="17.56"
     inkscape:document-units="px"
     inkscape:current-layer="layer1-3"
     showgrid="false"
     fit-margin-top="0"
     fit-margin-left="0"
     fit-margin-right="0"
     fit-margin-bottom="0"
     inkscape:window-width="1366"
     inkscape:window-height="642"
     inkscape:window-x="0"
     inkscape:window-y="33"
     inkscape:window-maximized="1"
     inkscape:showpageshadow="false"
     borderlayer="true"
     showguides="false"
     inkscape:guide-bbox="true"
     inkscape:object-nodes="true"
     inkscape:snap-bbox="true">
    <inkscape:grid
       type="xygrid"
       id="grid4063" />
    <sodipodi:guide
       position="2.0000117,30.000026"
       orientation="28,0"
       id="guide4167" />
    <sodipodi:guide
       position="17,5"
       orientation="0,28"
       id="guide4169" />
    <sodipodi:guide
       position="30.000012,2.0000264"
       orientation="-28,0"
       id="guide4171" />
    <sodipodi:guide
       position="-20,5"
       orientation="0,-28"
       id="guide4173" />
    <sodipodi:guide
       position="2.0000117,30.000026"
       orientation="28,0"
       id="guide4181" />
    <sodipodi:guide
       position="16.000012,30.000026"
       orientation="0,-14"
       id="guide4187" />
    <sodipodi:guide
       position="5.0000117,30.000026"
       orientation="28,0"
       id="guide4143" />
    <sodipodi:guide
       position="5.0000117,2.0000264"
       orientation="0,22"
       id="guide4145" />
    <sodipodi:guide
       position="27.000012,2.0000264"
       orientation="-28,0"
       id="guide4147" />
    <sodipodi:guide
       position="27.000012,30.000026"
       orientation="0,-22"
       id="guide4149" />
    <sodipodi:guide
       position="27,30"
       orientation="0,-7"
       id="guide4155" />
    <sodipodi:guide
       position="27.00001,23"
       orientation="-7,-1e-05"
       id="guide4162" />
  </sodipodi:namedview>
  <metadata
     id="metadata5458">
    <rdf:RDF>
      <cc:Work
         rdf:about="">
        <dc:format>image/svg+xml</dc:format>
        <dc:type
           rdf:resource="http://purl.org/dc/dcmitype/StillImage" />
        <dc:title></dc:title>
      </cc:Work>
    </rdf:RDF>
  </metadata>
  <g
     inkscape:label="Capa 1"
     inkscape:groupmode="layer"
     id="layer1"
     transform="translate(-384.57143,-515.798)">
    <g
       transform="translate(392.57143,-514.5642)"
       id="layer1-7"
       inkscape:label="Capa 1"
       style="fill:#ffffff;fill-opacity:1" />
    <g
       id="g4240"
       transform="translate(341.79698,500.25245)">
      <g
         inkscape:transform-center-y="-9.4924686"
         inkscape:transform-center-x="5.4653607"
         inkscape:label="Capa 1"
         id="layer1-1"
         transform="translate(-392.98822,-511.27795)">
        <g
           id="layer1-3"
           inkscape:label="Capa 1"
           transform="translate(0.41988239,0.03484499)">
          <rect
             ry="0.83437711"
             y="528.64618"
             x="440.14279"
             height="28.142445"
             width="22.35833"
             id="rect4182-2"
             style="opacity:0.997;fill:url(#linearGradient4190-9);fill-opacity:1.0;stroke:none;stroke-width:0.104;stroke-linecap:round;stroke-linejoin:round;stroke-miterlimit:4;stroke-dasharray:none;stroke-opacity:1" />
          <g
             transform="translate(-12.86384,4.72167)"
             id="layer1-31"
             inkscape:label="Capa 1"
             inkscape:transform-center-x="5.4653607"
             inkscape:transform-center-y="-9.4924686" />
          <g
             transform="translate(-11.0436,3.32755)"
             id="layer1-77"
             inkscape:label="Capa 1"
             inkscape:transform-center-x="5.4653607"
             inkscape:transform-center-y="-9.4924686" />
          <path
             style="fill:#3f546c;fill-opacity:1"
             inkscape:connector-curvature="0"
             d="m 443.46471,541.93229 c 0.20865,0.22122 0.51608,0.22122 0.61714,0.22122 0.18736,0 0.41904,-0.031 0.75099,-0.10068 0.26075,-0.0547 0.48527,-0.10922 0.68326,-0.15726 0.38946,-0.0946 0.67096,-0.163 0.93593,-0.163 0.14936,0 0.42185,0.0647 0.71044,0.13327 0.44931,0.10673 1.00844,0.23952 1.54927,0.23952 0.54603,0 1.12076,-0.0425 1.48288,-0.0752 0.12028,0.45089 0.40641,1.19441 1.05593,1.72663 0.88308,0.72348 1.53779,1.04624 1.56525,1.05962 0.16771,0.0818 0.36938,0.039 0.48923,-0.10409 0.11983,-0.14291 0.12698,-0.34902 0.0173,-0.49983 -0.004,-0.005 -0.44498,-0.62905 -0.42802,-1.33023 0.007,-0.27894 0.0168,-0.49751 0.0272,-0.66398 0.55003,0.16214 1.48656,0.52459 1.96966,1.20687 0.73183,1.0334 1.03205,2.62444 0.95163,3.14636 -0.0837,0.54381 -0.0937,0.54381 -0.35178,0.54381 -0.56222,0 -1.03454,0.023 -1.56654,0.31263 -0.47059,0.25609 -0.72977,0.53628 -0.75771,0.56742 -0.10554,0.11724 -0.13366,0.285 -0.0721,0.43019 0.0615,0.14529 0.20167,0.24174 0.35931,0.24737 0.15206,0.006 0.61221,0.044 0.90794,0.15136 0.15704,0.057 0.29231,0.12374 0.42314,0.18829 0.20931,0.10327 0.40703,0.2008 0.63767,0.22804 0.075,0.009 0.152,0.0132 0.2249,0.0118 0.085,0.1975 0.22971,0.43291 0.47308,0.61968 0.18628,0.14302 0.37582,0.23124 0.54305,0.30899 0.20535,0.0956 0.36759,0.17108 0.49215,0.32552 0.32643,0.4048 0.43598,0.84371 0.43701,0.8481 0.0427,0.1753 0.19614,0.30234 0.37636,0.31052 0.006,3.1e-4 0.0125,4.3e-4 0.0188,4.3e-4 0.17281,0 0.32784,-0.10895 0.38422,-0.2738 0.0254,-0.074 0.23946,-0.75252 -0.0455,-1.74563 -0.10187,-0.35503 -0.25967,-0.66236 -0.41222,-0.95966 -0.24824,-0.48353 -0.46264,-0.90111 -0.37268,-1.4128 0.42282,-2.40501 0.39363,-4.36048 -0.0867,-5.8119 -0.74689,-2.25733 -2.55495,-3.51504 -2.90983,-3.74416 -0.17605,-0.11377 -0.3345,-0.21385 -0.46804,-0.29703 0.12385,-0.0987 0.28128,-0.20232 0.46842,-0.28187 0.42598,-0.18109 0.60501,-0.23058 0.65461,-0.24239 0.004,1.1e-4 0.006,1.1e-4 0.009,1.1e-4 0.17682,5e-5 0.31273,-0.1167 0.36446,-0.28913 0.0538,-0.17903 -0.0461,-0.37122 -0.20698,-0.46626 -0.0306,-0.0182 -0.76237,-0.44356 -1.72678,-0.44356 -0.19902,0 -0.39673,0.0182 -0.58762,0.0543 -0.59477,0.11226 -1.0151,0.27998 -1.42158,0.44211 -0.3969,0.15835 -0.77179,0.30792 -1.33152,0.42581 -0.2719,0.0573 -0.52231,0.10148 -0.76443,0.14427 -0.83305,0.14707 -1.55247,0.27412 -2.62812,0.8234 -1.40386,0.71699 -2.19326,1.50145 -2.22283,2.20875 -0.006,0.14908 -0.003,0.28229 0.01,0.39938 -0.13138,0.0657 -0.29103,0.1487 -0.45229,0.24043 -0.6565,0.37339 -0.93183,0.65305 -0.95018,0.96513 -0.0127,0.21715 0.0455,0.39581 0.17307,0.53114 z"
             id="path4179" />
        </g>
      </g>
    </g>
  </g>
</svg>
