<?xml version="1.0" encoding="UTF-8" standalone="no"?>
<!-- Created with Inkscape (http://www.inkscape.org/) -->

<svg
   xmlns:osb="http://www.openswatchbook.org/uri/2009/osb"
   xmlns:dc="http://purl.org/dc/elements/1.1/"
   xmlns:cc="http://creativecommons.org/ns#"
   xmlns:rdf="http://www.w3.org/1999/02/22-rdf-syntax-ns#"
   xmlns:svg="http://www.w3.org/2000/svg"
   xmlns="http://www.w3.org/2000/svg"
   xmlns:xlink="http://www.w3.org/1999/xlink"
   xmlns:sodipodi="http://sodipodi.sourceforge.net/DTD/sodipodi-0.dtd"
   xmlns:inkscape="http://www.inkscape.org/namespaces/inkscape"
   width="32"
   height="32"
   id="svg5453"
   version="1.1"
   inkscape:version="0.91 r13725"
   sodipodi:docname="text-x-patch.svg">
  <defs
     id="defs5455">
    <linearGradient
       inkscape:collect="always"
       id="linearGradient4307">
      <stop
         style="stop-color:#899aae;stop-opacity:1"
         offset="0"
         id="stop4309" />
      <stop
         style="stop-color:#9eb2c6;stop-opacity:1"
         offset="1"
         id="stop4311" />
    </linearGradient>
    <linearGradient
       gradientTransform="matrix(1.0646823,0,0,1.0824016,51.990004,-31.819073)"
       gradientUnits="userSpaceOnUse"
       y2="517.79797"
       x2="375.57144"
       y1="543.79797"
       x1="375.57144"
       id="linearGradient4190-9"
       xlink:href="#linearGradient4307"
       inkscape:collect="always" />
    <linearGradient
       id="linearGradient4207"
       osb:paint="gradient">
      <stop
         style="stop-color:#3498db;stop-opacity:1;"
         offset="0"
         id="stop3371" />
      <stop
         style="stop-color:#3498db;stop-opacity:0;"
         offset="1"
         id="stop3373" />
    </linearGradient>
  </defs>
  <sodipodi:namedview
     id="base"
     pagecolor="#4d4d4d"
     bordercolor="#666666"
     borderopacity="1.0"
     inkscape:pageopacity="0"
     inkscape:pageshadow="2"
     inkscape:zoom="9.6544057"
     inkscape:cx="60.726566"
     inkscape:cy="29.357829"
     inkscape:document-units="px"
     inkscape:current-layer="g5046"
     showgrid="true"
     fit-margin-top="0"
     fit-margin-left="0"
     fit-margin-right="0"
     fit-margin-bottom="0"
     inkscape:window-width="1366"
     inkscape:window-height="642"
     inkscape:window-x="0"
     inkscape:window-y="33"
     inkscape:window-maximized="1"
     inkscape:showpageshadow="false"
     borderlayer="true"
     showguides="true"
     inkscape:guide-bbox="true"
     inkscape:object-nodes="true"
     inkscape:snap-bbox="true">
    <inkscape:grid
       type="xygrid"
       id="grid4063" />
    <sodipodi:guide
       position="2.0000117,30.000026"
       orientation="28,0"
       id="guide4167" />
    <sodipodi:guide
       position="30.000012,2.0000264"
       orientation="-28,0"
       id="guide4171" />
    <sodipodi:guide
       position="30.000012,30.000026"
       orientation="0,-28"
       id="guide4173" />
    <sodipodi:guide
       position="2.0000117,30.000026"
       orientation="28,0"
       id="guide4181" />
    <sodipodi:guide
       position="16.000012,30.000026"
       orientation="0,-14"
       id="guide4187" />
    <sodipodi:guide
       position="-29,-6"
       orientation="28,0"
       id="guide4143" />
    <sodipodi:guide
       position="5.0000117,2.0000264"
       orientation="0,22"
       id="guide4145" />
    <sodipodi:guide
       position="27.000012,2.0000264"
       orientation="-28,0"
       id="guide4147" />
    <sodipodi:guide
       position="27.000012,30.000026"
       orientation="0,-22"
       id="guide4149" />
    <sodipodi:guide
       position="27,30"
       orientation="0,-7"
       id="guide4155" />
    <sodipodi:guide
       position="27.00001,23"
       orientation="-7,-1e-05"
       id="guide4162" />
    <sodipodi:guide
       position="24,27"
       orientation="0,1"
       id="guide3378" />
  </sodipodi:namedview>
  <metadata
     id="metadata5458">
    <rdf:RDF>
      <cc:Work
         rdf:about="">
        <dc:format>image/svg+xml</dc:format>
        <dc:type
           rdf:resource="http://purl.org/dc/dcmitype/StillImage" />
        <dc:title></dc:title>
      </cc:Work>
    </rdf:RDF>
  </metadata>
  <g
     inkscape:label="Capa 1"
     inkscape:groupmode="layer"
     id="layer1"
     transform="translate(-384.57143,-515.798)">
    <g
       transform="translate(392.57143,-514.5642)"
       id="layer1-7"
       inkscape:label="Capa 1"
       style="fill:#ffffff;fill-opacity:1" />
    <g
       id="g4240"
       transform="translate(341.79698,500.25245)">
      <g
         inkscape:transform-center-y="-9.4924686"
         inkscape:transform-center-x="5.4653607"
         inkscape:label="Capa 1"
         id="layer1-1"
         transform="translate(-392.98822,-511.27795)">
        <g
           id="layer1-3"
           inkscape:label="Capa 1"
           transform="translate(0.41988239,0.03484499)">
          <rect
             ry="0.83437711"
             y="528.64618"
             x="440.14279"
             height="28.142445"
             width="22.35833"
             id="rect4182-2"
             style="opacity:0.997;fill:url(#linearGradient4190-9);fill-opacity:1;stroke:none;stroke-width:0.104;stroke-linecap:round;stroke-linejoin:round;stroke-miterlimit:4;stroke-dasharray:none;stroke-opacity:1" />
          <g
             id="g4611"
             transform="translate(382.34279,511.78866)">
            <g
               id="g5046"
               transform="translate(1.7514779,-0.67379255)">
              <g
                 id="g6289"
                 transform="translate(-2.1496533,3.4906341)">
                <g
                   inkscape:transform-center-y="-9.4924686"
                   inkscape:transform-center-x="5.4653607"
                   inkscape:label="Capa 1"
                   id="layer1-77"
                   transform="translate(-392.98822,-511.27795)" />
              </g>
              <g
                 inkscape:label="Capa 1"
                 id="layer1-5"
                 transform="matrix(0.5915284,0,0,0.5915284,-207.18979,-279.97608)"
                 style="fill:#0a5347;fill-opacity:1" />
              <g
                 id="g23933"
                 transform="translate(-0.95153268,7.7357826)">
                <g
                   inkscape:transform-center-y="-9.4924686"
                   inkscape:transform-center-x="5.4653607"
                   inkscape:label="Capa 1"
                   id="layer1-9"
                   transform="translate(-392.98822,-511.27795)">
                  <g
                     id="layer1-3-8"
                     inkscape:label="Capa 1"
                     transform="translate(0.41988239,0.03484499)">
                    <g
                       transform="translate(34.69696,7.38311)"
                       id="layer1-14"
                       inkscape:label="Capa 1">
                      <rect
                         y="526.79797"
                         x="375.89221"
                         height="10.999983"
                         width="0"
                         id="rect4035"
                         style="fill:#ffffff;fill-opacity:1;stroke:none" />
                      <rect
                         y="525.79797"
                         x="375.57144"
                         height="10.999983"
                         width="0"
                         id="rect4035-4"
                         style="fill:#ffffff;fill-opacity:1;stroke:none" />
                      <rect
                         y="525.68414"
                         x="374.03558"
                         height="11.113901"
                         width="0"
                         id="rect4035-3"
                         style="fill:#fbd2bf;fill-opacity:1;stroke:none" />
                      <rect
                         y="525.79797"
                         x="375.57144"
                         height="10.999983"
                         width="0"
                         id="rect4035-1"
                         style="fill:#fbd2bf;fill-opacity:1;stroke:none" />
                    </g>
                    <path
                       id="rect4143"
                       d="m 457.46839,527.88111 a 1.8,1.8 0 0 0 -1.8,1.8 1.8,1.8 0 0 0 1.2,1.69453 l 0,7.41094 a 1.7999896,1.7999896 0 0 0 -1.2,1.69453 1.7999896,1.7999896 0 0 0 1.8,1.8 1.7999896,1.7999896 0 0 0 1.8,-1.8 1.7999896,1.7999896 0 0 0 -1.2,-1.69453 l 0,-7.41094 a 1.8,1.8 0 0 0 1.2,-1.69453 1.8,1.8 0 0 0 -1.8,-1.8 z m 4.2,0 -2.4,1.68047 2.4,1.91953 0,-1.2 1.2,0 c 0.6648,0 1.2,0.5352 1.2,1.2 l 0,7.30547 a 1.7999896,1.7999896 0 0 0 -1.2,1.69453 1.7999896,1.7999896 0 0 0 1.8,1.8 1.7999896,1.7999896 0 0 0 1.8,-1.8 1.7999896,1.7999896 0 0 0 -1.2,-1.69453 l 0,-7.30547 c 0,-1.3296 -1.07206,-2.33364 -2.4,-2.4 l -1.2,0 0,-1.2 z m -4.2,1.2 a 0.6,0.6 0 0 1 0.6,0.6 0.6,0.6 0 0 1 -0.6,0.6 0.6,0.6 0 0 1 -0.6,-0.6 0.6,0.6 0 0 1 0.6,-0.6 z m 0,10.8 a 0.59998956,0.59998956 0 0 1 0.6,0.6 0.59998956,0.59998956 0 0 1 -0.6,0.6 0.59998956,0.59998956 0 0 1 -0.6,-0.6 0.59998956,0.59998956 0 0 1 0.6,-0.6 z m 7.2,0 a 0.59998956,0.59998956 0 0 1 0.6,0.6 0.59998956,0.59998956 0 0 1 -0.6,0.6 0.59998956,0.59998956 0 0 1 -0.6,-0.6 0.59998956,0.59998956 0 0 1 0.6,-0.6 z"
                       style="opacity:1;fill:#2b3037;fill-opacity:1;stroke:none;stroke-opacity:1"
                       inkscape:connector-curvature="0" />
                  </g>
                </g>
              </g>
            </g>
          </g>
        </g>
      </g>
    </g>
  </g>
</svg>
