<?xml version="1.0" encoding="UTF-8" standalone="no"?>
<!-- Created with Inkscape (http://www.inkscape.org/) -->

<svg
   xmlns:dc="http://purl.org/dc/elements/1.1/"
   xmlns:cc="http://creativecommons.org/ns#"
   xmlns:rdf="http://www.w3.org/1999/02/22-rdf-syntax-ns#"
   xmlns:svg="http://www.w3.org/2000/svg"
   xmlns="http://www.w3.org/2000/svg"
   xmlns:sodipodi="http://sodipodi.sourceforge.net/DTD/sodipodi-0.dtd"
   xmlns:inkscape="http://www.inkscape.org/namespaces/inkscape"
   width="22"
   height="22"
   id="svg3760"
   version="1.1"
   inkscape:version="0.91 r13725"
   sodipodi:docname="irc-channel-parted.svg">
  <defs
     id="defs3762" />
  <sodipodi:namedview
     id="base"
     pagecolor="#ffffff"
     bordercolor="#666666"
     borderopacity="1.0"
     inkscape:pageopacity="0.0"
     inkscape:pageshadow="2"
     inkscape:zoom="16.631103"
     inkscape:cx="9.8659255"
     inkscape:cy="15.029898"
     inkscape:document-units="px"
     inkscape:current-layer="layer1"
     showgrid="true"
     fit-margin-top="0"
     fit-margin-left="0"
     fit-margin-right="0"
     fit-margin-bottom="0"
     inkscape:window-width="1366"
     inkscape:window-height="642"
     inkscape:window-x="0"
     inkscape:window-y="33"
     inkscape:window-maximized="1"
     inkscape:showpageshadow="false"
     showguides="false">
    <sodipodi:guide
       position="4.1796875e-06,21.999997"
       orientation="22,0"
       id="guide4116" />
    <sodipodi:guide
       position="4.1796875e-06,-2.6953124e-06"
       orientation="0,22"
       id="guide4118" />
    <sodipodi:guide
       position="22.000004,-2.6953124e-06"
       orientation="-22,0"
       id="guide4120" />
    <sodipodi:guide
       position="22.000004,21.999997"
       orientation="0,-22"
       id="guide4122" />
    <sodipodi:guide
       position="2.0000042,19.999997"
       orientation="18,0"
       id="guide4124" />
    <sodipodi:guide
       position="20.000004,1.9999973"
       orientation="-18,0"
       id="guide4128" />
    <sodipodi:guide
       position="20.000004,19.999997"
       orientation="0,-18"
       id="guide4130" />
    <sodipodi:guide
       position="3.0000042,18.999997"
       orientation="16,0"
       id="guide4132" />
    <sodipodi:guide
       position="3.0000042,2.9999973"
       orientation="0,16"
       id="guide4134" />
    <sodipodi:guide
       position="19.000004,2.9999973"
       orientation="-16,0"
       id="guide4136" />
    <sodipodi:guide
       position="19.000004,18.999997"
       orientation="0,-16"
       id="guide4138" />
    <inkscape:grid
       type="xygrid"
       id="grid4140" />
  </sodipodi:namedview>
  <metadata
     id="metadata3765">
    <rdf:RDF>
      <cc:Work
         rdf:about="">
        <dc:format>image/svg+xml</dc:format>
        <dc:type
           rdf:resource="http://purl.org/dc/dcmitype/StillImage" />
        <dc:title></dc:title>
      </cc:Work>
    </rdf:RDF>
  </metadata>
  <g
     inkscape:label="Capa 1"
     inkscape:groupmode="layer"
     id="layer1"
     transform="translate(-553.72253,-583.11926)">
    <g
       id="g3"
       style="fill:#4d4d4d;fill-opacity:1"
       transform="matrix(0.06404355,0,0,0.06404355,556.59508,586.06526)">
      <path
         d="m 225.642,152.993 -24.273,0 0,-56.155 24.273,0 c 13.332,0 24.188,-10.854 24.188,-24.189 0,-13.342 -10.855,-24.189 -24.188,-24.189 l -24.273,0 0,-24.266 c 0,-13.335 -10.855,-24.189 -24.19,-24.189 -13.343,0 -24.188,10.854 -24.188,24.189 l 0,24.266 -56.148,0 0,-24.266 C 96.843,10.859 85.99,0.005 72.654,0.005 59.313,0.005 48.465,10.859 48.465,24.194 l 0,24.266 -24.276,0 C 10.853,48.46 0,59.308 0,72.649 0,85.984 10.853,96.838 24.189,96.838 l 24.276,0 0,56.155 -24.276,0 C 10.853,152.993 0,163.851 0,177.184 c 0,13.333 10.853,24.188 24.189,24.188 l 24.276,0 0,24.265 c 0,13.343 10.848,24.188 24.189,24.188 13.336,0 24.189,-10.845 24.189,-24.188 l 0,-24.265 56.146,0 0,24.265 c 0,13.343 10.855,24.188 24.188,24.188 13.34,0 24.19,-10.845 24.19,-24.188 l 0,-24.265 24.273,0 c 13.338,0 24.188,-10.855 24.188,-24.188 0,-13.333 -10.849,-24.191 -24.186,-24.191 z M 177.177,10.756 c -118.118,159.382 -59.059,79.690998 0,0 z"
         id="path7"
         style="fill:#4d4d4d;fill-opacity:1"
         inkscape:connector-curvature="0"
         sodipodi:nodetypes="sccssscsssccssscsssccssscsssccssscssscc" />
      <path
         d="m 86.093,163.744 77.646,0 0,-77.657 -77.646,0 z"
         id="path5"
         style="fill:#ffffff;fill-opacity:1"
         inkscape:connector-curvature="0"
         sodipodi:nodetypes="ccccc" />
    </g>
    <rect
       style="opacity:1;fill:#bdc3c7;fill-opacity:1;stroke:none;stroke-opacity:1"
       id="rect4172"
       width="7.9620528"
       height="7.9620528"
       x="564.90155"
       y="594.3772"
       ry="3.9810264" />
  </g>
</svg>
