<?xml version="1.0" encoding="UTF-8" standalone="no"?>
<!-- Created with Inkscape (http://www.inkscape.org/) -->

<svg
   xmlns:dc="http://purl.org/dc/elements/1.1/"
   xmlns:cc="http://creativecommons.org/ns#"
   xmlns:rdf="http://www.w3.org/1999/02/22-rdf-syntax-ns#"
   xmlns:svg="http://www.w3.org/2000/svg"
   xmlns="http://www.w3.org/2000/svg"
   xmlns:sodipodi="http://sodipodi.sourceforge.net/DTD/sodipodi-0.dtd"
   xmlns:inkscape="http://www.inkscape.org/namespaces/inkscape"
   width="22"
   height="22"
   id="svg2"
   version="1.1"
   inkscape:version="0.91 r13725"
   viewBox="0 0 22 22"
   sodipodi:docname="script-error.svg">
  <defs
     id="defs4" />
  <sodipodi:namedview
     id="base"
     pagecolor="#ffffff"
     bordercolor="#666666"
     borderopacity="1.0"
     inkscape:pageopacity="0.0"
     inkscape:pageshadow="2"
     inkscape:zoom="22.4"
     inkscape:cx="8.1386406"
     inkscape:cy="10.475372"
     inkscape:document-units="px"
     inkscape:current-layer="layer1"
     showgrid="true"
     inkscape:showpageshadow="false"
     units="px"
     inkscape:window-width="1366"
     inkscape:window-height="642"
     inkscape:window-x="0"
     inkscape:window-y="33"
     inkscape:window-maximized="1">
    <inkscape:grid
       type="xygrid"
       id="grid4101" />
    <sodipodi:guide
       position="2,20.000017"
       orientation="18,0"
       id="guide4107" />
    <sodipodi:guide
       position="20,2.0000174"
       orientation="-18,0"
       id="guide4111" />
    <sodipodi:guide
       position="20,20.000017"
       orientation="0,-18"
       id="guide4113" />
    <sodipodi:guide
       position="3,19.000017"
       orientation="16,0"
       id="guide4115" />
    <sodipodi:guide
       position="3,3.0000174"
       orientation="0,16"
       id="guide4117" />
    <sodipodi:guide
       position="19,3.0000174"
       orientation="-16,0"
       id="guide4119" />
    <sodipodi:guide
       position="19,19.000017"
       orientation="0,-16"
       id="guide4121" />
  </sodipodi:namedview>
  <metadata
     id="metadata7">
    <rdf:RDF>
      <cc:Work
         rdf:about="">
        <dc:format>image/svg+xml</dc:format>
        <dc:type
           rdf:resource="http://purl.org/dc/dcmitype/StillImage" />
        <dc:title></dc:title>
      </cc:Work>
    </rdf:RDF>
  </metadata>
  <g
     inkscape:label="Capa 1"
     inkscape:groupmode="layer"
     id="layer1"
     transform="translate(0,-1030.3622)">
    <ellipse
       style="opacity:1;fill:#4d4d4d;fill-opacity:1;fill-rule:evenodd;stroke:#4d4d4d;stroke-width:0.6849122;stroke-linecap:round;stroke-linejoin:miter;stroke-miterlimit:4;stroke-dasharray:none;stroke-dashoffset:0;stroke-opacity:1"
       id="path4143"
       cx="11.013"
       cy="1041.2444"
       rx="7.6575441"
       ry="7.6575437" />
    <g
       id="g4175"
       transform="translate(0,-0.70075)">
      <path
         style="fill:#ffffff;fill-opacity:1"
         sodipodi:nodetypes="ssssssssss"
         inkscape:connector-curvature="0"
         id="path5"
         d="m 7.1794628,1039.2263 c 0,-0.6457 0.5236739,-1.1693 1.1693559,-1.1693 0.645494,0 1.169168,0.5235 1.169168,1.1693 0,0.6461 -0.523674,1.1696 -1.169168,1.1696 -0.645682,0 -1.1693559,-0.5235 -1.1693559,-1.1696 z m 5.3021742,0 c 0,-0.6457 0.524051,-1.1693 1.169733,-1.1693 0.645493,0 1.169167,0.5235 1.169167,1.1693 0,0.6461 -0.523485,1.1696 -1.169167,1.1696 -0.645682,0 -1.169733,-0.5235 -1.169733,-1.1696 z" />
      <path
         style="fill:#ffffff;fill-opacity:1"
         sodipodi:nodetypes="csccscscccc"
         inkscape:connector-curvature="0"
         id="path5-8"
         d="m 15.334814,1045.2725 c -0.724695,-1.6758 -2.421874,-2.7586 -4.323467,-2.7586 -1.9425153,0 -3.6496893,1.0882 -4.3493043,2.7726 -0.119934,0.2883 0.01678,0.6195 0.305492,0.7394 0.0709,0.029 0.144449,0.043 0.216862,0.043 0.221765,0 0.432215,-0.1311 0.522543,-0.3489 0.523674,-1.2608 1.820695,-2.0751 3.3044073,-2.0751 1.450144,0 2.739622,0.8149 3.284982,2.0764 0.124083,0.2868 0.457107,0.419 0.743741,0.2948 0.286635,-0.1243 0.418826,-0.4571 0.294744,-0.7438 z" />
    </g>
  </g>
</svg>
