<?xml version="1.0" encoding="UTF-8" standalone="no"?>
<!-- Created with Inkscape (http://www.inkscape.org/) -->

<svg
   xmlns:dc="http://purl.org/dc/elements/1.1/"
   xmlns:cc="http://creativecommons.org/ns#"
   xmlns:rdf="http://www.w3.org/1999/02/22-rdf-syntax-ns#"
   xmlns:svg="http://www.w3.org/2000/svg"
   xmlns="http://www.w3.org/2000/svg"
   xmlns:xlink="http://www.w3.org/1999/xlink"
   xmlns:sodipodi="http://sodipodi.sourceforge.net/DTD/sodipodi-0.dtd"
   xmlns:inkscape="http://www.inkscape.org/namespaces/inkscape"
   width="64"
   height="64"
   id="svg3809"
   version="1.1"
   inkscape:version="0.91 r13725"
   sodipodi:docname="dialog-question.svg">
  <defs
     id="defs3811">
    <linearGradient
       inkscape:collect="always"
       xlink:href="#linearGradient4538"
       id="linearGradient4183"
       x1="770.85718"
       y1="216.93361"
       x2="770.85718"
       y2="164.93361"
       gradientUnits="userSpaceOnUse"
       gradientTransform="translate(-2,0)" />
    <linearGradient
       id="linearGradient4538"
       inkscape:collect="always">
      <stop
         id="stop4540"
         offset="0"
         style="stop-color:#ae42fa;stop-opacity:1" />
      <stop
         id="stop4542"
         offset="1"
         style="stop-color:#e280ff;stop-opacity:1" />
    </linearGradient>
  </defs>
  <sodipodi:namedview
     id="base"
     pagecolor="#ffffff"
     bordercolor="#666666"
     borderopacity="1.0"
     inkscape:pageopacity="0.0"
     inkscape:pageshadow="2"
     inkscape:zoom="2.5"
     inkscape:cx="3.3961724"
     inkscape:cy="12.269574"
     inkscape:document-units="px"
     inkscape:current-layer="layer1"
     showgrid="true"
     fit-margin-top="0"
     fit-margin-left="0"
     fit-margin-right="0"
     fit-margin-bottom="0"
     inkscape:snap-bbox="true"
     inkscape:window-width="1366"
     inkscape:window-height="642"
     inkscape:window-x="0"
     inkscape:window-y="33"
     inkscape:window-maximized="1"
     inkscape:showpageshadow="false"
     borderlayer="true"
     showguides="false">
    <inkscape:grid
       type="xygrid"
       id="grid3830"
       empspacing="5"
       visible="true"
       enabled="true"
       snapvisiblegridlinesonly="true"
       originx="21.000002"
       originy="20.999999" />
    <sodipodi:guide
       position="-2.265625e-06,9.9121092e-07"
       orientation="-64,0"
       id="guide4172" />
    <sodipodi:guide
       position="-2.265625e-06,64.000001"
       orientation="0,64"
       id="guide4174" />
    <sodipodi:guide
       position="63.999998,64.000001"
       orientation="64,0"
       id="guide4176" />
    <sodipodi:guide
       position="63.999998,9.9121092e-07"
       orientation="0,-64"
       id="guide4178" />
    <sodipodi:guide
       position="2.9999977,6.000001"
       orientation="0,58"
       id="guide4182" />
    <sodipodi:guide
       position="60.999998,58.000001"
       orientation="0,-58"
       id="guide4186" />
    <sodipodi:guide
       position="5.9999977,58.000001"
       orientation="52,0"
       id="guide4197" />
    <sodipodi:guide
       position="57.999998,6.000001"
       orientation="-52,0"
       id="guide4201" />
    <sodipodi:guide
       position="19.999998,20.000001"
       orientation="-24,0"
       id="guide4323" />
    <sodipodi:guide
       position="43.999998,44.000001"
       orientation="24,0"
       id="guide4327" />
    <sodipodi:guide
       position="43.999998,20.000001"
       orientation="0,-24"
       id="guide4329" />
    <sodipodi:guide
       position="19.999998,51.000001"
       orientation="24,0"
       id="guide4245" />
    <sodipodi:guide
       position="19.999998,27.000001"
       orientation="0,24"
       id="guide4247" />
    <sodipodi:guide
       position="43.999998,27.000001"
       orientation="-24,0"
       id="guide4249" />
    <sodipodi:guide
       position="43.999998,51.000001"
       orientation="0,-24"
       id="guide4251" />
  </sodipodi:namedview>
  <metadata
     id="metadata3814">
    <rdf:RDF>
      <cc:Work
         rdf:about="">
        <dc:format>image/svg+xml</dc:format>
        <dc:type
           rdf:resource="http://purl.org/dc/dcmitype/StillImage" />
        <dc:title />
      </cc:Work>
    </rdf:RDF>
  </metadata>
  <g
     inkscape:label="Layer 1"
     inkscape:groupmode="layer"
     id="layer1"
     transform="translate(-736.85718,-157.93361)">
    <path
       d="m 740.85718,187.65999 c 0,-12.91189 12.52623,-23.41631 27.92234,-23.41631 15.39656,0 27.92267,10.50453 27.92267,23.41631 0,12.91179 -12.52611,23.41632 -27.92267,23.41632 -1.29451,0 -2.59354,-0.075 -3.87066,-0.22295 -5.93024,3.76729 -10.30801,5.82929 -13.02133,6.13072 -0.0944,0.0101 -0.18937,0.0155 -0.28239,0.0155 -0.87153,0 -1.67821,-0.43433 -2.15856,-1.16262 -0.53694,-0.81471 -0.57196,-1.8483 -0.0937,-2.69219 0.0222,-0.0402 2.11617,-3.86054 1.51208,-7.50979 -6.37041,-4.45802 -10.00778,-10.97288 -10.00778,-17.97502 z"
       id="path7"
       inkscape:connector-curvature="0"
       sodipodi:nodetypes="ssssccscccs"
       style="fill:url(#linearGradient4183);fill-opacity:1;stroke:none;stroke-width:0.5;stroke-miterlimit:4;stroke-dasharray:none" />
    <g
       style="font-style:normal;font-weight:normal;font-size:34.06255341px;line-height:125%;font-family:sans-serif;letter-spacing:0px;word-spacing:0px;fill:#ffffff;fill-opacity:1;stroke:#ffffff;stroke-width:1px;stroke-linecap:butt;stroke-linejoin:miter;stroke-opacity:1"
       id="text4161"
       transform="translate(0.89935151,0.80027)">
      <path
         d="m 768.92024,200.18409 q -0.64719,0.68125 -1.635,0.68125 -0.98782,0 -1.66907,-0.68125 -0.64719,-0.68125 -0.64719,-1.635 0,-0.95375 0.64719,-1.63501 0.68125,-0.68125 1.66907,-0.68125 0.98781,0 1.635,0.68125 0.68125,0.68126 0.68125,1.63501 0,0.95375 -0.68125,1.635 z m -0.0341,-7.08501 -3.20188,0 0,-1.60094 q 0,-1.53282 0.64719,-2.62282 0.64718,-1.12406 2.28219,-2.62282 0.91969,-0.85156 1.29437,-1.26031 0.40875,-0.44281 0.78344,-1.19219 0.40875,-0.78344 0.40875,-1.60094 0,-1.56688 -1.02187,-2.52063 -0.98782,-0.95375 -2.75907,-0.95375 -2.92938,0 -4.01938,3.27001 l -2.92938,-1.22626 q 0.71531,-1.94156 2.4525,-3.47438 1.77126,-1.56687 4.49626,-1.56687 3.09969,0 5.04126,1.83937 1.94156,1.80532 1.94156,4.63251 0,1.22625 -0.64719,2.48657 -0.64718,1.26031 -1.15812,1.80531 -0.47688,0.51094 -1.3625,1.32844 -0.10219,0.10219 -0.17032,0.17032 -2.07781,1.87344 -2.07781,3.74688 l 0,1.3625 z"
         style="font-style:normal;font-variant:normal;font-weight:normal;font-stretch:normal;font-family:'Product Sans';-inkscape-font-specification:'Product Sans';fill:#ffffff;fill-opacity:1;stroke:#ffffff;stroke-opacity:1"
         id="path4166"
         inkscape:connector-curvature="0" />
    </g>
  </g>
</svg>
