<?xml version="1.0" encoding="UTF-8" standalone="no"?>
<!-- Created with Inkscape (http://www.inkscape.org/) -->

<svg
   xmlns:osb="http://www.openswatchbook.org/uri/2009/osb"
   xmlns:dc="http://purl.org/dc/elements/1.1/"
   xmlns:cc="http://creativecommons.org/ns#"
   xmlns:rdf="http://www.w3.org/1999/02/22-rdf-syntax-ns#"
   xmlns:svg="http://www.w3.org/2000/svg"
   xmlns="http://www.w3.org/2000/svg"
   xmlns:xlink="http://www.w3.org/1999/xlink"
   xmlns:sodipodi="http://sodipodi.sourceforge.net/DTD/sodipodi-0.dtd"
   xmlns:inkscape="http://www.inkscape.org/namespaces/inkscape"
   width="48px"
   height="48px"
   id="svg2985"
   version="1.1"
   inkscape:version="0.91 r13725"
   sodipodi:docname="marble.svg">
  <defs
     id="defs2987">
    <linearGradient
       id="linearGradient4207"
       osb:paint="gradient">
      <stop
         style="stop-color:#3498db;stop-opacity:1;"
         offset="0"
         id="stop3371" />
      <stop
         style="stop-color:#3498db;stop-opacity:0;"
         offset="1"
         id="stop3373" />
    </linearGradient>
    <linearGradient
       gradientUnits="userSpaceOnUse"
       y2="-26.047026"
       x2="-125.19291"
       y1="73.496605"
       x1="-123.9715"
       id="linearGradient4738-6-8-5"
       xlink:href="#linearGradient4143"
       inkscape:collect="always"
       gradientTransform="matrix(0.64774919,0,0,0.62609186,-197.76135,948.61111)" />
    <linearGradient
       id="linearGradient4143"
       inkscape:collect="always">
      <stop
         id="stop4145"
         offset="0"
         style="stop-color:#197cf1;stop-opacity:1" />
      <stop
         id="stop4147"
         offset="1"
         style="stop-color:#20bcfa;stop-opacity:1" />
    </linearGradient>
    <linearGradient
       gradientUnits="userSpaceOnUse"
       y2="-26.047026"
       x2="-125.19291"
       y1="73.496605"
       x1="-123.9715"
       id="linearGradient4738-6-8-5-6"
       xlink:href="#linearGradient4230"
       inkscape:collect="always"
       gradientTransform="matrix(0.30125027,0,0,0.30125409,-203.52316,954.6793)" />
    <linearGradient
       id="linearGradient4230"
       inkscape:collect="always">
      <stop
         id="stop4232"
         offset="0"
         style="stop-color:#f3b200;stop-opacity:1" />
      <stop
         id="stop4234"
         offset="1"
         style="stop-color:#fee145;stop-opacity:1" />
    </linearGradient>
    <linearGradient
       inkscape:collect="always"
       xlink:href="#linearGradient9017"
       id="linearGradient6154"
       x1="-238.14207"
       y1="969.55115"
       x2="-237.70355"
       y2="946.41864"
       gradientUnits="userSpaceOnUse" />
    <linearGradient
       id="linearGradient9017">
      <stop
         id="stop9019"
         style="stop-color:#0ba97d;stop-opacity:1"
         offset="0" />
      <stop
         id="stop9021"
         style="stop-color:#11e19b;stop-opacity:1"
         offset="1" />
    </linearGradient>
    <linearGradient
       inkscape:collect="always"
       xlink:href="#linearGradient8311-1-1"
       id="linearGradient5152"
       gradientUnits="userSpaceOnUse"
       gradientTransform="matrix(0.2889496,0,0,0.28894958,47.406981,786.20848)"
       x1="371.47604"
       y1="473.93784"
       x2="371.47604"
       y2="253.9286" />
    <linearGradient
       id="linearGradient8311-1-1">
      <stop
         id="stop8313-9-9"
         style="stop-color:#222c35;stop-opacity:1"
         offset="0" />
      <stop
         id="stop8315-5-8"
         style="stop-color:#545e67;stop-opacity:1"
         offset="1" />
    </linearGradient>
  </defs>
  <sodipodi:namedview
     id="base"
     pagecolor="#5a5a5a"
     bordercolor="#666666"
     borderopacity="1.0"
     inkscape:pageopacity="0"
     inkscape:pageshadow="2"
     inkscape:zoom="6.0647144"
     inkscape:cx="-33.752304"
     inkscape:cy="30.892587"
     inkscape:current-layer="layer1"
     showgrid="false"
     inkscape:grid-bbox="true"
     inkscape:document-units="px"
     inkscape:snap-global="true"
     inkscape:window-width="1366"
     inkscape:window-height="633"
     inkscape:window-x="0"
     inkscape:window-y="33"
     inkscape:window-maximized="0"
     inkscape:snap-bbox="true"
     inkscape:bbox-nodes="true"
     inkscape:object-nodes="true"
     inkscape:snap-nodes="true"
     inkscape:snap-others="false"
     inkscape:snap-bbox-edge-midpoints="true"
     showborder="false">
    <inkscape:grid
       type="xygrid"
       id="grid2993" />
  </sodipodi:namedview>
  <metadata
     id="metadata2990">
    <rdf:RDF>
      <cc:Work
         rdf:about="">
        <dc:format>image/svg+xml</dc:format>
        <dc:type
           rdf:resource="http://purl.org/dc/dcmitype/StillImage" />
        <dc:title></dc:title>
      </cc:Work>
    </rdf:RDF>
  </metadata>
  <g
     id="layer1"
     inkscape:label="Layer 1"
     inkscape:groupmode="layer">
    <g
       transform="matrix(0.26890721,0,0,0.26890721,-207.13154,-128.51743)"
       style="stroke-width:1.31742239;stroke-miterlimit:4;stroke-dasharray:none"
       id="g6284">
      <path
         sodipodi:nodetypes="sssssssss"
         inkscape:connector-curvature="0"
         id="rect4177-3-1-4"
         d="m -307.385,931.44312 55.08221,0 c 2.16469,0 3.90739,1.74269 3.90739,3.90739 l 0,55.0822 c 0,2.1647 -1.7427,3.90739 -3.90739,3.90739 l -55.08206,-10e-5 c -2.16469,0 -3.90754,-1.74259 -3.90754,-3.90729 l 0,-55.0822 c 0,-2.1647 1.7427,-3.90739 3.90739,-3.90739 z"
         inkscape:transform-center-y="3.8505636"
         inkscape:transform-center-x="-205.16263"
         style="opacity:1;fill:url(#linearGradient4738-6-8-5);fill-opacity:1;fill-rule:evenodd;stroke:none;stroke-width:8;stroke-linecap:round;stroke-linejoin:round;stroke-miterlimit:4;stroke-dasharray:none;stroke-dashoffset:0;stroke-opacity:1"
         transform="matrix(2.6397299,0,0,2.7310763,1594.6166,-2065.9179)" />
      <path
         sodipodi:nodetypes="sssssccss"
         inkscape:connector-curvature="0"
         id="rect4177-3-1-4-1"
         d="m -254.50609,946.41865 25.61722,0 c 1.00673,0 1.81721,0.83852 1.81721,1.8801 l 0,10.12428 c 0,1.04158 -0.85478,1.58473 -1.81721,1.88011 l -25.61715,7.86209 -1.81729,-0.30778 1.2e-4,-19.5587 c 1e-5,-1.04158 0.81036,-1.8801 1.8171,-1.8801 z"
         inkscape:transform-center-y="3.8505636"
         inkscape:transform-center-x="-205.16263"
         style="opacity:1;fill:url(#linearGradient4738-6-8-5-6);fill-opacity:1;fill-rule:evenodd;stroke:none;stroke-width:8;stroke-linecap:round;stroke-linejoin:round;stroke-miterlimit:4;stroke-dasharray:none;stroke-dashoffset:0;stroke-opacity:1"
         transform="matrix(5.6759549,0,0,5.6759549,2227.7683,-4893.9054)" />
      <path
         sodipodi:nodetypes="sssssccss"
         inkscape:connector-curvature="0"
         id="rect4177-3-1-4-1-1"
         d="m -246.38172,946.41865 17.49285,0 c 1.00673,0 1.81721,0.83852 1.81721,1.8801 l 0,10.12428 c 0,1.04158 -0.85478,1.58473 -1.81721,1.88011 l -7.99269,2.48972 -1.81729,-0.30778 -9.49997,-14.18633 c -0.57956,-0.86545 0.81036,-1.8801 1.8171,-1.8801 z"
         inkscape:transform-center-y="3.8505636"
         inkscape:transform-center-x="-205.16263"
         style="opacity:1;fill:url(#linearGradient6154);fill-opacity:1;fill-rule:evenodd;stroke:none;stroke-width:8;stroke-linecap:round;stroke-linejoin:round;stroke-miterlimit:4;stroke-dasharray:none;stroke-dashoffset:0;stroke-opacity:1"
         transform="matrix(5.6759549,0,0,5.6759549,2227.7683,-4893.9054)" />
      <path
         style="opacity:1;fill:#dafcfc;fill-opacity:1;fill-rule:evenodd;stroke:none;stroke-width:0.1;stroke-linecap:round;stroke-linejoin:round;stroke-miterlimit:4;stroke-dasharray:none;stroke-dashoffset:0;stroke-opacity:1"
         d="m -256.32319,967.03765 29.25869,-9.17248 0,2.36043 -29.25869,9.17248 z"
         id="rect5085"
         inkscape:connector-curvature="0"
         sodipodi:nodetypes="ccccc"
         transform="matrix(5.6759549,0,0,5.6759549,2227.7683,-4893.9054)" />
      <path
         style="opacity:1;fill:#dafcfc;fill-opacity:1;fill-rule:evenodd;stroke:none;stroke-width:0.1;stroke-linecap:round;stroke-linejoin:round;stroke-miterlimit:4;stroke-dasharray:none;stroke-dashoffset:0;stroke-opacity:1"
         d="m -240.33622,965.01202 -9.17248,-18.56144 2.75371,0 9.17248,18.56144 z"
         id="rect5085-8"
         inkscape:connector-curvature="0"
         sodipodi:nodetypes="ccccc"
         transform="matrix(5.6759549,0,0,5.6759549,2227.7683,-4893.9054)" />
      <circle
         transform="matrix(1.3614453,0,0,1.3614453,688.36597,-606.66478)"
         cy="892.16669"
         cx="153.7587"
         id="path3340-8-9-5-4"
         style="opacity:1;fill:url(#linearGradient5152);fill-opacity:1;stroke:none;stroke-width:5.23831511;stroke-linecap:butt;stroke-linejoin:miter;stroke-miterlimit:4;stroke-dasharray:none;stroke-dashoffset:0;stroke-opacity:1"
         r="35.590355" />
      <path
         style="fill:#ffffff;fill-opacity:0.85;stroke-width:1.31742239;stroke-miterlimit:4;stroke-dasharray:none"
         d="m 896.96466,579.47327 c -11.53127,0 -20.87996,9.34869 -20.87996,20.87984 0,0.88275 0.0708,1.7431 0.17876,2.59596 1.78415,16.30993 19.34539,35.10778 19.34539,35.10778 0.31291,0.35016 0.61455,0.56617 0.90505,0.7225 l 0.0149,0.008 0.58479,0.18621 0.58479,-0.18621 0.0149,-0.008 c 0.2905,-0.15648 0.59227,-0.3836 0.90506,-0.7225 0,0 17.30799,-18.83141 19.05109,-35.14491 0.10426,-0.8417 0.17509,-1.6947 0.17509,-2.56251 -0.004,-11.52747 -9.34868,-20.87616 -20.87995,-20.87616 z m 0,34.31066 c -7.40441,0 -13.43071,-6.02629 -13.43071,-13.4307 0,-7.40441 6.0263,-13.43071 13.43071,-13.43071 7.40441,0 13.42703,6.0263 13.42703,13.43071 0,7.40441 -6.02262,13.4307 -13.42703,13.4307 z"
         id="path9-8-6-3"
         inkscape:connector-curvature="0" />
    </g>
  </g>
</svg>
