<?xml version="1.0" encoding="UTF-8" standalone="no"?>
<!-- Created with Inkscape (http://www.inkscape.org/) -->

<svg
   xmlns:dc="http://purl.org/dc/elements/1.1/"
   xmlns:cc="http://creativecommons.org/ns#"
   xmlns:rdf="http://www.w3.org/1999/02/22-rdf-syntax-ns#"
   xmlns:svg="http://www.w3.org/2000/svg"
   xmlns="http://www.w3.org/2000/svg"
   xmlns:xlink="http://www.w3.org/1999/xlink"
   xmlns:sodipodi="http://sodipodi.sourceforge.net/DTD/sodipodi-0.dtd"
   xmlns:inkscape="http://www.inkscape.org/namespaces/inkscape"
   width="48"
   height="48"
   id="svg5453"
   version="1.1"
   inkscape:version="0.91 r13725"
   sodipodi:docname="vivaldi-snapshot.svg">
  <defs
     id="defs5455">
    <linearGradient
       inkscape:collect="always"
       xlink:href="#linearGradient4428"
       id="linearGradient5086"
       gradientUnits="userSpaceOnUse"
       x1="412.03708"
       y1="542.20105"
       x2="412.03708"
       y2="526.20105" />
    <linearGradient
       id="linearGradient4428"
       inkscape:collect="always">
      <stop
         id="stop4430"
         offset="0"
         style="stop-color:#d0d0d0;stop-opacity:1" />
      <stop
         id="stop4432"
         offset="1"
         style="stop-color:#f1eeee;stop-opacity:1" />
    </linearGradient>
    <linearGradient
       gradientUnits="userSpaceOnUse"
       y2="516.4751"
       x2="400.55615"
       y1="546.92657"
       x1="400.55615"
       id="linearGradient4288-9"
       xlink:href="#linearGradient4613"
       inkscape:collect="always" />
    <linearGradient
       inkscape:collect="always"
       id="linearGradient4613">
      <stop
         style="stop-color:#dc3c30;stop-opacity:1"
         offset="0"
         id="stop4615" />
      <stop
         style="stop-color:#ff786d;stop-opacity:1"
         offset="1"
         id="stop4617" />
    </linearGradient>
    <linearGradient
       inkscape:collect="always"
       xlink:href="#linearGradient4428"
       id="linearGradient5844"
       gradientUnits="userSpaceOnUse"
       x1="412.03708"
       y1="542.20105"
       x2="412.03708"
       y2="526.20105" />
  </defs>
  <sodipodi:namedview
     id="base"
     pagecolor="#5a5a5a"
     bordercolor="#666666"
     borderopacity="1.0"
     inkscape:pageopacity="0"
     inkscape:pageshadow="2"
     inkscape:zoom="4.3179308"
     inkscape:cx="-8.3767015"
     inkscape:cy="27.306194"
     inkscape:document-units="px"
     inkscape:current-layer="g4928"
     showgrid="false"
     fit-margin-top="0"
     fit-margin-left="0"
     fit-margin-right="0"
     fit-margin-bottom="0"
     inkscape:window-width="1366"
     inkscape:window-height="633"
     inkscape:window-x="0"
     inkscape:window-y="33"
     inkscape:window-maximized="1"
     inkscape:showpageshadow="false"
     borderlayer="true"
     showguides="false"
     inkscape:snap-bbox="true"
     inkscape:snap-bbox-edge-midpoints="true"
     showborder="false">
    <inkscape:grid
       type="xygrid"
       id="grid4063" />
    <sodipodi:guide
       position="1.1650391e-05,47.999996"
       orientation="4,0"
       id="guide4146" />
    <sodipodi:guide
       position="1.1650391e-05,43.999996"
       orientation="0,48"
       id="guide4148" />
    <sodipodi:guide
       position="48.000012,43.999996"
       orientation="-4,0"
       id="guide4150" />
    <sodipodi:guide
       position="48.000012,47.999996"
       orientation="0,-48"
       id="guide4152" />
    <sodipodi:guide
       position="1.1650391e-05,4.0000264"
       orientation="4,0"
       id="guide4154" />
    <sodipodi:guide
       position="1.1650391e-05,2.6367188e-05"
       orientation="0,48"
       id="guide4156" />
    <sodipodi:guide
       position="48.000012,2.6367188e-05"
       orientation="-4,0"
       id="guide4158" />
    <sodipodi:guide
       position="48.000012,4.0000264"
       orientation="0,-48"
       id="guide4160" />
    <sodipodi:guide
       position="48.000012,48.000026"
       orientation="0,-4"
       id="guide4162" />
    <sodipodi:guide
       position="44.000012,48.000026"
       orientation="48,0"
       id="guide4164" />
    <sodipodi:guide
       position="44.000012,2.6367188e-05"
       orientation="0,4"
       id="guide4166" />
    <sodipodi:guide
       position="48.000012,2.6367188e-05"
       orientation="-48,0"
       id="guide4168" />
    <sodipodi:guide
       position="4.0000422,48.000026"
       orientation="0,-4"
       id="guide4170" />
    <sodipodi:guide
       position="4.2167969e-05,48.000026"
       orientation="48,0"
       id="guide4172" />
    <sodipodi:guide
       position="4.2167969e-05,2.6367188e-05"
       orientation="0,4"
       id="guide4174" />
    <sodipodi:guide
       position="4.0000422,2.6367188e-05"
       orientation="-48,0"
       id="guide4176" />
  </sodipodi:namedview>
  <metadata
     id="metadata5458">
    <rdf:RDF>
      <cc:Work
         rdf:about="">
        <dc:format>image/svg+xml</dc:format>
        <dc:type
           rdf:resource="http://purl.org/dc/dcmitype/StillImage" />
        <dc:title></dc:title>
      </cc:Work>
    </rdf:RDF>
  </metadata>
  <g
     inkscape:label="Capa 1"
     inkscape:groupmode="layer"
     id="layer1"
     transform="translate(-384.57143,-499.798)">
    <g
       transform="matrix(1.6275041,0,0,1.6275041,-243.36839,-341.7296)"
       style="fill:url(#linearGradient5086);fill-opacity:1"
       id="g4928">
      <g
         transform="matrix(0.72615381,0,0,0.72615381,342.95199,511.85851)"
         id="g4902"
         style="fill:url(#linearGradient5844)">
        <circle
           style="opacity:1;fill:url(#linearGradient4288-9);fill-opacity:1;stroke:url(#linearGradient4288-9);stroke-width:1.42741537;stroke-miterlimit:4;stroke-dasharray:none;stroke-dashoffset:0;stroke-opacity:1"
           id="path3377"
           cx="400.57138"
           cy="531.79791"
           r="13.999958"
           transform="matrix(1.3792945,0,0,1.3801939,-473.16335,-706.50473)" />
        <path
           id="path34-7-3"
           d="m 400.55062,517.09246 c -1.86079,0 -3.63193,0.35383 -5.26873,0.97509 -0.11904,0.10905 -0.27379,0.19278 -0.39621,0.1824 -0.0172,-0.002 -0.0333,-0.0116 -0.0511,-0.0186 -0.80684,0.33647 -1.5722,0.74871 -2.29793,1.21634 0.0942,0.15258 0.12232,0.32245 -0.0715,0.40499 -0.0326,0.0131 -0.44304,0.0552 -0.58637,0.0522 -2.06378,1.49476 -3.7193,3.50514 -4.77745,5.85203 0.017,-0.003 0.0318,-0.01 0.0497,-0.0108 0.1606,-0.003 0.39171,0.0429 0.54597,0.0758 0.14235,0.0292 0.25716,0.12436 0.38037,0.13358 0.34962,0.0267 0.43368,-0.24456 0.7189,-0.39636 0.29475,0.0411 0.4903,-0.0501 0.75642,-0.0205 0.18141,0.0205 0.31246,0.21319 0.45382,0.22403 0.11892,0.0116 0.22355,-0.11107 0.33859,-0.0935 0.1118,0.0176 0.30455,0.26014 0.32275,0.39635 0.0236,0.16952 -0.12513,0.32218 -0.0762,0.50839 0.17818,0.18083 0.50188,0.21749 0.75639,0.32168 0.16579,-0.13617 0.0223,-0.38883 0,-0.58592 -0.003,-0.087 0.0116,-0.16418 0,-0.24415 -0.0146,-0.13574 -0.0733,-0.26006 -0.0742,-0.37624 -0.003,-0.53653 0.43424,-0.78765 0.79527,-0.99948 0.15629,-0.0923 0.27933,-0.25414 0.41492,-0.32173 0.19155,-0.0956 0.33418,-0.11799 0.49273,-0.2068 0.28659,-0.16045 0.53232,-0.2892 0.75641,-0.47101 0.10344,-0.24329 0.01,-0.56951 0.0192,-0.80996 0.10349,-0.0633 0.19266,0.0273 0.30253,0.0188 0.17289,-0.0356 0.18728,-0.27911 0.28527,-0.3762 0.0568,-0.0558 0.21305,-0.0954 0.28377,-0.15083 0.17234,-0.13471 0.22845,-0.33824 0.379,-0.39632 0.054,-0.0221 0.17849,-0.0149 0.26365,-0.0383 0.11197,-0.0297 0.27138,-0.16163 0.45379,-0.22396 0.11889,-0.0411 0.39118,-0.0497 0.43655,-0.0946 0.056,-0.0569 -7.9e-4,-0.21642 0.0192,-0.30157 0.0917,-0.42563 0.73489,-0.51584 1.1151,-0.65917 0.2665,-0.10016 0.53992,-0.28494 0.83275,-0.22835 -0.0575,0.20229 -0.33009,0.1306 -0.28386,0.37627 0.0638,0.34088 0.52181,-0.0974 0.64263,-0.14792 0.23071,-0.0968 0.62643,-0.15617 0.92924,-0.26568 0.26553,-0.0968 0.74157,-0.24443 0.49134,-0.54713 -0.20879,-0.0116 -0.30938,0.24414 -0.49134,0.32167 -0.12568,0.0205 -0.1014,-0.10483 -0.2089,-0.11484 -0.10157,-0.0116 -0.15898,0.0936 -0.26371,0.0755 -0.10403,-0.0171 -0.25023,-0.18025 -0.2665,-0.30156 -0.0412,-0.31474 0.26686,-0.4445 0.39768,-0.6793 -0.0868,-0.28466 -0.48162,-0.058 -0.72038,-0.16941 0.0235,-0.16952 0.19896,-0.28642 0.39761,-0.31881 0.16285,-0.0273 0.52832,-0.0131 0.6253,0.0726 0.0562,0.0483 0.004,0.16649 0.0949,0.24556 0.0964,0.087 0.21498,0.0776 0.34007,0.0576 0.0445,-0.21484 -0.2803,-0.16094 -0.24492,-0.30302 0.25551,-0.16661 0.6712,-0.03 0.98405,-0.0758 0.18005,-0.0267 0.36909,-0.15319 0.52871,-0.24268 0.15178,-0.0861 0.34896,-0.2358 0.51002,-0.0947 0.0427,0.15395 -0.14027,0.2049 -0.22621,0.28146 -0.28938,0.25664 -0.58758,0.55064 -0.81252,0.8487 0.13796,0.1342 0.3888,0.0666 0.62239,0.0947 0.0913,0.0116 0.20596,0.0386 0.30251,0.0563 0.11303,0.0206 0.23299,0.014 0.32126,0.0373 0.15896,0.0385 0.20142,0.20823 0.35877,0.20823 0.2588,-4.6e-4 0.26189,-0.2795 0.11521,-0.45381 0.0463,-0.17795 0.11889,-0.27028 0.0565,-0.39493 -0.11657,-0.23239 -0.54424,-0.0116 -0.5662,-0.30157 -0.0134,-0.18801 0.15782,-0.17961 0.22619,-0.32022 -0.0311,-0.36326 0.29889,-0.38957 0.26363,-0.71517 -0.0147,-0.13621 -0.13049,-0.13809 -0.2262,-0.26569 -0.0486,-0.0623 -0.0725,-0.18297 -0.12821,-0.23694 -0.44142,-0.0384 -0.88782,-0.0631 -1.33983,-0.0631 z m -7.61284,2.96691 0.002,0 c 0.0882,0.0116 0.19446,0.10681 0.30109,0.11498 0.1005,0.003 0.18422,-0.0557 0.24638,-0.0384 0.15818,0.0412 0.22486,0.27965 0.0756,0.39634 -0.12365,0.0149 -0.17185,-0.0542 -0.26507,-0.0374 -0.25691,0.043 -0.35547,0.5451 -0.5475,0.52849 -0.18106,-0.0145 -0.27905,-0.455 -0.0948,-0.5859 0.0116,-0.11435 -0.084,-0.13263 -0.0776,-0.24559 0.0546,-0.0694 0.20972,-0.14419 0.36018,-0.13209 z m -0.85145,0.0591 c 0.0526,0.002 0.092,0.014 0.11236,0.0371 -0.0253,0.20098 -0.18287,0.18778 -0.33859,0.28146 -0.26896,0.16177 -0.42442,0.40835 -0.51,0.75394 -0.025,0.10016 -0.2898,0.36703 -0.41781,0.34036 -0.29998,-0.063 0.0833,-0.61419 0.15127,-0.69796 0.0761,-0.0928 0.17735,-0.17424 0.26654,-0.28146 0.0864,-0.10378 0.14283,-0.24397 0.22619,-0.30157 0.0913,-0.063 0.352,-0.13816 0.51002,-0.13207 z m 2.23887,0.67781 c 0.0959,0.002 0.18247,0.0175 0.22189,0.0563 -0.0617,0.249 -0.59992,0.18325 -0.79671,0.0931 0.0116,-0.0938 0.15999,-0.11984 0.28381,-0.13208 0.0873,-0.003 0.19512,-0.0206 0.29101,-0.0173 z m -1.22456,0.45958 c 0.0638,-0.002 0.12871,0.0116 0.1959,0.03 -0.17407,0.14514 -0.36234,0.22735 -0.66131,0.32166 -0.14374,0.0448 -0.39197,0.10105 -0.41635,-0.0591 -0.0298,-0.1961 0.2102,-0.15048 0.34142,-0.16802 0.16529,-0.0231 0.3467,-0.11874 0.54034,-0.12498 z m 18.78716,1.11726 c -0.0228,0.0541 -0.0384,0.10631 -0.036,0.15794 0.0116,0.091 0.11169,0.17853 0.13395,0.30161 0.0116,0.0654 -0.0307,0.20616 0,0.26569 0.0911,0.17603 0.32944,0.05 0.49996,0.0591 -0.1937,-0.26586 -0.38715,-0.53222 -0.59792,-0.78408 z m 0.96674,1.29678 c -0.0273,0.12991 -0.1157,0.29934 -0.1873,0.40783 -0.16488,0.24997 -0.38886,0.26163 -0.62528,0.39491 -0.19716,0.11143 -0.28206,0.29738 -0.39765,0.49114 -0.12528,0.20933 -0.20287,0.3358 -0.15124,0.6391 -0.16906,0.3342 -0.42502,0.53894 -0.77514,0.69791 -0.1034,0.0466 -0.24501,0.064 -0.34003,0.13207 -0.0754,0.0544 -0.11861,0.19985 -0.22618,0.32023 -0.13262,0.14716 -0.27172,0.20925 -0.34145,0.32168 -0.054,0.087 -0.0723,0.25969 -0.13251,0.37625 -0.0811,0.15837 -0.25273,0.23594 -0.35881,0.39637 -0.0483,0.074 -0.081,0.22454 -0.13394,0.3217 -0.11989,0.21705 -0.32456,0.37343 -0.30259,0.56436 0.0222,0.18454 0.23205,0.21683 0.24636,0.37769 0.003,0.0909 -0.0603,0.14651 -0.0566,0.24557 0.003,0.14469 0.10094,0.24627 0.11236,0.3576 0.0283,0.27994 -0.0953,0.39165 -0.14838,0.58303 -0.0253,0.0914 -0.014,0.1943 -0.0385,0.26569 -0.0471,0.14011 -0.24246,0.26657 -0.24639,0.43223 -0.002,0.11778 0.12127,0.21244 0.13118,0.37773 0.003,0.1141 -0.0564,0.23558 -0.0357,0.34036 0.0399,0.20513 0.40766,0.44375 0.5677,0.60311 0.21396,0.21334 0.49411,0.37841 0.58635,0.60319 0.0774,0.19087 0.0767,0.43914 0.2262,0.58304 0.11032,0.10619 0.29378,0.17243 0.4351,0.28287 0.13186,0.10296 0.27547,0.19219 0.41637,0.30156 0.23023,0.17958 0.57834,0.53746 0.94511,0.50987 0.19156,-0.0131 0.38785,-0.16976 0.60515,-0.20826 0.2235,-0.0396 0.51358,-0.0607 0.73905,-0.0371 0.17274,0.017 0.35065,0.12022 0.5302,0.11198 0.18958,-0.0116 0.407,-0.15177 0.62242,-0.24553 0.17332,-0.075 0.38603,-0.15856 0.6195,-0.21976 0.10714,-0.71726 0.16425,-1.45212 0.16425,-2.20007 0,-3.01111 -0.90329,-5.80198 -2.44921,-8.12819 z m -24.40031,4.94153 c -0.31426,0.0173 -0.52011,0.0314 -0.69876,0.11201 -0.40928,0.18564 -0.33024,0.73694 -0.73916,0.86738 -0.14132,0.0447 -0.33553,0.0472 -0.49117,0.0756 -0.13445,0.0248 -0.29815,0.0974 -0.43655,0.0945 -0.0385,-4.7e-4 -0.0929,-0.0293 -0.14124,-0.0439 -0.036,0.25849 -0.0663,0.51989 -0.0896,0.78261 0.38904,0.0739 0.58982,0.58823 0.93366,0.75826 0.0941,0.0468 0.21726,0.0496 0.33853,0.076 0.0976,0.0221 0.17225,0.063 0.26649,0.0949 0.20012,0.0675 0.44512,0.0595 0.60517,0.13075 0.24109,0.10667 0.41792,0.55835 0.62528,0.67926 0.0116,0.12183 -0.0242,0.28544 0.0192,0.37621 0.0976,0.13249 0.23621,0.10308 0.39758,0.18957 0.19311,0.10378 0.25219,0.37189 0.43515,0.4538 0.0631,0.0281 0.22145,0.0244 0.32128,0.0549 0.25072,0.0754 0.33255,0.36479 0.54749,0.3016 0.14094,-0.0411 0.12982,-0.18595 0.15269,-0.32027 0.0931,-0.10015 0.19482,-0.25995 0.34001,-0.26279 0.23504,-0.0116 0.25597,0.24208 0.34144,0.46958 0.0485,0.12862 0.17451,0.24063 0.20749,0.37626 0.0587,0.23429 0.0295,0.9356 -0.0206,1.07564 -0.0593,0.1718 -0.29266,0.24465 -0.43654,0.43513 -0.0677,0.0894 -0.0999,0.22014 -0.15128,0.2829 -0.0926,0.11251 -0.23034,0.14185 -0.29964,0.24558 -0.0389,0.0584 -0.0772,0.18381 -0.11535,0.26278 -0.11358,0.23995 -0.26555,0.40993 -0.17002,0.69795 0.0397,0.11852 0.22571,0.19797 0.22621,0.33747 5.3e-4,0.16418 -0.3503,0.31116 -0.37744,0.49113 -0.0207,0.13393 0.10851,0.37292 0.15123,0.54716 0.0313,0.13169 0.28087,0.21401 0.35876,0.30157 0.13277,0.1486 0.23889,0.35909 0.36016,0.54573 0.23985,0.36708 0.42781,0.81474 0.66133,1.1704 0.12338,0.18629 0.29668,0.35377 0.37889,0.54714 0.0417,0.0974 0.036,0.21389 0.0745,0.30157 0.13513,0.30413 0.7321,0.62166 1.0402,0.77263 0.14418,0.0697 0.30421,0.0946 0.43654,0.16799 0.20047,0.11144 0.59756,0.41072 0.69878,0.58595 0.0903,0.15748 0.14631,0.54083 0.19014,0.79125 0.0587,0.33096 6.7e-4,0.58509 0.0192,0.94351 0.0116,0.19385 0.0737,0.38873 0.0762,0.58307 7.6e-4,0.0679 -0.036,0.11864 -0.0387,0.1881 -1.1e-4,0.0108 0.004,0.0244 0.004,0.0356 1.85796,0.83808 3.91678,1.31545 6.09575,1.31545 0.39366,0 0.7827,-0.0207 1.1684,-0.0509 0.0173,-0.029 0.0324,-0.0591 0.0538,-0.0862 0.089,-0.11622 0.16772,-0.21797 0.22629,-0.32027 0.056,-0.34429 -0.13778,-0.58476 -0.0566,-0.88602 0.0904,-0.33854 0.55986,-0.54526 0.88902,-0.69802 0.1131,-0.0524 0.22905,-0.13749 0.3212,-0.16944 0.22779,-0.0791 0.51219,-0.0358 0.72038,-0.112 0.35443,-0.12928 0.39145,-0.50821 0.5662,-0.83008 0.0828,-0.15233 0.19134,-0.30503 0.20748,-0.41355 0.0139,-0.0974 -0.0358,-0.18934 -0.0205,-0.30445 0.0169,-0.11386 0.11957,-0.21235 0.15126,-0.3375 0.0412,-0.16329 0.0593,-0.40256 0.0593,-0.58445 0,-0.14934 -0.0699,-0.28033 -0.0755,-0.41505 -0.0248,-0.48905 0.17724,-0.54376 0.35876,-0.80992 0.0911,-0.1322 0.12517,-0.28295 0.18872,-0.37772 0.3048,-0.45318 0.83354,-0.67197 0.79529,-1.35706 -0.0116,-0.2267 -0.15538,-0.73903 -0.32271,-0.81137 -0.0957,-0.0412 -0.31533,-0.003 -0.45385,-0.0563 -0.44708,-0.16619 -0.70945,-0.71864 -1.17276,-0.75397 -0.0986,-0.0116 -0.18973,0.0402 -0.30107,0.0384 -0.18336,-0.0116 -0.4598,-0.12798 -0.66275,-0.1508 -0.12902,-0.0131 -0.30151,0.038 -0.37896,0 -0.11801,-0.0573 -0.13009,-0.27423 -0.2262,-0.33892 -0.0757,-0.0527 -0.22441,-0.0698 -0.34001,-0.11481 -0.18626,-0.0707 -0.33397,-0.15452 -0.54887,-0.16943 -0.0662,-0.003 -0.14897,0.0314 -0.22621,0.0206 -0.1189,-0.0206 -0.213,-0.16035 -0.32269,-0.22692 -0.13748,-0.0837 -0.2645,-0.12379 -0.32132,-0.2427 0.12419,-0.40608 -0.21903,-0.51928 -0.30257,-0.75393 -0.0397,-0.10998 -0.0219,-0.24227 -0.0565,-0.34034 -0.0498,-0.14052 -0.18867,-0.22169 -0.34146,-0.33891 -0.27371,-0.20999 -0.51649,-0.40716 -0.90766,-0.45524 -0.17197,-0.0221 -0.34258,0.0517 -0.55038,0.0384 -0.22015,-0.0131 -0.49659,-0.20588 -0.66125,-0.3935 -0.16014,-0.18319 -0.23799,-0.34757 -0.37749,-0.43513 -0.13212,-0.0847 -0.30748,-0.0827 -0.39766,-0.16801 -0.0401,-0.0373 -0.0329,-0.10116 -0.0763,-0.18961 -0.0663,-0.1371 -0.17798,-0.21336 -0.0948,-0.37765 -0.15075,-0.0773 -0.1549,0.14336 -0.31984,0.11481 -0.14708,-0.20798 -0.27125,-0.30652 -0.60514,-0.24556 -0.15287,0.0282 -0.23822,0.22069 -0.41635,0.22551 -0.14611,0.0116 -0.26089,-0.16229 -0.45381,-0.18962 -0.14567,-0.0206 -0.3113,0.0389 -0.41496,0.0201 -0.16144,-0.0321 -0.21127,-0.16613 -0.35876,-0.26281 -0.10814,-0.0706 -0.31824,-0.1915 -0.3789,-0.18956 -0.19012,0.0116 -0.32561,0.40273 -0.58781,0.26428 -0.12744,-0.16101 0.20755,-0.24582 0.0565,-0.39644 -0.11457,-0.1142 -0.21088,0.0522 -0.30252,0.11497 -0.10506,0.072 -0.20378,0.14386 -0.31988,0.18669 -0.25984,0.0968 -0.42223,0.0464 -0.62527,0.1508 -0.18802,0.0969 -0.19604,0.25948 -0.30255,0.45235 -0.0873,0.158 -0.28549,0.38823 -0.4164,0.39777 -0.15851,0.0116 -0.31003,-0.2209 -0.45381,-0.28286 -0.4332,-0.18706 -0.64304,0.16606 -1.00271,0.17085 -0.33384,0.0116 -0.81064,-0.5373 -0.79389,-0.85014 0.003,-0.19085 0.11014,-0.48045 0.13252,-0.71663 0.0206,-0.18781 0.14913,-0.30097 0.15133,-0.47246 0.003,-0.22899 -0.30477,-0.40506 -0.45389,-0.43226 -0.35339,-0.0647 -0.84401,0.14175 -1.24904,-0.0205 -0.077,-0.12776 0.0907,-0.21608 0.13396,-0.34035 0.0249,-0.0704 0.01,-0.16495 0.0359,-0.2427 0.0445,-0.12009 0.17112,-0.21315 0.22756,-0.34034 0.0416,-0.0969 0.0529,-0.23715 0.0948,-0.35759 0.0502,-0.13713 0.14059,-0.22549 0.1513,-0.32167 0.0131,-0.12699 -0.0341,-0.27386 -0.13404,-0.35758 z m 5.05698,3.99087 c 0.12823,0.0116 0.14426,0.27603 0.0129,0.2973 -0.14146,0.0222 -0.21335,-0.22112 -0.0758,-0.2844 0.0234,-0.0116 0.0451,-0.0116 0.0633,-0.0108 l 0,-0.002 z"
           style="fill:#bc362c;fill-opacity:1;fill-rule:nonzero;stroke:none;stroke-width:0.69999957"
           inkscape:connector-curvature="0"
           transform="matrix(1.3792945,0,0,1.3801939,-473.16335,-706.50473)" />
        <path
           d="m 88.353263,18.679482 c -0.4779,3.57e-4 -0.96175,0.100475 -1.34913,0.295447 -0.566,0.284914 -1.13564,0.88843 -1.38836,1.47077 -0.26857,0.618961 -0.30714,1.7102 -0.0809,2.290076 0.0957,0.245277 0.26085,0.6667 0.36694,0.936544 0.23957,0.609337 0.32581,1.949539 0.17391,2.702386 -0.17103,0.847611 -0.70238,1.826798 -1.3252,2.442148 -1.86915,1.84669 -4.6951,1.879047 -6.551508,0.07497 -0.640606,-0.622553 -0.731465,-0.771199 -3.623351,-5.931755 -0.981735,-1.752 -1.862273,-3.21892 -2.045695,-3.408484 -0.574742,-0.608089 -1.373422,-0.825566 -2.105003,-0.829195 -1.572977,-0.02553 -2.663244,1.205307 -2.921924,2.52648 -0.191104,1.057268 -0.279011,0.875293 4.802164,9.930105 3.207186,5.71515 4.731673,8.349613 4.981643,8.608566 0.885415,0.917387 2.146894,1.144809 3.327264,0.599812 0.31037,-0.1433 0.6617,-0.400851 0.88613,-0.649558 0.4396,-0.487165 9.53044,-16.625342 9.67802,-17.179916 0.15461,-0.581837 0.11621,-1.40853 -0.0918,-1.980614 -0.25879,-0.711625 -0.97275,-1.441803 -1.67692,-1.714966 -0.31606,-0.122612 -0.68415,-0.182717 -1.0558,-0.182424 z"
           id="rect4269"
           inkscape:connector-curvature="0"
           style="fill:#ffffff;fill-opacity:0.85" />
      </g>
    </g>
  </g>
</svg>
