<?xml version="1.0" encoding="UTF-8" standalone="no"?>
<!-- Created with Inkscape (http://www.inkscape.org/) -->

<svg
   xmlns:sketch="http://www.bohemiancoding.com/sketch/ns"
   xmlns:dc="http://purl.org/dc/elements/1.1/"
   xmlns:cc="http://creativecommons.org/ns#"
   xmlns:rdf="http://www.w3.org/1999/02/22-rdf-syntax-ns#"
   xmlns:svg="http://www.w3.org/2000/svg"
   xmlns="http://www.w3.org/2000/svg"
   xmlns:xlink="http://www.w3.org/1999/xlink"
   xmlns:sodipodi="http://sodipodi.sourceforge.net/DTD/sodipodi-0.dtd"
   xmlns:inkscape="http://www.inkscape.org/namespaces/inkscape"
   width="48"
   height="48"
   id="svg5453"
   version="1.1"
   inkscape:version="0.91 r13725"
   sodipodi:docname="yast-remote.svg">
  <defs
     id="defs5455">
    <linearGradient
       inkscape:collect="always"
       xlink:href="#linearGradient4428"
       id="linearGradient5086"
       gradientUnits="userSpaceOnUse"
       x1="412.03708"
       y1="542.20105"
       x2="412.03708"
       y2="526.20105" />
    <linearGradient
       id="linearGradient4428"
       inkscape:collect="always">
      <stop
         id="stop4430"
         offset="0"
         style="stop-color:#d0d0d0;stop-opacity:1" />
      <stop
         id="stop4432"
         offset="1"
         style="stop-color:#f1eeee;stop-opacity:1" />
    </linearGradient>
    <linearGradient
       gradientTransform="matrix(1.3148717,0,0,1.218406,-250.18514,-160.76853)"
       gradientUnits="userSpaceOnUse"
       y2="507.798"
       x2="409.57144"
       y1="542.79797"
       x1="409.57144"
       id="linearGradient4222-8"
       xlink:href="#linearGradient4822"
       inkscape:collect="always" />
    <linearGradient
       inkscape:collect="always"
       id="linearGradient4822">
      <stop
         style="stop-color:#118702;stop-opacity:1"
         offset="0"
         id="stop4824" />
      <stop
         style="stop-color:#80e950;stop-opacity:1"
         offset="1"
         id="stop4826" />
    </linearGradient>
    <linearGradient
       gradientTransform="matrix(1.3148717,0,0,1.218406,-245.58465,-140.55733)"
       gradientUnits="userSpaceOnUse"
       y2="507.798"
       x2="409.57144"
       y1="542.79797"
       x1="409.57144"
       id="linearGradient4222-8-2"
       xlink:href="#linearGradient8467-5-5"
       inkscape:collect="always" />
    <linearGradient
       id="linearGradient8467-5-5">
      <stop
         offset="0"
         style="stop-color:#d3d3d3;stop-opacity:1"
         id="stop8469-7" />
      <stop
         offset="1"
         style="stop-color:#fcf9f9;stop-opacity:1"
         id="stop8471-0" />
    </linearGradient>
    <linearGradient
       inkscape:collect="always"
       xlink:href="#linearGradient4822"
       id="linearGradient4868"
       gradientUnits="userSpaceOnUse"
       x1="400.5119"
       y1="546.07446"
       x2="400.69922"
       y2="517.77289" />
  </defs>
  <sodipodi:namedview
     id="base"
     pagecolor="#5a5a5a"
     bordercolor="#666666"
     borderopacity="1.0"
     inkscape:pageopacity="0"
     inkscape:pageshadow="2"
     inkscape:zoom="4.3179308"
     inkscape:cx="-8.3767015"
     inkscape:cy="27.306194"
     inkscape:document-units="px"
     inkscape:current-layer="g4928"
     showgrid="false"
     fit-margin-top="0"
     fit-margin-left="0"
     fit-margin-right="0"
     fit-margin-bottom="0"
     inkscape:window-width="1366"
     inkscape:window-height="633"
     inkscape:window-x="0"
     inkscape:window-y="33"
     inkscape:window-maximized="1"
     inkscape:showpageshadow="false"
     borderlayer="true"
     showguides="false"
     inkscape:snap-bbox="true"
     inkscape:snap-bbox-edge-midpoints="true"
     showborder="false">
    <inkscape:grid
       type="xygrid"
       id="grid4063" />
    <sodipodi:guide
       position="1.1650391e-05,47.999996"
       orientation="4,0"
       id="guide4146" />
    <sodipodi:guide
       position="1.1650391e-05,43.999996"
       orientation="0,48"
       id="guide4148" />
    <sodipodi:guide
       position="48.000012,43.999996"
       orientation="-4,0"
       id="guide4150" />
    <sodipodi:guide
       position="48.000012,47.999996"
       orientation="0,-48"
       id="guide4152" />
    <sodipodi:guide
       position="1.1650391e-05,4.0000264"
       orientation="4,0"
       id="guide4154" />
    <sodipodi:guide
       position="1.1650391e-05,2.6367188e-05"
       orientation="0,48"
       id="guide4156" />
    <sodipodi:guide
       position="48.000012,2.6367188e-05"
       orientation="-4,0"
       id="guide4158" />
    <sodipodi:guide
       position="48.000012,4.0000264"
       orientation="0,-48"
       id="guide4160" />
    <sodipodi:guide
       position="48.000012,48.000026"
       orientation="0,-4"
       id="guide4162" />
    <sodipodi:guide
       position="44.000012,48.000026"
       orientation="48,0"
       id="guide4164" />
    <sodipodi:guide
       position="44.000012,2.6367188e-05"
       orientation="0,4"
       id="guide4166" />
    <sodipodi:guide
       position="48.000012,2.6367188e-05"
       orientation="-48,0"
       id="guide4168" />
    <sodipodi:guide
       position="4.0000422,48.000026"
       orientation="0,-4"
       id="guide4170" />
    <sodipodi:guide
       position="4.2167969e-05,48.000026"
       orientation="48,0"
       id="guide4172" />
    <sodipodi:guide
       position="4.2167969e-05,2.6367188e-05"
       orientation="0,4"
       id="guide4174" />
    <sodipodi:guide
       position="4.0000422,2.6367188e-05"
       orientation="-48,0"
       id="guide4176" />
  </sodipodi:namedview>
  <metadata
     id="metadata5458">
    <rdf:RDF>
      <cc:Work
         rdf:about="">
        <dc:format>image/svg+xml</dc:format>
        <dc:type
           rdf:resource="http://purl.org/dc/dcmitype/StillImage" />
        <dc:title></dc:title>
      </cc:Work>
    </rdf:RDF>
  </metadata>
  <g
     inkscape:label="Capa 1"
     inkscape:groupmode="layer"
     id="layer1"
     transform="translate(-384.57143,-499.798)">
    <g
       transform="matrix(1.6275041,0,0,1.6275041,-243.36839,-341.7296)"
       style="fill:url(#linearGradient5086);fill-opacity:1"
       id="g4928">
      <g
         transform="matrix(0.03290596,0,0,0.03257327,413.8354,514.87523)"
         id="g4655"
         style="display:inline;fill:#000000;fill-opacity:0.87244897;stroke:none;stroke-opacity:0.8">
        <rect
           transform="matrix(13.417339,0.02422249,0.08130302,13.577966,-4351.5712,-6154.7571)"
           style="opacity:1;fill:url(#linearGradient4222-8);fill-opacity:1;stroke:none;stroke-width:1.79839408;stroke-linecap:round;stroke-linejoin:round;stroke-miterlimit:4;stroke-dasharray:none;stroke-opacity:0.8508065"
           id="rect4195-7"
           width="57.854355"
           height="41.425804"
           x="258.10678"
           y="457.93561"
           ry="1.9494497" />
        <rect
           transform="matrix(13.417339,0.02422249,0.08130302,13.577966,-4351.5712,-6154.7571)"
           style="opacity:1;fill:url(#linearGradient4222-8-2);fill-opacity:1;stroke:none;stroke-width:1.79839408;stroke-linecap:round;stroke-linejoin:round;stroke-miterlimit:4;stroke-dasharray:none;stroke-opacity:0.85483871"
           id="rect4195-7-0"
           width="57.854355"
           height="41.425804"
           x="262.70715"
           y="478.14655"
           ry="1.9494497" />
        <path
           sodipodi:nodetypes="csssssssssssssssssssssssssscsssssscscssssssssscccsscssssccsssssssssscsssssssss"
           inkscape:connector-curvature="0"
           id="path4251"
           d="m 481.58182,226.45462 c -4.27032,-1.39905 -6.21453,-5.83116 -4.2497,-9.68785 0.89142,-1.74973 2.06656,-2.71474 3.9885,-3.27529 2.50582,-0.73085 5.25503,0.27848 6.69809,2.4591 0.98792,1.49284 1.10132,3.8905 0.25862,5.46817 -1.97815,3.70335 -7.40222,3.62445 -8.83549,-0.12852 -0.83174,-2.17787 0.13112,-4.44928 2.22503,-5.24896 2.12351,-0.81097 4.35433,0.4883 4.60137,2.67992 0.10398,0.92282 0.0189,1.21821 -0.54418,1.8873 -1.21591,1.44504 -3.20967,1.2781 -3.94242,-0.3301 -0.38892,-0.85362 -0.098,-1.01592 0.69822,-0.38959 0.84185,0.66221 1.46434,0.67064 2.10643,0.0285 0.66041,-0.6604 0.63199,-1.32063 -0.0931,-2.16356 -1.34903,-1.56836 -3.96132,-0.29418 -4.01063,1.95622 -0.0278,1.27121 0.58478,2.2527 1.76427,2.82655 2.989,1.45419 6.29132,-1.82643 5.07613,-5.04274 -0.33489,-0.88633 -1.38582,-2.0081 -2.35547,-2.51418 -1.95907,-1.02251 -4.95957,-0.0778 -6.32996,1.99298 -0.57144,0.86352 -0.68254,1.30232 -0.68254,2.69584 0,1.41595 0.11307,1.84732 0.75734,2.88938 0.47006,0.76033 1.22238,1.5122 1.98341,1.98227 1.06865,0.66008 1.45342,0.75609 2.99623,0.74755 3.65396,-0.02 6.16055,-2.36477 6.91713,-6.47004 0.53602,-2.90842 -0.52476,-6.21091 -2.66225,-8.28831 -0.76226,-0.74083 -1.10844,-1.28478 -1.10844,-1.74165 0,-0.76256 -0.40472,-1.63242 -0.75951,-1.63242 -0.13621,0 -0.24143,0.92975 -0.24143,2.13318 l 0,2.13318 1.12606,0.68017 c 1.23505,0.74601 1.52225,1.55964 0.55052,1.55964 -0.31655,0 -0.70075,-0.12521 -0.85379,-0.27825 -0.15305,-0.15304 -0.99196,-0.52401 -1.86426,-0.82438 -1.62087,-0.55815 -2.10616,-1.20075 -1.023,-1.35458 0.48436,-0.0688 0.56303,-0.23057 0.56303,-1.15764 l 0,-1.07767 -1.39933,-0.11605 c -1.57559,-0.13066 -1.8443,-0.38634 -1.84991,-1.76015 -0.003,-0.5161 -0.10261,-0.93839 -0.22342,-0.93839 -0.56077,0 -0.88083,0.93637 -0.98255,2.87465 -0.10706,2.03963 -0.096,2.08927 0.48117,2.17129 1.13933,0.16187 0.85563,0.90652 -0.58872,1.54528 -0.73955,0.32705 -1.76117,0.96038 -2.27028,1.40738 -0.92571,0.81279 -1.67501,0.88187 -1.67501,0.15442 0,-0.20392 0.50673,-0.79433 1.12606,-1.31203 1.11014,-0.92796 1.12608,-0.96301 1.12608,-2.47781 0,-1.91206 -0.6337,-2.97036 -2.31155,-3.86046 l -1.17504,-0.62335 -1.08689,1.06671 -1.08691,1.06672 -4.98973,-0.0681 c -4.96056,-0.0676 -4.99019,-0.0712 -5.06966,-0.63103 l -0.08,-0.56303 3.86544,0 c 3.13067,0 3.92467,-0.0714 4.17696,-0.37536 0.27494,-0.33128 -0.21732,-0.37536 -4.19274,-0.37536 -3.30312,0 -4.57364,-0.0837 -4.76441,-0.31343 -0.28485,-0.34323 -0.0154,-2.28883 0.48812,-3.52337 0.80571,-1.89795 2.15312,-3.68811 3.76592,-5.02052 1.37024,-1.13201 5.35523,-2.43655 6.31636,-2.06772 0.30935,0.11871 0.38866,0.58472 0.38866,2.284 0,1.17419 0.0901,2.13488 0.20018,2.13488 0.49119,0 0.80076,-0.69279 0.80076,-1.79206 0,-1.1883 0.004,-1.19229 1.06351,-1.48882 1.64987,-0.46127 5.51957,-0.33534 7.76654,0.25276 6.18151,1.61786 10.6958,5.94366 12.21806,11.70786 0.69137,2.61798 0.74913,6.84996 0.12229,8.96198 -1.14782,3.8674 -3.63686,6.94801 -6.81575,8.43557 -1.32876,0.6218 -2.07517,0.80141 -3.57529,0.86028 -1.04277,0.041 -2.17819,-0.0181 -2.52316,-0.13108 z m -7.74414,-15.14005 c -0.21676,-0.57011 -0.39341,-0.63885 -1.81496,-0.70635 -1.41587,-0.0673 -1.58289,-0.13161 -1.65479,-0.63782 -0.0761,-0.53637 2.5e-4,-0.56303 1.61601,-0.56303 1.60905,0 1.74314,-0.0462 2.61711,-0.89951 0.79657,-0.77782 0.99262,-0.86123 1.44942,-0.61678 0.7206,0.38565 0.66578,0.72498 -0.27383,1.69437 -0.49095,0.50656 -0.8064,1.09177 -0.81327,1.50875 -0.0152,0.9248 -0.7995,1.07832 -1.12569,0.22037 z"
           style="opacity:1;fill:#53c231;fill-opacity:1;stroke:none;stroke-width:1.31742239;stroke-miterlimit:4;stroke-dasharray:none"
           transform="matrix(11.608353,0,0,11.726919,-5956.5194,-1822.7543)" />
        <circle
           style="opacity:1;fill:url(#linearGradient4868);fill-opacity:1;stroke:none;stroke-width:0.80769163;stroke-miterlimit:4;stroke-dasharray:none;stroke-dashoffset:0;stroke-opacity:1"
           id="path3377-1-9"
           cx="400.57138"
           cy="531.79791"
           r="13.999958"
           transform="matrix(10.621994,0.91338601,-0.90576406,10.749626,-3877.2242,-5262.9468)" />
        <path
           style="fill:#ffffff;fill-opacity:0.87244897;stroke:none"
           sketch:type="MSShapeGroup"
           id="Remote-5-4"
           d="m -67.446998,887.52751 c -3.547248,0 -7.085708,-1.5396 -9.659132,-4.56329 -6.598678,-7.7725 -15.996998,-12.21518 -25.7952,-12.21518 -9.96335,0 -19.11829,4.31289 -25.77787,12.15025 -4.83384,5.70417 -13.07578,6.14018 -18.42266,0.96469 -5.33812,-5.16623 -5.74675,-13.9591 -0.90382,-19.64458 11.4935,-13.53233 27.93394,-21.29557 45.10458,-21.29557 17.144627,0 33.585077,7.78185 45.113384,21.34191 4.842528,5.6949 4.433891,14.4876 -0.903821,19.65382 -2.486489,2.42074 -5.625021,3.60795 -8.754844,3.60795 z m 28.933627,-34.80915 c -3.329784,0 -6.659664,-1.35422 -9.198271,-4.05315 -14.762465,-15.66555 -34.358758,-24.29131 -55.189688,-24.29131 -20.87435,0 -40.47935,8.60716 -55.21586,24.23555 -5.10334,5.41664 -13.36267,5.38884 -18.4399,-0.0554 -5.0774,-5.44442 -5.05999,-14.25573 0.0549,-19.67244 19.6485,-20.85023 45.7915,-32.33267 73.60371,-32.33267 27.768795,0 53.903018,11.50106 73.586245,32.38834 5.112121,5.41671 5.129591,14.22794 0.05495,19.68163 -2.547317,2.7177 -5.903208,4.09955 -9.250408,4.09955 z m 28.8728953,-34.75357 c -3.2428653,0 -6.4944223,-1.28929 -9.0243393,-3.86761 -22.769702,-23.28038 -52.677162,-36.09851 -84.236515,-36.09851 -31.62018,0 -61.54512,12.79952 -84.25391,36.06129 -5.19034,5.31464 -13.44961,5.13844 -18.43998,-0.40781 -4.99038,-5.54659 -4.81652,-14.35781 0.37312,-19.67237 27.59492,-28.25172 63.92727,-43.806 102.32014,-43.806 38.314577,0 74.638214,15.57281 102.28518979,43.83371 5.19912551,5.3148 5.37298651,14.12595 0.3919424,19.67245 -2.56472469,2.84741 -5.99022159,4.28501 -9.41557689,4.28501 z M -104.53581,921.18818 c 8.700372,0 15.75354,-7.13867 15.75354,-15.94461 0,-8.80584 -7.053168,-15.94452 -15.75354,-15.94452 -8.70043,0 -15.75361,7.13868 -15.75361,15.94452 0,8.80594 7.05318,15.94461 15.75361,15.94461 z"
           inkscape:connector-curvature="0" />
      </g>
    </g>
  </g>
</svg>
