<?xml version="1.0" encoding="UTF-8" standalone="no"?>
<!-- Created with Inkscape (http://www.inkscape.org/) -->

<svg
   xmlns:ns2="http://ns.adobe.com/AdobeIllustrator/10.0/"
   xmlns:osb="http://www.openswatchbook.org/uri/2009/osb"
   xmlns:dc="http://purl.org/dc/elements/1.1/"
   xmlns:cc="http://creativecommons.org/ns#"
   xmlns:rdf="http://www.w3.org/1999/02/22-rdf-syntax-ns#"
   xmlns:svg="http://www.w3.org/2000/svg"
   xmlns="http://www.w3.org/2000/svg"
   xmlns:xlink="http://www.w3.org/1999/xlink"
   xmlns:sodipodi="http://sodipodi.sourceforge.net/DTD/sodipodi-0.dtd"
   xmlns:inkscape="http://www.inkscape.org/namespaces/inkscape"
   width="48"
   height="48"
   id="svg3209"
   version="1.1"
   inkscape:version="0.91 r13725"
   sodipodi:docname="virtualbox.svg">
  <defs
     id="defs3211">
    <style
       type="text/css"
       id="current-color-scheme">.ColorScheme-Text {
        color:#31363b;
      }
      .ColorScheme-Background{
        color:#eff0f1;
      }
      .ColorScheme-ViewText {
        color:#31363b;
      }
      .ColorScheme-ViewBackground{
        color:#fcfcfc;
      }
      .ColorScheme-ViewHover {
        color:#3daee9;
      }
      .ColorScheme-ViewFocus{
        color:#3daee9;
      }
      .ColorScheme-ButtonText {
        color:#31363b;
      }
      .ColorScheme-ButtonBackground{
        color:#eff0f1;
      }
      .ColorScheme-ButtonHover {
        color:#3daee9;
      }
      .ColorScheme-ButtonFocus{
        color:#3daee9;
      }</style>
    <style
       type="text/css"
       id="current-color-scheme-8">.ColorScheme-Text {
        color:#31363b;
      }
      .ColorScheme-Background{
        color:#eff0f1;
      }
      .ColorScheme-ViewText {
        color:#31363b;
      }
      .ColorScheme-ViewBackground{
        color:#fcfcfc;
      }
      .ColorScheme-ViewHover {
        color:#3daee9;
      }
      .ColorScheme-ViewFocus{
        color:#3daee9;
      }
      .ColorScheme-ButtonText {
        color:#31363b;
      }
      .ColorScheme-ButtonBackground{
        color:#eff0f1;
      }
      .ColorScheme-ButtonHover {
        color:#3daee9;
      }
      .ColorScheme-ButtonFocus{
        color:#3daee9;
      }</style>
    <style
       type="text/css"
       id="current-color-scheme-7">.ColorScheme-Text {
        color:#31363b;
      }
      .ColorScheme-Background{
        color:#eff0f1;
      }
      .ColorScheme-ViewText {
        color:#31363b;
      }
      .ColorScheme-ViewBackground{
        color:#fcfcfc;
      }
      .ColorScheme-ViewHover {
        color:#3daee9;
      }
      .ColorScheme-ViewFocus{
        color:#3daee9;
      }
      .ColorScheme-ButtonText {
        color:#31363b;
      }
      .ColorScheme-ButtonBackground{
        color:#eff0f1;
      }
      .ColorScheme-ButtonHover {
        color:#3daee9;
      }
      .ColorScheme-ButtonFocus{
        color:#3daee9;
      }</style>
    <linearGradient
       id="linearGradient4207"
       osb:paint="gradient">
      <stop
         style="stop-color:#3498db;stop-opacity:1;"
         offset="0"
         id="stop3371" />
      <stop
         style="stop-color:#3498db;stop-opacity:0;"
         offset="1"
         id="stop3373" />
    </linearGradient>
    <style
       type="text/css"
       id="current-color-scheme-0">.ColorScheme-Text {
        color:#31363b;
      }
      .ColorScheme-Background{
        color:#eff0f1;
      }
      .ColorScheme-ViewText {
        color:#31363b;
      }
      .ColorScheme-ViewBackground{
        color:#fcfcfc;
      }
      .ColorScheme-ViewHover {
        color:#3daee9;
      }
      .ColorScheme-ViewFocus{
        color:#3daee9;
      }
      .ColorScheme-ButtonText {
        color:#31363b;
      }
      .ColorScheme-ButtonBackground{
        color:#eff0f1;
      }
      .ColorScheme-ButtonHover {
        color:#3daee9;
      }
      .ColorScheme-ButtonFocus{
        color:#3daee9;
      }</style>
    <style
       type="text/css"
       id="current-color-scheme-8-6">.ColorScheme-Text {
        color:#31363b;
      }
      .ColorScheme-Background{
        color:#eff0f1;
      }
      .ColorScheme-ViewText {
        color:#31363b;
      }
      .ColorScheme-ViewBackground{
        color:#fcfcfc;
      }
      .ColorScheme-ViewHover {
        color:#3daee9;
      }
      .ColorScheme-ViewFocus{
        color:#3daee9;
      }
      .ColorScheme-ButtonText {
        color:#31363b;
      }
      .ColorScheme-ButtonBackground{
        color:#eff0f1;
      }
      .ColorScheme-ButtonHover {
        color:#3daee9;
      }
      .ColorScheme-ButtonFocus{
        color:#3daee9;
      }</style>
    <style
       type="text/css"
       id="current-color-scheme-7-6">.ColorScheme-Text {
        color:#31363b;
      }
      .ColorScheme-Background{
        color:#eff0f1;
      }
      .ColorScheme-ViewText {
        color:#31363b;
      }
      .ColorScheme-ViewBackground{
        color:#fcfcfc;
      }
      .ColorScheme-ViewHover {
        color:#3daee9;
      }
      .ColorScheme-ViewFocus{
        color:#3daee9;
      }
      .ColorScheme-ButtonText {
        color:#31363b;
      }
      .ColorScheme-ButtonBackground{
        color:#eff0f1;
      }
      .ColorScheme-ButtonHover {
        color:#3daee9;
      }
      .ColorScheme-ButtonFocus{
        color:#3daee9;
      }</style>
    <style
       type="text/css"
       id="current-color-scheme-4">.ColorScheme-Text {
        color:#31363b;
      }
      .ColorScheme-Background{
        color:#eff0f1;
      }
      .ColorScheme-ViewText {
        color:#31363b;
      }
      .ColorScheme-ViewBackground{
        color:#fcfcfc;
      }
      .ColorScheme-ViewHover {
        color:#3daee9;
      }
      .ColorScheme-ViewFocus{
        color:#3daee9;
      }
      .ColorScheme-ButtonText {
        color:#31363b;
      }
      .ColorScheme-ButtonBackground{
        color:#eff0f1;
      }
      .ColorScheme-ButtonHover {
        color:#3daee9;
      }
      .ColorScheme-ButtonFocus{
        color:#3daee9;
      }</style>
    <style
       type="text/css"
       id="current-color-scheme-8-0">.ColorScheme-Text {
        color:#31363b;
      }
      .ColorScheme-Background{
        color:#eff0f1;
      }
      .ColorScheme-ViewText {
        color:#31363b;
      }
      .ColorScheme-ViewBackground{
        color:#fcfcfc;
      }
      .ColorScheme-ViewHover {
        color:#3daee9;
      }
      .ColorScheme-ViewFocus{
        color:#3daee9;
      }
      .ColorScheme-ButtonText {
        color:#31363b;
      }
      .ColorScheme-ButtonBackground{
        color:#eff0f1;
      }
      .ColorScheme-ButtonHover {
        color:#3daee9;
      }
      .ColorScheme-ButtonFocus{
        color:#3daee9;
      }</style>
    <style
       type="text/css"
       id="current-color-scheme-7-7">.ColorScheme-Text {
        color:#31363b;
      }
      .ColorScheme-Background{
        color:#eff0f1;
      }
      .ColorScheme-ViewText {
        color:#31363b;
      }
      .ColorScheme-ViewBackground{
        color:#fcfcfc;
      }
      .ColorScheme-ViewHover {
        color:#3daee9;
      }
      .ColorScheme-ViewFocus{
        color:#3daee9;
      }
      .ColorScheme-ButtonText {
        color:#31363b;
      }
      .ColorScheme-ButtonBackground{
        color:#eff0f1;
      }
      .ColorScheme-ButtonHover {
        color:#3daee9;
      }
      .ColorScheme-ButtonFocus{
        color:#3daee9;
      }</style>
    <linearGradient
       gradientTransform="matrix(1.0014519,3.7631821e-5,3.7631794e-5,0.95188387,0.05316541,11.945082)"
       inkscape:collect="always"
       xlink:href="#linearGradient5242"
       id="linearGradient4991"
       gradientUnits="userSpaceOnUse"
       x1="0.9673245"
       y1="204.54808"
       x2="0.80734289"
       y2="147.63994" />
    <linearGradient
       id="linearGradient5242"
       inkscape:collect="always">
      <stop
         id="stop5244"
         offset="0"
         style="stop-color:#1f75d3;stop-opacity:1" />
      <stop
         id="stop5246"
         offset="1"
         style="stop-color:#2896ff;stop-opacity:1" />
    </linearGradient>
    <linearGradient
       inkscape:collect="always"
       xlink:href="#linearGradient4143"
       id="linearGradient5149"
       gradientUnits="userSpaceOnUse"
       x1="22.547663"
       y1="266.99716"
       x2="21.170237"
       y2="148.12303"
       gradientTransform="matrix(0.41708449,-3.0184975e-4,3.1664848e-4,0.39759146,13.043362,-59.633914)" />
    <linearGradient
       id="linearGradient4143"
       inkscape:collect="always">
      <stop
         id="stop4145"
         offset="0"
         style="stop-color:#197cf1;stop-opacity:1" />
      <stop
         id="stop4147"
         offset="1"
         style="stop-color:#20bcfa;stop-opacity:1" />
    </linearGradient>
    <linearGradient
       gradientUnits="userSpaceOnUse"
       y2="253.9286"
       x2="371.47604"
       y1="473.93784"
       x1="371.47604"
       id="linearGradient4155"
       xlink:href="#linearGradient3776"
       inkscape:collect="always"
       gradientTransform="matrix(0.10924876,0,0,0.10924875,-5.666776,-5.6092646)" />
    <linearGradient
       id="linearGradient3776">
      <stop
         id="stop3778"
         offset="0"
         style="stop-color:#e7f0f4;stop-opacity:1" />
      <stop
         id="stop3780"
         offset="1"
         style="stop-color:#f4faff;stop-opacity:1" />
    </linearGradient>
  </defs>
  <sodipodi:namedview
     id="base"
     pagecolor="#5a5a5a"
     bordercolor="#666666"
     borderopacity="1.0"
     inkscape:pageopacity="0"
     inkscape:pageshadow="2"
     inkscape:zoom="7.9195959"
     inkscape:cx="42.698536"
     inkscape:cy="16.688418"
     inkscape:document-units="px"
     inkscape:current-layer="layer1"
     showgrid="false"
     inkscape:snap-bbox="true"
     inkscape:window-width="1366"
     inkscape:window-height="633"
     inkscape:window-x="0"
     inkscape:window-y="33"
     inkscape:window-maximized="1"
     inkscape:snap-global="true"
     showborder="false">
    <inkscape:grid
       type="xygrid"
       id="grid3310"
       empspacing="5"
       visible="true"
       enabled="true"
       snapvisiblegridlinesonly="true" />
  </sodipodi:namedview>
  <metadata
     id="metadata3214">
    <rdf:RDF>
      <cc:Work
         rdf:about="">
        <dc:format>image/svg+xml</dc:format>
        <dc:type
           rdf:resource="http://purl.org/dc/dcmitype/StillImage" />
        <dc:title></dc:title>
      </cc:Work>
    </rdf:RDF>
  </metadata>
  <g
     inkscape:label="Layer 1"
     inkscape:groupmode="layer"
     id="layer1"
     transform="translate(0,-1004.3622)">
    <g
       transform="matrix(0.24816599,0,0,0.24816599,-6.5480092,997.64046)"
       style="overflow:visible;fill:#ffffff;fill-opacity:0.85"
       id="g4715">
      <path
         style="opacity:1;fill:url(#linearGradient4991);fill-opacity:1;fill-rule:evenodd;stroke:none;stroke-width:2.76384115px;stroke-linecap:butt;stroke-linejoin:miter;stroke-opacity:1"
         d="m -23.764515,154.66919 47.828584,0.0363 -0.0419,55.16792 -55.437374,-0.0422 0.0365,-48.05392 c 0.006,-7.63847 7.21097,-7.10853 7.61419,-7.10821 z"
         id="path4271-0"
         inkscape:connector-curvature="0"
         sodipodi:nodetypes="ccccccc"
         transform="matrix(1.6782307,-0.00127781,0.00127411,1.6831035,78.868422,-232.88575)" />
      <path
         id="path4271"
         transform="matrix(4.029561,0,0,4.029561,26.385603,27.088083)"
         d="m 23.021484,0.09375 0,22.917969 -23.021484,0 0,20.072265 c -3.2443212e-6,3.190507 3.0000375,2.97071 3.1679688,2.970704 l 19.9199222,0 19.80664,0 c 0.167931,5e-6 3.168007,0.219803 3.167969,-2.970704 l 0,-19.947265 0.04687,0 0,-20.0703128 c 5e-5,-3.19050627 -3.000037,-2.97266243 -3.167964,-2.9726562 l -19.919922,0 z"
         style="opacity:1;fill:url(#linearGradient5149);fill-opacity:1;fill-rule:evenodd;stroke:none;stroke-width:2.76384115px;stroke-linecap:butt;stroke-linejoin:miter;stroke-opacity:1"
         inkscape:connector-curvature="0" />
      <path
         id="path3340"
         transform="matrix(4.029561,0,0,4.029561,26.385603,27.088083)"
         d="M 34.542969,20.996094 A 13.456333,13.456333 0 0 0 21.087891,34.453125 13.456333,13.456333 0 0 0 34.542969,47.908203 13.456333,13.456333 0 0 0 48,34.453125 13.456333,13.456333 0 0 0 34.542969,20.996094 Z m 3.396484,5.992187 c 0.04951,0.0025 0.108125,0.02523 0.154297,0.03906 0.23704,0.06807 0.438259,0.271295 0.505859,0.509765 l 2.451172,8.927735 1.285157,-1.742188 c 0.130967,-0.193849 0.329665,-0.327709 0.5625,-0.333984 l 0.953124,0 0.429688,0 0.03711,0 c 0.02817,-10e-7 0.05859,0.0304 0.05859,0.05859 l 0,1.371093 c 0,0.02815 -0.02847,0.03907 -0.05664,0.03906 l -0.03906,0 -0.429688,0 -0.582031,0 -1.886719,2.623047 c -0.322907,0.425178 -1.128335,0.276978 -1.285156,-0.234375 l -2.236328,-7.949219 -1.537109,5.070313 c -0.09412,0.28811 -0.398057,0.483948 -0.699219,0.490234 l -1.070312,0 -0.214844,0 -0.525391,0 -0.193359,0 -0.544922,0 -2.082031,6.890625 c -0.104299,0.373598 -0.544693,0.621078 -0.914063,0.509765 -0.237042,-0.06819 -0.438256,-0.271232 -0.505859,-0.509765 l -2.470703,-8.945313 -1.263672,1.742188 c -0.130971,0.193912 -0.351151,0.306224 -0.583985,0.3125 l -0.933593,0 -0.466797,0 -0.05859,0 c -0.02817,2.1e-5 -0.03906,-0.01087 -0.03906,-0.03906 l 0,-1.371093 c 0,-0.02818 0.01089,-0.0586 0.03906,-0.05859 l 0.05859,0 0.466797,0 0.583984,0 1.886719,-2.583984 c 0.322906,-0.425053 1.126385,-0.276729 1.283203,0.234374 l 2.21875,7.949219 1.554687,-5.089843 c 0.09412,-0.288115 0.380479,-0.50348 0.681641,-0.509766 l 1.089844,0 0.193359,0 0.525391,0 0.214844,0 0.52539,0 2.09961,-6.851563 c 0.07823,-0.280212 0.339495,-0.490444 0.623046,-0.529297 0.04726,-0.0063 0.08721,-0.01954 0.136719,-0.01953 z"
         style="opacity:1;fill:url(#linearGradient4155);fill-opacity:1;stroke:none;stroke-width:5.23831511;stroke-linecap:butt;stroke-linejoin:miter;stroke-miterlimit:4;stroke-dasharray:none;stroke-dashoffset:0;stroke-opacity:1"
         inkscape:connector-curvature="0" />
      <path
         style="fill:#ffffff;fill-opacity:0.8508065"
         inkscape:connector-curvature="0"
         id="path5"
         d="m 395.74798,275.9845 c -0.646,-64.841 52.88,-95.938 55.271,-97.483 -30.075,-44.01 -76.925,-50.039 -93.62,-50.736 -39.871,-4.037 -77.798,23.474 -98.033,23.474 -20.184,0 -51.409,-22.877 -84.476,-22.276 -43.458,0.646 -83.528992,25.269 -105.905992,64.19 -45.152,78.35 -11.563,194.42 32.445002,257.963 21.50399,31.104 47.14599,66.038 80.81299,64.79 32.421,-1.294 44.681,-20.979 83.878,-20.979 39.196,0 50.215,20.979 84.524,20.335 34.888,-0.648 56.991,-31.699 78.347,-62.898 24.694,-36.084 34.862,-71.019 35.462,-72.812 -0.775,-0.354 -68.031,-26.119 -68.705,-103.568 z m -64.468,-190.284995 c 17.869,-21.679 29.93,-51.756 26.64,-81.7610002 -25.739,1.048 -56.938,17.1450002 -75.405,38.7750002 -16.57,19.188 -31.075,49.812996 -27.188,79.217995 28.734,2.242 58.065,-14.602 75.953,-36.231995 z"
         transform="matrix(0.10231297,0,0,0.10231297,45.698221,138.14037)" />
      <path
         d="m 53.10945,31.24555 -0.004,-3.900925 4.374839,-0.6518 0,4.552725 -4.370852,0 z m 5.099991,-4.668975 5.83166,-0.931025 0,5.6 -5.83166,0 0,-4.668975 z m 5.833073,5.468975 -0.0014,5.6 -5.83166,-0.9002 0,-4.6998 5.833072,0 z m -6.562213,4.59795 -4.371284,-0.657425 -2.28e-4,-3.940525 4.371512,0 0,4.59795 z"
         id="path5-3"
         inkscape:connector-curvature="0"
         style="font-style:normal;font-weight:normal;font-size:9.36996746px;line-height:125%;font-family:sans-serif;letter-spacing:0px;word-spacing:0px;fill:#ffffff;fill-opacity:0.8508065;stroke:none;stroke-width:1px;stroke-linecap:butt;stroke-linejoin:miter;stroke-opacity:1"
         transform="matrix(4.029561,0,0,4.029561,-70.974435,-55.040622)" />
      <path
         id="path4159"
         d="M 76.133,102.374 C 68.136,99.497 63.386,95.966 58.178,88.086 56.9,85.915 54.55,81.07 54.639,74.746 c -0.208,-6.305 2.978,-13.57 8.924,-17.447 5.742,-4.092 13.152,-4.153 17.56,-2.537 4.547,1.688 6.391,4.5 6.443,4.366 -0.139,0.035 2.436,2.201 3.584,6.916 1.279,4.532 -0.02,12.044 -6.271,15.12 -2.875,1.541 -6.609,1.82 -9.537,0.718 -2.928,-1.181 -5.053,-3.774 -5.761,-6.483 -1.543,-5.981 2.995,-9.296 4.997,-9.636 8.145,-2.716 12.27,10.03 2.744,11.114 4.342,1.45 8.818,-3.006 7.967,-7.545 -0.172,-4.54 -5.668,-9.046 -11.73,-7.199 -1.583,0.437 -3.98,1.548 -5.856,4.047 -1.924,2.484 -2.797,6.377 -1.797,10.161 0.975,3.805 3.94,7.447 8.07,9.084 4.172,1.539 8.817,1.099 12.653,-0.897 8.189,-4.051 9.828,-13.922 8.201,-19.353 -1.436,-5.837 -4.607,-8.51 -4.443,-8.551 -0.059,0.159 -2.34,-3.309 -7.977,-5.414 -5.512,-2.01 -14.106,-1.868 -20.987,2.957 -7.042,4.516 -10.857,13.39 -10.58,20.542 -0.095,7.263 2.612,12.822 4.089,15.293 5.954,9.08 12.776,11.918 21.201,12.372"
         ns2:knockout="Off"
         inkscape:connector-curvature="0"
         style="fill:#ffffff;fill-opacity:0.85" />
    </g>
  </g>
</svg>
