<?xml version="1.0" encoding="UTF-8" standalone="no"?>
<!-- Created with Inkscape (http://www.inkscape.org/) -->

<svg
   xmlns:dc="http://purl.org/dc/elements/1.1/"
   xmlns:cc="http://creativecommons.org/ns#"
   xmlns:rdf="http://www.w3.org/1999/02/22-rdf-syntax-ns#"
   xmlns:svg="http://www.w3.org/2000/svg"
   xmlns="http://www.w3.org/2000/svg"
   xmlns:xlink="http://www.w3.org/1999/xlink"
   xmlns:sodipodi="http://sodipodi.sourceforge.net/DTD/sodipodi-0.dtd"
   xmlns:inkscape="http://www.inkscape.org/namespaces/inkscape"
   width="48"
   height="48"
   id="svg5453"
   version="1.1"
   inkscape:version="0.91 r13725"
   sodipodi:docname="yast-hwinfo.svg">
  <defs
     id="defs5455">
    <linearGradient
       gradientUnits="userSpaceOnUse"
       y2="499.79797"
       x2="408.57144"
       y1="547.79797"
       x1="410.57144"
       id="linearGradient5226"
       xlink:href="#linearGradient4215"
       inkscape:collect="always" />
    <linearGradient
       inkscape:collect="always"
       id="linearGradient4215">
      <stop
         style="stop-color:#00a661;stop-opacity:1"
         offset="0"
         id="stop4217" />
      <stop
         style="stop-color:#37ce97;stop-opacity:1"
         offset="1"
         id="stop4219" />
    </linearGradient>
    <linearGradient
       gradientUnits="userSpaceOnUse"
       y2="-24"
       x2="-6"
       y1="-24"
       x1="-42"
       id="linearGradient5236"
       xlink:href="#linearGradient8467-5"
       inkscape:collect="always" />
    <linearGradient
       id="linearGradient8467-5">
      <stop
         offset="0"
         style="stop-color:#d3d3d3;stop-opacity:1"
         id="stop8469-7" />
      <stop
         offset="1"
         style="stop-color:#fcf9f9;stop-opacity:1"
         id="stop8471-0" />
    </linearGradient>
  </defs>
  <sodipodi:namedview
     id="base"
     pagecolor="#5a5a5a"
     bordercolor="#666666"
     borderopacity="1.0"
     inkscape:pageopacity="0"
     inkscape:pageshadow="2"
     inkscape:zoom="4.3179308"
     inkscape:cx="16.100619"
     inkscape:cy="27.306194"
     inkscape:document-units="px"
     inkscape:current-layer="layer1"
     showgrid="false"
     fit-margin-top="0"
     fit-margin-left="0"
     fit-margin-right="0"
     fit-margin-bottom="0"
     inkscape:window-width="1366"
     inkscape:window-height="633"
     inkscape:window-x="0"
     inkscape:window-y="33"
     inkscape:window-maximized="1"
     inkscape:showpageshadow="false"
     borderlayer="true"
     showguides="false"
     inkscape:snap-bbox="true"
     inkscape:snap-bbox-edge-midpoints="true"
     showborder="false">
    <inkscape:grid
       type="xygrid"
       id="grid4063" />
    <sodipodi:guide
       position="1.1650391e-05,47.999996"
       orientation="4,0"
       id="guide4146" />
    <sodipodi:guide
       position="1.1650391e-05,43.999996"
       orientation="0,48"
       id="guide4148" />
    <sodipodi:guide
       position="48.000012,43.999996"
       orientation="-4,0"
       id="guide4150" />
    <sodipodi:guide
       position="48.000012,47.999996"
       orientation="0,-48"
       id="guide4152" />
    <sodipodi:guide
       position="1.1650391e-05,4.0000264"
       orientation="4,0"
       id="guide4154" />
    <sodipodi:guide
       position="1.1650391e-05,2.6367188e-05"
       orientation="0,48"
       id="guide4156" />
    <sodipodi:guide
       position="48.000012,2.6367188e-05"
       orientation="-4,0"
       id="guide4158" />
    <sodipodi:guide
       position="48.000012,4.0000264"
       orientation="0,-48"
       id="guide4160" />
    <sodipodi:guide
       position="48.000012,48.000026"
       orientation="0,-4"
       id="guide4162" />
    <sodipodi:guide
       position="44.000012,48.000026"
       orientation="48,0"
       id="guide4164" />
    <sodipodi:guide
       position="44.000012,2.6367188e-05"
       orientation="0,4"
       id="guide4166" />
    <sodipodi:guide
       position="48.000012,2.6367188e-05"
       orientation="-48,0"
       id="guide4168" />
    <sodipodi:guide
       position="4.0000422,48.000026"
       orientation="0,-4"
       id="guide4170" />
    <sodipodi:guide
       position="4.2167969e-05,48.000026"
       orientation="48,0"
       id="guide4172" />
    <sodipodi:guide
       position="4.2167969e-05,2.6367188e-05"
       orientation="0,4"
       id="guide4174" />
    <sodipodi:guide
       position="4.0000422,2.6367188e-05"
       orientation="-48,0"
       id="guide4176" />
  </sodipodi:namedview>
  <metadata
     id="metadata5458">
    <rdf:RDF>
      <cc:Work
         rdf:about="">
        <dc:format>image/svg+xml</dc:format>
        <dc:type
           rdf:resource="http://purl.org/dc/dcmitype/StillImage" />
        <dc:title></dc:title>
      </cc:Work>
    </rdf:RDF>
  </metadata>
  <g
     inkscape:label="Capa 1"
     inkscape:groupmode="layer"
     id="layer1"
     transform="translate(-384.57143,-499.798)">
    <g
       transform="matrix(0.27003962,0,0,0.26920729,540.64693,568.37149)"
       style="fill:#17b677;fill-opacity:1"
       id="g4524">
      <rect
         style="opacity:1;fill:url(#linearGradient5226);fill-opacity:1;fill-rule:evenodd;stroke:none;stroke-width:3;stroke-linecap:round;stroke-linejoin:miter;stroke-miterlimit:4;stroke-dasharray:none;stroke-dashoffset:0;stroke-opacity:1"
         id="rect5218"
         width="52"
         height="52"
         x="382.57144"
         y="497.79797"
         ry="1.5"
         transform="matrix(3.4183019,0,0,3.4288704,-1885.7173,-1961.6085)" />
      <rect
         x="-42"
         y="-42"
         width="36"
         height="36"
         transform="matrix(0,-2.7430963,-2.7346415,0,-554.72819,-231.40751)"
         rx="1.8"
         ry="2.25"
         id="rect4203-4"
         style="fill:url(#linearGradient5236);fill-opacity:1" />
      <path
         d="M 40.851,19.248 C 39.25,11.615 24.149,11.131 14.416,16.947 l 0,0.64231 c 9.7209,-4.9081 23.514,-4.8768 24.77,2.1547 0.42295,2.3294 -0.90916,4.752 -3.2977,6.1459 l 0,1.8242 c 2.8753,-1.0319 5.8143,-4.3718 4.9629,-8.466 m -17.701,13.365 c -6.717,0.608 -13.716,-0.349 -14.696,-5.504 -0.4867,-2.538 0.6979,-5.232 2.261,-6.904 l 0,-0.89492 c -2.8177,2.4259 -4.3482,5.4944 -3.4645,9.1175 1.127,4.6494 7.1337,7.2811 16.304,6.4048 3.6309,-0.34287 8.3826,-1.4904 11.68,-3.2706 l 0,-2.5292 c -2.9969,1.7555 -7.9535,3.2058 -12.084,3.5797 z"
         id="path6"
         inkscape:connector-curvature="0"
         style="opacity:1;fill:#17b677;fill-opacity:1"
         transform="matrix(1.7694771,0,0,1.7455968,-531.56541,-207.4672)" />
      <path
         d="m 34.067,19.677 -1.6573,0 0,7.0052 c 0,0.82275 0.41595,1.5383 1.6573,1.6518"
         id="path8"
         inkscape:connector-curvature="0"
         style="opacity:1;fill:#17b677;fill-opacity:1"
         transform="matrix(1.9842917,0,0,1.9793322,-535.46304,-214.99509)" />
      <path
         d="m 14.323,22.237 -1.6575,0 0,4.5755 c 0,0.82306 0.41595,1.5384 1.6575,1.6518"
         id="path10"
         inkscape:connector-curvature="0"
         style="opacity:1;fill:#17b677;fill-opacity:1"
         transform="matrix(1.9842917,0,0,1.9793322,-535.46304,-214.99509)" />
      <rect
         height="1.4902"
         x="12.665"
         width="1.6575"
         y="19.889999"
         id="rect12"
         style="opacity:1;fill:#17b677;fill-opacity:1"
         transform="matrix(1.9842917,0,0,1.9793322,-535.46304,-214.99509)" />
      <path
         d="m 24.255,28.391 c -1.3439,0 -1.9104,-0.8857 -1.9104,-1.7598 l 0,-6.0768 1.6394,0 0,1.6831 1.2414,0 0,1.2602 -1.2414,0 0,3.0399 c 0,0.35751 0.18079,0.55357 0.57241,0.55357 l 0.66904,0 0,1.2999 -0.97036,0"
         id="path14"
         inkscape:connector-curvature="0"
         style="opacity:1;fill:#17b677;fill-opacity:1"
         transform="matrix(1.9842917,0,0,1.9793322,-535.46304,-214.99509)" />
      <path
         d="m 28.613,23.421 c -0.56038,0 -0.99421,0.27525 -1.1751,0.64713 -0.10845,0.22414 -0.1447,0.39451 -0.16259,0.66997 l 2.5374,0 C 29.77649,24.06528 29.45686,23.421 28.61301,23.421 m -1.3377,2.3786 c 0,0.79763 0.53008,1.3849 1.4583,1.3849 0.72942,0 1.091,-0.193 1.5129,-0.58719 l 1.0126,0.92239 c -0.65094,0.60723 -1.332,0.97631 -2.5374,0.97631 -1.573,0 -3.0799,-0.8146 -3.0799,-3.1876 0,-2.0293 1.3139,-3.1759 3.0437,-3.1759 1.7539,0 2.7602,1.3425 2.7602,3.1052 l 0,0.56203 -4.1704,0"
         id="path16"
         inkscape:connector-curvature="0"
         style="opacity:1;fill:#17b677;fill-opacity:1"
         transform="matrix(1.9842917,0,0,1.9793322,-535.46304,-214.99509)" />
      <path
         d="m 18.789,23.497 c 0.48206,0 0.68102,0.22429 0.68102,0.59041 l 0,4.3114 1.6454,0 0,-4.3171 c 0,-0.87708 -0.49426,-1.845 -1.9347,-1.845 l -3.3932,0 0,6.162 1.6394,0 0,-4.9018"
         id="path18"
         inkscape:connector-curvature="0"
         style="opacity:1;fill:#17b677;fill-opacity:1"
         transform="matrix(1.9842917,0,0,1.9793322,-535.46304,-214.99509)" />
      <path
         inkscape:connector-curvature="0"
         style="color:#000000;font-style:normal;font-variant:normal;font-weight:normal;font-stretch:normal;font-size:medium;line-height:normal;font-family:Sans;-inkscape-font-specification:Sans;text-indent:0;text-align:start;text-decoration:none;text-decoration-line:none;letter-spacing:normal;word-spacing:normal;text-transform:none;direction:ltr;block-progression:tb;writing-mode:lr-tb;baseline-shift:baseline;text-anchor:start;display:inline;overflow:visible;visibility:visible;opacity:1;fill:#ffffff;fill-opacity:0.77551018;stroke:none;stroke-width:1;marker:none;enable-background:accumulate"
         d="m 427.57143,543.79797 0,1 -1,0 0,-1 1,0 z m -1,1 0,1 -1,0 0,-1 1,0 z m -1,0 -1,0 0,-1 1,0 0,1 z m -1,0 0,1 -1,0 0,-1 1,0 z m -1,0 -1,0 0,-1 1,0 0,1 z m -1,0 0,1 -1,0 0,-1 1,0 z m -1,0 -1,0 0,-1 1,0 0,1 z m -1,0 0,1 -1,0 0,-1 1,0 z m -1,0 -1,0 0,-1 1,0 0,1 z m -1,0 0,1 -1,0 0,-1 1,0 z m -1,0 -1,0 0,-1 1,0 0,1 z m -1,0 0,1 -1,0 0,-1 1,0 z m -1,0 -1,0 0,-1 1,0 0,1 z m -1,0 0,1 -1,0 0,-1 1,0 z m -1,0 -1,0 0,-1 1,0 0,1 z m -1,0 0,1 -1,0 0,-1 1,0 z"
         id="path4303-6"
         transform="matrix(3.4183019,0,0,3.4288704,-1887.4264,-1955.0937)" />
      <path
         inkscape:connector-curvature="0"
         style="fill:#ffffff;fill-opacity:0.77551018;fill-rule:evenodd;stroke:none"
         d="m 431.57143,543.79797 -2,2 2,0 0,-2 z"
         id="path4317"
         transform="matrix(3.4183019,0,0,3.4288704,-1887.4264,-1955.0937)" />
      <path
         id="path4331"
         d="m 387.57143,543.79797 0,1 1,0 0,-1 -1,0 z m 1,1 0,1 1,0 0,-1 -1,0 z m 1,0 1,0 0,-1 -1,0 0,1 z m 1,0 0,1 1,0 0,-1 -1,0 z m 1,0 1,0 0,-1 -1,0 0,1 z m 1,0 0,1 1,0 0,-1 -1,0 z m 1,0 1,0 0,-1 -1,0 0,1 z m 1,0 0,1 1,0 0,-1 -1,0 z m 1,0 1,0 0,-1 -1,0 0,1 z m 1,0 0,1 1,0 0,-1 -1,0 z m 1,0 1,0 0,-1 -1,0 0,1 z m 1,0 0,1 1,0 0,-1 -1,0 z m 1,0 1,0 0,-1 -1,0 0,1 z m 1,0 0,1 1,0 0,-1 -1,0 z m 1,0 1,0 0,-1 -1,0 0,1 z m 1,0 0,1 1,0 0,-1 -1,0 z"
         style="color:#000000;font-style:normal;font-variant:normal;font-weight:normal;font-stretch:normal;font-size:medium;line-height:normal;font-family:Sans;-inkscape-font-specification:Sans;text-indent:0;text-align:start;text-decoration:none;text-decoration-line:none;letter-spacing:normal;word-spacing:normal;text-transform:none;direction:ltr;block-progression:tb;writing-mode:lr-tb;baseline-shift:baseline;text-anchor:start;display:inline;overflow:visible;visibility:visible;opacity:1;fill:#ffffff;fill-opacity:0.77551018;stroke:none;stroke-width:1;marker:none;enable-background:accumulate"
         inkscape:connector-curvature="0"
         transform="matrix(3.4183019,0,0,3.4288704,-1887.4264,-1955.0937)" />
      <path
         id="path4333"
         d="m 432.57143,521.79797 -1,0 0,-1 1,0 0,1 z m -1,-1 -1,0 0,-1 1,0 0,1 z m 0,-1 0,-1 1,0 0,1 -1,0 z m 0,-1 -1,0 0,-1 1,0 0,1 z m 0,-1 0,-1 1,0 0,1 -1,0 z m 0,-1 -1,0 0,-1 1,0 0,1 z m 0,-1 0,-1 1,0 0,1 -1,0 z m 0,-1 -1,0 0,-1 1,0 0,1 z m 0,-1 0,-1 1,0 0,1 -1,0 z m 0,-1 -1,0 0,-1 1,0 0,1 z m 0,-1 0,-1 1,0 0,1 -1,0 z m 0,-1 -1,0 0,-1 1,0 0,1 z m 0,-1 0,-1 1,0 0,1 -1,0 z m 0,-1 -1,0 0,-1 1,0 0,1 z m 0,-1 0,-1 1,0 0,1 -1,0 z m 0,-1 -1,0 0,-1 1,0 0,1 z"
         style="color:#000000;font-style:normal;font-variant:normal;font-weight:normal;font-stretch:normal;font-size:medium;line-height:normal;font-family:Sans;-inkscape-font-specification:Sans;text-indent:0;text-align:start;text-decoration:none;text-decoration-line:none;letter-spacing:normal;word-spacing:normal;text-transform:none;direction:ltr;block-progression:tb;writing-mode:lr-tb;baseline-shift:baseline;text-anchor:start;display:inline;overflow:visible;visibility:visible;opacity:1;fill:#ffffff;fill-opacity:0.77551018;stroke:none;stroke-width:1;marker:none;enable-background:accumulate"
         inkscape:connector-curvature="0"
         transform="matrix(3.4183019,0,0,3.4288704,-1887.4264,-1955.0937)" />
      <path
         style="color:#000000;font-style:normal;font-variant:normal;font-weight:normal;font-stretch:normal;font-size:medium;line-height:normal;font-family:Sans;-inkscape-font-specification:Sans;text-indent:0;text-align:start;text-decoration:none;text-decoration-line:none;letter-spacing:normal;word-spacing:normal;text-transform:none;direction:ltr;block-progression:tb;writing-mode:lr-tb;baseline-shift:baseline;text-anchor:start;display:inline;overflow:visible;visibility:visible;opacity:1;fill:#ffffff;fill-opacity:0.77551018;stroke:none;stroke-width:1;marker:none;enable-background:accumulate"
         d="m 54,40 0,1 1,0 0,-1 z m 1,1 0,1 1,0 0,-1 z m 0,1 -1,0 0,1 1,0 z m 0,1 0,1 1,0 0,-1 z m 0,1 -1,0 0,1 1,0 z m 0,1 0,1 1,0 0,-1 z m 0,1 -1,0 0,1 1,0 z m 0,1 0,1 1,0 0,-1 z m 0,1 -1,0 0,1 1,0 z"
         transform="matrix(3.4183019,0,0,3.4288704,-600.19157,-268.7822)"
         id="path4339"
         inkscape:connector-curvature="0"
         sodipodi:nodetypes="ccccccccccccccccccccccccccccccccccccccccccccc" />
      <ellipse
         id="path3023-6"
         style="color:#000000;display:inline;overflow:visible;visibility:visible;fill:#17b677;fill-opacity:1;fill-rule:nonzero;stroke:none;stroke-width:1.39999998;stroke-linecap:butt;stroke-linejoin:miter;stroke-miterlimit:4;stroke-dasharray:none;stroke-opacity:1;marker:none;enable-background:accumulate"
         cx="-462.60782"
         cy="-130.50694"
         rx="2.4999926"
         ry="2.5" />
      <ellipse
         id="path3023-9-1"
         style="color:#000000;display:inline;overflow:visible;visibility:visible;fill:#17b677;fill-opacity:1;fill-rule:nonzero;stroke:none;stroke-width:1.39999998;marker:none;enable-background:accumulate"
         cx="-458.10782"
         cy="-123.00694"
         rx="2.9999924"
         ry="3" />
      <ellipse
         id="path3023-7-6"
         style="color:#000000;display:inline;overflow:visible;visibility:visible;fill:#17b677;fill-opacity:1;fill-rule:nonzero;stroke:none;stroke-width:1.39999998;marker:none;enable-background:accumulate"
         cx="-460.60788"
         cy="-138.50693"
         rx="1.5000025"
         ry="1.499995" />
      <path
         sodipodi:nodetypes="ccccccccc"
         inkscape:connector-curvature="0"
         id="path3818-1"
         d="m -452.10784,-140.00692 -2.84375,2.84374 4.375,4.375 -4.53125,5.15625 3,2.625 7.00002,-8 0,0 -7.00002,-6.99999 z"
         style="color:#000000;font-style:normal;font-variant:normal;font-weight:normal;font-stretch:normal;font-size:medium;line-height:normal;font-family:Sans;-inkscape-font-specification:Sans;text-indent:0;text-align:start;text-decoration:none;text-decoration-line:none;letter-spacing:normal;word-spacing:normal;text-transform:none;direction:ltr;block-progression:tb;writing-mode:lr-tb;baseline-shift:baseline;text-anchor:start;display:inline;overflow:visible;visibility:visible;fill:#17b677;fill-opacity:1;stroke:none;stroke-width:8;marker:none;enable-background:accumulate" />
    </g>
  </g>
</svg>
