<?xml version="1.0" encoding="UTF-8" standalone="no"?>
<!-- Created with Inkscape (http://www.inkscape.org/) -->

<svg
   xmlns:sketch="http://www.bohemiancoding.com/sketch/ns"
   xmlns:osb="http://www.openswatchbook.org/uri/2009/osb"
   xmlns:dc="http://purl.org/dc/elements/1.1/"
   xmlns:cc="http://creativecommons.org/ns#"
   xmlns:rdf="http://www.w3.org/1999/02/22-rdf-syntax-ns#"
   xmlns:svg="http://www.w3.org/2000/svg"
   xmlns="http://www.w3.org/2000/svg"
   xmlns:xlink="http://www.w3.org/1999/xlink"
   xmlns:sodipodi="http://sodipodi.sourceforge.net/DTD/sodipodi-0.dtd"
   xmlns:inkscape="http://www.inkscape.org/namespaces/inkscape"
   width="48"
   height="48"
   id="svg5453"
   version="1.1"
   inkscape:version="0.91 r13725"
   sodipodi:docname="org.kde.plasma.systemmonitor.diskusage.svg">
  <defs
     id="defs5455">
    <linearGradient
       id="linearGradient4422">
      <stop
         style="stop-color:#197ff1;stop-opacity:1"
         offset="0"
         id="stop4424" />
      <stop
         style="stop-color:#21c6fb;stop-opacity:1"
         offset="1"
         id="stop4426" />
    </linearGradient>
    <linearGradient
       osb:paint="gradient"
       id="linearGradient4207">
      <stop
         id="stop3371"
         offset="0"
         style="stop-color:#3498db;stop-opacity:1;" />
      <stop
         id="stop3373"
         offset="1"
         style="stop-color:#3498db;stop-opacity:0;" />
    </linearGradient>
    <filter
       id="filter3831"
       color-interpolation-filters="sRGB">
      <feGaussianBlur
         id="feGaussianBlur3833"
         stdDeviation="0.6375" />
    </filter>
    <clipPath
       id="clipPath3823">
      <path
         id="path3825"
         fill="#fff"
         d="m108.81 58c-1.56 0-2.81 1.254-2.81 2.812v24.375c0 1.559 1.25 2.813 2.81 2.813h24.375c1.57 0 2.82-1.254 2.82-2.812v-24.375c0-1.559-1.25-2.813-2.81-2.813h-24.375zm7.1875 4.5h10v8.75h5l-10 13.75-10-13.75h5v-8.75z" />
    </clipPath>
    <linearGradient
       id="linearGradient3812"
       y2="50.069"
       gradientUnits="userSpaceOnUse"
       x2="65.263"
       gradientTransform="matrix(0.625,0,0,0.625,78.5,32.25)"
       y1="64.205"
       x1="65.263">
      <stop
         id="stop3683"
         offset="0" />
      <stop
         id="stop3685"
         stop-opacity="0"
         offset="1" />
    </linearGradient>
    <filter
       id="filter3806"
       color-interpolation-filters="sRGB">
      <feGaussianBlur
         id="feGaussianBlur3808"
         stdDeviation="1.2" />
    </filter>
    <linearGradient
       id="linearGradient3788"
       y2="75.095"
       xlink:href="#linearGradient3737"
       gradientUnits="userSpaceOnUse"
       x2="70"
       gradientTransform="translate(0,4)"
       y1="54"
       x1="70" />
    <linearGradient
       id="linearGradient3773"
       y2="72"
       gradientUnits="userSpaceOnUse"
       x2="88"
       gradientTransform="matrix(0.9375,0,0,0.9375,-140.5,3.5)"
       y1="72"
       x1="56">
      <stop
         id="stop3780"
         stop-color="#499119"
         offset="0" />
      <stop
         id="stop3782"
         stop-color="#8fd625"
         offset="1" />
    </linearGradient>
    <linearGradient
       id="linearGradient3832"
       y2="50.069"
       xlink:href="#linearGradient3737"
       gradientUnits="userSpaceOnUse"
       x2="65.263"
       gradientTransform="matrix(0.625,0,0,0.625,28.5,31.25)"
       y1="64.205"
       x1="65.263" />
    <filter
       id="filter3174"
       color-interpolation-filters="sRGB">
      <feGaussianBlur
         id="feGaussianBlur3176"
         stdDeviation="1.71" />
    </filter>
    <linearGradient
       id="linearGradient3737">
      <stop
         id="stop3739"
         stop-color="#fff"
         offset="0" />
      <stop
         id="stop3741"
         stop-color="#fff"
         stop-opacity="0"
         offset="1" />
    </linearGradient>
    <linearGradient
       id="ButtonShadow"
       y2="7.0165"
       gradientUnits="userSpaceOnUse"
       x2="45.448"
       gradientTransform="scale(1.0059,0.99417)"
       y1="92.54"
       x1="45.448">
      <stop
         id="stop3750"
         offset="0" />
      <stop
         id="stop3752"
         stop-opacity=".58824"
         offset="1" />
    </linearGradient>
    <linearGradient
       id="linearGradient4422-9">
      <stop
         style="stop-color:#2971c3;stop-opacity:1"
         offset="0"
         id="stop4424-3" />
      <stop
         style="stop-color:#83bbff;stop-opacity:1"
         offset="1"
         id="stop4426-1" />
    </linearGradient>
    <filter
       id="filter3831-1"
       color-interpolation-filters="sRGB">
      <feGaussianBlur
         id="feGaussianBlur3833-6"
         stdDeviation="0.6375" />
    </filter>
    <clipPath
       id="clipPath3823-5">
      <path
         id="path3825-6"
         fill="#fff"
         d="m108.81 58c-1.56 0-2.81 1.254-2.81 2.812v24.375c0 1.559 1.25 2.813 2.81 2.813h24.375c1.57 0 2.82-1.254 2.82-2.812v-24.375c0-1.559-1.25-2.813-2.81-2.813h-24.375zm7.1875 4.5h10v8.75h5l-10 13.75-10-13.75h5v-8.75z" />
    </clipPath>
    <filter
       id="filter3806-8"
       color-interpolation-filters="sRGB">
      <feGaussianBlur
         id="feGaussianBlur3808-9"
         stdDeviation="1.2" />
    </filter>
    <filter
       id="filter3174-8"
       color-interpolation-filters="sRGB">
      <feGaussianBlur
         id="feGaussianBlur3176-5"
         stdDeviation="1.71" />
    </filter>
    <linearGradient
       gradientTransform="matrix(0.24841536,0,0,0.24427878,433.38377,517.17091)"
       y2="107.36093"
       x2="122.719"
       y1="107.36093"
       x1="10.09375"
       gradientUnits="userSpaceOnUse"
       id="linearGradient4197"
       xlink:href="#linearGradient3687"
       inkscape:collect="always" />
    <linearGradient
       id="linearGradient3687">
      <stop
         style="stop-color:#1a1a1a;stop-opacity:1"
         offset="0"
         id="stop3689" />
      <stop
         id="stop3691"
         offset="0.11054216"
         style="stop-color:#2c2c2e;stop-opacity:1" />
      <stop
         id="stop3693"
         offset="0.29001436"
         style="stop-color:#2b2b2d;stop-opacity:1" />
      <stop
         id="stop3695"
         offset="0.5118711"
         style="stop-color:#2a2b2d;stop-opacity:1" />
      <stop
         id="stop3699"
         offset="0.75173318"
         style="stop-color:#2b2b2d;stop-opacity:1" />
      <stop
         style="stop-color:#323232;stop-opacity:1"
         offset="0.89659214"
         id="stop3701" />
      <stop
         style="stop-color:#171717;stop-opacity:1"
         offset="1"
         id="stop3703" />
    </linearGradient>
    <linearGradient
       gradientUnits="userSpaceOnUse"
       y2="518.40662"
       x2="449.54932"
       y1="540.74573"
       x1="449.42804"
       id="linearGradient4998"
       xlink:href="#linearGradient4992"
       inkscape:collect="always" />
    <linearGradient
       id="linearGradient4992"
       inkscape:collect="always">
      <stop
         id="stop4994"
         offset="0"
         style="stop-color:#bbbec4;stop-opacity:1" />
      <stop
         id="stop4996"
         offset="1"
         style="stop-color:#dddfe2;stop-opacity:1" />
    </linearGradient>
    <linearGradient
       gradientTransform="matrix(0.50539571,0,0,1,229.14839,2.1665552)"
       gradientUnits="userSpaceOnUse"
       y2="543.0885"
       x2="451.02078"
       y1="544.14978"
       x1="451.02078"
       id="linearGradient4735"
       xlink:href="#linearGradient4143-0"
       inkscape:collect="always" />
    <linearGradient
       inkscape:collect="always"
       id="linearGradient4143-0">
      <stop
         style="stop-color:#197cf1;stop-opacity:1"
         offset="0"
         id="stop4145-9" />
      <stop
         style="stop-color:#20bcfa;stop-opacity:1"
         offset="1"
         id="stop4147-0" />
    </linearGradient>
    <linearGradient
       gradientTransform="translate(0,0.10639487)"
       gradientUnits="userSpaceOnUse"
       y2="544.72443"
       x2="467.17453"
       y1="546.84698"
       x1="467.17453"
       id="linearGradient4963"
       xlink:href="#linearGradient4957"
       inkscape:collect="always" />
    <linearGradient
       id="linearGradient4957"
       inkscape:collect="always">
      <stop
         id="stop4959"
         offset="0"
         style="stop-color:#040404;stop-opacity:1" />
      <stop
         id="stop4961"
         offset="1"
         style="stop-color:#121212;stop-opacity:0.90816325" />
    </linearGradient>
  </defs>
  <sodipodi:namedview
     id="base"
     pagecolor="#5a5a5a"
     bordercolor="#666666"
     borderopacity="1.0"
     inkscape:pageopacity="0"
     inkscape:pageshadow="2"
     inkscape:zoom="2.2935952"
     inkscape:cx="-57.702156"
     inkscape:cy="-1.0037896"
     inkscape:document-units="px"
     inkscape:current-layer="layer1"
     showgrid="false"
     fit-margin-top="0"
     fit-margin-left="0"
     fit-margin-right="0"
     fit-margin-bottom="0"
     inkscape:window-width="1366"
     inkscape:window-height="633"
     inkscape:window-x="0"
     inkscape:window-y="33"
     inkscape:window-maximized="1"
     inkscape:showpageshadow="false"
     borderlayer="true"
     showguides="false"
     showborder="false">
    <inkscape:grid
       type="xygrid"
       id="grid4063" />
    <sodipodi:guide
       position="-8,20"
       orientation="4,0"
       id="guide4146" />
    <sodipodi:guide
       position="1.1650391e-05,43.999996"
       orientation="0,48"
       id="guide4148" />
    <sodipodi:guide
       position="48.000012,43.999996"
       orientation="-4,0"
       id="guide4150" />
    <sodipodi:guide
       position="48.000012,47.999996"
       orientation="0,-48"
       id="guide4152" />
    <sodipodi:guide
       position="1.1650391e-05,4.0000264"
       orientation="4,0"
       id="guide4154" />
    <sodipodi:guide
       position="1.1650391e-05,2.6367188e-05"
       orientation="0,48"
       id="guide4156" />
    <sodipodi:guide
       position="48.000012,2.6367188e-05"
       orientation="-4,0"
       id="guide4158" />
    <sodipodi:guide
       position="48.000012,4.0000264"
       orientation="0,-48"
       id="guide4160" />
    <sodipodi:guide
       position="48.000012,48.000026"
       orientation="0,-4"
       id="guide4162" />
    <sodipodi:guide
       position="44.000012,48.000026"
       orientation="48,0"
       id="guide4164" />
    <sodipodi:guide
       position="44.000012,2.6367188e-05"
       orientation="0,4"
       id="guide4166" />
    <sodipodi:guide
       position="48.000012,2.6367188e-05"
       orientation="-48,0"
       id="guide4168" />
    <sodipodi:guide
       position="4.0000422,48.000026"
       orientation="0,-4"
       id="guide4170" />
    <sodipodi:guide
       position="4.2167969e-05,48.000026"
       orientation="48,0"
       id="guide4172" />
    <sodipodi:guide
       position="4.2167969e-05,2.6367188e-05"
       orientation="0,4"
       id="guide4174" />
    <sodipodi:guide
       position="4.0000422,2.6367188e-05"
       orientation="-48,0"
       id="guide4176" />
    <sodipodi:guide
       position="14.000012,34.000026"
       orientation="20,0"
       id="guide4173" />
    <sodipodi:guide
       position="14.000012,14.000026"
       orientation="0,20"
       id="guide4175" />
    <sodipodi:guide
       position="34.000012,14.000026"
       orientation="-20,0"
       id="guide4177" />
    <sodipodi:guide
       position="34.000012,34.000026"
       orientation="0,-20"
       id="guide4179" />
  </sodipodi:namedview>
  <metadata
     id="metadata5458">
    <rdf:RDF>
      <cc:Work
         rdf:about="">
        <dc:format>image/svg+xml</dc:format>
        <dc:type
           rdf:resource="http://purl.org/dc/dcmitype/StillImage" />
        <dc:title></dc:title>
      </cc:Work>
    </rdf:RDF>
  </metadata>
  <g
     inkscape:label="Capa 1"
     inkscape:groupmode="layer"
     id="layer1"
     transform="translate(-384.57143,-499.798)">
    <g
       transform="matrix(0.69216099,0,0,0.69216099,125.77422,161.24548)"
       id="layer1-1"
       inkscape:label="Capa 1">
      <g
         id="g3826"
         transform="matrix(1.8845167,0,0,1.8845167,-451.82645,-482.59973)">
        <path
           transform="translate(6.6795917,2.1134734)"
           sodipodi:nodetypes="ccccccc"
           id="rect3001"
           d="m 435.89128,541.07281 0.24841,3.91531 c 0,0.40601 0.33238,0.73288 0.74525,0.73288 l 25.99045,0 c 0.41287,0 0.74526,-0.32687 0.74526,-0.73288 l 0.24841,-3.91531 -27.97778,0 z"
           style="fill:url(#linearGradient4197);fill-opacity:1;stroke:none"
           inkscape:connector-curvature="0" />
        <path
           transform="translate(6.6795917,2.1134734)"
           sodipodi:nodetypes="ccccccccc"
           id="path3778"
           d="m 438.12877,518.12187 23.25963,0 c 0.41287,0 0.74526,0.32687 0.74526,0.73287 l 1.739,22.0998 c 0,0.406 -0.33237,0.73288 -0.74524,0.73288 l -26.48903,0 c -0.41287,0 -0.74524,-0.32688 -0.74524,-0.73288 l 1.49038,-22.09974 c 0,-0.406 0.33238,-0.73293 0.74524,-0.73293 z"
           style="fill:url(#linearGradient4998);fill-opacity:1;stroke:none"
           inkscape:connector-curvature="0" />
        <path
           transform="translate(6.6795917,2.1134734)"
           inkscape:connector-curvature="0"
           id="path4245"
           d="m 447.07665,522.85253 a 0.92883056,0.80385355 0 0 0 -0.92883,0.80387 0.92883056,0.80385355 0 0 0 0.92883,0.80385 0.92883056,0.80385355 0 0 0 0.92882,-0.80385 0.92883056,0.80385355 0 0 0 -0.92882,-0.80387 z m 4.64411,0 -1.85761,1.60772 3.71528,3.21545 -3.71528,3.21539 1.85761,1.60769 5.57301,-4.82308 -5.57301,-4.82317 z m -7.43064,4.82317 a 1.8576518,1.607699 0 0 0 -1.85764,1.60767 1.8576518,1.607699 0 0 0 1.85764,1.60772 1.8576518,1.607699 0 0 0 1.8577,-1.60772 1.8576518,1.607699 0 0 0 -1.8577,-1.60767 z m 3.71535,4.82308 a 1.8576518,1.607699 0 0 0 -1.85765,1.60769 1.8576518,1.607699 0 0 0 1.85765,1.60772 1.8576518,1.607699 0 0 0 1.85768,-1.60772 1.8576518,1.607699 0 0 0 -1.85768,-1.60769 z"
           style="opacity:1;fill:#a1a7ae;fill-opacity:1;stroke:#909296;stroke-width:0.053064;stroke-linecap:butt;stroke-linejoin:miter;stroke-miterlimit:4;stroke-dasharray:none;stroke-dashoffset:0;stroke-opacity:1" />
        <rect
           ry="0.3844372"
           y="545.61273"
           x="450.87326"
           height="0.76887441"
           width="11.463281"
           id="rect4727"
           style="opacity:1;fill:url(#linearGradient4735);fill-opacity:1;stroke:none;stroke-width:0.2;stroke-linecap:round;stroke-linejoin:round;stroke-miterlimit:4;stroke-dasharray:none;stroke-opacity:1" />
        <ellipse
           style="opacity:0.45199998;fill:url(#linearGradient4963);fill-opacity:1;stroke:none;stroke-width:1.70000005;stroke-linecap:round;stroke-linejoin:round;stroke-miterlimit:4;stroke-dasharray:none;stroke-opacity:1"
           id="path4955"
           cx="467.08929"
           cy="546.02448"
           rx="1.06128"
           ry="1.0612739" />
        <g
           transform="matrix(0.06690024,0,0,0.06690024,429.30819,506.30366)"
           id="layer1-2"
           inkscape:label="Capa 1"
           style="opacity:0.66799999;fill:#e3e8ea;fill-opacity:1">
          <g
             style="fill:#e3e8ea;fill-opacity:1"
             transform="matrix(0.12676497,0,0,0.12676497,556.71721,584.86309)"
             sketch:type="MSLayerGroup"
             id="power27">
            <g
               style="fill:#e3e8ea;fill-opacity:1"
               sketch:type="MSShapeGroup"
               id="g953">
              <path
                 style="fill:#e3e8ea;fill-opacity:1"
                 inkscape:connector-curvature="0"
                 id="path955"
                 d="m 63,73.215 c 2.824,0 5.27,-1.031 7.332,-3.096 2.064,-2.063 3.098,-4.508 3.098,-7.332 l 0,-52.144 C 73.43,7.818 72.397,5.374 70.332,3.311 68.27,1.246 65.825,0.214 63,0.214 c -2.825,0 -5.269,1.033 -7.333,3.097 -2.064,2.063 -3.096,4.508 -3.096,7.332 l 0,52.144 c 0,2.824 1.032,5.269 3.096,7.332 2.064,2.065 4.509,3.096 7.333,3.096 l 0,0 z" />
              <path
                 style="fill:#e3e8ea;fill-opacity:1"
                 inkscape:connector-curvature="0"
                 id="path957"
                 d="M 119.014,45.269 C 114.641,36.525 108.491,29.192 100.561,23.272 98.28,21.534 95.7,20.855 92.821,21.235 c -2.879,0.38 -5.16,1.738 -6.844,4.073 -1.738,2.281 -2.403,4.847 -1.996,7.699 0.406,2.853 1.752,5.147 4.033,6.885 5.321,4.019 9.438,8.935 12.342,14.747 2.906,5.811 4.358,12.004 4.358,18.575 0,5.65 -1.1,11.04 -3.299,16.173 -2.2,5.133 -5.174,9.573 -8.922,13.321 -3.748,3.747 -8.187,6.721 -13.32,8.921 -5.133,2.2 -10.524,3.301 -16.173,3.301 -5.648,0 -11.039,-1.101 -16.172,-3.301 -5.133,-2.2 -9.573,-5.174 -13.321,-8.921 -3.747,-3.748 -6.721,-8.188 -8.921,-13.321 -2.2,-5.133 -3.3,-10.523 -3.3,-16.173 0,-6.571 1.453,-12.763 4.359,-18.575 2.906,-5.811 7.02,-10.727 12.343,-14.747 2.281,-1.739 3.625,-4.033 4.033,-6.885 0.407,-2.851 -0.258,-5.418 -1.996,-7.699 -1.684,-2.335 -3.951,-3.693 -6.803,-4.073 -2.852,-0.38 -5.446,0.299 -7.781,2.037 -7.931,5.92 -14.081,13.253 -18.454,21.997 -4.373,8.745 -6.559,18.06 -6.559,27.945 0,8.474 1.657,16.566 4.97,24.279 3.314,7.713 7.767,14.366 13.362,19.961 5.594,5.594 12.248,10.049 19.961,13.36 7.713,3.314 15.806,4.972 24.279,4.972 8.473,0 16.566,-1.658 24.279,-4.972 7.713,-3.312 14.367,-7.766 19.961,-13.36 5.594,-5.594 10.047,-12.248 13.361,-19.961 3.313,-7.713 4.969,-15.806 4.969,-24.279 0,-9.885 -2.183,-19.2 -6.556,-27.945 l 0,0 z" />
            </g>
          </g>
        </g>
      </g>
    </g>
  </g>
</svg>
