<?xml version="1.0" encoding="UTF-8" standalone="no"?>
<!-- Created with Inkscape (http://www.inkscape.org/) -->

<svg
   xmlns:sketch="http://www.bohemiancoding.com/sketch/ns"
   xmlns:dc="http://purl.org/dc/elements/1.1/"
   xmlns:cc="http://creativecommons.org/ns#"
   xmlns:rdf="http://www.w3.org/1999/02/22-rdf-syntax-ns#"
   xmlns:svg="http://www.w3.org/2000/svg"
   xmlns="http://www.w3.org/2000/svg"
   xmlns:sodipodi="http://sodipodi.sourceforge.net/DTD/sodipodi-0.dtd"
   xmlns:inkscape="http://www.inkscape.org/namespaces/inkscape"
   width="32"
   height="32"
   id="svg5453"
   version="1.1"
   inkscape:version="0.91 r13725"
   sodipodi:docname="bookmark-remove.svg"
   viewBox="0 0 32 32">
  <defs
     id="defs5455" />
  <sodipodi:namedview
     id="base"
     pagecolor="#ffffff"
     bordercolor="#666666"
     borderopacity="1.0"
     inkscape:pageopacity="0"
     inkscape:pageshadow="2"
     inkscape:zoom="11.549408"
     inkscape:cx="2.4905335"
     inkscape:cy="14.457393"
     inkscape:document-units="px"
     inkscape:current-layer="layer1"
     showgrid="true"
     fit-margin-top="0"
     fit-margin-left="0"
     fit-margin-right="0"
     fit-margin-bottom="0"
     inkscape:window-width="1366"
     inkscape:window-height="630"
     inkscape:window-x="0"
     inkscape:window-y="36"
     inkscape:window-maximized="1"
     inkscape:showpageshadow="false"
     borderlayer="true"
     showguides="true"
     inkscape:guide-bbox="true"
     inkscape:object-nodes="true"
     inkscape:snap-bbox="true"
     inkscape:snap-global="true">
    <inkscape:grid
       type="xygrid"
       id="grid4063" />
    <sodipodi:guide
       position="4,24"
       orientation="28,0"
       id="guide4280" />
    <sodipodi:guide
       position="13,4"
       orientation="0,28"
       id="guide4282" />
    <sodipodi:guide
       position="28,25"
       orientation="-28,0"
       id="guide4284" />
    <sodipodi:guide
       position="15,28"
       orientation="0,-28"
       id="guide4286" />
  </sodipodi:namedview>
  <metadata
     id="metadata5458">
    <rdf:RDF>
      <cc:Work
         rdf:about="">
        <dc:format>image/svg+xml</dc:format>
        <dc:type
           rdf:resource="http://purl.org/dc/dcmitype/StillImage" />
        <dc:title></dc:title>
      </cc:Work>
    </rdf:RDF>
  </metadata>
  <g
     inkscape:label="Capa 1"
     inkscape:groupmode="layer"
     id="layer1"
     transform="translate(-384.57143,-515.798)">
    <g
       id="star60"
       sketch:type="MSLayerGroup"
       transform="matrix(0.17703162,0,0,0.17703162,388.53319,520.29086)"
       style="fill:#4d4d4d;fill-opacity:1">
      <path
         d="m 135.785,50.457 c 0,-2.01 -1.52,-3.259 -4.564,-3.748 L 90.324,40.762 71.993,3.692 c -1.031,-2.227 -2.363,-3.34 -3.992,-3.34 -1.629,0 -2.96,1.113 -3.992,3.34 L 45.677,40.762 4.778,46.709 c -3.041,0.489 -4.562,1.738 -4.562,3.748 0,1.141 0.679,2.445 2.037,3.911 l 29.656,28.841 -7.006,40.736 c -0.109,0.761 -0.163,1.305 -0.163,1.63 0,1.141 0.285,2.104 0.855,2.893 0.57,0.788 1.425,1.181 2.566,1.181 0.978,0 2.064,-0.324 3.259,-0.977 L 68,109.443 l 36.583,19.229 c 1.142,0.652 2.228,0.977 3.258,0.977 1.089,0 1.916,-0.392 2.486,-1.181 0.569,-0.788 0.854,-1.752 0.854,-2.893 0,-0.706 -0.027,-1.249 -0.082,-1.63 l -7.007,-40.736 29.574,-28.841 c 1.414,-1.412 2.119,-2.716 2.119,-3.911 l 0,0 z"
         id="path2034"
         sketch:type="MSShapeGroup"
         inkscape:connector-curvature="0"
         style="fill:#4d4d4d;fill-opacity:1;stroke:#4d4d4d;stroke-opacity:1" />
    </g>
    <g
       transform="matrix(0.81754204,0,0,0.81754204,390.1976,-321.35382)"
       id="layer1-8"
       inkscape:label="Capa 1">
      <g
         inkscape:label="Capa 1"
         id="layer1-99"
         transform="matrix(0.96260036,0,0,0.96260036,-533.04726,449.15877)">
        <g
           id="g5548"
           sketch:type="MSShapeGroup"
           transform="matrix(0.14300539,0,0,0.14300539,554.04072,610.29161)"
           style="fill:#000000;fill-opacity:0.8">
          <g
             transform="matrix(5.8601665,0,0,5.8601665,-4463.4849,-1083.96)"
             id="layer1-9"
             inkscape:label="Layer 1"
             style="fill:#da4453;fill-opacity:1">
            <g
               inkscape:label="Capa 1"
               id="layer1-2"
               transform="matrix(0.37907185,0,0,0.37907185,615.60988,-10.010196)"
               style="fill:#da4453;fill-opacity:1">
              <g
                 style="fill:#da4453;fill-opacity:1"
                 transform="matrix(0.20663505,0,0,0.20663505,416.2249,531.51293)"
                 sketch:type="MSLayerGroup"
                 id="remove11">
                <path
                   style="fill:#ffffff;fill-opacity:1"
                   inkscape:connector-curvature="0"
                   sketch:type="MSShapeGroup"
                   id="path1028"
                   d="m 68.988857,49.935753 23.953,-23.953 c 1.521,-1.52 2.281,-3.367 2.281,-5.54 0,-2.173 -0.761,-4.019 -2.281,-5.54 l -11.08,-11.0809998 c -1.521,-1.521 -3.367,-2.281 -5.539,-2.281 -2.174,0 -4.02,0.76 -5.541,2.281 l -23.953,23.9529998 -23.953,-23.9529998 c -1.52,-1.521 -3.367,-2.281 -5.54,-2.281 -2.172,0 -4.019,0.76 -5.54,2.281 L 0.7148571,14.902753 c -1.51999992,1.52 -2.2809999,3.367 -2.2809999,5.54 0,2.173 0.75999998,4.019 2.2809999,5.54 l 23.9529999,23.953 -23.9529999,23.953 c -1.51999992,1.521 -2.2809999,3.367 -2.2809999,5.54 0,2.173 0.75999998,4.019 2.2809999,5.54 l 11.0809999,11.08 c 1.521,1.521 3.368,2.281 5.54,2.281 2.173,0 4.019,-0.761 5.54,-2.281 l 23.953,-23.953 23.954,23.953 c 1.521,1.521 3.366,2.281 5.541,2.281 2.172,0 4.019,-0.761 5.539,-2.281 l 11.079,-11.08 c 1.521,-1.52 2.281,-3.367 2.281,-5.54 0,-2.173 -0.76,-4.019 -2.281,-5.54 l -23.953,-23.953 0,0 z" />
              </g>
            </g>
          </g>
        </g>
      </g>
    </g>
  </g>
</svg>
